<svg xmlns="http://www.w3.org/2000/svg" width="256" height="256" viewBox="0 0 256 256" version="1.1">
	<path d="M 75 65 L 75 75 77.750 75.049 C 79.263 75.075, 83.763 75.188, 87.750 75.299 L 95.001 75.500 94.992 70.500 C 94.987 67.750, 94.699 63.138, 94.352 60.250 L 93.721 55 84.361 55 L 75 55 75 65 M 56 86.794 C 56 95.372, 56.001 95.376, 57.963 93.270 C 59.446 91.678, 60.730 91.285, 63.213 91.664 C 65.021 91.940, 66.927 92.578, 67.450 93.083 C 67.973 93.587, 69.660 94, 71.200 94 C 73.579 94, 74.006 94.414, 74.037 96.750 C 74.229 111.036, 75.853 119.827, 78.050 118.469 C 78.907 117.939, 79.427 119.293, 79.118 121.250 C 79.053 121.662, 79.675 122, 80.500 122 C 81.325 122, 81.888 121.481, 81.750 120.847 C 81.580 120.062, 83.310 119.764, 87.161 119.915 C 91.885 120.100, 92.910 119.836, 93.354 118.318 C 94.087 115.813, 95.439 106.662, 95.207 105.777 C 95.103 105.379, 96.251 105.280, 97.759 105.556 C 112.986 108.347, 113.935 108.099, 114.153 101.282 C 114.478 91.136, 113.786 84.489, 112.222 82.726 C 111.356 81.751, 110.389 81.311, 110.074 81.749 C 108.915 83.359, 104.016 86, 102.190 86 C 100.154 86, 97 83.065, 97 81.171 C 97 80.527, 96.550 80, 96 80 C 95.433 80, 94.994 82.926, 94.986 86.750 C 94.965 97.124, 94.460 98.245, 90.116 97.560 C 88.127 97.247, 84.372 96.799, 81.770 96.567 C 79.169 96.334, 76.641 95.896, 76.153 95.595 C 75.665 95.293, 75.046 91.615, 74.777 87.421 C 74.457 82.447, 73.803 79.483, 72.894 78.897 C 71.460 77.973, 64.466 78.201, 63.462 79.204 C 63.153 79.514, 61.347 79.417, 59.450 78.989 L 56 78.211 56 86.794 M 83 121.799 C 83 122.239, 84.688 122.431, 86.750 122.227 C 92.555 121.651, 92.978 121.166, 87.750 121.079 C 85.138 121.036, 83 121.360, 83 121.799" stroke="none" fill="black" fill-rule="evenodd"/>
</svg>