<svg xmlns="http://www.w3.org/2000/svg" width="256" height="256" viewBox="0 0 256 256" version="1.1">
	<path d="M 64.500 19.901 C 61.200 20.230, 58.493 20.950, 58.484 21.500 C 58.475 22.050, 58.052 25.875, 57.544 30 C 57.036 34.125, 56.594 41.775, 56.560 47 L 56.500 56.500 48 57 L 39.500 57.500 39.254 61.500 C 39.119 63.700, 38.749 67.862, 38.432 70.750 L 37.856 76 28.388 76 L 18.919 76 19.210 84.240 L 19.500 92.479 27 92.597 C 37.640 92.764, 38 92.465, 38 83.465 L 38 76 47.929 76 C 60.066 76, 61.241 75.267, 59.817 68.588 C 59.289 66.116, 59.003 62.835, 59.179 61.297 C 59.574 57.859, 61.629 57.493, 80.500 57.497 L 93.500 57.500 93.789 66.866 C 94.154 78.693, 92.129 82.712, 87.319 79.706 C 86.670 79.300, 85.856 79.425, 85.510 79.984 C 84.627 81.413, 81.268 81.251, 80.662 79.750 C 80.259 78.750, 80.142 78.750, 80.079 79.750 C 80.036 80.438, 79.392 81, 78.649 81 C 77.018 81, 75.840 94.368, 76.687 103.252 L 77.236 109.003 73.650 110.502 C 71.678 111.326, 68.115 112, 65.732 112 C 60.281 112, 59 113.289, 59 118.771 C 59 124.304, 60.975 126.373, 66.381 126.503 C 68.646 126.558, 71.358 126.992, 72.406 127.468 C 75.611 128.924, 78 124.859, 78 117.948 C 78 114.674, 78.498 111.810, 79.136 111.416 C 80.985 110.273, 93.677 109.668, 94.310 110.692 C 94.630 111.210, 95.186 114.754, 95.547 118.567 C 95.907 122.380, 96.386 125.692, 96.611 125.927 C 96.837 126.162, 100.225 126.268, 104.141 126.163 C 113.989 125.899, 114.256 126.227, 113.847 138.121 C 113.664 143.470, 113.746 148.079, 114.030 148.364 C 114.315 148.648, 122.862 148.967, 133.024 149.072 L 151.500 149.264 152.037 140.382 C 152.450 133.568, 152.255 131.227, 151.202 130.327 C 150.447 129.682, 146.380 128.839, 142.165 128.453 C 137.949 128.067, 133.285 127.132, 131.800 126.376 C 130.273 125.598, 126.069 125, 122.129 125 L 115.159 125 114.351 121.750 C 113.907 119.963, 113.534 100.516, 113.522 78.536 L 113.500 38.573 102.500 38.290 C 92.972 38.045, 80.953 37.482, 77.389 37.115 C 76.659 37.039, 76.316 34.004, 76.389 28.250 L 76.500 19.500 73.500 19.401 C 71.850 19.346, 67.800 19.571, 64.500 19.901 M 47.531 127.796 C 42.694 127.976, 39.268 128.565, 38.815 129.296 C 38.307 130.116, 35.030 130.453, 28.535 130.352 L 19 130.204 19 137.477 C 19 141.477, 19.275 146.126, 19.612 147.808 C 20.134 150.419, 20.535 150.753, 22.362 150.097 C 23.538 149.674, 31.988 149.514, 41.141 149.740 L 57.782 150.153 58.382 143.327 C 58.711 139.572, 59.089 134.475, 59.221 132 C 59.493 126.905, 60.620 127.310, 47.531 127.796 M 11.439 206.317 C 10.596 208.491, 12.017 210.226, 13.758 209.149 C 14.730 208.549, 14.690 207.960, 13.571 206.441 C 12.209 204.590, 12.110 204.584, 11.439 206.317 M 242 247.427 C 242 248.354, 242.855 249, 244.083 249 C 246.520 249, 246.176 246.663, 243.667 246.177 C 242.680 245.985, 242 246.495, 242 247.427" stroke="none" fill="black" fill-rule="evenodd"/>
</svg>