<svg xmlns="http://www.w3.org/2000/svg" width="256" height="256" viewBox="0 0 256 256" version="1.1">
	<path d="M 42.546 19.992 C 38.130 20.445, 37.573 20.771, 37.410 23 C 37.309 24.375, 36.913 28.700, 36.529 32.611 C 35.965 38.367, 36.109 39.828, 37.285 40.279 C 38.084 40.586, 53.759 40.699, 72.119 40.531 C 103.067 40.247, 125.588 41.391, 128.860 43.413 C 130.144 44.207, 134.981 42.006, 135.065 40.589 C 135.461 33.938, 135.226 22.174, 134.680 21.291 C 134.187 20.493, 122.800 20.092, 95.741 19.921 C 74.709 19.788, 55.250 19.635, 52.500 19.582 C 49.750 19.529, 45.271 19.713, 42.546 19.992 M 62.500 66.070 C 50.773 66.949, 47 67.775, 47 69.462 C 47 70.137, 46.100 71.505, 45 72.500 C 43.900 73.495, 43 75.365, 43 76.655 C 43 77.945, 42.550 79, 42 79 C 41.450 79, 41 79.594, 41 80.320 C 41 81.045, 39.763 82.733, 38.250 84.070 L 35.500 86.500 77.623 86.761 C 120.041 87.023, 127.846 86.574, 127.108 83.912 C 126.893 83.136, 126.668 78.675, 126.608 74 L 126.500 65.500 99.500 65.410 C 84.650 65.360, 68 65.657, 62.500 66.070 M 62.667 110.636 C 62.575 110.710, 56.200 111.059, 48.500 111.411 C 27.283 112.380, 19.878 113.136, 19.480 114.375 C 18.751 116.643, 18.377 130.992, 19.020 132.033 C 19.429 132.695, 26.127 133.294, 36.507 133.596 C 45.760 133.866, 53.675 134.299, 54.096 134.559 C 54.517 134.820, 55.102 134.644, 55.395 134.169 C 55.835 133.458, 60.340 133.476, 68.750 134.222 C 69.438 134.283, 70.036 135.046, 70.079 135.917 C 70.130 136.936, 70.337 137.058, 70.659 136.259 C 71.039 135.318, 71.522 135.379, 72.652 136.509 C 73.919 137.776, 73.936 138.207, 72.765 139.378 C 72.007 140.136, 69.950 141.072, 68.193 141.458 C 64.725 142.219, 63.535 145.745, 66.750 145.733 C 70.931 145.716, 71.310 145.922, 70 147.500 C 68.960 148.753, 69.104 149, 70.878 149 C 72.045 149, 73 149.401, 73 149.890 C 73 150.380, 78.308 150.849, 84.796 150.933 L 96.593 151.086 99.296 148.052 C 100.783 146.383, 102 144.563, 102 144.009 C 102 143.454, 102.473 143, 103.052 143 C 103.630 143, 102.842 141.812, 101.302 140.360 C 99.472 138.636, 98.934 137.566, 99.750 137.276 C 100.438 137.033, 101.007 136.083, 101.015 135.167 C 101.027 133.844, 101.209 133.781, 101.894 134.863 C 102.504 135.825, 102.872 135.883, 103.147 135.059 C 103.646 133.561, 107.027 133.015, 109.119 134.095 C 110.009 134.554, 111.060 134.608, 111.455 134.215 C 112.762 132.914, 117.488 133.461, 118.180 134.994 C 118.740 136.236, 118.872 136.195, 118.930 134.761 C 119.036 132.123, 123.969 132.797, 124.100 135.468 C 124.184 137.189, 124.322 137.118, 125 135 L 125.801 132.500 125.900 135.321 C 125.955 136.873, 125.381 138.762, 124.624 139.519 C 122.821 141.322, 119.018 141, 118.937 139.037 C 118.898 138.111, 118.514 138.395, 117.969 139.750 C 117.471 140.988, 116.487 142.037, 115.782 142.082 C 115.077 142.126, 116.075 142.881, 118 143.759 C 119.925 144.637, 122.099 145.247, 122.830 145.115 C 123.562 144.983, 125.157 145.528, 126.374 146.325 C 128.202 147.523, 128.895 147.550, 130.360 146.479 C 131.335 145.766, 132.216 144.816, 132.317 144.368 C 132.417 143.920, 133.498 143.684, 134.718 143.844 C 135.938 144.004, 137.738 143.668, 138.718 143.098 C 140.319 142.166, 140.330 142.058, 138.821 142.030 C 137.898 142.014, 136.436 141.293, 135.571 140.429 C 134.143 139, 134 139, 134 140.429 C 134 142.647, 132.515 142.382, 129.552 139.635 C 126.656 136.952, 126.494 136.334, 128.250 134.679 C 129.763 133.252, 134 132.891, 134 134.189 C 134 134.700, 134.503 134.807, 135.119 134.427 C 135.734 134.046, 137.534 133.625, 139.119 133.490 C 141.421 133.294, 142 133.649, 142 135.257 C 142 137.077, 142.198 137.018, 144.063 134.648 C 145.764 132.485, 146.128 130.577, 146.143 123.763 C 146.153 119.218, 146.125 114.976, 146.081 114.335 C 146.032 113.632, 143.523 112.999, 139.750 112.738 C 136.313 112.500, 132.375 111.904, 131 111.414 C 129.096 110.735, 63.464 109.988, 62.667 110.636 M 106.762 142.707 C 108.006 142.946, 109.806 142.937, 110.762 142.687 C 111.718 142.437, 110.700 142.241, 108.500 142.252 C 106.300 142.263, 105.518 142.468, 106.762 142.707 M 134.346 146.134 C 135.670 146.903, 136.505 146.895, 137.296 146.104 C 138.101 145.299, 137.601 145.008, 135.450 145.030 C 132.864 145.057, 132.728 145.193, 134.346 146.134 M 12 207 C 12 207.550, 12.477 208, 13.059 208 C 13.641 208, 13.840 207.550, 13.500 207 C 13.160 206.450, 12.684 206, 12.441 206 C 12.198 206, 12 206.450, 12 207 M 27.558 206.775 C 26.302 208.031, 27.147 209, 29.500 209 C 30.875 209, 32 208.602, 32 208.117 C 32 207.069, 28.362 205.971, 27.558 206.775 M 109.948 206.359 C 109.701 206.590, 107.516 207.051, 105.090 207.383 C 98.101 208.339, 99.018 209, 107.333 209 C 111.778 209, 115 208.580, 115 208 C 115 207.450, 114.587 207, 114.082 207 C 113.577 207, 112.541 206.761, 111.780 206.469 C 111.018 206.177, 110.194 206.127, 109.948 206.359 M 34.500 208 C 34.149 208.567, 34.990 209, 36.441 209 C 37.848 209, 39 208.550, 39 208 C 39 207.450, 38.127 207, 37.059 207 C 35.991 207, 34.840 207.450, 34.500 208 M 67 208 C 67 208.550, 67.900 209, 69 209 C 70.100 209, 71 208.550, 71 208 C 71 207.450, 70.100 207, 69 207 C 67.900 207, 67 207.450, 67 208 M 108.813 222.683 C 109.534 222.972, 110.397 222.936, 110.729 222.604 C 111.061 222.272, 110.471 222.036, 109.417 222.079 C 108.252 222.127, 108.015 222.364, 108.813 222.683 M 243 247.500 C 243 248.325, 243.450 249, 244 249 C 244.550 249, 245 248.325, 245 247.500 C 245 246.675, 244.550 246, 244 246 C 243.450 246, 243 246.675, 243 247.500" stroke="none" fill="black" fill-rule="evenodd"/>
</svg>