<svg xmlns="http://www.w3.org/2000/svg" width="256" height="256" viewBox="0 0 256 256" version="1.1">
	<path d="M 17.677 18.657 C 16.685 19.648, 16.849 36.789, 17.856 37.411 C 18.327 37.702, 30.557 37.999, 45.034 38.070 C 59.511 38.141, 71.902 38.409, 72.569 38.665 C 73.503 39.023, 73.750 52.144, 73.640 95.566 L 73.497 152.002 82.932 151.484 C 88.121 151.199, 92.622 150.712, 92.933 150.401 C 93.245 150.090, 93.627 134.910, 93.781 116.668 C 93.936 98.426, 94.223 83.033, 94.418 82.462 C 94.633 81.838, 97.932 81.509, 102.703 81.635 C 107.063 81.751, 111.102 81.543, 111.678 81.173 C 112.254 80.803, 112.947 76.148, 113.219 70.829 C 113.789 59.669, 114.640 60.521, 102.507 60.114 C 98.110 59.967, 94.436 59.769, 94.343 59.673 C 93.585 58.903, 93.748 38.874, 94.518 38.185 C 95.067 37.692, 99.464 37.649, 104.500 38.086 C 111.396 38.685, 142.933 39.321, 151.750 39.040 C 152.663 39.011, 153 36.334, 153 29.109 L 153 19.217 130.250 18.756 C 92.778 17.996, 18.403 17.931, 17.677 18.657 M 114.626 82.802 C 114.391 83.186, 114.041 88.225, 113.849 94 L 113.500 104.500 117.711 104.236 C 120.027 104.091, 123.795 104.393, 126.084 104.908 C 132.855 106.429, 133 106.190, 133 93.530 L 133 82.274 124.027 82.189 C 119.091 82.143, 114.861 82.419, 114.626 82.802 M 243 247.500 C 243 248.325, 243.450 249, 244 249 C 244.550 249, 245 248.325, 245 247.500 C 245 246.675, 244.550 246, 244 246 C 243.450 246, 243 246.675, 243 247.500" stroke="none" fill="black" fill-rule="evenodd"/>
</svg>