<svg xmlns="http://www.w3.org/2000/svg" width="256" height="256" viewBox="0 0 256 256" version="1.1">
	<path d="M 73.744 18.589 C 73.496 18.837, 69.515 19.144, 64.897 19.270 L 56.500 19.500 56.347 22.500 C 56.264 24.150, 56.107 31.881, 55.999 39.681 C 55.833 51.789, 55.563 53.966, 54.152 54.580 C 53.243 54.975, 45.525 55.478, 37 55.698 C 28.475 55.918, 21.004 56.261, 20.397 56.461 C 19.368 56.800, 19.085 72.510, 20.093 73.365 C 20.317 73.555, 22.750 73.426, 25.500 73.078 C 28.296 72.725, 33.145 72.994, 36.500 73.688 C 39.800 74.371, 45.324 74.946, 48.775 74.965 C 54.616 74.998, 55.119 75.182, 56.049 77.630 C 56.609 79.101, 56.928 87.145, 56.775 95.880 L 56.500 111.500 50 112.081 C 40.326 112.945, 39.162 113.524, 38.490 117.806 C 36.920 127.803, 37.283 127.422, 28.584 128.214 C 24.269 128.607, 20.460 129.207, 20.119 129.547 C 19.779 129.887, 19.500 134.894, 19.500 140.675 L 19.500 151.184 28.339 151.588 C 33.201 151.810, 37.588 152.246, 38.089 152.555 C 38.924 153.071, 39.472 144.446, 39.031 137.750 C 38.853 135.058, 38.973 134.997, 44.675 134.861 C 47.879 134.785, 51.900 134.794, 53.611 134.881 C 55.322 134.969, 57.216 134.444, 57.821 133.716 C 58.425 132.988, 59.050 128.157, 59.210 122.980 L 59.500 113.569 67.702 113.499 C 72.214 113.460, 76.209 113.124, 76.582 112.751 C 76.955 112.378, 77.251 104.069, 77.240 94.287 C 77.220 75.225, 77.778 72.275, 81.070 74.038 C 82.163 74.622, 85.531 75, 88.556 74.878 C 91.581 74.756, 94.429 75.071, 94.885 75.578 C 95.887 76.692, 98.003 96.209, 98.001 104.312 C 98 111.012, 100.611 120, 102.558 120 C 103.289 120, 104.558 119.041, 105.380 117.869 C 107.107 115.403, 110.229 116, 109.949 118.743 C 109.850 119.709, 109.887 120.950, 110.030 121.500 C 110.692 124.044, 111.163 130.394, 111.439 140.500 L 111.739 151.500 132.619 151.500 L 153.500 151.500 153.421 142 C 153.333 131.354, 152.941 128, 151.787 128 C 151.354 128, 150.775 128, 150.500 128 C 150.225 128, 149.920 128.338, 149.821 128.750 C 149.261 131.104, 146.570 132, 140.060 132 L 132.976 132 133.548 128.250 C 133.862 126.188, 133.621 121.350, 133.011 117.500 C 132.402 113.650, 131.637 107.575, 131.311 104 C 130.668 96.934, 129.660 95.680, 124.500 95.522 C 119.274 95.362, 118.065 93.980, 117.456 87.464 C 117.149 84.184, 116.712 80.587, 116.485 79.471 C 116.258 78.355, 115.772 72.505, 115.405 66.471 C 115.038 60.437, 114.346 54.742, 113.868 53.816 C 113.391 52.889, 112.994 50.864, 112.986 49.316 C 112.957 43.273, 112.107 42.113, 107.647 42.031 C 96.106 41.820, 86.076 42.014, 82.378 42.520 C 77.293 43.216, 77.033 42.555, 77.014 28.857 C 77.003 21.516, 76.665 19.086, 75.598 18.676 C 74.827 18.380, 73.993 18.341, 73.744 18.589 M 101 124.559 C 101 125.416, 101.450 125.840, 102 125.500 C 102.550 125.160, 103 124.459, 103 123.941 C 103 123.423, 102.550 123, 102 123 C 101.450 123, 101 123.702, 101 124.559 M 11.380 206.452 C 10.611 208.455, 11.752 210, 14 210 C 16.646 210, 17.301 208.444, 15.438 206.581 C 13.469 204.612, 12.103 204.568, 11.380 206.452 M 14 215.941 C 14 218.456, 15.614 219.448, 16.395 217.412 C 17.353 214.916, 17.113 214, 15.500 214 C 14.675 214, 14 214.873, 14 215.941 M 241.459 247.067 C 240.399 248.781, 242.054 249.384, 247 249.087 C 249.417 248.941, 249.436 248.888, 247.559 247.468 C 245.281 245.745, 242.393 245.555, 241.459 247.067" stroke="none" fill="black" fill-rule="evenodd"/>
</svg>