<svg xmlns="http://www.w3.org/2000/svg" width="256" height="256" viewBox="0 0 256 256" version="1.1">
	<path d="M 39.032 22.184 C 37.264 22.838, 37.196 24.833, 37.503 67.434 C 37.743 100.763, 37.531 112.025, 36.662 112.100 C 36.023 112.155, 31.788 112.117, 27.250 112.015 L 19 111.830 19.015 120.665 C 19.024 125.524, 19.409 130.097, 19.872 130.827 C 20.532 131.869, 24.721 132.095, 39.357 131.880 L 58 131.605 58 123.737 C 58 119.409, 57.546 115.019, 56.990 113.981 C 56.109 112.335, 56.431 112.010, 59.514 111.431 C 61.457 111.067, 65.514 111.003, 68.529 111.289 C 75.065 111.909, 75.067 111.905, 74.725 99 L 74.500 90.500 66.312 90.800 C 59.034 91.066, 58.007 90.882, 57.076 89.143 C 56.429 87.932, 56.039 78.094, 56.055 63.343 C 56.077 43.013, 55.652 23.792, 55.142 22 C 54.927 21.244, 41.148 21.401, 39.032 22.184 M 133.705 22.629 C 133.359 22.974, 129.281 23.182, 124.643 23.091 L 116.209 22.925 115.622 36.212 C 115.300 43.521, 115.140 58.679, 115.268 69.897 L 115.500 90.294 124.500 90.101 C 130.874 89.965, 133.814 89.499, 134.575 88.503 C 135.592 87.172, 135.748 23.415, 134.737 22.404 C 134.515 22.182, 134.050 22.283, 133.705 22.629 M 76.757 46.268 C 76.514 46.946, 76.209 54.776, 76.080 63.668 L 75.845 79.837 83.173 80.214 C 87.203 80.422, 91.213 80.928, 92.083 81.339 C 93.085 81.812, 93.704 81.611, 93.769 80.793 C 94.914 66.323, 94.522 50.463, 92.958 47.932 C 92.481 47.160, 91.519 47.005, 90.351 47.513 C 89.333 47.956, 88.059 48.212, 87.520 48.082 C 86.981 47.953, 85.335 47.694, 83.862 47.508 C 82.389 47.321, 80.288 46.689, 79.192 46.103 C 77.716 45.313, 77.085 45.356, 76.757 46.268 M 100.009 94.741 C 98.089 94.973, 96.183 95.689, 95.774 96.331 C 95.365 96.974, 95.024 103.631, 95.015 111.125 C 95.007 118.619, 94.717 126.166, 94.370 127.898 C 93.815 130.675, 93.374 131.024, 90.620 130.866 C 88.904 130.768, 81.160 131.029, 73.412 131.448 L 59.323 132.208 59.635 141.244 C 59.806 146.214, 60.099 150.433, 60.286 150.620 C 60.473 150.807, 62.586 150.625, 64.981 150.216 C 68.548 149.607, 69.367 149.061, 69.504 147.201 C 69.752 143.827, 71.597 142.445, 71.416 145.768 C 71.160 150.476, 72.383 151, 83.622 151 L 94 151 94 141.700 C 94 135.800, 94.439 131.961, 95.200 131.200 C 96.668 129.732, 106.864 129.618, 110.575 131.028 C 112.616 131.804, 113.675 131.720, 114.890 130.686 C 116.013 129.729, 118.724 129.400, 123.858 129.599 C 127.905 129.755, 131.393 130.059, 131.609 130.275 C 131.824 130.491, 132.038 135.242, 132.083 140.834 L 132.165 151 142.455 151 L 152.744 151 152.522 141.250 L 152.300 131.500 142.650 131.673 L 133 131.845 133.002 121.673 L 133.005 111.500 124.359 111.828 C 114.407 112.205, 113.685 111.717, 114.614 105.257 C 114.950 102.923, 114.929 99.435, 114.567 97.507 C 113.910 94.004, 113.904 94, 108.705 94.160 C 105.842 94.248, 101.929 94.510, 100.009 94.741 M 133 176 C 133 176.550, 133.927 177, 135.059 177 C 136.191 177, 136.840 176.550, 136.500 176 C 136.160 175.450, 135.234 175, 134.441 175 C 133.648 175, 133 175.450, 133 176 M 243.010 247.488 C 241.933 248.785, 242.222 249, 245.044 249 C 246.853 249, 248.146 248.873, 247.917 248.717 C 247.688 248.561, 246.772 247.881, 245.883 247.205 C 244.579 246.214, 244.022 246.269, 243.010 247.488" stroke="none" fill="black" fill-rule="evenodd"/>
</svg>