<svg xmlns="http://www.w3.org/2000/svg" width="256" height="256" viewBox="0 0 256 256" version="1.1">
	<path d="M 65.500 17.996 L 57.500 18.500 57.577 27.716 L 57.654 36.932 48.077 37.216 L 38.500 37.500 38.214 47.213 L 37.928 56.926 28.714 57.213 L 19.500 57.500 19.500 66.500 L 19.500 75.500 28.611 75.786 L 37.723 76.071 38.327 81.858 C 38.660 85.040, 38.666 89.282, 38.341 91.284 L 37.751 94.925 47.625 95.212 L 57.500 95.500 57.738 103.500 C 57.869 107.900, 58.034 115.888, 58.105 121.250 C 58.176 126.612, 58.599 131, 59.045 131 C 59.492 131, 60.564 130.293, 61.429 129.429 C 62.293 128.564, 63 128.334, 63 128.917 C 63 129.500, 64.125 129.884, 65.500 129.771 C 66.875 129.657, 68 129.212, 68 128.782 C 68 128.352, 68.645 128, 69.433 128 C 70.221 128, 71.153 127.093, 71.505 125.985 C 71.856 124.877, 72.562 124.229, 73.072 124.544 C 73.582 124.860, 74.056 124.079, 74.125 122.809 C 74.451 116.763, 76.377 132.759, 76.434 142 L 76.500 152.500 86.750 152.186 L 97 151.871 97 146.075 C 97 142.887, 97.293 138.143, 97.651 135.533 L 98.301 130.786 104.401 131.294 C 107.755 131.573, 111.513 132.124, 112.750 132.518 C 114.914 133.206, 115 133.003, 115 127.176 C 115 123.844, 114.550 120.840, 114 120.500 C 113.450 120.160, 113 119.024, 113 117.976 C 113 114.241, 116.395 113.664, 134.231 114.365 L 151.040 115.026 151.910 112.738 C 152.388 111.480, 152.716 106.861, 152.640 102.475 L 152.500 94.500 143.012 94.212 C 137.793 94.053, 133.116 93.516, 132.617 93.017 C 132.076 92.476, 132.149 90.982, 132.799 89.306 C 133.397 87.763, 133.744 84.250, 133.571 81.500 C 133.385 78.564, 133.718 76.197, 134.377 75.765 C 134.995 75.361, 139.380 75.024, 144.122 75.015 L 152.744 75 150.850 67.940 C 149.809 64.056, 149.228 60.440, 149.560 59.903 C 149.916 59.327, 148.782 59.019, 146.794 59.153 C 144.941 59.278, 142.766 58.959, 141.962 58.444 C 139.729 57.014, 130.149 55.150, 124 54.948 C 120.975 54.849, 119.400 54.547, 120.500 54.276 C 121.600 54.006, 123.063 53.328, 123.750 52.770 C 124.635 52.051, 125.004 52.155, 125.015 53.128 C 125.028 54.246, 125.199 54.234, 125.939 53.064 C 126.700 51.862, 127.109 51.845, 128.455 52.963 C 129.818 54.094, 130.265 54.020, 131.394 52.476 C 132.656 50.751, 132.896 47.366, 133.348 25 L 133.500 17.500 103.500 17.496 C 87 17.493, 69.900 17.718, 65.500 17.996 M 110.500 55 C 110.840 55.550, 111.316 56, 111.559 56 C 111.802 56, 112 55.550, 112 55 C 112 54.450, 111.523 54, 110.941 54 C 110.359 54, 110.160 54.450, 110.500 55 M 38.212 66.215 L 38.500 75.500 48.311 75.500 L 58.123 75.500 58.287 66.500 L 58.451 57.500 48.187 57.215 L 37.924 56.929 38.212 66.215 M 97.212 85.250 L 97.500 94.500 103 94.813 C 106.025 94.985, 109.963 94.852, 111.750 94.517 L 115 93.909 115 84.955 L 115 76 105.962 76 L 96.925 76 97.212 85.250 M 74.030 94.450 C 74.008 96.601, 74.299 97.101, 75.104 96.296 C 75.895 95.505, 75.903 94.670, 75.134 93.346 C 74.193 91.728, 74.057 91.864, 74.030 94.450 M 19.455 105.146 C 19.732 110.177, 20.115 114.449, 20.306 114.639 C 20.496 114.830, 24.668 114.651, 29.576 114.243 L 38.500 113.500 38.634 105.500 C 38.718 100.495, 38.343 97.225, 37.634 96.765 C 37.010 96.361, 32.551 96.024, 27.725 96.015 L 18.950 96 19.455 105.146 M 98 118.379 C 98 120.126, 98.863 121.106, 101.250 122.072 C 103.037 122.795, 104.797 123.822, 105.159 124.355 C 106.164 125.832, 108.940 122.549, 109.638 119.058 L 110.250 116 104.125 116 C 98.342 116, 98 116.133, 98 118.379 M 53.500 132.972 C 50.750 133.369, 42.087 133.650, 34.250 133.597 L 20 133.500 20.003 143 L 20.006 152.500 38.753 152.459 L 57.500 152.417 58 142.206 C 58.275 136.590, 58.500 132.053, 58.500 132.122 C 58.500 132.192, 56.250 132.575, 53.500 132.972 M 115.817 142.273 C 115.642 147.098, 115.612 151.373, 115.749 151.773 C 116.077 152.730, 151.204 152.225, 152.050 151.251 C 152.408 150.838, 152.431 146.675, 152.101 142 L 151.500 133.500 133.817 133.500 L 116.133 133.500 115.817 142.273 M 243.525 246.960 C 242.677 248.332, 243.428 249.362, 244.905 248.854 C 245.511 248.646, 245.588 247.940, 245.093 247.143 C 244.468 246.137, 244.063 246.090, 243.525 246.960" stroke="none" fill="black" fill-rule="evenodd"/>
</svg>