<svg xmlns="http://www.w3.org/2000/svg" width="256" height="256" viewBox="0 0 256 256" version="1.1">
	<path d="M 64 18.721 L 56.500 19.073 56.842 28.396 C 57.241 39.278, 57.584 38.963, 45.289 38.986 L 38.078 39 37.789 47.657 L 37.500 56.314 28.250 56.323 C 22.335 56.328, 18.965 56.722, 18.904 57.416 C 18.610 60.719, 19.033 75.367, 19.434 75.767 C 19.694 76.028, 23.866 76.299, 28.704 76.370 L 37.500 76.500 37.717 114 L 37.934 151.500 49.717 151.674 C 94.823 152.339, 134.105 152.571, 143.246 152.225 C 153.865 151.823, 153.986 151.791, 153.417 149.527 C 153.101 148.267, 152.720 133.795, 152.570 117.368 C 152.420 100.941, 152.224 80.525, 152.133 72 C 152.043 63.475, 151.566 55.862, 151.072 55.083 C 150.239 53.767, 143.129 53.426, 136.500 54.384 C 133.809 54.773, 132.130 59.903, 132.043 68 C 131.963 75.413, 131.175 79.226, 129.888 78.431 C 129.401 78.130, 125.828 77.736, 121.947 77.555 C 118.067 77.374, 114.607 76.940, 114.259 76.592 C 113.910 76.244, 113.597 63.271, 113.563 47.765 L 113.500 19.571 104.500 19.757 C 99.550 19.859, 95.237 19.955, 94.915 19.971 C 94.594 19.987, 94.249 33.163, 94.149 49.250 C 94.049 65.338, 93.576 80.300, 93.098 82.500 C 92.230 86.500, 91.627 86.414, 91.950 82.337 C 92.184 79.364, 90.133 78.783, 76.786 78.040 C 76.394 78.018, 75.944 73.612, 75.786 68.250 L 75.500 58.500 68 58.445 C 55.911 58.355, 57 59.389, 57 48 C 57 39.165, 57.204 37.993, 58.750 37.942 C 59.712 37.910, 63.875 37.798, 68 37.692 L 75.500 37.500 75.500 28 C 75.500 17.150, 76.709 18.125, 64 18.721 M 76.951 84.559 C 76.009 85.694, 76.046 86.003, 77.128 86.015 C 78.216 86.027, 78.235 86.199, 77.220 86.843 C 76.253 87.457, 75.886 93.141, 75.720 110.078 L 75.500 132.500 84.500 132.500 L 93.500 132.500 93.784 113 C 94.135 88.855, 94.131 88.832, 89.233 89.607 C 87.180 89.932, 85.179 90.395, 84.786 90.635 C 83.608 91.358, 79.805 86.950, 80.360 85.505 C 81.093 83.593, 78.378 82.840, 76.951 84.559 M 129.211 88.607 C 128.402 89.480, 125.790 90.006, 122.211 90.015 C 119.070 90.024, 115.862 90.435, 115.081 90.929 C 113.964 91.635, 113.593 95.620, 113.334 109.663 C 113.152 119.473, 112.771 128.120, 112.485 128.877 C 111.391 131.777, 114.077 133, 121.541 133 C 125.553 133, 129.516 132.739, 130.347 132.420 C 131.620 131.932, 131.870 128.746, 131.934 112.170 C 132.015 91.191, 131.438 86.201, 129.211 88.607 M 242.029 246.961 C 239.748 248.403, 241.792 249.402, 246.441 249.118 C 248.363 249.001, 248.363 248.985, 246.441 247.532 C 244.133 245.786, 243.929 245.760, 242.029 246.961" stroke="none" fill="black" fill-rule="evenodd"/>
</svg>