<svg xmlns="http://www.w3.org/2000/svg" width="256" height="256" viewBox="0 0 256 256" version="1.1">
	<path d="M 56.927 19.715 C 56.887 20.147, 56.774 24.775, 56.677 30 L 56.500 39.500 47.288 39.787 L 38.077 40.074 37.788 48.787 L 37.500 57.500 27.266 57.785 L 17.031 58.070 17.580 65.785 C 18.494 78.657, 17.594 77.647, 28.028 77.500 C 33.024 77.429, 37.375 77.798, 37.698 78.320 C 38.424 79.494, 38.149 148.950, 37.414 150.140 C 37.121 150.613, 42.196 151.013, 48.691 151.028 C 55.186 151.044, 80.989 151.321, 106.030 151.645 C 143.849 152.134, 151.752 152.003, 152.689 150.867 C 153.436 149.962, 153.632 146.544, 153.268 140.750 L 152.718 132 133.418 132 C 122.403 132, 113.868 131.595, 113.535 131.057 C 113.214 130.538, 113.473 125.025, 114.110 118.807 C 114.746 112.588, 115.320 104.800, 115.384 101.500 L 115.500 95.500 123 95.397 C 127.125 95.341, 130.725 95.210, 131 95.106 C 131.275 95.003, 136.450 94.669, 142.500 94.364 C 148.550 94.060, 153.696 93.620, 153.935 93.387 C 154.745 92.598, 154.064 77.664, 153.178 76.778 C 152.694 76.294, 144.244 75.809, 134.399 75.699 L 116.500 75.500 116.208 68.925 C 116.048 65.308, 116.376 61.143, 116.936 59.667 L 117.956 56.985 126.478 57.640 L 135 58.295 135.044 52.398 C 135.068 49.154, 135.457 44.588, 135.909 42.250 L 136.731 38 127.616 37.985 C 122.602 37.976, 118.032 37.639, 117.459 37.235 C 116.875 36.822, 116.440 32.885, 116.468 28.250 L 116.516 20 107.008 19.999 L 97.500 19.997 97.500 29.249 L 97.500 38.500 87.659 38.787 L 77.818 39.075 78.368 44.787 C 78.670 47.929, 78.936 51.737, 78.959 53.250 L 79 56 88 56 L 97 56 97 66.500 L 97 77 84.750 77.008 C 78.013 77.012, 69.618 77.483, 66.097 78.054 C 62.575 78.626, 59.366 78.735, 58.966 78.297 C 58.565 77.858, 57.999 68.838, 57.707 58.250 L 57.177 39 65.023 39 C 69.339 39, 74.042 38.554, 75.474 38.010 C 78.039 37.035, 78.074 36.889, 77.789 28.260 L 77.500 19.500 67.250 19.215 C 61.612 19.058, 56.967 19.283, 56.927 19.715 M 140.813 32.683 C 141.534 32.972, 142.397 32.936, 142.729 32.604 C 143.061 32.272, 142.471 32.036, 141.417 32.079 C 140.252 32.127, 140.015 32.364, 140.813 32.683 M 140.079 35.250 C 140.036 36.212, 140.675 37, 141.500 37 C 142.325 37, 143 36.523, 143 35.941 C 143 35.359, 142.588 35.136, 142.085 35.447 C 141.582 35.758, 140.943 35.447, 140.664 34.756 C 140.359 33.998, 140.127 34.194, 140.079 35.250 M 150 36 C 150 36.550, 150.477 37, 151.059 37 C 151.641 37, 151.840 36.550, 151.500 36 C 151.160 35.450, 150.684 35, 150.441 35 C 150.198 35, 150 35.450, 150 36 M 75.413 97.250 C 74.187 98.213, 71.825 99, 70.164 99 C 68.502 99, 66.423 99.720, 65.544 100.599 C 64.339 101.804, 63.612 101.923, 62.599 101.082 C 61.859 100.468, 60.510 100.251, 59.602 100.599 C 58.147 101.157, 57.983 103.096, 58.225 116.867 L 58.500 132.500 66.500 132.157 C 70.900 131.969, 79.450 131.744, 85.500 131.657 L 96.500 131.500 96.394 128 C 96.335 126.075, 95.941 117.975, 95.516 110 L 94.745 95.500 86.193 95.500 C 79.564 95.500, 77.140 95.893, 75.413 97.250 M 120.003 99.719 C 120.001 101.411, 120.415 101.784, 121.750 101.292 C 122.713 100.936, 123.831 100.163, 124.235 99.573 C 124.729 98.851, 124.974 98.842, 124.985 99.546 C 124.993 100.121, 126.479 100.691, 128.286 100.813 C 130.938 100.991, 131.601 100.648, 131.723 99.033 C 131.860 97.215, 131.329 97.053, 125.939 97.266 C 120.549 97.479, 120.005 97.703, 120.003 99.719 M 133.813 98.683 C 134.534 98.972, 135.397 98.936, 135.729 98.604 C 136.061 98.272, 135.471 98.036, 134.417 98.079 C 133.252 98.127, 133.015 98.364, 133.813 98.683 M 243.350 246.530 C 243.060 247.286, 243.088 248.334, 243.412 248.858 C 244.226 250.175, 248 249.058, 248 247.500 C 248 245.682, 243.996 244.846, 243.350 246.530" stroke="none" fill="black" fill-rule="evenodd"/>
</svg>