<svg xmlns="http://www.w3.org/2000/svg" width="256" height="256" viewBox="0 0 256 256" version="1.1">
	<path d="M 56.906 18.750 C 56.854 19.163, 56.890 23.619, 56.985 28.653 L 57.157 37.807 54.092 38.480 C 52.407 38.850, 49.109 39.077, 46.764 38.984 C 37.889 38.632, 38.500 37.983, 38.500 47.749 L 38.500 56.500 29.157 56.643 C 24.018 56.722, 19.477 57.172, 19.065 57.643 C 18.653 58.114, 18.582 62.523, 18.908 67.439 L 19.500 76.378 28.667 76.439 C 33.708 76.473, 38.132 76.798, 38.497 77.163 C 39.200 77.867, 39.273 95.094, 38.598 101 C 38.378 102.925, 38.113 113.644, 38.009 124.819 C 37.906 135.995, 37.443 146.456, 36.981 148.068 C 36.253 150.605, 36.433 151.065, 38.320 151.502 C 41.090 152.143, 54.703 151.631, 55.477 150.856 C 55.908 150.425, 57 124.707, 57 114.992 C 57 113.710, 93.276 114.204, 94.257 115.500 C 94.674 116.050, 94.992 124.150, 94.965 133.500 C 94.937 142.850, 94.934 151.036, 94.958 151.692 C 94.988 152.549, 97.036 152.742, 102.250 152.379 C 115.321 151.469, 113.998 153.622, 114.015 133.231 C 114.024 123.479, 114.417 114.891, 114.888 114.147 C 115.580 113.055, 116.188 113.030, 118.033 114.018 C 119.845 114.987, 121.424 114.978, 125.611 113.973 C 130.173 112.879, 131.227 112.919, 133.282 114.265 C 134.817 115.271, 136.168 115.510, 137.082 114.938 C 137.862 114.449, 141.475 114.322, 145.110 114.655 C 150.151 115.117, 151.931 114.933, 152.609 113.881 C 153.877 111.909, 153.210 81.918, 151.700 73 C 150.463 65.699, 150.351 65.496, 147.465 65.342 C 145.834 65.255, 144.050 65.089, 143.500 64.973 C 142.950 64.858, 142.162 64.816, 141.750 64.882 C 141.338 64.947, 141 64.325, 141 63.500 C 141 62.675, 140.380 62, 139.621 62 C 138.130 62, 135.340 56.327, 136.339 55.328 C 136.952 54.715, 143.624 53.902, 147.688 53.944 C 150.090 53.970, 150.677 52.614, 150.910 46.500 C 151.001 44.086, 151.720 42.004, 152.722 41.250 C 153.635 40.563, 154.184 39.912, 153.941 39.805 C 153.699 39.697, 144.725 39.360, 134 39.055 L 114.500 38.500 114.219 28.500 L 113.937 18.500 104.719 18.690 L 95.500 18.879 95.214 27.847 C 95.037 33.398, 94.465 37.164, 93.714 37.731 C 93.046 38.234, 88.787 38.453, 84.250 38.217 L 76 37.788 76 27.894 L 76 18 66.500 18 C 61.275 18, 56.958 18.337, 56.906 18.750 M 58.667 38.667 C 57.744 39.589, 57.823 56.973, 58.750 57.113 C 61.767 57.570, 75.217 57.484, 75.994 57.003 C 76.529 56.673, 76.799 53.286, 76.598 49.452 C 76.396 45.629, 76.180 41.487, 76.116 40.250 C 76.005 38.106, 75.608 38, 67.667 38 C 63.083 38, 59.033 38.300, 58.667 38.667 M 78 67.372 C 78 72.053, 78.338 76.051, 78.750 76.257 C 79.162 76.463, 82.650 76.377, 86.500 76.066 L 93.500 75.500 93.572 67.789 C 93.615 63.146, 93.217 59.924, 92.572 59.692 C 91.982 59.480, 88.463 59.206, 84.750 59.084 L 78 58.862 78 67.372 M 115.442 60.906 C 115.750 61.404, 116.902 61.577, 118.001 61.289 C 120.753 60.570, 120.505 60, 117.441 60 C 116.034 60, 115.134 60.408, 115.442 60.906 M 115.797 94.256 C 115.570 94.940, 115.677 98.650, 116.035 102.500 C 116.597 108.545, 116.707 108.842, 116.843 104.679 C 117.029 98.977, 118.730 96.891, 122.806 97.366 C 127.135 97.870, 128.895 99.879, 127.937 103.220 C 127.159 105.931, 128.142 107.648, 129.863 106.585 C 131.333 105.676, 133.239 97.328, 132.504 95.013 C 131.968 93.324, 131.311 92.969, 129.654 93.475 C 126.913 94.313, 118.467 94.407, 117.184 93.614 C 116.648 93.283, 116.024 93.571, 115.797 94.256 M 134.893 121.820 C 133.994 124.518, 135.203 131, 136.605 131 C 137.372 131, 137.966 130.213, 137.924 129.250 C 137.799 126.383, 135.363 120.411, 134.893 121.820 M 243 247.500 C 243 248.452, 243.958 249, 245.622 249 C 247.840 249, 248.053 248.768, 247 247.500 C 246.315 246.675, 245.135 246, 244.378 246 C 243.620 246, 243 246.675, 243 247.500" stroke="none" fill="black" fill-rule="evenodd"/>
</svg>