<svg xmlns="http://www.w3.org/2000/svg" width="256" height="256" viewBox="0 0 256 256" version="1.1">
	<path d="M 74.466 16.250 C 74.206 16.938, 73.883 40.494, 73.747 68.597 C 73.545 110.329, 73.247 119.999, 72.118 121.358 C 70.840 122.898, 70.647 122.900, 69.539 121.384 C 68.592 120.090, 67.915 119.975, 66.302 120.838 C 65.181 121.438, 64.029 121.696, 63.743 121.410 C 63.458 121.124, 56.367 120.831, 47.985 120.758 C 35.380 120.648, 32.553 120.889, 31.623 122.151 C 31.006 122.989, 29.938 123.486, 29.250 123.254 C 28.530 123.012, 28 123.671, 28 124.810 C 28 127.249, 25.911 128.132, 21.992 127.348 C 20.223 126.995, 18.392 127.260, 17.502 127.998 C 15.551 129.617, 15.576 134.949, 17.547 137.764 C 18.398 138.978, 19.020 140.541, 18.929 141.236 C 18.838 141.931, 18.816 143.497, 18.882 144.716 C 18.999 146.905, 19.206 146.934, 35.750 147.083 C 59.677 147.298, 68.619 147.647, 69.858 148.412 C 70.454 148.780, 72.192 148.443, 73.721 147.661 C 75.352 146.827, 77.326 146.544, 78.500 146.975 C 79.600 147.379, 83.313 147.624, 86.750 147.518 C 91.377 147.376, 93 147.671, 93 148.654 C 93 149.680, 94.712 149.884, 100.506 149.547 C 104.634 149.307, 108.432 148.851, 108.946 148.533 C 109.461 148.215, 114.070 147.893, 119.191 147.817 C 129.031 147.670, 132.420 146.994, 132.625 145.135 C 132.694 144.511, 132.806 143.360, 132.875 142.577 C 132.973 141.462, 134.677 141.194, 140.750 141.339 C 145.012 141.441, 149.175 141.744, 150 142.012 C 151.270 142.425, 151.535 140.628, 151.730 130.297 C 151.876 122.606, 151.573 117.854, 150.911 117.445 C 150.333 117.088, 146.464 116.698, 142.313 116.577 C 135.072 116.368, 134.651 116.482, 131.926 119.397 C 130.365 121.068, 129.438 122.675, 129.866 122.968 C 130.295 123.261, 130.915 124.233, 131.245 125.128 C 131.748 126.497, 130.778 126.853, 125.172 127.360 C 121.502 127.691, 116.940 127.618, 115.034 127.197 L 111.568 126.432 113.761 124.239 L 115.955 122.045 112.727 121.161 C 110.952 120.675, 106.899 120.449, 103.720 120.658 C 93.609 121.324, 94 122.270, 94 97.111 L 94 75.292 113.681 74.758 C 136.483 74.139, 136.113 74.300, 134.926 65.550 C 134.514 62.518, 134.402 59.180, 134.676 58.131 C 134.950 57.083, 134.641 55.896, 133.989 55.493 C 133.338 55.091, 124.294 54.840, 113.892 54.936 C 99.097 55.073, 94.887 54.827, 94.555 53.805 C 94.321 53.087, 93.827 44.063, 93.457 33.750 L 92.783 15 83.860 15 C 77.640 15, 74.794 15.379, 74.466 16.250 M 123.813 122.683 C 124.534 122.972, 125.397 122.936, 125.729 122.604 C 126.061 122.272, 125.471 122.036, 124.417 122.079 C 123.252 122.127, 123.015 122.364, 123.813 122.683 M 33.813 140.683 C 34.534 140.972, 35.397 140.936, 35.729 140.604 C 36.061 140.272, 35.471 140.036, 34.417 140.079 C 33.252 140.127, 33.015 140.364, 33.813 140.683 M 91 144 C 89.718 144.828, 89.754 144.972, 91.250 144.985 C 92.213 144.993, 93 144.550, 93 144 C 93 142.780, 92.887 142.780, 91 144 M 81.750 144.662 C 82.438 144.940, 83.563 144.940, 84.250 144.662 C 84.938 144.385, 84.375 144.158, 83 144.158 C 81.625 144.158, 81.063 144.385, 81.750 144.662 M 242 247.417 C 242 249.094, 243.805 249.855, 246.271 249.215 C 247.651 248.857, 247.790 248.452, 246.899 247.378 C 245.402 245.575, 242 245.602, 242 247.417" stroke="none" fill="black" fill-rule="evenodd"/>
</svg>