<svg xmlns="http://www.w3.org/2000/svg" width="256" height="256" viewBox="0 0 256 256" version="1.1">
	<path d="M 37.333 18.801 C 36.664 19.219, 36.167 22.984, 36.096 28.167 L 35.977 36.835 43.239 37.167 C 47.232 37.350, 69.400 37.500, 92.500 37.500 L 134.500 37.500 134.654 27.887 L 134.809 18.274 86.630 18.188 C 60.132 18.141, 37.949 18.417, 37.333 18.801 M 14.882 58.102 C 14.816 58.871, 14.831 59.881, 14.914 60.347 C 14.997 60.813, 15.322 65.088, 15.637 69.847 C 15.951 74.606, 16.311 78.612, 16.436 78.749 C 16.562 78.886, 25.852 79.281, 37.082 79.628 C 48.312 79.974, 58.020 80.669, 58.655 81.172 C 59.432 81.788, 59.636 84.498, 59.278 89.471 C 58.986 93.532, 59.037 98.012, 59.392 99.427 C 60.006 101.874, 60.368 101.999, 66.769 101.986 C 78.709 101.962, 78.323 102.366, 77.793 90.441 L 77.336 80.180 80.918 79.718 C 82.888 79.464, 99.963 79.193, 118.862 79.117 C 137.761 79.041, 153.624 78.732, 154.112 78.431 C 154.601 78.129, 155 73.405, 155 67.934 L 155 57.986 93.714 58.015 C 60.006 58.031, 28.506 57.743, 23.714 57.375 C 16.626 56.830, 14.978 56.966, 14.882 58.102 M 106.500 101.495 C 105.950 101.677, 104.264 102.098, 102.753 102.431 C 100.311 102.969, 100.142 103.254, 101.232 105 C 101.907 106.081, 103.693 107.395, 105.202 107.921 C 108.128 108.941, 108.035 108.295, 107.118 121.156 C 107.032 122.365, 105.581 123.019, 101.750 123.578 C 96.269 124.377, 61.070 124.404, 60.276 123.609 C 60.025 123.358, 59.571 118.647, 59.268 113.140 L 58.716 103.127 48.608 102.808 C 35.937 102.407, 35.668 102.486, 36.385 106.393 C 37.231 111.005, 37.330 124.004, 36.525 124.805 C 36.141 125.187, 32.153 125.500, 27.663 125.500 L 19.500 125.500 19.276 134.500 C 18.950 147.567, 18.932 147.528, 25.214 147.730 C 28.121 147.824, 32.413 148.175, 34.750 148.511 C 38.859 149.102, 39.006 149.030, 39.175 146.311 C 39.271 144.765, 39.234 141.747, 39.091 139.604 C 38.949 137.461, 39.107 134.244, 39.442 132.455 L 40.052 129.203 45.776 129.529 C 48.924 129.709, 51.864 129.888, 52.309 129.928 C 52.754 129.967, 52.838 130.453, 52.496 131.007 C 52.154 131.561, 52.829 133.355, 53.996 134.994 C 55.163 136.633, 56.206 139.123, 56.314 140.527 C 56.422 141.931, 57.183 143.505, 58.005 144.024 C 59.330 144.862, 59.330 144.975, 58 145.015 C 56.840 145.050, 56.907 145.298, 58.295 146.106 C 60.170 147.196, 77.401 148.193, 92 148.056 C 96.675 148.012, 101.971 148.403, 103.769 148.924 C 106.621 149.750, 107.330 149.556, 109.326 147.404 C 112.088 144.425, 118.753 143, 120.085 145.103 C 120.716 146.101, 120.974 146.143, 120.985 145.250 C 121.001 143.925, 123.782 143.595, 126.418 144.607 C 127.288 144.941, 128 145.847, 128 146.622 C 128 148.671, 134.026 152.085, 135.846 151.066 C 136.663 150.609, 138.495 150.535, 139.916 150.903 C 141.337 151.270, 144.300 151.555, 146.500 151.535 L 150.500 151.500 150.817 147.048 C 151.218 141.429, 149.231 129.761, 147.713 128.823 C 147.083 128.433, 145.989 128.594, 145.284 129.180 C 144.374 129.935, 144 129.931, 144 129.168 C 144 128.575, 142.313 127.795, 140.250 127.433 C 132.713 126.111, 132.225 125.310, 131.842 113.618 C 131.654 107.867, 131.152 102.815, 130.726 102.390 C 129.970 101.637, 108.480 100.843, 106.500 101.495 M 242.638 247.500 C 242.955 248.325, 243.841 249, 244.607 249 C 245.373 249, 246 248.325, 246 247.500 C 246 246.675, 245.115 246, 244.031 246 C 242.692 246, 242.247 246.480, 242.638 247.500" stroke="none" fill="black" fill-rule="evenodd"/>
</svg>