<svg xmlns="http://www.w3.org/2000/svg" width="256" height="256" viewBox="0 0 256 256" version="1.1">
	<path d="M 75.515 18.832 C 75.232 19.564, 75 24.177, 75 29.082 L 75 38 85.617 38 C 96.138 38, 96.228 38.020, 95.630 40.250 C 95.299 41.487, 95.021 46.212, 95.014 50.750 L 95 59 85.500 59 L 76 59 75.985 50.250 C 75.976 45.438, 75.602 40.920, 75.152 40.212 C 74.554 39.269, 71.678 39.001, 64.417 39.212 L 54.500 39.500 54.299 46.057 C 54.188 49.663, 53.663 53.756, 53.133 55.151 L 52.168 57.687 34.872 58.390 C 25.358 58.776, 17.381 59.285, 17.144 59.522 C 16.908 59.759, 17.341 64.576, 18.107 70.226 L 19.500 80.500 27 80.141 C 31.125 79.943, 35.258 79.381, 36.184 78.891 C 38.535 77.647, 50.712 77.775, 53.128 79.069 C 54.346 79.720, 55.031 80.989, 54.885 82.319 C 54.540 85.448, 56.037 116.161, 56.636 118.257 C 57.069 119.767, 58.197 119.973, 64.691 119.726 C 73.985 119.372, 73.743 118.982, 74.756 136 L 75.500 148.500 85 149.021 C 90.225 149.308, 94.623 149.484, 94.774 149.413 C 94.925 149.343, 95.328 146.296, 95.669 142.642 C 96.147 137.523, 96.657 135.980, 97.895 135.913 C 98.778 135.866, 102.855 135.753, 106.955 135.663 C 115.685 135.472, 115.734 135.404, 115.900 123.156 C 115.989 116.598, 116.223 115.754, 118.085 115.268 C 119.669 114.853, 119.849 114.520, 118.835 113.877 C 117.968 113.327, 118.816 113.025, 121.250 113.015 C 124.846 113.001, 126.129 111.816, 123.984 110.490 C 123.425 110.144, 123.226 109.443, 123.543 108.931 C 123.859 108.419, 123.641 108, 123.059 108 C 122.477 108, 122 108.900, 122 110 C 122 111.324, 121.333 112, 120.029 112 C 117.564 112, 115.970 106.783, 117.147 102.566 C 117.597 100.953, 117.719 99.386, 117.418 99.085 C 117.117 98.784, 112.400 98.677, 106.935 98.849 C 99.253 99.089, 96.955 98.858, 96.802 97.830 C 96.694 97.098, 96.356 101.450, 96.052 107.500 C 95.684 114.843, 95.126 118.431, 94.376 118.292 C 93.757 118.177, 89.482 117.815, 84.876 117.487 C 80.269 117.158, 76.147 116.539, 75.717 116.111 C 74.789 115.190, 74.590 98.472, 75.490 97.016 C 75.837 96.455, 79.726 96.077, 84.305 96.161 C 96.854 96.388, 97 96.289, 97 87.500 C 97 78.982, 96.869 79.088, 107 79.428 C 118.150 79.802, 117.947 79.747, 117.331 82.250 C 115.314 90.436, 115.888 95.953, 118.769 96.070 C 120.227 96.130, 120.185 96.276, 118.500 97 C 116.790 97.735, 116.754 97.870, 118.250 97.930 C 119.213 97.968, 120.945 98.945, 122.100 100.100 C 123.674 101.674, 124.486 101.914, 125.342 101.058 C 126.197 100.203, 126.109 99.680, 124.992 98.974 C 123.905 98.287, 123.856 98.026, 124.809 98.015 C 125.529 98.007, 125.840 97.550, 125.500 97 C 125.139 96.416, 126.167 96, 127.973 96 C 129.673 96, 132.680 95.325, 134.654 94.500 C 136.629 93.675, 139.427 92.993, 140.872 92.985 C 142.758 92.974, 143.111 92.723, 142.122 92.096 C 141.364 91.616, 141.034 90.754, 141.388 90.181 C 141.743 89.607, 141.622 88.884, 141.120 88.574 C 140.607 88.257, 140.549 86.499, 140.988 84.555 C 141.416 82.655, 141.519 80.853, 141.217 80.550 C 140.914 80.248, 141.674 80, 142.905 80 C 144.136 80, 145.833 80.691, 146.677 81.535 C 147.859 82.717, 148.532 82.803, 149.606 81.912 C 150.642 81.052, 151 77.959, 151 69.878 L 151 59 141.250 58.757 C 135.887 58.624, 128.125 58.485, 124 58.448 C 119.875 58.411, 115.892 58.295, 115.150 58.190 C 114.098 58.042, 113.877 55.956, 114.150 48.750 L 114.500 39.500 106.547 39.204 C 102.173 39.042, 98.011 38.424, 97.297 37.832 C 96.398 37.085, 96 33.786, 96 27.068 L 96 17.381 86.015 17.441 C 78.669 17.484, 75.894 17.852, 75.515 18.832 M 127 100.167 C 127 100.625, 127.675 101, 128.500 101 C 129.325 101, 130 100.625, 130 100.167 C 130 99.708, 129.325 99.333, 128.500 99.333 C 127.675 99.333, 127 99.708, 127 100.167 M 110 137.393 C 110 138.342, 112.993 138.820, 113.527 137.956 C 113.852 137.430, 113.191 137, 112.059 137 C 110.927 137, 110 137.177, 110 137.393 M 243 247.500 C 243 248.325, 243.885 249, 244.969 249 C 246.308 249, 246.753 248.520, 246.362 247.500 C 246.045 246.675, 245.159 246, 244.393 246 C 243.627 246, 243 246.675, 243 247.500" stroke="none" fill="black" fill-rule="evenodd"/>
</svg>