<svg xmlns="http://www.w3.org/2000/svg" width="256" height="256" viewBox="0 0 256 256" version="1.1">
	<path d="M 74.918 19.250 C 74.874 19.387, 74.777 23.932, 74.704 29.348 L 74.572 39.197 47.908 38.492 C 33.242 38.105, 20.399 38.056, 19.367 38.384 C 17.703 38.912, 17.496 40.034, 17.543 48.240 L 17.596 57.500 45.048 58.261 C 60.147 58.680, 73.072 59.232, 73.772 59.488 C 74.711 59.832, 74.939 62.244, 74.644 68.727 L 74.245 77.500 64.872 78.138 C 59.718 78.489, 50.100 78.858, 43.500 78.958 C 36.900 79.059, 30.600 79.527, 29.500 80 C 27.585 80.823, 27.595 80.862, 29.731 80.930 C 33.103 81.036, 33.853 87.382, 31.420 95.217 C 31.043 96.431, 31.562 97.068, 33.193 97.393 C 37.026 98.156, 61.861 100.270, 68.392 100.389 L 74.500 100.500 74.779 114.923 C 74.972 124.938, 74.708 129.563, 73.914 130.053 C 71.986 131.244, 61.724 130.345, 57.628 128.625 C 55.498 127.731, 52.487 127, 50.937 127 C 49.387 127, 47.883 126.619, 47.595 126.153 C 47.307 125.687, 45.704 125.268, 44.034 125.220 C 40.181 125.110, 36.693 124.032, 35.828 122.683 C 35.459 122.107, 31.713 121.559, 27.505 121.465 C 20.505 121.310, 19.723 121.493, 18.330 123.620 C 17.172 125.386, 16.971 127.332, 17.491 131.722 C 19.583 149.375, 19.375 148.513, 21.500 148.294 C 22.600 148.180, 27.550 148.584, 32.500 149.191 C 37.964 149.862, 63.253 150.335, 96.863 150.398 L 152.227 150.500 151.591 142.583 C 150.899 133.975, 150.142 130.056, 149.142 129.899 C 148.789 129.844, 146.250 129.629, 143.500 129.422 C 140.750 129.215, 137.150 128.775, 135.500 128.446 C 131.833 127.713, 115.515 125.999, 104 125.137 L 95.500 124.500 95.429 111.769 C 95.390 104.768, 95.674 98.527, 96.061 97.901 C 96.540 97.126, 102.136 96.753, 113.632 96.732 C 130.224 96.701, 133.188 96.136, 130.941 93.429 C 129.975 92.265, 129.464 85.695, 130.129 83 C 130.429 81.787, 129.076 81.443, 123.045 81.202 C 115.833 80.914, 112.434 79.725, 113.570 77.887 C 113.871 77.399, 113.641 77, 113.059 77 C 112.477 77, 112 76.364, 112 75.587 C 112 74.439, 113.787 74.250, 121.500 74.584 L 131 74.994 131.157 71.747 C 131.369 67.340, 131.738 64.198, 132.565 59.750 C 133.342 55.569, 134.159 55.929, 122.915 55.498 C 120.393 55.401, 117.845 55.022, 117.252 54.656 C 116.659 54.289, 116.151 51.050, 116.124 47.458 C 116.093 43.513, 116.455 41.163, 117.037 41.523 C 117.567 41.850, 118 41.690, 118 41.166 C 118 39.473, 115.037 39, 104.418 39 C 96.786 39, 93.982 38.666, 93.934 37.750 C 93.898 37.063, 93.925 32.563, 93.994 27.750 L 94.120 19 84.560 19 C 79.302 19, 74.963 19.113, 74.918 19.250 M 95.854 70.178 C 95.561 74.783, 96.504 84.086, 96.882 80.321 C 96.947 79.673, 97.688 78.455, 98.530 77.613 C 100.100 76.043, 99.638 71, 97.923 71 C 97.450 71, 97.311 70.352, 97.615 69.561 C 97.919 68.769, 97.726 67.333, 97.187 66.370 C 96.434 65.024, 96.125 65.906, 95.854 70.178 M 119.813 86.683 C 120.534 86.972, 121.397 86.936, 121.729 86.604 C 122.061 86.272, 121.471 86.036, 120.417 86.079 C 119.252 86.127, 119.015 86.364, 119.813 86.683 M 242.229 247.188 C 242.847 249.042, 245 249.349, 245 247.583 C 245 246.713, 244.287 246, 243.417 246 C 242.546 246, 242.011 246.534, 242.229 247.188" stroke="none" fill="black" fill-rule="evenodd"/>
</svg>