<svg xmlns="http://www.w3.org/2000/svg" width="256" height="256" viewBox="0 0 256 256" version="1.1">
	<path d="M 85.201 18.788 L 75.902 19.076 76.076 28.431 C 76.172 33.576, 75.985 38.215, 75.661 38.740 C 74.984 39.835, 61.898 40.420, 58.958 39.487 C 57.188 38.925, 57 37.916, 57 28.977 L 57 19.088 47.750 19.294 L 38.500 19.500 38.500 37.500 C 38.500 47.400, 38.136 56.063, 37.691 56.750 C 37.143 57.596, 33.996 58, 27.941 58 L 19 58 19 67.462 L 19 76.925 28.250 77.212 L 37.500 77.500 38.118 89 C 38.459 95.325, 38.796 109.576, 38.868 120.668 C 38.941 131.761, 39.233 141.444, 39.518 142.187 C 39.910 143.208, 42.443 143.503, 49.918 143.398 C 55.352 143.321, 60.407 143.643, 61.150 144.114 C 62.166 144.758, 62.018 144.973, 60.550 144.985 C 59.326 144.994, 58.954 145.350, 59.550 145.940 C 60.073 146.456, 64.550 147.110, 69.500 147.392 C 74.450 147.674, 80.975 148.372, 84 148.943 C 90.190 150.112, 123.532 150.624, 141 149.820 L 152.500 149.290 152.395 141.395 C 152.337 137.053, 151.887 130.128, 151.395 126.007 L 150.500 118.515 145.229 117.678 C 140.855 116.983, 139.408 117.162, 136.729 118.726 C 132.948 120.934, 132.491 124.058, 135.740 125.483 C 137.976 126.464, 138.323 128.565, 136.578 130.547 C 135.285 132.015, 113.053 131.759, 110.500 130.246 C 109.400 129.594, 109.063 129.047, 109.750 129.030 C 110.438 129.014, 111 128.380, 111 127.622 C 111 126.865, 111.675 125.685, 112.500 125 C 115.529 122.486, 113.309 117.891, 108.500 116.719 C 106.541 116.242, 106.542 116.230, 108.550 116.116 C 109.678 116.052, 111.028 115.584, 111.550 115.075 C 112.073 114.567, 116.476 114.004, 121.335 113.825 C 126.193 113.646, 130.528 113.050, 130.966 112.500 C 131.404 111.950, 132.043 107.675, 132.386 103 C 133.332 90.100, 134.610 79.057, 135.227 78.440 C 135.531 78.135, 138.642 77.733, 142.140 77.546 C 152.245 77.004, 152.079 77.189, 151.768 66.829 L 151.500 57.886 143.546 58.096 C 135.759 58.302, 135.578 58.252, 134.899 55.717 C 134.519 54.292, 134.370 52.963, 134.570 52.764 C 134.769 52.564, 135.234 44.760, 135.603 35.421 L 136.274 18.441 125.887 18.496 L 115.500 18.552 115.215 28.776 C 115.058 34.399, 114.608 39.012, 114.215 39.027 C 113.822 39.042, 109.675 39.155, 105 39.277 L 96.500 39.500 96.211 29.511 C 96.052 24.017, 95.602 19.292, 95.211 19.011 C 94.820 18.730, 90.315 18.630, 85.201 18.788 M 95.574 59 C 94.778 61.966, 95.080 91.531, 95.921 92.882 C 96.899 94.453, 105.564 95.211, 109.750 94.092 C 112.999 93.223, 113.105 92.570, 113.337 72 L 113.500 57.500 104.739 57.500 C 97.796 57.500, 95.894 57.811, 95.574 59 M 70.807 98.789 C 68.894 100.051, 68.367 100.975, 68.987 101.979 C 69.501 102.810, 69.446 104.167, 68.853 105.274 C 68.299 106.309, 68.104 107.829, 68.419 108.651 C 69.525 111.532, 67.113 114.161, 63.678 113.818 C 61.091 113.559, 60.500 113.860, 60.500 115.438 C 60.500 116.911, 61.220 117.391, 63.500 117.438 C 65.150 117.472, 66.950 117.793, 67.500 118.151 C 68.050 118.510, 73.984 118.815, 80.688 118.829 C 94.244 118.858, 95.803 118.242, 94.021 113.557 C 93.460 112.079, 93 108.874, 93 106.435 C 93 103.996, 92.662 101.965, 92.250 101.923 C 82.020 100.873, 77.645 99.929, 75.921 98.401 C 73.954 96.655, 74.054 96.648, 70.807 98.789 M 62 107.059 C 62 107.641, 62.412 107.864, 62.915 107.553 C 63.418 107.242, 64.010 107.530, 64.231 108.193 C 64.485 108.954, 64.874 108.772, 65.285 107.699 C 65.763 106.455, 65.410 106, 63.969 106 C 62.886 106, 62 106.477, 62 107.059" stroke="none" fill="black" fill-rule="evenodd"/>
</svg>