<svg xmlns="http://www.w3.org/2000/svg" width="256" height="256" viewBox="0 0 256 256" version="1.1">
	<path d="M 75.931 22.750 C 75.893 25.363, 75.780 29.943, 75.681 32.928 L 75.500 38.357 47.250 38.125 L 19 37.893 19 47.918 L 19 57.943 49.456 58.222 C 66.207 58.375, 83.420 58.275, 87.706 58 C 91.993 57.725, 99.550 57.725, 104.500 58 L 113.500 58.500 113.789 67.250 C 114.007 73.839, 113.760 76.022, 112.789 76.089 C 110.585 76.241, 102.106 75.868, 99.091 75.486 L 96.219 75.123 95.821 82.157 C 95.202 93.112, 95.770 96, 98.544 96 C 99.823 96, 102.107 95.530, 103.619 94.955 C 105.590 94.205, 107.165 94.240, 109.185 95.077 C 113.864 97.015, 115 95.150, 115 85.527 L 115 77.299 124.750 76.400 L 134.500 75.500 134.795 67.567 C 134.962 63.082, 134.584 58.409, 133.924 56.817 C 132.777 54.048, 132.616 54, 124.469 54 L 116.182 54 116.115 46.944 C 116.079 43.064, 115.770 39.437, 115.429 38.885 C 115.085 38.328, 111.180 37.938, 106.654 38.009 C 102.169 38.079, 97.774 38.106, 96.886 38.068 C 95.488 38.009, 95.318 36.657, 95.615 28 L 95.959 18 85.979 18 L 76 18 75.931 22.750 M 89.461 97.990 C 84.473 98.723, 78.071 101.378, 77.923 102.776 C 77.846 103.505, 77.618 104.797, 76.513 110.750 C 75.845 114.349, 76.148 114.271, 63.750 114.009 C 60.038 113.930, 56.983 114.234, 56.962 114.683 C 56.940 115.132, 56.678 118.200, 56.378 121.500 C 56.077 124.800, 55.795 128.063, 55.749 128.750 C 55.704 129.438, 55.237 130, 54.711 130 C 54.185 130, 54.276 130.628, 54.913 131.396 C 55.671 132.308, 58.803 132.916, 63.956 133.150 C 68.293 133.346, 72.126 133.793, 72.476 134.142 C 72.825 134.491, 73.198 138.384, 73.305 142.792 L 73.500 150.808 85.621 151.517 C 92.288 151.907, 101.513 151.963, 106.121 151.642 C 110.730 151.321, 123.436 151.046, 134.357 151.029 C 151.238 151.004, 154.131 150.784, 153.660 149.557 C 153.356 148.764, 153.020 144.527, 152.915 140.142 C 152.809 135.757, 152.407 131.658, 152.021 131.035 C 151.208 129.718, 138.618 129.590, 126.500 130.774 C 122.100 131.204, 114.450 131.316, 109.500 131.023 C 103.607 130.674, 99.162 130.923, 96.624 131.745 C 92.213 133.174, 78.200 133.412, 76.119 132.095 C 75.009 131.392, 74.911 129.678, 75.619 123.360 L 76.500 115.500 85.750 115.212 L 95 114.925 95 105.962 C 95 101.033, 94.888 97.056, 94.750 97.125 C 94.612 97.193, 92.233 97.583, 89.461 97.990 M 19.531 133.250 C 19.252 134.488, 19.131 139.100, 19.262 143.500 L 19.500 151.500 30.167 151.500 C 36.034 151.500, 41.169 151.164, 41.579 150.754 C 41.989 150.344, 41.802 148.860, 41.162 147.457 C 40.523 146.054, 40 142.058, 40 138.578 C 40 132.291, 39.980 132.246, 36.875 131.625 C 35.156 131.281, 30.665 131, 26.894 131 C 20.601 131, 19.996 131.185, 19.531 133.250 M 242.431 247.112 C 241.579 248.491, 243.834 250.001, 245.685 249.291 C 246.729 248.890, 246.781 248.441, 245.903 247.383 C 244.515 245.711, 243.353 245.620, 242.431 247.112" stroke="none" fill="black" fill-rule="evenodd"/>
</svg>