<svg xmlns="http://www.w3.org/2000/svg" width="256" height="256" viewBox="0 0 256 256" version="1.1">
	<path d="M 85.292 69.715 C 84.856 69.833, 68.975 70.058, 50 70.215 L 15.500 70.500 14.934 80.500 C 14.623 86, 14.501 90.678, 14.663 90.895 C 15.079 91.454, 15.380 91.453, 88.402 90.652 C 124.649 90.255, 154.744 89.658, 155.282 89.326 C 155.873 88.960, 156.019 85.325, 155.652 80.111 C 155.318 75.375, 155.035 70.969, 155.022 70.319 C 155.006 69.431, 146.454 69.183, 120.542 69.319 C 101.590 69.419, 85.728 69.597, 85.292 69.715 M 75.667 195.667 C 74.622 196.711, 74.870 197.728, 76.590 199.447 C 78.043 200.900, 78.380 200.844, 80.510 198.794 C 81.792 197.560, 82.625 196.202, 82.361 195.776 C 81.775 194.827, 76.590 194.743, 75.667 195.667 M 139 196.500 C 139 197.325, 139.648 198, 140.441 198 C 142.557 198, 143.243 196.307, 141.412 195.605 C 139.184 194.750, 139 194.818, 139 196.500" stroke="none" fill="black" fill-rule="evenodd"/>
</svg>