<svg xmlns="http://www.w3.org/2000/svg" width="256" height="256" viewBox="0 0 256 256" version="1.1">
	<path d="M 56.046 38.117 C 56.113 48.251, 55.753 56.647, 55.228 57.172 C 54.711 57.689, 50.773 58.111, 46.475 58.111 C 36.194 58.111, 35 58.811, 35 64.835 C 35 70.202, 33.765 71.993, 30.050 72.015 C 28.272 72.026, 27.904 72.287, 28.834 72.876 C 30.613 74.004, 28.089 75, 23.453 75 C 21.027 75, 19.749 75.601, 18.932 77.127 C 17.593 79.629, 18.055 93.536, 19.518 94.753 C 21.290 96.227, 34.621 94.997, 36.645 93.172 C 39.078 90.979, 52.643 90.628, 53.453 92.737 C 53.742 93.491, 54.214 98.245, 54.502 103.303 C 55.393 118.963, 56.074 127.407, 56.479 127.812 C 56.693 128.026, 57.882 127.256, 59.122 126.101 C 61.932 123.483, 64.178 123.434, 66.448 125.943 C 68.189 127.867, 68.227 127.867, 70.292 125.943 C 71.439 124.874, 72.692 124, 73.077 124 C 73.462 124, 74.007 116.013, 74.289 106.250 C 74.902 85.003, 76.008 77.206, 77.466 83.845 C 78.285 87.573, 79.437 88.017, 86.416 87.297 C 91.899 86.731, 92 86.663, 92 83.551 C 92 78.434, 93.827 76.904, 100.542 76.398 C 113.072 75.454, 125.727 73.800, 131.391 72.365 C 134.630 71.544, 140.255 70.981, 143.891 71.113 L 150.500 71.355 150.779 59.378 L 151.058 47.402 142.280 47.478 C 133.850 47.551, 133.452 47.657, 132.257 50.149 C 130.317 54.198, 129.089 54.765, 119.490 56.050 C 104.159 58.102, 94.217 58.325, 90.670 56.697 C 88.926 55.897, 86.825 54.999, 86 54.700 C 84.728 54.240, 84.743 54.146, 86.095 54.079 C 90.317 53.870, 91.052 48.808, 90.210 25.750 L 90 20 72.963 20 L 55.927 20 56.046 38.117 M 74.630 126.750 C 73.928 129.180, 73.387 147.725, 74 148.312 C 74.862 149.138, 118.091 149.971, 126.687 149.327 L 134.874 148.715 134.552 141.509 C 134.025 129.688, 134.346 130.034, 123.683 129.791 C 118.632 129.677, 110.123 129.728, 104.773 129.905 C 95.167 130.223, 81.741 128.008, 80.432 125.890 C 79.441 124.287, 75.157 124.921, 74.630 126.750 M 146.500 176 C 146.139 176.583, 147.156 177, 148.941 177 C 150.623 177, 152 176.550, 152 176 C 152 175.450, 150.902 175, 149.559 175 C 148.216 175, 146.840 175.450, 146.500 176 M 140.750 176.662 C 141.438 176.940, 142.563 176.940, 143.250 176.662 C 143.938 176.385, 143.375 176.158, 142 176.158 C 140.625 176.158, 140.063 176.385, 140.750 176.662" stroke="none" fill="black" fill-rule="evenodd"/>
</svg>