<svg xmlns="http://www.w3.org/2000/svg" width="256" height="256" viewBox="0 0 256 256" version="1.1">
	<path d="M 56 18 L 18.500 18.500 18.586 23.500 C 18.633 26.250, 18.745 30.637, 18.836 33.250 L 19 38 48 38 C 70.499 38, 77.014 38.280, 77.064 39.250 C 77.274 43.357, 76.806 59.528, 76.467 59.867 C 76.243 60.090, 72.280 60.190, 67.659 60.088 C 57.848 59.872, 58.036 59.644, 58.014 71.731 C 58.001 78.607, 57.877 78.993, 55.497 79.590 C 54.120 79.936, 49.620 80.048, 45.497 79.840 L 38 79.461 38 86.608 C 38 91.141, 37.543 94.110, 36.750 94.726 C 36.063 95.260, 32.007 95.595, 27.738 95.471 C 18.718 95.207, 19.077 94.713, 19.340 107 L 19.500 114.500 27.497 114.797 C 37.171 115.155, 39.602 114.632, 40.278 112.043 C 40.563 110.955, 42.397 109.301, 44.355 108.368 C 48.633 106.328, 48.202 105.039, 43.191 104.890 L 39.500 104.781 43.765 103.940 C 46.111 103.477, 48.367 102.891, 48.778 102.637 C 49.189 102.383, 50.593 102.747, 51.898 103.445 L 54.271 104.715 51.635 105.377 C 50.186 105.740, 49 106.506, 49 107.078 C 49 107.650, 49.453 107.838, 50.007 107.496 C 50.561 107.153, 51.284 107.577, 51.614 108.437 C 51.944 109.296, 53.291 110, 54.607 110 C 56.493 110, 57 109.470, 57 107.500 C 57 106.125, 56.540 105, 55.977 105 C 55.414 105, 55.665 103.914, 56.535 102.588 C 57.678 100.842, 58.168 97.317, 58.308 89.838 L 58.500 79.500 68 79.500 L 77.500 79.500 77.440 88.500 C 77.407 93.450, 77.065 109.803, 76.680 124.840 L 75.980 152.180 84.502 151.700 C 91.674 151.296, 93.178 151.480, 93.994 152.860 C 95.748 155.827, 96.955 152.095, 97.180 143 C 97.690 122.462, 97.942 107.599, 97.985 95.500 C 98.010 88.350, 98.411 81.900, 98.876 81.166 C 99.492 80.195, 101.770 79.923, 107.255 80.166 L 114.788 80.500 115.380 75.444 C 115.706 72.664, 115.594 69.064, 115.132 67.444 C 114.670 65.825, 114.449 63.488, 114.640 62.250 C 114.976 60.076, 114.718 60, 107.053 60 C 102.689 60, 98.914 59.663, 98.665 59.250 C 98.416 58.837, 98.052 54, 97.856 48.500 L 97.500 38.500 124.500 38.762 C 139.350 38.906, 152.117 38.621, 152.870 38.129 C 153.852 37.487, 154.250 34.781, 154.272 28.601 C 154.289 23.854, 154.028 19.695, 153.692 19.358 C 152.619 18.286, 94.817 17.482, 56 18 M 118.119 83.788 C 116.571 86.697, 116.296 102.900, 117.784 103.471 C 118.691 103.819, 118.945 105.607, 118.648 109.560 C 118.054 117.469, 118.632 119, 122.209 119 C 123.846 119, 126.316 118.110, 127.699 117.022 C 129.677 115.466, 130.638 115.271, 132.200 116.107 C 133.292 116.692, 135.187 116.919, 136.409 116.612 C 137.648 116.301, 139.600 116.732, 140.817 117.585 C 142.176 118.536, 144.609 118.999, 147.251 118.807 L 151.500 118.500 151.343 111.715 C 151.116 101.846, 151.255 102, 142.531 102 C 136.700 102, 135 101.680, 135 100.583 C 135 99.804, 134.438 98.938, 133.750 98.659 C 132.755 98.256, 132.759 97.969, 133.768 97.256 C 134.539 96.711, 135.127 93.649, 135.268 89.442 L 135.500 82.525 127.265 82.301 C 120.367 82.113, 118.881 82.355, 118.119 83.788" stroke="none" fill="black" fill-rule="evenodd"/>
</svg>