<svg xmlns="http://www.w3.org/2000/svg" width="256" height="256" viewBox="0 0 256 256" version="1.1">
	<path d="M 33.750 18.715 L 20 19.056 20 28.028 L 20 37 28.393 37 C 38.217 37, 38 36.760, 38 47.648 C 38 51.764, 38.517 56.098, 39.150 57.280 C 40.500 59.802, 40.733 72.228, 39.707 87 C 39.306 92.775, 38.606 104.590, 38.150 113.255 C 37.695 121.921, 37.030 129.303, 36.672 129.661 C 36.314 130.019, 32.434 130.322, 28.049 130.334 C 22.638 130.349, 19.924 130.755, 19.601 131.599 C 19.338 132.282, 19.032 137.039, 18.920 142.170 L 18.717 151.500 27.608 151.530 C 32.603 151.547, 36.822 151.109, 37.235 150.530 C 37.639 149.964, 37.976 145.787, 37.985 141.250 C 37.996 135.369, 38.359 132.976, 39.250 132.918 C 42.685 132.693, 52.713 133.159, 54.250 133.615 C 55.212 133.901, 56.029 134.892, 56.063 135.817 C 56.105 136.933, 56.478 136.658, 57.171 135 C 57.745 133.625, 58.453 124.125, 58.744 113.889 L 59.273 95.277 66.208 95.234 C 70.022 95.210, 73.312 95.021, 73.519 94.814 C 74.304 94.029, 74.671 60.673, 74.014 49.832 C 73.599 42.996, 73.702 38.251, 74.273 37.873 C 74.794 37.528, 79.333 37.303, 84.360 37.373 L 93.500 37.500 94.073 57 C 94.626 75.786, 95.743 92.077, 96.534 92.867 C 96.743 93.076, 97.721 92.904, 98.707 92.485 C 101.764 91.185, 104.397 91.205, 107.046 92.549 C 108.635 93.355, 113.455 93.840, 119.882 93.840 C 125.542 93.840, 130.458 94.124, 130.805 94.472 C 131.152 94.819, 131.347 100.593, 131.237 107.302 C 131.127 114.011, 131.029 122.537, 131.018 126.250 L 131 133 113.950 133 C 95.258 133, 91.072 133.959, 90.924 138.276 C 90.882 139.499, 90.280 142.075, 89.586 144 C 88.468 147.101, 87.888 147.525, 84.496 147.716 C 82.391 147.835, 80.203 148.397, 79.634 148.966 C 79.065 149.535, 77.265 150, 75.633 150 C 74.002 150, 72.889 150.222, 73.160 150.493 C 73.431 150.764, 90.944 151.282, 112.077 151.643 L 150.500 152.299 150.302 115.035 C 150.193 94.539, 149.844 77.510, 149.525 77.192 C 149.207 76.874, 141.048 76.418, 131.393 76.179 C 119.236 75.878, 113.701 75.383, 113.389 74.570 C 113.141 73.925, 113.427 64.870, 114.025 54.448 C 114.623 44.027, 115.084 32.889, 115.049 29.697 C 115.015 26.505, 115.476 22.979, 116.074 21.861 C 116.673 20.743, 116.955 19.622, 116.703 19.369 C 116.110 18.776, 51.723 18.269, 33.750 18.715 M 59 150.031 C 59 150.564, 59.675 151, 60.500 151 C 61.325 151, 62 150.823, 62 150.607 C 62 150.391, 61.325 149.955, 60.500 149.638 C 59.675 149.322, 59 149.499, 59 150.031 M 12 207.500 C 12 208.325, 12.661 209, 13.469 209 C 14.363 209, 14.712 208.414, 14.362 207.500 C 14.045 206.675, 13.384 206, 12.893 206 C 12.402 206, 12 206.675, 12 207.500 M 243.636 247.506 C 243.288 248.413, 243.639 249, 244.531 249 C 246.149 249, 246.517 247.437, 245.105 246.565 C 244.612 246.260, 243.952 246.684, 243.636 247.506" stroke="none" fill="black" fill-rule="evenodd"/>
</svg>