<svg xmlns="http://www.w3.org/2000/svg" width="256" height="256" viewBox="0 0 256 256" version="1.1">
	<path d="M 35.927 20.255 C 35.887 20.390, 35.775 24.632, 35.677 29.681 L 35.500 38.863 43.500 39.413 C 47.900 39.716, 55.550 40.182, 60.500 40.449 C 65.450 40.715, 69.546 40.948, 69.603 40.967 C 69.843 41.044, 71.240 56.867, 71.364 60.917 L 71.500 65.334 59.806 65.094 C 50.490 64.902, 47.380 65.200, 44.516 66.559 C 42.539 67.497, 41.082 68.747, 41.279 69.337 C 41.475 69.926, 40.590 71.329, 39.311 72.454 C 37.791 73.792, 36.596 76.484, 35.858 80.235 C 34.540 86.936, 35.539 89.030, 39.806 88.515 C 43.281 88.095, 52.011 87.705, 54.188 87.871 C 55.709 87.987, 55.858 89.676, 55.688 104.896 C 55.525 119.526, 55.261 122.056, 53.720 123.758 C 51.733 125.953, 49.594 126.078, 46.250 124.196 C 44.726 123.338, 44 123.283, 44 124.024 C 44 124.626, 43.550 124.840, 43 124.500 C 42.450 124.160, 42 124.527, 42 125.316 C 42 127.222, 37.647 128, 26.982 128 C 17.060 128, 16.676 128.299, 17.662 135.254 C 17.993 137.589, 18.374 141.075, 18.508 143 C 18.642 144.925, 18.808 146.749, 18.876 147.053 C 18.944 147.358, 24.737 148.161, 31.750 148.839 C 40.493 149.684, 61.075 149.987, 97.240 149.802 L 149.980 149.534 149.664 139.741 C 149.490 134.354, 148.932 129.541, 148.424 129.045 C 147.916 128.548, 143.741 127.929, 139.148 127.669 C 134.554 127.408, 130.408 126.808, 129.933 126.333 C 129.457 125.857, 129.439 122.121, 129.893 117.986 C 130.345 113.869, 130.802 102.780, 130.910 93.345 L 131.105 76.190 127.568 75.023 C 125.598 74.372, 123.028 74.192, 121.766 74.616 C 118.524 75.703, 114.984 75.834, 115.597 74.844 C 115.883 74.380, 115.584 74, 114.931 74 C 114.120 74, 113.933 72.812, 114.340 70.250 C 115.302 64.204, 114.325 63.564, 103.290 63 L 93.500 62.500 93.217 51.250 C 93.001 42.652, 93.237 39.979, 94.217 39.909 C 95.874 39.791, 111.968 40.048, 123.500 40.377 C 128.450 40.518, 132.950 40.306, 133.500 39.905 C 134.087 39.478, 134.368 35.219, 134.182 29.603 L 133.863 20.029 84.932 20.020 C 58.019 20.015, 35.967 20.121, 35.927 20.255 M 107.832 86.502 C 107.323 87.010, 89.497 88.330, 82.215 88.398 C 79.729 88.421, 78.828 88.924, 78.510 90.464 C 77.959 93.135, 76.874 110.501, 76.665 120 L 76.500 127.500 82 127.602 C 85.025 127.659, 89.102 127.507, 91.060 127.265 C 94.450 126.847, 94.631 126.627, 94.863 122.663 C 94.997 120.373, 95.533 118.072, 96.054 117.550 C 96.574 117.027, 97 115.360, 97 113.845 C 97 111.502, 97.510 110.995, 100.413 110.450 C 102.290 110.098, 104.653 110.068, 105.663 110.382 C 109.753 111.656, 110.500 109.724, 110.500 97.873 C 110.500 87.665, 109.772 84.561, 107.832 86.502 M 243.639 246.694 C 242.513 247.820, 242.954 249, 244.500 249 C 245.325 249, 246 248.577, 246 248.059 C 246 246.798, 244.438 245.895, 243.639 246.694" stroke="none" fill="black" fill-rule="evenodd"/>
</svg>