<svg xmlns="http://www.w3.org/2000/svg" width="256" height="256" viewBox="0 0 256 256" version="1.1">
	<path d="M 76.157 27 L 76.491 37.500 48.995 37.699 C 33.873 37.809, 21.004 37.921, 20.397 37.949 C 19.415 37.994, 19.141 72.357, 19.846 107.116 L 20 114.733 30.250 115.472 C 35.888 115.879, 44.100 116.471, 48.500 116.788 C 52.900 117.106, 60.550 117.396, 65.500 117.433 C 72.467 117.485, 74.662 117.839, 75.217 119 C 75.611 119.825, 75.697 127.925, 75.408 137 C 74.848 154.584, 75.298 156.981, 78.807 155.103 C 81.739 153.534, 93.956 153.651, 94.158 155.250 C 94.471 157.718, 95.791 138.314, 95.909 129.500 C 95.976 124.550, 96.457 119.825, 96.979 119 C 97.781 117.731, 101.853 117.500, 123.464 117.500 L 149 117.500 149.064 114 C 149.193 106.894, 149.153 85.982, 148.975 68 C 148.875 57.825, 149.116 46.920, 149.510 43.767 L 150.226 38.033 123.512 37.767 L 96.798 37.500 96.649 27.118 L 96.500 16.736 86.162 16.618 L 75.824 16.500 76.157 27 M 56.544 57.774 C 37.952 58.058, 36.124 58.495, 38.099 62.185 C 38.634 63.185, 38.769 66.795, 38.405 70.353 C 38.017 74.138, 38.145 76.972, 38.721 77.328 C 39.254 77.657, 45.947 78.174, 53.595 78.476 C 61.243 78.778, 69.357 79.263, 71.627 79.555 C 76.768 80.216, 76.909 79.896, 76.909 67.626 C 76.909 61.113, 76.535 58.074, 75.705 57.840 C 75.042 57.653, 66.420 57.623, 56.544 57.774 M 96.476 65.646 C 97.300 77.478, 97.301 84.809, 96.482 90.275 C 95.666 95.716, 96.549 96.226, 106.208 95.888 C 115.637 95.558, 116.098 95.330, 115.869 91.125 C 115.760 89.131, 116.007 86.466, 116.418 85.202 C 116.870 83.811, 116.690 82.331, 115.960 81.452 C 113.805 78.855, 116.582 77, 122.625 77 L 128.005 77 127.908 68.001 C 127.852 62.772, 127.362 58.724, 126.738 58.338 C 126.147 57.973, 118.958 57.476, 110.762 57.233 L 95.860 56.791 96.476 65.646 M 23.752 99.750 C 23.551 100.162, 23.691 102.075, 24.062 104 L 24.737 107.500 24.868 103.250 C 24.992 99.261, 24.596 98.019, 23.752 99.750" stroke="none" fill="black" fill-rule="evenodd"/>
</svg>