<svg xmlns="http://www.w3.org/2000/svg" width="256" height="256" viewBox="0 0 256 256" version="1.1">
	<path d="M 124.910 17.424 C 124.676 17.657, 104.576 17.967, 80.243 18.112 L 36 18.377 36 27.129 C 36 32.151, 36.447 36.158, 37.048 36.529 C 37.624 36.886, 50.458 37.125, 65.569 37.061 C 88.764 36.964, 93.129 37.172, 93.600 38.401 C 94.119 39.753, 94.447 50.443, 94.136 55.881 C 94.011 58.066, 93.691 58.209, 90.250 57.616 C 88.188 57.261, 70.866 56.694, 51.757 56.355 L 17.013 55.740 18.137 58.963 C 18.755 60.736, 19.036 64.507, 18.761 67.343 C 18.486 70.179, 18.473 73.087, 18.732 73.804 C 19.106 74.840, 24.903 75.073, 46.851 74.935 L 74.500 74.762 74.500 102.631 L 74.500 130.500 72 130.677 C 70.625 130.774, 61.750 131.182, 52.279 131.583 C 36.706 132.243, 34.996 132.153, 34.417 130.644 C 34.064 129.726, 34.370 128.260, 35.095 127.386 C 35.924 126.387, 36.328 123.635, 36.183 119.972 C 36.037 116.271, 36.394 113.875, 37.162 113.400 C 37.826 112.989, 42.225 112.619, 46.935 112.577 L 55.500 112.500 55.788 102.588 C 55.960 96.673, 55.658 92.258, 55.038 91.638 C 54.321 90.921, 54 91.125, 54 92.300 C 54 94.132, 53.701 94.180, 42.703 94.120 C 37.610 94.092, 35.764 94.453, 35.339 95.558 C 34.896 96.713, 33.171 96.968, 27.387 96.735 L 20 96.438 19.922 102.969 C 19.879 106.561, 19.646 118.838, 19.404 130.250 L 18.965 151 28.232 151.077 C 33.330 151.119, 38.400 151.336, 39.500 151.559 C 43.327 152.337, 151.318 152.081, 151.971 151.293 C 152.332 150.857, 152.444 146.387, 152.218 141.359 L 151.809 132.218 123.375 132.150 C 107.736 132.112, 94.607 131.875, 94.199 131.623 C 93.791 131.371, 93.807 125.840, 94.234 119.332 C 94.662 112.825, 95.121 100.300, 95.256 91.500 L 95.500 75.500 103.847 75.208 C 109.141 75.023, 112.707 75.342, 113.597 76.080 C 115.298 77.492, 115.404 84.227, 113.963 99.419 C 113.138 108.115, 113.189 110.509, 114.214 111.184 C 114.921 111.649, 119.425 111.821, 124.223 111.567 C 129.187 111.303, 133.198 111.512, 133.532 112.052 C 133.854 112.573, 138.141 113, 143.059 113 L 152 113 152.167 105.500 C 152.258 101.375, 152.371 97.213, 152.417 96.250 C 152.488 94.756, 151.246 94.414, 143.917 93.912 C 139.196 93.589, 134.811 93.001, 134.173 92.607 C 133.412 92.137, 133.097 89.086, 133.257 83.738 C 133.537 74.349, 133.602 74.293, 144.500 74.084 C 147.800 74.021, 151.084 73.599, 151.797 73.147 C 152.716 72.563, 153.008 70.166, 152.797 64.912 L 152.500 57.500 147.166 56.964 C 144.233 56.670, 136.583 57.009, 130.166 57.719 C 113.132 59.602, 113.872 60.066, 114.215 47.722 L 114.500 37.500 123.250 37.211 L 132 36.922 132 26.961 L 132 17 128.667 17 C 126.833 17, 125.143 17.191, 124.910 17.424 M 33 102 C 32.124 102.566, 31.990 102.976, 32.677 102.985 C 33.324 102.993, 34.059 103.787, 34.311 104.750 C 34.592 105.827, 34.813 105.442, 34.884 103.750 C 35.015 100.650, 35.045 100.678, 33 102 M 243.598 245.736 C 242.281 247.052, 243.117 249, 245 249 C 246.100 249, 247 248.373, 247 247.607 C 247 246.099, 244.571 244.762, 243.598 245.736" stroke="none" fill="black" fill-rule="evenodd"/>
</svg>