<svg xmlns="http://www.w3.org/2000/svg" width="256" height="256" viewBox="0 0 256 256" version="1.1">
	<path d="M 91.500 14.085 C 89.850 14.587, 85.487 14.834, 81.805 14.635 C 76.643 14.356, 74.982 14.604, 74.555 15.718 C 74.250 16.513, 74 34.846, 74 56.457 L 74 95.750 70.875 96.375 C 69.156 96.719, 64.897 97, 61.410 97 C 53.663 97, 53 97.867, 53 108 C 53 116.770, 51.907 119.295, 48.648 118.056 C 47.302 117.545, 45.740 117.552, 44.917 118.073 C 44.137 118.566, 42.044 118.976, 40.264 118.985 C 36.834 119.001, 28.512 120.742, 26 121.969 C 25.175 122.372, 23.537 122.554, 22.361 122.374 C 19.564 121.946, 19.031 124.063, 19.014 135.668 C 18.996 147.376, 19.205 147.886, 23.817 147.418 C 25.843 147.213, 30.234 146.868, 33.575 146.652 C 38.455 146.336, 40.156 145.753, 42.219 143.690 C 43.632 142.277, 44.536 140.869, 44.227 140.561 C 43.919 140.252, 44.878 140, 46.358 140 C 48.280 140, 49.311 139.313, 49.963 137.597 C 50.466 136.276, 51.323 134.918, 51.868 134.581 C 52.414 134.244, 53.174 131.452, 53.559 128.376 L 54.258 122.783 64.602 123.166 L 74.947 123.549 75.223 110.024 L 75.500 96.500 80.750 96.198 C 83.949 96.014, 86 96.307, 86 96.948 C 86 97.526, 86.675 98, 87.500 98 C 88.325 98, 89 97.550, 89 97 C 89 95.805, 92.666 95.650, 93.385 96.814 C 93.662 97.262, 93.968 102.992, 94.065 109.547 C 94.162 116.102, 94.471 122.065, 94.753 122.798 C 95.141 123.810, 96.721 123.970, 101.334 123.463 C 104.672 123.097, 108.403 122.417, 109.624 121.953 C 113.370 120.529, 114.301 123.050, 114.926 136.314 L 115.500 148.500 134.250 148.655 C 151.064 148.794, 153.008 148.639, 153.079 147.155 C 153.367 141.093, 152.708 132.342, 151.900 131.519 C 151.371 130.979, 147.572 130.510, 143.458 130.476 C 135.387 130.411, 133.611 129.329, 132.849 124.013 C 132.430 121.092, 129.925 120.239, 121.357 120.100 C 116.491 120.021, 115.073 119.636, 114.534 118.250 C 114.161 117.287, 113.891 111.391, 113.936 105.147 L 114.016 93.794 104.758 94.147 L 95.500 94.500 94.945 82.500 C 94.640 75.900, 94.587 57.563, 94.828 41.750 C 95.069 25.938, 95.093 13.039, 94.883 13.086 C 94.672 13.133, 93.150 13.583, 91.500 14.085 M 11.676 207.402 C 10.956 209.278, 11.715 209.887, 14.022 209.284 C 15.651 208.858, 15.726 208.583, 14.536 207.393 C 12.790 205.647, 12.349 205.649, 11.676 207.402 M 14 217.227 C 14 219.050, 15.773 220.561, 16.757 219.576 C 17.100 219.233, 16.620 218.192, 15.690 217.262 C 14.132 215.703, 14 215.700, 14 217.227 M 13.393 222.582 C 13.727 223.452, 14 224.352, 14 224.582 C 14 224.812, 14.675 225, 15.500 225 C 16.333 225, 17 224.111, 17 223 C 17 221.633, 16.333 221, 14.893 221 C 13.383 221, 12.958 221.448, 13.393 222.582 M 243.667 246.667 C 242.197 248.136, 243.165 248.998, 246.250 248.968 C 249.324 248.938, 249.395 248.857, 247.559 247.468 C 245.403 245.838, 244.651 245.683, 243.667 246.667" stroke="none" fill="black" fill-rule="evenodd"/>
</svg>