<svg xmlns="http://www.w3.org/2000/svg" width="256" height="256" viewBox="0 0 256 256" version="1.1">
	<path d="M 59.667 18.667 C 59.300 19.033, 59 23.253, 59 28.044 C 59 34.388, 58.610 37.078, 57.567 37.945 C 56.707 38.658, 53.205 39.078, 48.817 38.994 C 44.792 38.917, 41.034 38.887, 40.465 38.927 C 39.819 38.972, 39.512 42.201, 39.649 47.500 C 39.840 54.860, 39.643 56.012, 38.185 56.090 C 37.258 56.139, 32.547 56.181, 27.716 56.183 L 18.932 56.187 19.216 66.218 L 19.500 76.249 29 76.374 L 38.500 76.500 38.500 113.782 L 38.500 151.064 48.500 150.782 L 58.500 150.500 59 132.500 L 59.500 114.500 62.500 114.646 C 74.698 115.241, 77.234 115.577, 78.182 116.719 C 78.891 117.574, 79.084 122.963, 78.751 132.620 C 78.474 140.654, 78.440 147.964, 78.676 148.864 C 79.062 150.339, 81.983 150.476, 108.302 150.254 C 124.361 150.119, 141.325 149.894, 146 149.754 L 154.500 149.500 154.664 146 C 154.754 144.075, 154.379 139.575, 153.830 136 C 152.747 128.936, 152.564 88.842, 153.590 83.371 L 154.223 80 145.285 80 C 134.916 80, 116.209 78.314, 110.697 76.882 L 106.893 75.894 107.571 71.373 C 108.196 67.209, 107.996 66.591, 105.038 63.539 C 102.555 60.977, 102.130 60.030, 103.163 59.363 C 103.898 58.888, 115.975 58.466, 130 58.424 L 155.500 58.348 156 49.073 C 156.559 38.701, 155.981 37.690, 149.683 38.030 C 147.932 38.125, 140.088 38.157, 132.250 38.101 L 118 38 118 28.667 C 118 23.533, 117.814 19.146, 117.588 18.917 C 117.361 18.688, 113.020 18.725, 107.943 19 L 98.710 19.500 98.412 28.393 C 98.248 33.285, 97.750 37.565, 97.307 37.905 C 96.863 38.245, 92.338 38.373, 87.250 38.190 L 78 37.858 78 27.929 L 78 18 69.167 18 C 64.308 18, 60.033 18.300, 59.667 18.667 M 59.666 56.500 C 58.865 82.269, 58.885 91.344, 59.745 92.617 C 60.714 94.051, 76.870 95.020, 77.690 93.693 C 78.023 93.153, 78.425 89.964, 78.583 86.606 C 79.149 74.569, 79.929 65.132, 80.568 62.586 C 81.067 60.597, 80.677 59.559, 78.883 58.106 C 76.708 56.345, 76.564 55.589, 76.782 47.078 L 77.015 37.941 68.620 38.220 L 60.225 38.500 59.666 56.500 M 99.923 106.750 C 99.881 109.912, 99.705 113.227, 99.532 114.116 C 99.358 115.005, 99.604 116.355, 100.078 117.116 C 100.762 118.216, 101.333 118.256, 102.860 117.310 C 104.380 116.368, 105.169 116.413, 106.641 117.528 C 108.834 119.189, 114 119.470, 114 117.929 C 114 117.339, 114.706 117.564, 115.570 118.427 C 116.433 119.291, 118.121 120.193, 119.320 120.433 C 125.768 121.721, 127.984 121.835, 128.556 120.909 C 129.393 119.554, 129.376 104.418, 128.536 103.059 C 127.631 101.594, 119.238 101.868, 115 103.500 C 113.075 104.241, 112.239 104.882, 113.143 104.924 C 115.003 105.010, 115.982 106.899, 115.588 109.642 C 115.391 111.012, 114.318 111.584, 111.506 111.820 C 106.131 112.270, 103.127 111.342, 103.423 109.324 C 103.559 108.399, 104.532 107.304, 105.585 106.891 C 106.638 106.478, 106.926 106.109, 106.225 106.070 C 105.524 106.032, 104.523 104.875, 104 103.500 C 103.477 102.125, 102.363 101, 101.525 101 C 100.344 101, 99.983 102.298, 99.923 106.750 M 242.667 246.667 C 241.208 248.125, 242.155 249, 245.191 249 C 248.212 249, 248.279 248.922, 246.441 247.532 C 244.238 245.865, 243.611 245.722, 242.667 246.667" stroke="none" fill="black" fill-rule="evenodd"/>
</svg>