<svg xmlns="http://www.w3.org/2000/svg" width="256" height="256" viewBox="0 0 256 256" version="1.1">
	<path d="M 57 27.602 L 57 37 61.750 37.199 C 64.362 37.309, 68.368 37.421, 70.651 37.449 C 72.935 37.477, 75.017 37.725, 75.279 38 C 76.223 38.992, 76.952 56.533, 76.104 57.869 C 75.501 58.819, 73.087 59.229, 68.196 59.211 C 56.679 59.168, 57 59.490, 57 47.952 L 57 38.038 52.750 38.509 C 47.351 39.106, 39.753 39.883, 38.662 39.949 C 38.201 39.977, 37.970 43.488, 38.149 47.750 L 38.474 55.500 27.987 55.781 L 17.500 56.062 17.805 64.781 C 17.973 69.576, 18.296 74.063, 18.524 74.750 C 18.813 75.624, 21.591 76, 27.769 76 C 32.626 76, 37.045 76.445, 37.589 76.989 C 38.650 78.050, 38.540 148.317, 37.475 150.041 C 37.111 150.630, 40.954 151, 47.441 151 L 58 151 58.072 148.250 C 58.112 146.738, 58.332 143.700, 58.560 141.500 C 59.110 136.206, 59.115 134.748, 58.612 126.500 C 58.212 119.934, 57.616 79.042, 57.879 76.197 C 57.967 75.250, 59.842 74.938, 64.750 75.054 C 68.463 75.142, 72.253 74.906, 73.173 74.530 C 76.107 73.329, 76.699 76.925, 76.381 94.001 C 76.212 103.076, 76.473 111.147, 76.960 111.936 C 77.529 112.857, 79.932 113.466, 83.673 113.640 C 86.878 113.788, 91.525 114.239, 94 114.642 C 96.475 115.045, 99.400 115.322, 100.500 115.257 C 101.600 115.192, 109.362 114.814, 117.750 114.418 L 133 113.698 133.074 108.099 C 133.168 101.074, 133.619 98.638, 135.502 94.996 C 136.326 93.403, 137.045 89.714, 137.100 86.800 C 137.247 78.978, 138.160 76.662, 141.543 75.522 C 143.169 74.974, 144.725 74.250, 145 73.913 C 145.275 73.576, 146.132 73.097, 146.903 72.849 C 147.955 72.511, 147.672 71.763, 145.772 69.863 C 143.729 67.820, 143.440 66.956, 144.283 65.414 C 144.858 64.361, 145.764 63.212, 146.297 62.859 C 147.281 62.207, 143.926 60.774, 140.750 60.491 C 139.788 60.405, 138.704 60.037, 138.341 59.674 C 137.978 59.311, 137.605 50.448, 137.512 39.978 C 137.419 29.509, 136.928 20.559, 136.421 20.091 C 135.915 19.623, 117.838 19.007, 96.250 18.722 L 57 18.203 57 27.602 M 95.542 38 C 95.396 38.275, 95.348 42.467, 95.436 47.316 C 95.554 53.801, 95.980 56.375, 97.048 57.051 C 98.668 58.076, 109.184 58.313, 113.625 57.425 L 116.500 56.850 116.278 47.786 C 116.155 42.801, 115.930 38.603, 115.778 38.457 C 115.240 37.946, 95.805 37.506, 95.542 38 M 95.913 77.715 C 95.865 78.147, 95.752 82.208, 95.663 86.739 C 95.543 92.797, 95.853 95.114, 96.832 95.489 C 98.883 96.276, 112.351 96.064, 113.671 95.224 C 114.316 94.814, 115.084 91.784, 115.378 88.490 C 115.672 85.195, 116.045 81.375, 116.207 80 L 116.500 77.500 106.250 77.215 C 100.612 77.058, 95.961 77.283, 95.913 77.715 M 138.120 114.807 L 132.739 115.114 133.251 121.807 C 133.532 125.488, 133.928 129.175, 134.131 130 C 134.443 131.268, 131.795 131.623, 117 132.294 C 107.375 132.730, 91.271 133.180, 81.214 133.294 C 66.199 133.463, 62.760 133.768, 61.994 135 C 61.208 136.262, 62.127 136.579, 67.780 137 L 74.500 137.500 74.804 143.974 C 74.970 147.535, 75.490 150.685, 75.958 150.974 C 76.573 151.354, 137.102 151.399, 152.812 151.031 C 153.808 151.007, 154.074 148.895, 153.918 142.250 C 153.804 137.438, 153.341 132.375, 152.888 131 C 152.434 129.625, 151.874 125.575, 151.643 122 L 151.222 115.500 147.361 115 C 145.238 114.725, 141.079 114.638, 138.120 114.807 M 242 247.500 C 242 248.428, 242.941 249, 244.469 249 C 246.252 249, 246.777 248.584, 246.362 247.500 C 246.045 246.675, 244.934 246, 243.893 246 C 242.852 246, 242 246.675, 242 247.500" stroke="none" fill="black" fill-rule="evenodd"/>
</svg>