<svg xmlns="http://www.w3.org/2000/svg" width="256" height="256" viewBox="0 0 256 256" version="1.1">
	<path d="M 64.786 18.743 L 57.071 19.083 56.786 28.791 L 56.500 38.500 47.914 38.787 L 39.328 39.073 39.481 47.287 C 39.572 52.155, 39.200 55.799, 38.567 56.235 C 37.980 56.639, 33.321 56.976, 28.214 56.985 L 18.928 57 19.214 66.628 L 19.500 76.256 29 76.378 L 38.500 76.500 38.269 108.218 C 38.142 125.662, 37.648 142.425, 37.170 145.468 L 36.303 151 46.151 151 L 56 151 56.083 144.250 C 56.243 131.327, 56.653 130.587, 63.511 130.846 C 66.032 130.942, 68.984 130.544, 70.071 129.962 C 73.776 127.979, 75 130.791, 75 141.282 L 75 150.706 86.250 151.289 C 94.831 151.733, 117.850 151.603, 132.250 151.030 C 132.662 151.013, 133 146.729, 133 141.509 L 133 132.017 142.250 132.172 L 151.500 132.327 152.039 123.914 C 152.336 119.286, 152.394 114.920, 152.168 114.212 C 151.869 113.274, 149.374 112.968, 142.981 113.084 C 138.154 113.172, 133.663 112.910, 133.002 112.501 C 132.095 111.941, 131.976 107.431, 132.515 94.129 C 132.909 84.433, 133.405 76.203, 133.619 75.839 C 133.833 75.476, 137.836 74.860, 142.515 74.470 C 152.061 73.675, 151.468 74.308, 152.341 63.979 C 153.029 55.848, 152.060 54.991, 142.692 55.452 L 135.049 55.827 135.377 48.814 C 135.571 44.665, 136.207 41.490, 136.936 41.040 C 139.189 39.647, 135.218 39, 124.418 39 L 114 39 114 28.375 L 114 17.750 110.875 18.375 C 109.156 18.719, 104.898 19, 101.411 19 L 95.072 19 94.786 28.750 L 94.500 38.500 89.902 38.799 C 87.373 38.963, 83.146 38.735, 80.509 38.293 L 75.714 37.490 75.722 28.995 C 75.729 19.728, 75.377 17.896, 73.643 18.201 C 73.014 18.312, 69.029 18.556, 64.786 18.743 M 142.250 40.716 C 143.762 40.945, 146.238 40.945, 147.750 40.716 C 149.262 40.487, 148.025 40.300, 145 40.300 C 141.975 40.300, 140.738 40.487, 142.250 40.716 M 139.132 47.341 C 138.203 48.460, 138.270 48.890, 139.442 49.340 C 141.251 50.034, 142.605 48.205, 141.270 46.870 C 140.663 46.263, 139.884 46.435, 139.132 47.341 M 58.099 58.381 C 57.283 59.364, 57.031 60.988, 57.441 62.620 C 58.199 65.641, 58.318 108.015, 57.570 108.763 C 57.301 109.033, 57.760 110.569, 58.592 112.178 C 59.823 114.559, 60.512 114.963, 62.302 114.352 C 64.544 113.588, 106.712 113.660, 110.686 114.434 C 114.292 115.137, 115.324 112.742, 114.646 105.243 C 114.310 101.534, 114.027 97.442, 114.018 96.148 L 114 93.797 95 94.526 L 76 95.255 75.918 92.878 C 75.664 85.515, 76.303 78.431, 77.275 77.830 C 77.887 77.452, 82.688 77.072, 87.944 76.987 C 93.200 76.901, 101.034 76.532, 105.354 76.166 L 113.208 75.500 113.204 67.683 C 113.202 63.384, 113.043 59.720, 112.850 59.541 C 112.657 59.362, 102.600 58.954, 90.500 58.633 C 78.400 58.313, 66.457 57.767, 63.961 57.419 C 60.468 56.933, 59.117 57.155, 58.099 58.381 M 243 247.500 C 243 248.362, 243.902 249, 245.122 249 C 246.896 249, 247.040 248.753, 246 247.500 C 245.315 246.675, 244.360 246, 243.878 246 C 243.395 246, 243 246.675, 243 247.500" stroke="none" fill="black" fill-rule="evenodd"/>
</svg>