<svg xmlns="http://www.w3.org/2000/svg" width="256" height="256" viewBox="0 0 256 256" version="1.1">
	<path d="M 57.212 27.183 L 57.500 36.500 66.306 36.640 C 71.150 36.716, 75.268 36.941, 75.458 37.140 C 75.648 37.338, 75.961 41.775, 76.152 47 L 76.500 56.500 66.750 56.786 C 59.348 57.004, 56.984 56.763, 56.934 55.786 C 56.898 55.079, 56.924 50.604, 56.992 45.843 L 57.116 37.186 52.841 38.147 C 50.489 38.675, 47.480 38.835, 46.154 38.503 C 44.828 38.170, 42.468 38.178, 40.910 38.520 C 38.092 39.139, 38.074 39.193, 37.788 47.821 L 37.500 56.500 28.500 56.570 L 19.500 56.639 19.215 66.782 L 18.931 76.924 28.215 77.212 L 37.500 77.500 37.192 108.500 C 36.930 134.844, 36.568 144.759, 35.658 150.500 C 35.562 151.109, 39.303 151.500, 45.226 151.500 L 54.953 151.500 55.487 134 C 55.904 120.313, 56.485 98.014, 56.980 76.653 C 56.991 76.188, 61.275 75.963, 66.501 76.153 L 76.002 76.500 76.001 66.857 C 76 60.020, 76.364 57.099, 77.250 56.818 C 77.938 56.600, 82.298 56.664, 86.939 56.961 L 95.378 57.500 95.119 104 C 94.875 148.064, 95.186 155.935, 97.055 152.911 C 97.540 152.126, 100.586 151.565, 105.166 151.416 C 109.200 151.286, 112.838 151.138, 113.250 151.089 C 113.662 151.040, 114 147.202, 114 142.559 C 114 137.916, 114.338 133.928, 114.750 133.695 C 115.162 133.463, 119.412 133.492, 124.193 133.759 C 130.556 134.115, 133.384 134.709, 134.746 135.978 C 136.255 137.384, 137.914 137.624, 143.553 137.254 C 154.087 136.561, 154.204 136.436, 153.870 126.174 C 153.715 121.403, 153.210 116.980, 152.749 116.344 C 152.238 115.638, 148.579 115.152, 143.362 115.095 C 138.661 115.044, 134.409 114.753, 133.914 114.447 C 133.419 114.141, 131.099 113.722, 128.757 113.515 C 123.439 113.046, 117.659 111.968, 117 111.323 C 116.725 111.054, 116.478 107.590, 116.450 103.626 L 116.400 96.419 122.450 96.156 C 130.968 95.787, 134.529 95.408, 135.586 94.761 C 136.088 94.452, 139.088 93.878, 142.250 93.485 C 145.412 93.091, 148 92.371, 148 91.885 C 148 91.398, 147.646 91, 147.213 91 C 146.780 91, 146.357 90.084, 146.272 88.964 C 146.188 87.845, 145.185 85.418, 144.044 83.572 C 141.603 79.621, 139.360 79.028, 124.250 78.339 C 115.568 77.943, 113.977 77.613, 113.850 76.186 C 113.369 70.791, 113.519 60.778, 114.094 59.848 C 114.530 59.142, 121.406 58.646, 133.590 58.442 L 152.411 58.126 152.262 48.952 C 152.179 43.907, 151.960 39.627, 151.775 39.442 C 151.590 39.257, 138.936 39.022, 123.654 38.920 L 95.869 38.734 96.185 29.365 C 96.358 24.212, 96.275 19.935, 96 19.862 C 95.280 19.669, 79.218 18.794, 67.212 18.294 L 56.923 17.866 57.212 27.183 M 242.250 246.667 C 240.067 247.540, 240.902 249, 243.583 249 C 245.133 249, 246.008 248.525, 245.771 247.813 C 245.302 246.406, 243.979 245.975, 242.250 246.667" stroke="none" fill="black" fill-rule="evenodd"/>
</svg>