<svg xmlns="http://www.w3.org/2000/svg" width="256" height="256" viewBox="0 0 256 256" version="1.1">
	<path d="M 58.605 17.728 C 58.272 18.061, 58.003 22.646, 58.007 27.917 L 58.013 37.500 67.257 37.500 C 80.344 37.500, 81 38.025, 81 48.507 C 81 56.691, 80.969 56.791, 78.250 57.519 C 73.385 58.821, 60.771 59.055, 59.343 57.870 C 58.405 57.091, 58 54.098, 58 47.937 C 58 43.086, 57.643 38.897, 57.206 38.627 C 56.769 38.357, 52.422 38.443, 47.545 38.818 L 38.679 39.500 38.589 47.500 L 38.500 55.500 28.714 55.787 L 18.928 56.073 19.214 65.787 L 19.500 75.500 28.826 75.660 C 33.956 75.747, 38.390 76.056, 38.680 76.346 C 39.423 77.089, 38.987 130.554, 38.145 141.868 C 37.662 148.373, 37.786 151.365, 38.554 151.659 C 39.161 151.892, 43.673 151.952, 48.579 151.791 L 57.500 151.500 58.057 133 C 58.364 122.825, 58.701 114.334, 58.807 114.132 C 59.205 113.371, 76.524 115.253, 77.064 116.116 C 78.011 117.628, 95.147 117.781, 95.722 116.282 C 96.403 114.507, 113.557 114.478, 114.661 116.250 C 115.656 117.846, 115.156 129.840, 114.005 131.990 C 112.904 134.048, 112.466 150.327, 113.468 151.949 C 113.974 152.767, 115.718 152.959, 118.858 152.544 C 121.411 152.206, 129.575 151.902, 137 151.868 C 144.425 151.834, 151.199 151.622, 152.054 151.398 C 153.424 151.038, 153.655 145.306, 154.013 102.745 C 154.237 76.210, 154.438 46.738, 154.460 37.251 L 154.500 20.003 142.500 19.993 C 126.270 19.979, 90.013 19.068, 82 18.472 C 67.968 17.429, 59.184 17.150, 58.605 17.728 M 96 40 C 95.175 40.533, 94.999 40.976, 95.609 40.985 C 96.312 40.994, 96.790 43.957, 96.913 49.077 C 97.020 53.519, 97.570 58.356, 98.135 59.827 C 99.337 62.956, 99.830 73, 98.781 73 C 98.386 73, 98.297 73.611, 98.584 74.357 C 99.278 76.167, 107.617 76.167, 109.119 74.357 C 109.998 73.298, 109.834 72.986, 108.372 72.937 C 106.840 72.885, 106.925 72.703, 108.842 71.935 C 110.131 71.418, 111.593 71.249, 112.092 71.557 C 112.592 71.866, 113 71.593, 113 70.952 C 113 70.309, 113.696 70.053, 114.552 70.382 C 115.442 70.723, 115.843 70.555, 115.493 69.989 C 115.157 69.445, 115.414 69, 116.063 69 C 116.967 69, 116.970 68.668, 116.074 67.589 C 115.198 66.533, 115.191 66, 116.048 65.471 C 116.747 65.038, 116.950 63.544, 116.570 61.632 C 116.228 59.909, 115.987 54.112, 116.033 48.750 L 116.118 39 106.809 39.015 C 101.689 39.024, 96.825 39.467, 96 40 M 137.845 59.038 C 137.217 62.312, 137.809 64, 139.583 64 C 140.497 64, 141 62.913, 141 60.941 C 141 59.259, 140.588 58.136, 140.085 58.447 C 139.582 58.758, 138.982 58.447, 138.751 57.756 C 138.520 57.065, 138.112 57.642, 137.845 59.038 M 129.520 72.938 C 128.665 75.632, 130.579 78.262, 131.551 75.728 C 131.890 74.844, 131.733 73.346, 131.203 72.398 C 130.334 70.846, 130.166 70.900, 129.520 72.938 M 115 75 C 115 75.550, 115.450 76, 116 76 C 116.550 76, 117 75.550, 117 75 C 117 74.450, 116.550 74, 116 74 C 115.450 74, 115 74.450, 115 75 M 244 247.441 C 244 248.298, 244.450 249, 245 249 C 245.550 249, 246 248.577, 246 248.059 C 246 247.541, 245.550 246.840, 245 246.500 C 244.450 246.160, 244 246.584, 244 247.441" stroke="none" fill="black" fill-rule="evenodd"/>
</svg>