<svg xmlns="http://www.w3.org/2000/svg" width="256" height="256" viewBox="0 0 256 256" version="1.1">
	<path d="M 56 28.074 L 56 38 47 38 L 38 38 38 47 L 38 56 27.192 56 L 16.384 56 16.798 65.250 C 17.026 70.338, 17.595 74.908, 18.063 75.407 C 18.531 75.905, 23.095 76.355, 28.207 76.407 L 37.500 76.500 37.669 87.500 C 38.287 127.597, 37.924 147.696, 36.542 149.932 C 35.352 151.857, 39.058 152.582, 48.180 152.208 L 57.860 151.812 57.911 142.352 C 57.965 132.277, 59.299 128.312, 62.048 130.051 C 62.847 130.556, 66.039 130.976, 69.143 130.985 C 72.948 130.995, 74.955 131.440, 75.304 132.351 C 75.696 133.371, 78.042 133.648, 84.891 133.484 L 93.959 133.267 94.574 136.541 C 94.912 138.343, 95.033 142.431, 94.844 145.627 L 94.500 151.439 102.500 151.253 C 106.900 151.151, 111.256 151.053, 112.180 151.034 C 113.589 151.005, 113.864 149.866, 113.883 143.982 C 113.895 140.121, 114.137 136.587, 114.421 136.128 C 114.705 135.669, 118.114 134.998, 121.997 134.637 C 125.881 134.276, 129.608 133.872, 130.279 133.740 C 131.158 133.567, 131.539 135.968, 131.640 142.306 C 131.716 147.150, 132.038 151.371, 132.355 151.688 C 132.671 152.004, 137.446 152.317, 142.965 152.382 L 153.001 152.500 152.985 144 C 152.976 139.325, 152.585 134.894, 152.115 134.152 C 151.514 133.204, 149.371 132.880, 144.881 133.060 C 141.371 133.201, 137.323 132.987, 135.884 132.583 C 133.293 131.858, 133.270 131.765, 133.515 123.175 C 133.651 118.404, 133.833 109.100, 133.920 102.500 C 134.007 95.900, 134.343 87.463, 134.668 83.750 L 135.258 77 143.094 77 C 149.818 77, 151.077 76.725, 151.965 75.065 C 152.682 73.725, 152.673 72.270, 151.934 70.326 C 151.347 68.783, 151.155 65.988, 151.506 64.114 C 152.343 59.655, 151.093 58.973, 143.394 59.692 C 137.544 60.238, 137.178 60.143, 136.412 57.884 C 135.967 56.573, 135.731 55.050, 135.886 54.500 C 136.123 53.661, 136.077 45.710, 135.706 23.225 C 135.665 20.734, 135.155 19.852, 133.576 19.536 C 132.434 19.308, 114.513 18.902, 93.750 18.635 L 56 18.148 56 28.074 M 75.744 38.590 C 75.419 38.914, 71.632 39.316, 67.327 39.482 C 63.022 39.649, 59.163 39.833, 58.750 39.892 C 58.337 39.952, 58 43.569, 58 47.931 L 58 55.863 67.750 56.395 C 73.112 56.688, 85.510 57.205, 95.300 57.544 C 114.049 58.194, 116.683 57.718, 115.674 53.860 C 115.418 52.882, 115.528 49.369, 115.919 46.055 C 116.357 42.337, 116.241 39.641, 115.615 39.015 C 114.538 37.938, 76.798 37.535, 75.744 38.590 M 95.875 84.103 C 95.806 87.897, 95.664 91.563, 95.559 92.250 C 95.454 92.938, 95.760 94.305, 96.240 95.290 C 96.991 96.830, 98.251 97.039, 105.306 96.790 L 113.500 96.500 113.788 87.250 L 114.075 78 111.288 77.971 C 109.754 77.955, 105.688 77.777, 102.250 77.575 L 96 77.207 95.875 84.103 M 74.079 119.583 C 74.127 120.748, 74.364 120.985, 74.683 120.188 C 74.972 119.466, 74.936 118.603, 74.604 118.271 C 74.272 117.939, 74.036 118.529, 74.079 119.583 M 243.250 245.729 C 241.651 246.289, 241.625 248.708, 243.212 249.237 C 245.204 249.901, 249.110 248.830, 248.740 247.721 C 248.301 246.402, 244.877 245.160, 243.250 245.729" stroke="none" fill="black" fill-rule="evenodd"/>
</svg>