<svg xmlns="http://www.w3.org/2000/svg" width="256" height="256" viewBox="0 0 256 256" version="1.1">
	<path d="M 77.077 26.634 C 77.182 31.822, 76.944 36.389, 76.549 36.783 C 76.154 37.177, 62.932 37.500, 47.166 37.500 L 18.500 37.500 18.372 46.266 C 18.294 51.585, 18.666 55.294, 19.320 55.698 C 19.912 56.064, 28.520 56.472, 38.448 56.606 C 48.377 56.740, 56.837 56.883, 57.250 56.924 C 57.663 56.966, 58 61.078, 58 66.062 L 58 75.124 66.370 74.922 C 70.973 74.812, 75.248 75.035, 75.870 75.420 C 77.211 76.248, 77.417 93.793, 76.110 95.856 C 75.500 96.818, 72.791 97.223, 66.789 97.248 L 58.327 97.284 57.004 107.892 C 56.276 113.726, 55.722 120.638, 55.773 123.250 C 55.850 127.259, 55.573 128, 53.991 128 C 51.188 128, 50.686 126.336, 52.433 122.834 C 53.295 121.106, 54 119.280, 54 118.775 C 54 116.732, 50.925 115.001, 47.321 115.015 C 43.018 115.033, 41.397 115.810, 41.097 118 C 40.736 120.642, 40.147 127.426, 40.072 129.807 C 40.001 132.075, 39.824 132.111, 29.750 131.923 L 19.500 131.732 19.260 138.116 C 19.128 141.627, 19.240 145.850, 19.508 147.500 L 19.996 150.500 29.748 150.289 C 35.112 150.173, 43.247 150.061, 47.826 150.039 L 56.152 150 55.826 141.750 C 55.393 130.788, 56.186 130, 67.653 130 L 76 130 76 140.429 L 76 150.858 85.250 151.192 C 90.338 151.376, 95.091 151.349, 95.813 151.132 C 96.802 150.835, 97.048 148.492, 96.813 141.619 L 96.500 132.500 100.500 132.170 C 102.700 131.989, 106.894 132.138, 109.819 132.501 L 115.138 133.161 114.819 142.095 C 114.558 149.406, 114.773 151.086, 116 151.345 C 116.825 151.518, 125.150 151.624, 134.500 151.580 L 151.500 151.500 151.788 142.250 L 152.075 133 141.288 132.863 C 135.354 132.788, 127.125 132.676, 123 132.613 L 115.500 132.500 114.616 114.218 C 114.130 104.162, 114.054 95.612, 114.449 95.218 C 114.843 94.823, 118.953 94.341, 123.583 94.147 L 132 93.795 132 103.164 L 132 112.533 141.860 112.842 L 151.720 113.151 152.176 110.325 C 152.427 108.771, 152.603 103.900, 152.566 99.500 L 152.500 91.500 143.815 91.482 C 139.038 91.472, 134.874 91.207, 134.560 90.893 C 133.696 90.029, 132.757 78.698, 132.621 67.500 L 132.500 57.500 142.286 57.213 L 152.072 56.927 151.786 47.366 L 151.500 37.805 125.444 37.946 C 111.114 38.023, 98.591 37.780, 97.616 37.406 C 96.088 36.820, 95.867 35.533, 96.018 28.113 C 96.115 23.376, 96.149 19.050, 96.094 18.500 C 96.037 17.922, 91.967 17.437, 86.441 17.351 L 76.887 17.203 77.077 26.634 M 95.691 58.894 C 95.554 59.227, 95.605 67.532, 95.805 77.349 L 96.168 95.198 104.501 94.849 C 109.085 94.657, 113.034 94.275, 113.279 94 C 113.523 93.725, 113.990 89.544, 114.316 84.708 L 114.909 75.916 112.225 74.895 C 110.748 74.334, 109.201 73.341, 108.786 72.687 C 108.215 71.790, 108.027 71.805, 108.015 72.750 C 108.007 73.438, 107.523 74, 106.941 74 C 106.359 74, 106.160 73.550, 106.500 73 C 106.840 72.450, 106.641 71.944, 106.059 71.875 C 103.491 71.572, 103.126 71.459, 102.417 70.750 C 102.004 70.338, 103.429 69.993, 105.583 69.985 C 110.227 69.967, 111.521 69.196, 111.439 66.500 C 111.405 65.400, 111.725 63.505, 112.149 62.288 C 112.825 60.352, 112.521 60.014, 109.711 59.583 C 103.751 58.667, 95.942 58.284, 95.691 58.894 M 37.691 76.759 C 37.462 77.166, 37.180 80.871, 37.063 84.992 C 36.946 89.112, 36.620 92.712, 36.338 92.992 C 36.057 93.271, 32.153 93.500, 27.663 93.500 L 19.500 93.500 19.500 103 L 19.500 112.500 28.834 112.789 L 38.169 113.077 37.886 103.789 L 37.603 94.500 42.052 94.401 C 44.498 94.346, 49.105 94.234, 52.289 94.151 L 58.078 94 57.789 85.250 L 57.500 76.500 47.804 76.259 C 42.471 76.126, 37.920 76.351, 37.691 76.759 M 47.250 133.718 C 45.233 134.442, 45.817 137, 48 137 C 49.100 137, 50 136.352, 50 135.559 C 50 133.820, 48.942 133.111, 47.250 133.718 M 75.425 176.121 C 75.125 176.606, 79.865 177, 86 177 C 92.115 177, 96.883 176.619, 96.595 176.154 C 95.899 175.028, 76.120 174.997, 75.425 176.121 M 14.813 208.683 C 15.534 208.972, 16.397 208.936, 16.729 208.604 C 17.061 208.272, 16.471 208.036, 15.417 208.079 C 14.252 208.127, 14.015 208.364, 14.813 208.683 M 244 247.500 C 244 248.325, 244.730 249, 245.622 249 C 246.951 249, 247.020 248.729, 246 247.500 C 245.315 246.675, 244.585 246, 244.378 246 C 244.170 246, 244 246.675, 244 247.500" stroke="none" fill="black" fill-rule="evenodd"/>
</svg>