<svg xmlns="http://www.w3.org/2000/svg" width="256" height="256" viewBox="0 0 256 256" version="1.1">
	<path d="M 66 18 L 57.500 18.500 57.210 27.966 C 57.025 33.991, 56.480 37.711, 55.710 38.201 C 55.044 38.623, 51.075 38.976, 46.890 38.985 L 39.280 39 39.558 46.991 C 39.743 52.271, 39.441 55.238, 38.669 55.735 C 38.026 56.149, 33.225 56.545, 28 56.614 L 18.500 56.741 18.267 65.120 C 18.138 69.729, 18.385 74.056, 18.816 74.735 C 19.327 75.540, 22.575 76.011, 28.160 76.090 C 32.869 76.156, 37.250 76.536, 37.895 76.935 C 38.784 77.484, 38.869 86.523, 38.245 114.080 C 37.791 134.111, 37.663 150.806, 37.960 151.181 C 38.257 151.555, 51.325 151.971, 67 152.106 L 95.500 152.351 95.786 143.317 L 96.071 134.283 102.563 133.676 C 106.133 133.343, 110.167 133.493, 111.527 134.010 C 113.852 134.894, 114 135.396, 114 142.393 C 114 152.629, 114.202 152.977, 119.835 152.444 C 122.401 152.201, 130.960 151.839, 138.856 151.639 C 149.705 151.365, 153.426 150.937, 154.090 149.888 C 154.574 149.125, 154.976 144.787, 154.985 140.250 L 155 132 148.750 131.928 C 145.313 131.888, 136.425 131.776, 129 131.678 L 115.500 131.500 115.152 128.500 C 114.960 126.850, 115.116 120.018, 115.499 113.318 C 116.165 101.636, 116.277 101.167, 118.220 101.886 C 119.901 102.508, 132.190 101.516, 132.427 100.740 C 133.102 98.525, 135.182 96.555, 136.638 96.751 C 137.662 96.889, 141.737 97.169, 145.692 97.372 C 151.308 97.662, 153.007 97.424, 153.442 96.290 C 153.749 95.490, 154 91.048, 154 86.418 L 154 78 145.750 77.930 C 133.623 77.826, 133.714 77.900, 133.714 68.322 C 133.714 63.894, 134.047 59.733, 134.453 59.076 C 134.939 58.289, 137.976 57.925, 143.346 58.009 C 147.831 58.079, 152.063 58.106, 152.750 58.068 C 153.662 58.018, 154 55.299, 154 48.008 L 154 38.017 134.750 38.258 L 115.500 38.500 115.500 28.500 L 115.500 18.500 105.750 18.214 L 96 17.928 96 27.964 L 96 38 87.059 38 C 81.341 38, 77.859 37.581, 77.399 36.837 C 77.004 36.197, 76.723 31.953, 76.774 27.405 C 76.835 22.064, 76.449 18.846, 75.684 18.318 C 75.033 17.868, 70.675 17.725, 66 18 M 59.210 56.865 C 58.270 57.450, 57.999 60.218, 58.210 67.084 L 58.500 76.500 65 76.371 C 96.136 75.755, 95.885 75.783, 92.750 73.225 C 91.335 72.070, 81.121 72.102, 79.322 73.266 C 77.937 74.163, 76.878 71.459, 77.456 68.500 C 77.671 67.400, 77.881 65.713, 77.923 64.750 C 77.966 63.788, 78.627 63, 79.393 63 C 80.159 63, 81.045 62.325, 81.362 61.500 C 81.716 60.576, 81.359 60, 80.433 60 C 79.606 60, 77.833 59.282, 76.493 58.404 C 73.829 56.658, 61.333 55.546, 59.210 56.865 M 84.250 60.689 C 85.213 60.941, 86 61.564, 86 62.073 C 86 62.583, 86.477 63, 87.059 63 C 87.641 63, 87.861 62.584, 87.547 62.076 C 87.233 61.567, 87.769 60.945, 88.738 60.692 C 89.707 60.439, 88.700 60.232, 86.500 60.232 C 84.300 60.232, 83.287 60.438, 84.250 60.689 M 58.605 100.587 C 57.675 103.011, 58.018 129.165, 59.004 131.008 C 59.723 132.351, 61.367 132.584, 68.475 132.352 C 73.205 132.198, 77.411 131.864, 77.821 131.611 C 78.230 131.358, 81.844 131.176, 85.850 131.208 C 89.857 131.239, 93.604 130.796, 94.177 130.223 C 94.750 129.650, 95.282 126.328, 95.359 122.841 C 95.475 117.624, 95.234 116.583, 94 116.967 C 93.175 117.223, 90.410 117.343, 87.855 117.233 C 83.835 117.059, 82.978 117.384, 81.495 119.648 C 79.131 123.256, 78.359 121.590, 77.543 111.114 C 76.553 98.388, 77.229 99.202, 67.568 99.097 C 60.818 99.025, 59.095 99.311, 58.605 100.587 M 243 247.333 C 243 249.276, 243.870 249.847, 245.989 249.293 C 247.091 249.004, 247.640 248.226, 247.324 247.401 C 246.639 245.616, 243 245.559, 243 247.333" stroke="none" fill="black" fill-rule="evenodd"/>
</svg>