<svg xmlns="http://www.w3.org/2000/svg" width="256" height="256" viewBox="0 0 256 256" version="1.1">
	<path d="M 64.250 18.743 L 57 19.088 57 29.044 L 57 39 48.167 39 C 43.308 39, 39.144 39.189, 38.913 39.421 C 38.681 39.652, 38.721 43.295, 39.001 47.516 C 39.620 56.855, 39.247 57.182, 28.200 56.992 C 23.965 56.919, 19.769 56.891, 18.875 56.929 C 17.471 56.990, 17.301 58.241, 17.623 66.164 C 17.827 71.204, 18.244 75.577, 18.548 75.881 C 18.852 76.185, 23.240 76.581, 28.300 76.762 C 33.838 76.959, 37.919 77.569, 38.553 78.295 C 39.587 79.478, 39.489 83.456, 37.197 133.500 C 36.769 142.850, 36.588 150.725, 36.794 151 C 37 151.275, 41.123 151.500, 45.956 151.500 L 54.743 151.500 55.525 138.500 C 55.955 131.350, 56.350 123.401, 56.403 120.836 C 56.456 118.271, 56.873 115.796, 57.329 115.336 C 57.786 114.876, 61.611 114.275, 65.829 114 C 71.944 113.601, 73.433 113.198, 73.170 112.009 C 72.779 110.247, 72.836 109.058, 73.615 102.750 L 74.201 98 84.166 98 C 95.910 98, 98 97.198, 98 92.688 C 98 89.501, 98.068 89.454, 102.064 89.835 C 105.003 90.115, 105.983 90.603, 105.602 91.596 C 105.312 92.351, 105.913 93.418, 106.937 93.966 C 109.412 95.291, 110.642 92.475, 108.208 91.057 C 106.608 90.124, 106.611 90.059, 108.250 90.030 C 109.213 90.014, 110 89.460, 110 88.800 C 110 86.454, 112.140 89.686, 112.942 93.244 C 113.812 97.099, 112.717 100, 110.391 100 C 109.427 100, 109.169 100.452, 109.676 101.250 C 110.112 101.938, 110.497 102.950, 110.530 103.500 C 110.564 104.050, 111.133 104.388, 111.795 104.250 C 113.390 103.919, 113.351 105.692, 111.750 106.338 C 110.773 106.732, 110.780 106.859, 111.784 106.921 C 112.793 106.983, 113.045 111.779, 112.959 129.250 L 112.849 151.500 122.924 151.785 L 133 152.070 133.117 145.785 C 133.182 142.328, 133.627 129.600, 134.106 117.500 C 134.585 105.400, 135.095 91.577, 135.238 86.781 L 135.500 78.063 125 77.781 L 114.500 77.500 114.201 70.012 C 113.684 57.027, 111.911 58.085, 134.695 57.771 L 154.363 57.500 154.431 48.251 C 154.487 40.694, 154.225 38.988, 153 38.931 C 152.175 38.893, 143.400 38.780, 133.500 38.681 L 115.500 38.500 115.216 28.354 L 114.932 18.207 105.475 18.354 L 96.018 18.500 96.009 28.133 C 95.998 39.396, 96.519 38.946, 84.500 38.078 L 76.500 37.500 76.214 27.750 C 75.938 18.370, 75.844 18.008, 73.714 18.199 C 72.496 18.308, 68.237 18.553, 64.250 18.743 M 58.130 58.343 C 57.191 59.474, 57.009 64.153, 57.395 77.174 C 57.678 86.703, 57.930 95.232, 57.955 96.126 C 57.993 97.498, 59.252 97.733, 66.042 97.633 C 75.319 97.495, 74.839 98.102, 75.247 86 L 75.500 78.500 85.667 78 C 91.259 77.725, 95.996 77.275, 96.194 77 C 96.392 76.725, 96.317 72.450, 96.027 67.500 L 95.500 58.500 88 58.406 C 83.875 58.354, 75.748 57.980, 69.940 57.574 C 61.125 56.959, 59.173 57.086, 58.130 58.343 M 98.583 82.645 C 97.563 85.301, 97.914 85.561, 101.994 85.172 C 104.191 84.962, 105.740 84.388, 105.435 83.895 C 105.131 83.403, 105.359 83, 105.941 83 C 106.523 83, 107 83.450, 107 84 C 107 84.550, 108.125 85, 109.500 85 C 110.875 85, 112 84.577, 112 84.059 C 112 81.685, 105.539 80.604, 103.504 82.638 C 102.677 83.466, 102 83.709, 102 83.178 C 102 81.499, 99.191 81.060, 98.583 82.645 M 106.143 111.876 C 105.397 112.357, 105.172 112.948, 105.643 113.191 C 107.107 113.943, 109.485 113.549, 109.803 112.500 C 110.204 111.175, 107.854 110.775, 106.143 111.876 M 75 124.918 C 75 129.823, 75.231 134.436, 75.514 135.168 C 76.099 136.686, 91.547 137.090, 93.806 135.647 C 94.764 135.035, 95.037 132.304, 94.832 125.406 L 94.551 116 84.776 116 L 75 116 75 124.918 M 139.698 120.114 C 139.385 122.526, 139.212 126.075, 139.314 128 L 139.500 131.500 146 132.077 C 153.304 132.726, 155.080 131.959, 153.209 128.963 C 152.526 127.870, 152.249 125.856, 152.592 124.488 C 153.336 121.524, 152.363 117, 150.981 117 C 150.441 117, 150 117.900, 150 119 C 150 120.100, 149.363 121, 148.583 121 C 147.804 121, 146.904 121.563, 146.583 122.250 C 146.117 123.250, 145.883 123.250, 145.417 122.250 C 145.096 121.563, 143.944 121, 142.858 121 C 141.771 121, 141.158 120.554, 141.495 120.008 C 141.832 119.462, 141.694 118.276, 141.188 117.372 C 140.483 116.112, 140.135 116.754, 139.698 120.114 M 242 247.441 C 242 249.407, 243.235 250.013, 245.850 249.329 C 247.915 248.789, 247.941 248.674, 246.273 247.409 C 243.934 245.634, 242 245.649, 242 247.441" stroke="none" fill="black" fill-rule="evenodd"/>
</svg>