<svg xmlns="http://www.w3.org/2000/svg" width="256" height="256" viewBox="0 0 256 256" version="1.1">
	<path d="M 71.500 18.111 C 69.850 18.623, 66.925 18.988, 65 18.924 C 57.549 18.674, 58 18.064, 58 28.385 L 58 37.770 52.703 38.431 C 49.790 38.795, 46.639 38.799, 45.701 38.439 C 44.763 38.079, 42.889 38.062, 41.537 38.401 C 39.189 38.991, 39.065 39.415, 38.789 47.759 L 38.500 56.500 28.500 57 L 18.500 57.500 18.855 66.500 C 19.051 71.450, 19.415 75.838, 19.664 76.250 C 19.914 76.662, 24.348 77, 29.518 77 L 38.918 77 38.709 113.989 C 38.572 138.275, 38.848 151.112, 39.515 151.367 C 40.073 151.582, 51.548 151.820, 65.015 151.897 C 78.482 151.974, 90.963 152.304, 92.750 152.630 L 96 153.223 96 143.074 L 96 132.925 105.250 133.212 L 114.500 133.500 114.500 142.911 L 114.500 152.322 132.250 152.086 C 144.728 151.921, 150 152.180, 150 152.961 C 150 153.747, 150.562 153.769, 151.928 153.039 C 153.623 152.132, 153.863 150.828, 153.913 142.253 L 153.970 132.500 137.235 132.781 C 128.031 132.935, 119.487 132.814, 118.250 132.512 C 116.127 131.993, 116 131.461, 116 123.088 C 116 112.731, 115.720 113, 126.523 113 C 131.321 113, 134.158 112.565, 134.675 111.750 C 135.111 111.063, 135.514 108.250, 135.572 105.500 C 135.629 102.750, 135.749 98.529, 135.838 96.119 L 136 91.738 139.700 92.339 C 141.855 92.688, 145.567 92.310, 148.583 91.433 L 153.766 89.926 154.240 76.713 C 154.891 58.595, 154.883 58.579, 143.739 58.211 L 135 57.922 135 44.346 L 135 30.770 132.535 32.385 C 131.180 33.273, 128.817 33.993, 127.285 33.985 C 125.119 33.973, 124.834 33.754, 126 33 C 127.128 32.271, 126.631 32.023, 124 32 C 119.614 31.962, 118.481 31.205, 117.635 27.750 C 116.234 22.027, 115.432 25.417, 115.358 37.368 C 115.315 44.171, 114.893 50.358, 114.419 51.118 C 113.944 51.878, 113.465 53.104, 113.353 53.842 C 113.013 56.089, 112.173 56.316, 110.476 54.619 C 109.281 53.424, 109.203 52.996, 110.179 52.985 C 111.212 52.973, 111.194 52.776, 110.094 52.079 C 109.321 51.590, 107.590 51.388, 106.248 51.631 C 101.977 52.406, 100.005 51.171, 99.944 47.683 C 99.853 42.582, 97.738 37.489, 95.750 37.583 C 94.787 37.629, 90.379 37.742, 85.953 37.833 L 77.907 38 77.946 59.750 C 77.967 71.713, 77.588 83.750, 77.102 86.500 C 76.617 89.250, 76.398 91.799, 76.616 92.165 C 76.834 92.530, 76.447 93.019, 75.756 93.252 C 74.763 93.586, 74.778 94.012, 75.828 95.284 C 76.757 96.409, 77.057 99.304, 76.828 104.916 L 76.500 112.940 86.500 113.220 L 96.500 113.500 96.129 122.500 C 95.915 127.698, 95.281 131.804, 94.629 132.219 C 93.295 133.067, 60.068 132.918, 59.538 132.061 C 59.015 131.215, 58.770 117.522, 58.857 94 C 58.898 82.725, 58.735 66.075, 58.493 57 C 58.252 47.925, 58.297 39.712, 58.594 38.750 C 59.056 37.254, 60.434 37, 68.104 37 L 77.072 37 76.786 27.331 C 76.627 21.956, 76.056 17.555, 75.500 17.422 C 74.950 17.289, 73.150 17.600, 71.500 18.111 M 113.584 18.750 C 113.171 19.163, 109.483 19.551, 105.387 19.613 C 101.292 19.675, 97.654 20.013, 97.304 20.363 C 96.609 21.058, 97.677 21.209, 103 21.169 C 107.550 21.134, 110.175 21.908, 109.456 23.072 C 109.140 23.582, 109.584 24, 110.441 24 C 111.298 24, 111.888 23.466, 111.750 22.813 C 111.612 22.160, 112.617 21.597, 113.982 21.563 C 115.517 21.524, 116.594 20.832, 116.805 19.750 C 117.149 17.988, 115.009 17.324, 113.584 18.750 M 107.229 46.518 C 105.167 48.858, 105.346 49.389, 108.250 49.544 C 110.510 49.665, 111 49.273, 111 47.346 C 111 44.725, 109.164 44.323, 107.229 46.518 M 104.250 77.743 C 96.318 78.120, 96.799 77.633, 96.582 85.500 C 96.532 87.335, 96.014 88.403, 95.250 88.250 C 94.472 88.094, 94 89.133, 94 91 C 94 92.650, 94.450 94, 95 94 C 95.550 94, 96 93.495, 96 92.878 C 96 92.116, 96.402 92.075, 97.250 92.749 C 97.938 93.295, 102.213 93.829, 106.750 93.935 L 115 94.127 115 85.564 C 115 77.999, 114.796 77.023, 113.250 77.199 C 112.287 77.308, 108.237 77.553, 104.250 77.743 M 243 247.500 C 243 248.362, 243.902 249, 245.122 249 C 246.896 249, 247.040 248.753, 246 247.500 C 245.315 246.675, 244.360 246, 243.878 246 C 243.395 246, 243 246.675, 243 247.500" stroke="none" fill="black" fill-rule="evenodd"/>
</svg>