<svg xmlns="http://www.w3.org/2000/svg" width="256" height="256" viewBox="0 0 256 256" version="1.1">
	<path d="M 56.683 19.714 C 56.419 20.146, 56.270 24.663, 56.351 29.750 C 56.516 40.002, 57.182 39.123, 49 39.456 C 40.089 39.819, 38.535 40.053, 39.784 40.845 C 40.765 41.468, 40.883 43.531, 40.284 49.580 L 39.500 57.500 29.192 57.786 L 18.884 58.071 19.078 67.699 C 19.185 72.994, 19.493 78.171, 19.763 79.203 C 20.208 80.903, 20.414 80.935, 21.953 79.542 C 23.938 77.746, 37.980 77.662, 38.548 79.443 C 39.890 83.651, 40.537 122.701, 39.452 134 C 39.162 137.025, 38.798 142.070, 38.644 145.210 C 38.378 150.629, 38.494 150.949, 40.932 151.469 C 43.810 152.083, 55.633 152.020, 58.102 151.377 C 59.405 151.037, 59.624 149.866, 59.279 145.083 C 59.046 141.852, 59.263 138.955, 59.763 138.647 C 60.984 137.892, 68 140.100, 68 141.239 C 68 141.736, 68.668 141.475, 69.485 140.658 C 72.079 138.064, 74.442 139.282, 74.756 143.373 C 74.911 145.400, 74.595 147.889, 74.052 148.904 C 73.305 150.299, 73.515 151.156, 74.914 152.422 C 76.547 153.900, 79.813 154.092, 102.712 154.055 C 116.984 154.031, 131.041 153.561, 133.950 153.010 C 138.876 152.075, 145.190 152.309, 149.217 153.574 C 151.204 154.199, 152.582 150.410, 151.551 147.160 C 151.204 146.068, 150.717 128.823, 150.467 108.838 C 150.218 88.852, 149.843 71.375, 149.634 70 C 149.426 68.625, 149.198 66.938, 149.128 66.250 C 149.057 65.563, 148.298 65, 147.441 65 C 146.584 65, 146.160 64.550, 146.500 64 C 146.840 63.450, 146.641 63, 146.059 63 C 145.477 63, 144.971 63.563, 144.937 64.250 C 144.902 64.938, 144.383 64.375, 143.784 63 C 142.887 60.940, 142.621 60.808, 142.274 62.250 C 141.829 64.100, 140 64.703, 140 63 C 140 62.450, 139.589 62, 139.087 62 C 138.585 62, 138.387 63.350, 138.647 65 C 138.922 66.744, 138.676 68, 138.060 68 C 137.477 68, 137 66.650, 137 65 C 137 63.350, 137 61.775, 137 61.500 C 137 61.225, 136.085 60.085, 134.967 58.967 C 133.162 57.162, 133.092 56.706, 134.349 54.912 C 135.133 53.793, 135.588 51.462, 135.368 49.695 C 135.149 47.938, 135.328 45.220, 135.765 43.655 L 136.561 40.811 137.982 43.467 C 139.111 45.575, 139.156 46.521, 138.202 48.048 C 135.379 52.568, 136.871 54.100, 144.619 54.638 L 150 55.012 150.142 51.756 C 150.343 47.164, 150.761 42.754, 151.160 41.015 C 151.446 39.763, 149.220 39.487, 137 39.259 C 129.025 39.110, 120.700 38.878, 118.500 38.744 L 114.500 38.500 114.424 29 L 114.349 19.500 104.211 19.215 L 94.073 18.931 93.787 28.715 L 93.500 38.500 84.787 38.788 L 76.073 39.077 75.787 29.288 L 75.500 19.500 66.332 19.214 C 61.289 19.056, 56.947 19.281, 56.683 19.714 M 61.311 40 C 59.403 40.527, 58.933 46.003, 59.032 66.500 C 59.090 78.421, 59.065 78.383, 66.256 77.631 C 70.125 77.227, 72.777 77.400, 73.636 78.113 C 75.405 79.581, 75.695 78.539, 76.386 68.236 C 76.705 63.465, 76.499 58.815, 75.897 57.236 C 75.324 55.731, 74.821 51.719, 74.780 48.321 C 74.739 44.922, 74.338 41.547, 73.889 40.821 C 73.075 39.504, 65.013 38.978, 61.311 40 M 94.424 59.338 C 94.141 60.075, 94.043 64.237, 94.205 68.588 L 94.500 76.500 104 76.500 L 113.500 76.500 114 69.330 C 114.275 65.387, 114.834 61.828, 115.241 61.422 C 115.649 61.016, 115.481 60.080, 114.869 59.342 C 113.292 57.442, 95.153 57.438, 94.424 59.338 M 98.250 96.723 L 95 97.127 95 105.455 C 95 113.683, 94.967 113.793, 92.250 114.568 C 90.737 114.999, 88.504 115.406, 87.287 115.472 C 84.175 115.641, 83.931 116.090, 83.523 122.390 C 83.276 126.208, 83.534 128.005, 84.330 128.015 C 85.083 128.025, 85.017 128.337, 84.143 128.890 C 82.425 129.979, 83.979 131.023, 87.150 130.911 C 88.442 130.865, 91.300 131.059, 93.500 131.341 C 102.245 132.465, 121.305 133.106, 126.541 132.452 L 132.085 131.759 131.410 123.129 C 131.038 118.383, 130.570 114.313, 130.369 114.085 C 130.168 113.857, 126.533 113.182, 122.292 112.585 C 113.554 111.356, 113.285 111.025, 113.100 101.250 L 113 96 107.250 96.160 C 104.088 96.248, 100.037 96.502, 98.250 96.723 M 87.269 128.693 C 88.242 128.947, 89.592 128.930, 90.269 128.656 C 90.946 128.382, 90.150 128.175, 88.500 128.195 C 86.850 128.215, 86.296 128.439, 87.269 128.693 M 242.657 247.451 C 242.216 248.600, 242.721 249, 244.615 249 C 246.212 249, 247.011 248.532, 246.750 247.750 C 246.128 245.882, 243.338 245.678, 242.657 247.451" stroke="none" fill="black" fill-rule="evenodd"/>
</svg>