<svg xmlns="http://www.w3.org/2000/svg" width="256" height="256" viewBox="0 0 256 256" version="1.1">
	<path d="M 57 28 L 57 38 53.750 38.108 C 51.962 38.167, 49.150 38.182, 47.500 38.141 C 45.850 38.100, 43.084 38.288, 41.352 38.559 L 38.205 39.052 38.302 46.799 C 38.355 51.059, 38.058 55.098, 37.641 55.773 C 37.124 56.608, 33.741 57, 27.052 57 L 17.221 57 17.732 65.750 C 18.012 70.563, 18.636 74.926, 19.118 75.447 C 19.600 75.968, 23.933 76.449, 28.747 76.516 L 37.500 76.638 37.747 110.502 C 37.882 129.127, 37.581 145.858, 37.077 147.683 C 36.245 150.696, 36.360 151.003, 38.331 151.037 C 41.364 151.088, 103.939 150.824, 130.736 150.647 L 152.973 150.500 152.434 142 C 152.137 137.325, 151.682 132.087, 151.423 130.361 C 150.964 127.309, 150.849 127.245, 147.281 128.049 C 145.262 128.505, 143.286 128.677, 142.891 128.432 C 142.495 128.188, 142.014 128.457, 141.823 129.031 C 141.365 130.404, 117.959 131.450, 116.124 130.179 C 115.131 129.491, 114.790 127.055, 114.899 121.421 C 114.982 117.129, 115.176 113.490, 115.330 113.336 C 115.485 113.182, 119.334 112.988, 123.884 112.905 C 128.993 112.813, 132.309 112.324, 132.556 111.628 C 132.776 111.007, 133.126 107.524, 133.335 103.886 C 133.543 100.248, 133.994 96.819, 134.336 96.266 C 134.678 95.712, 138.482 95.055, 142.789 94.806 C 147.096 94.557, 151.156 94.022, 151.810 93.617 C 153.061 92.844, 153.436 83.228, 152.370 79.250 C 151.772 77.018, 151.616 77, 133.023 77 L 114.279 77 113.648 71.750 C 113.301 68.862, 113.013 64.603, 113.009 62.285 L 113 58.070 123.250 57.785 L 133.500 57.500 133.558 48.250 L 133.615 39 123.808 39 C 116.656 39, 113.986 38.662, 113.948 37.750 C 113.920 37.063, 113.807 32.450, 113.698 27.500 C 113.555 21.009, 113.151 18.528, 112.250 18.600 C 111.563 18.655, 107.287 18.767, 102.750 18.849 L 94.500 18.999 94.500 28.249 L 94.500 37.500 85.250 37.788 L 76 38.075 76 28.038 L 76 18 66.500 18 L 57 18 57 28 M 57.655 37.749 C 57.346 38.250, 57.155 47.787, 57.231 58.943 C 57.339 74.760, 57.675 79.532, 58.756 80.613 C 59.617 81.474, 62.297 81.995, 65.821 81.986 C 73.573 81.968, 76 81.193, 76 78.739 C 76 76.851, 76.441 76.752, 82.384 77.307 C 85.895 77.635, 90.282 77.486, 92.134 76.976 L 95.500 76.049 95 67.274 L 94.500 58.500 85.285 58.213 L 76.069 57.926 75.785 47.846 L 75.500 37.767 66.859 37.303 C 62.106 37.048, 57.964 37.249, 57.655 37.749 M 110 97 C 110 97.550, 108.763 98.007, 107.250 98.015 C 105.249 98.026, 104.884 98.273, 105.909 98.923 C 106.684 99.413, 107.922 99.583, 108.659 99.300 C 109.397 99.018, 110 99.374, 110 100.093 C 110 101.103, 110.270 101.130, 111.190 100.210 C 112.920 98.480, 113.051 96, 111.412 96 C 110.635 96, 110 96.450, 110 97 M 58.392 100.176 C 57.538 101.554, 58.191 127, 59.095 127.559 C 59.611 127.877, 59.774 128.557, 59.457 129.069 C 58.749 130.215, 59.585 130.339, 69 130.484 C 73.125 130.547, 80.662 130.958, 85.750 131.397 C 90.838 131.836, 95.034 131.814, 95.075 131.347 C 95.703 124.304, 95.248 109.781, 94.341 107.902 C 93.703 106.581, 92.930 104.713, 92.622 103.750 C 91.745 101.007, 85.485 101.424, 82.483 104.426 C 79.668 107.241, 80.941 108.230, 85.403 106.696 C 87.731 105.895, 88.543 106.022, 89.502 107.333 C 90.160 108.233, 91.088 108.638, 91.566 108.234 C 92.043 107.831, 91.831 108.287, 91.095 109.250 C 89.497 111.337, 87.654 111.493, 86.141 109.670 C 85.488 108.884, 83.805 108.522, 82.019 108.784 C 79.317 109.180, 79 108.952, 79 106.613 C 79 105.176, 78.550 104, 78 104 C 77.450 104, 77 103.352, 77 102.559 C 77 101.766, 76.438 100.763, 75.750 100.328 C 74.224 99.364, 58.979 99.231, 58.392 100.176 M 141.015 121.750 C 141.053 123.603, 142.941 125.236, 144.399 124.677 C 146.989 123.683, 146.333 121, 143.500 121 C 142.125 121, 141.007 121.338, 141.015 121.750 M 148.262 122.692 C 149.231 122.945, 149.787 123.536, 149.496 124.007 C 149.205 124.477, 149.331 125.087, 149.776 125.362 C 150.221 125.637, 150.650 124.993, 150.730 123.931 C 150.835 122.536, 150.268 122.032, 148.688 122.116 C 146.978 122.207, 146.885 122.332, 148.262 122.692 M 242.667 246.667 C 241.197 248.136, 242.165 248.998, 245.250 248.968 C 248.324 248.938, 248.395 248.857, 246.559 247.468 C 244.403 245.838, 243.651 245.683, 242.667 246.667" stroke="none" fill="black" fill-rule="evenodd"/>
</svg>