<svg xmlns="http://www.w3.org/2000/svg" width="256" height="256" viewBox="0 0 256 256" version="1.1">
	<path d="M 85.250 18.756 L 76 19.075 76 29.083 L 76 39.092 86 38.403 L 96 37.714 96 48.798 C 96 54.894, 95.643 60.103, 95.206 60.373 C 94.769 60.643, 90.382 60.557, 85.456 60.182 L 76.500 59.500 76.214 49.760 C 75.881 38.420, 76.336 38.812, 64 39.240 L 56.500 39.500 56.214 49.229 L 55.928 58.957 36.714 59.229 L 17.500 59.500 17.846 66.339 C 18.036 70.101, 18.502 75.276, 18.882 77.839 C 19.652 83.030, 18.734 82.787, 30 80.786 C 38.963 79.195, 54.860 79.151, 55.825 80.715 C 56.350 81.566, 59.042 81.810, 64.786 81.528 C 72.026 81.173, 73.115 81.347, 73.998 82.997 C 75.522 85.844, 75.266 98.534, 73.658 99.869 C 72.920 100.481, 72.083 100.749, 71.797 100.464 C 71.512 100.179, 69.423 99.752, 67.155 99.516 C 64.886 99.280, 62.088 98.583, 60.937 97.966 C 57.233 95.984, 56.001 97.415, 55.985 103.719 C 55.976 106.898, 55.617 110.054, 55.187 110.732 C 54.665 111.553, 51.748 111.935, 46.452 111.875 C 42.078 111.826, 38.156 111.834, 37.737 111.893 C 37.317 111.952, 37.662 113.647, 38.503 115.661 C 39.344 117.675, 39.778 120.124, 39.467 121.104 C 39.156 122.084, 39.833 124.712, 40.971 126.943 C 43.240 131.391, 46.506 132.351, 49.429 129.429 C 50.461 128.397, 51 128.273, 51 129.068 C 51 130.223, 53.822 132.901, 55.111 132.968 C 55.447 132.986, 56.003 130.863, 56.348 128.250 C 57.582 118.898, 57.072 119.500, 63.759 119.500 C 67.083 119.500, 70.147 119.162, 70.568 118.750 C 73.386 115.989, 74.282 119.587, 74.928 136.260 L 75.500 151.021 85.250 151.409 L 95 151.798 95 140.981 C 95 128.053, 95.399 126.399, 97.909 128.909 C 99.518 130.518, 101.112 130.804, 111.482 131.345 C 114.218 131.487, 114.538 131.151, 115.374 127.250 C 116.370 122.601, 116.958 122.271, 120.325 124.477 C 122.057 125.612, 123.383 125.727, 126.040 124.974 C 131.050 123.553, 131.626 122.949, 132.341 118.367 C 133.202 112.853, 131.858 111.911, 123.090 111.883 C 119.191 111.870, 115.966 111.554, 115.923 111.180 C 115.881 110.806, 115.672 109.600, 115.457 108.500 C 114.753 104.883, 114.742 92.227, 115.442 91.094 C 115.819 90.484, 115.460 89.317, 114.644 88.501 C 113.518 87.375, 113.040 87.317, 112.659 88.259 C 112.364 88.990, 112.125 88.781, 112.079 87.750 C 111.974 85.422, 110.325 85.525, 109.032 87.939 C 108.342 89.229, 108.330 90.086, 108.997 90.498 C 110.546 91.455, 110.183 95.603, 108.423 97.064 C 107.555 97.784, 104.841 98.458, 102.391 98.561 C 96.858 98.794, 96.280 97.779, 96.791 88.724 L 97.173 81.949 100.336 82.061 C 102.076 82.122, 105.075 81.872, 107 81.504 C 113.974 80.172, 122.589 79.808, 121 80.913 C 119.922 81.663, 121.380 81.809, 126.182 81.434 L 132.864 80.911 133.496 85.705 C 134.963 96.827, 134.197 95.977, 142.670 95.889 C 152.735 95.786, 154.194 94.434, 153.626 85.734 C 153.402 82.305, 152.719 78.233, 152.109 76.685 C 151.499 75.137, 151 72.185, 151 70.126 C 151 64.985, 149.473 63.525, 142.500 61.995 C 139.200 61.270, 136.072 60.300, 135.550 59.839 C 135.028 59.378, 130.431 59, 125.335 59 C 114.069 59, 113.623 58.526, 114.148 47.126 L 114.500 39.500 106 39 L 97.500 38.500 97 28.580 C 96.723 23.084, 96.054 18.610, 95.500 18.548 C 94.950 18.487, 90.338 18.581, 85.250 18.756 M 19.490 133.308 C 19.269 133.964, 19.181 138.100, 19.294 142.500 L 19.500 150.500 29.250 150.786 L 39 151.072 38.998 141.786 L 38.995 132.500 29.444 132.308 C 22.796 132.175, 19.770 132.479, 19.490 133.308 M 133.250 134.662 C 131.879 135.215, 131.398 150.975, 132.750 151.031 C 138.245 151.259, 147.124 152.090, 149.406 152.590 L 152.313 153.228 151.641 144.494 C 151.272 139.690, 150.725 135.364, 150.426 134.880 C 149.859 133.963, 135.436 133.780, 133.250 134.662 M 12 207.500 C 12 208.333, 12.889 209, 14 209 C 15.111 209, 16 208.333, 16 207.500 C 16 206.667, 15.111 206, 14 206 C 12.889 206, 12 206.667, 12 207.500 M 243 248 C 243 248.550, 243.450 249, 244 249 C 244.550 249, 245 248.550, 245 248 C 245 247.450, 244.550 247, 244 247 C 243.450 247, 243 247.450, 243 248" stroke="none" fill="black" fill-rule="evenodd"/>
</svg>