<svg xmlns="http://www.w3.org/2000/svg" width="256" height="256" viewBox="0 0 256 256" version="1.1">
	<path d="M 66.500 19 L 58.500 19.500 58.214 29.250 L 57.928 39 48.585 39 L 39.242 39 39.093 47.229 C 39.010 51.754, 38.533 55.867, 38.033 56.367 C 37.532 56.868, 33.045 57.188, 28.061 57.079 L 19 56.880 19 66.440 L 19 76 25.750 76.106 C 29.462 76.164, 33.679 76.136, 35.119 76.044 C 36.560 75.952, 37.910 76.467, 38.119 77.188 C 38.329 77.910, 38.275 94.856, 38 114.847 C 37.725 134.838, 37.816 151.388, 38.203 151.627 C 38.589 151.865, 42.946 152.159, 47.884 152.280 C 56.163 152.483, 56.891 152.344, 57.231 150.500 C 57.434 149.400, 57.730 137.025, 57.888 123 C 58.046 108.975, 58.249 97.448, 58.338 97.385 C 58.427 97.322, 63.900 97.061, 70.500 96.807 C 77.100 96.552, 81.523 96.518, 80.330 96.731 C 78.406 97.074, 78.095 97.934, 77.595 104.309 C 76.420 119.255, 75.804 152.239, 76.709 151.680 C 77.214 151.368, 81.774 151.006, 86.841 150.876 C 91.923 150.746, 96.419 150.160, 96.868 149.570 C 97.315 148.981, 97.332 144.450, 96.906 139.500 C 96.018 129.184, 95.610 96.245, 96.343 94 C 96.613 93.175, 97.092 91.309, 97.409 89.854 L 97.986 87.208 101.612 89.057 C 103.607 90.074, 105.973 91.518, 106.869 92.266 C 108.898 93.958, 110.817 93.915, 111.907 92.151 C 113.453 89.648, 114.339 98.051, 114.421 116 L 114.500 133.500 121.500 133.633 C 125.350 133.706, 128.950 133.493, 129.500 133.161 C 132.188 131.535, 132.887 132.447, 133.472 138.349 C 133.807 141.732, 133.878 145.438, 133.630 146.585 C 132.771 150.551, 134.127 151.096, 144.084 150.790 L 153.500 150.500 153.197 141.500 C 152.721 127.404, 152.572 127, 147.814 127 C 144.722 127, 143.914 126.666, 144.338 125.562 C 144.697 124.626, 144.125 124.007, 142.695 123.789 C 141.488 123.604, 140.597 122.946, 140.717 122.326 C 140.836 121.707, 139.919 120.946, 138.680 120.635 C 135.689 119.884, 133.989 114.952, 133.425 105.391 C 133.178 101.200, 132.730 97.372, 132.429 96.885 C 132.128 96.398, 132.246 95.957, 132.691 95.905 C 133.136 95.853, 138 95.291, 143.500 94.655 L 153.500 93.500 153.797 86.088 C 154.008 80.834, 153.716 78.437, 152.797 77.853 C 152.084 77.401, 143.097 77.024, 132.826 77.015 L 114.152 77 113.798 68.750 C 113.603 64.213, 113.809 59.712, 114.257 58.750 C 114.990 57.173, 116.950 57, 134.035 57 L 153 57 153 47.500 L 153 38 134 38 L 115 38 115 27.883 C 115 17.880, 114.975 17.773, 112.750 18.370 C 111.513 18.701, 107.293 18.979, 103.374 18.986 L 96.249 19 96.240 28.084 C 96.235 33.081, 95.821 37.579, 95.320 38.080 C 94.795 38.605, 90.624 38.675, 85.472 38.245 L 76.536 37.500 76.266 28.548 C 76.117 23.624, 75.659 19.349, 75.248 19.048 C 74.837 18.747, 70.900 18.725, 66.500 19 M 59.708 57.205 C 58.174 58.343, 57.958 59.831, 58.208 67.518 L 58.500 76.500 75.500 76.625 C 85.509 76.699, 93.014 76.341, 93.750 75.753 C 94.568 75.100, 95 71.912, 95 66.533 L 95 58.311 81.250 57.683 C 73.688 57.338, 66.150 56.790, 64.500 56.465 C 62.693 56.110, 60.787 56.404, 59.708 57.205 M 98.079 84.583 C 98.127 85.748, 98.364 85.985, 98.683 85.188 C 98.972 84.466, 98.936 83.603, 98.604 83.271 C 98.272 82.939, 98.036 83.529, 98.079 84.583 M 85.750 96.662 C 86.438 96.940, 87.563 96.940, 88.250 96.662 C 88.938 96.385, 88.375 96.158, 87 96.158 C 85.625 96.158, 85.063 96.385, 85.750 96.662 M 86 106.167 C 86 108.215, 86.783 108.433, 89 107 C 90.090 106.296, 90.142 106.026, 89.191 106.015 C 88.471 106.007, 88.114 105.625, 88.397 105.167 C 88.680 104.708, 88.257 104.333, 87.456 104.333 C 86.655 104.333, 86 105.158, 86 106.167" stroke="none" fill="black" fill-rule="evenodd"/>
</svg>