<svg xmlns="http://www.w3.org/2000/svg" width="256" height="256" viewBox="0 0 256 256" version="1.1">
	<path d="M 57 28.889 L 57 38.777 53.750 39.372 C 51.962 39.699, 47.688 39.754, 44.250 39.493 L 38 39.019 38 47.510 L 38 56 27.964 56 L 17.928 56 18.214 65.750 L 18.500 75.500 27.492 75.792 C 32.438 75.953, 36.844 76.444, 37.283 76.883 C 37.722 77.322, 38.106 94.194, 38.137 114.376 L 38.192 151.070 47.846 150.785 L 57.500 150.500 57.500 141 C 57.500 135.775, 57.838 130.980, 58.251 130.345 C 58.766 129.551, 61.496 129.360, 66.958 129.735 L 74.915 130.280 75.207 121.890 L 75.500 113.500 85.500 113.419 L 95.500 113.338 95.790 105.169 L 96.081 97 101.290 96.970 C 105.477 96.945, 106.139 96.729, 104.661 95.870 C 103.649 95.282, 101.726 95.010, 100.387 95.266 C 99.048 95.522, 97.661 95.261, 97.306 94.686 C 96.460 93.317, 96.935 76.632, 97.966 71.500 C 98.408 69.300, 98.822 68.095, 98.885 68.821 C 98.973 69.835, 99.360 69.783, 100.546 68.597 C 101.682 67.461, 103.238 67.208, 106.414 67.643 C 109.146 68.018, 110.992 67.822, 111.432 67.110 C 111.933 66.300, 112.498 66.355, 113.451 67.308 C 114.370 68.227, 114.821 72.045, 114.927 79.807 C 115.074 90.560, 114.028 95.753, 111.970 94.482 C 111.459 94.166, 110.020 94.472, 108.771 95.162 C 106.508 96.412, 106.511 96.419, 109.500 96.967 C 112.462 97.510, 112.503 97.605, 112.764 104.509 C 112.910 108.354, 113.275 112.999, 113.575 114.830 C 114.102 118.048, 114.250 118.143, 117.934 117.628 C 120.413 117.281, 122.403 117.591, 123.623 118.515 C 124.655 119.297, 126.850 119.986, 128.500 120.047 C 130.150 120.108, 130.914 120.393, 130.197 120.680 C 129.224 121.070, 129.351 121.536, 130.697 122.520 C 132.247 123.653, 132.549 125.731, 132.846 137.350 L 133.193 150.863 142.200 151.182 C 147.154 151.357, 151.563 151.275, 151.998 151 C 152.433 150.725, 152.949 146.076, 153.145 140.670 C 153.568 128.960, 152.887 128.009, 144.059 127.985 C 141.001 127.976, 138.005 127.639, 137.400 127.235 C 133.496 124.628, 132.697 114.668, 134.253 88 C 135.408 68.196, 135.609 65.977, 136.499 63.250 C 137.240 60.981, 139.410 60.237, 140.438 61.900 C 140.744 62.394, 143.554 62.686, 146.682 62.547 C 151.198 62.347, 152.524 61.904, 153.115 60.398 C 153.524 59.354, 153.891 49.827, 153.930 39.227 L 154 19.955 135.801 20.227 L 117.601 20.500 117.401 23.500 C 117.292 25.150, 117.074 30.618, 116.918 35.651 L 116.634 44.801 114.067 44.183 C 112.655 43.844, 108.463 43.590, 104.750 43.620 C 101.037 43.650, 98 43.368, 98 42.993 C 98 42.618, 96.973 41.116, 95.718 39.656 C 93.479 37.049, 90 36.038, 90 37.993 C 90 38.539, 88.313 38.935, 86.250 38.872 C 84.188 38.810, 82.050 38.866, 81.500 38.998 C 78.325 39.757, 78 38.884, 78 29.607 C 78 21.964, 77.705 20.101, 76.418 19.607 C 75.548 19.273, 70.823 19, 65.918 19 L 57 19 57 28.889 M 57.667 39.667 C 56.593 40.740, 56.901 55.947, 58.039 58.074 C 58.948 59.771, 60.115 60.001, 67.289 59.899 C 72.223 59.830, 75.793 59.328, 76.235 58.642 C 77.351 56.907, 77.141 43.133, 75.965 40.934 C 75.069 39.260, 73.812 39, 66.631 39 C 62.068 39, 58.033 39.300, 57.667 39.667 M 72.992 76.052 C 72.171 76.585, 69.822 76.754, 67.772 76.426 C 65.721 76.099, 62.666 76.134, 60.983 76.504 L 57.922 77.176 58.211 85.338 L 58.500 93.500 66.845 93.500 C 71.435 93.500, 75.362 93.223, 75.572 92.884 C 76.382 91.573, 76.203 76.803, 75.367 75.967 C 74.855 75.455, 73.855 75.491, 72.992 76.052 M 112.751 122.534 C 111.653 125.516, 106.784 128, 102.037 128 C 99.522 128, 98.126 128.395, 98.500 129 C 98.840 129.550, 98.609 130, 97.988 130 C 97.366 130, 96.153 130.704, 95.293 131.564 C 93.995 132.862, 92.217 133.011, 84.864 132.435 L 76 131.742 76 142.004 L 76 152.266 94.750 151.537 C 105.063 151.136, 113.625 150.688, 113.778 150.543 C 113.930 150.397, 113.930 143.578, 113.778 135.389 C 113.625 127.200, 113.163 121.415, 112.751 122.534 M 242.101 247.378 C 241.210 248.452, 241.348 248.849, 242.729 249.180 C 243.703 249.413, 245.320 249.429, 246.322 249.215 C 248.084 248.838, 248.084 248.781, 246.322 247.445 C 244.012 245.694, 243.506 245.686, 242.101 247.378" stroke="none" fill="black" fill-rule="evenodd"/>
</svg>