<svg xmlns="http://www.w3.org/2000/svg" width="256" height="256" viewBox="0 0 256 256" version="1.1">
	<path d="M 53.174 19.645 C 51.482 20.019, 51.029 20.615, 51.513 21.830 C 52.717 24.851, 52.550 30.960, 51.250 31.458 C 50.563 31.722, 50 31.276, 50 30.469 C 50 29.661, 49.212 28.966, 48.250 28.923 C 46.037 28.827, 43.944 28.373, 41.889 27.543 C 40.532 26.995, 40.308 27.619, 40.469 31.492 C 40.575 34.022, 40.261 36.339, 39.772 36.641 C 39.284 36.943, 38.972 41.225, 39.081 46.156 C 39.196 51.387, 38.838 55.562, 38.222 56.178 C 37.642 56.758, 32.967 57.293, 27.833 57.367 L 18.500 57.500 18.455 65.500 C 18.380 78.914, 17.767 78.148, 28.378 77.914 L 37.500 77.713 37.762 114.857 C 37.936 139.431, 38.372 152, 39.051 152 C 39.616 152, 48.048 152.108, 57.789 152.241 L 75.500 152.482 75.787 143.280 L 76.074 134.079 67.287 133.789 L 58.500 133.500 58.224 117.076 C 58.073 108.042, 58.298 100.318, 58.724 99.911 C 59.151 99.504, 63.434 98.929, 68.243 98.634 L 76.986 98.097 76.900 115.799 L 76.814 133.500 82.969 133.833 C 86.354 134.017, 89.883 133.833, 90.812 133.424 C 91.740 133.016, 92.838 132.754, 93.250 132.841 C 93.662 132.929, 94.090 132.437, 94.199 131.750 C 94.309 131.062, 94.647 135.675, 94.949 142 C 95.467 152.801, 95.622 153.479, 97.500 153.159 C 98.600 152.971, 102.608 152.720, 106.407 152.601 C 114.492 152.347, 114.591 152.218, 114.895 141.500 C 115.134 133.073, 115.724 130.698, 117.322 131.735 C 117.970 132.156, 121.875 132.725, 126 133 L 133.500 133.500 133.787 143.315 L 134.074 153.130 140.787 152.886 C 144.479 152.751, 148.400 152.937, 149.500 153.298 C 153.416 154.583, 154.098 152.932, 153.790 142.916 L 153.500 133.500 144 133 L 134.500 132.500 133.856 124 C 133.469 118.887, 133.606 115.016, 134.199 114.286 C 134.807 113.538, 138.694 112.963, 144.342 112.786 L 153.500 112.500 153.536 96.787 L 153.573 81.074 145.617 80.787 C 140.356 80.597, 137.521 80.076, 137.247 79.250 C 136.941 78.325, 138.762 78, 144.246 78 L 151.658 78 151.882 72.455 C 152.208 64.396, 151.542 63, 147.374 63 C 145.453 63, 144.123 62.610, 144.417 62.134 C 144.711 61.658, 146.035 61.475, 147.359 61.728 C 148.683 61.981, 150.070 61.696, 150.442 61.094 C 150.875 60.393, 150.015 60, 148.043 60 C 146.352 60, 143.141 59.438, 140.908 58.750 L 136.847 57.500 137.315 47.578 C 137.758 38.186, 137.905 37.638, 140.060 37.309 C 141.313 37.117, 144.174 36.341, 146.419 35.583 C 150.357 34.252, 150.500 34.052, 150.500 29.852 C 150.500 25.620, 150.408 25.495, 147.167 25.334 C 143.206 25.136, 142.840 24.877, 143.962 23.061 C 144.703 21.863, 145.911 21.493, 150.417 21.083 C 150.921 21.038, 151.024 20.691, 150.647 20.314 C 149.604 19.271, 136.360 18.719, 131.148 19.501 C 127.051 20.115, 126.738 20.336, 128.324 21.495 C 129.658 22.471, 129.779 22.929, 128.803 23.320 C 127.961 23.657, 128.120 23.870, 129.250 23.921 C 130.518 23.978, 131 24.842, 131 27.059 C 131 28.844, 130.583 29.861, 130 29.500 C 129.450 29.160, 129 29.385, 129 30 C 129 30.615, 128.550 30.840, 128 30.500 C 127.450 30.160, 126.993 30.471, 126.985 31.191 C 126.972 32.241, 126.809 32.248, 126.161 31.227 C 124.840 29.145, 121.003 28.834, 120.985 30.807 C 120.971 32.266, 120.835 32.292, 120 31 C 119.172 29.718, 119.028 29.754, 119.015 31.250 C 118.999 33.157, 119.343 33.245, 126 33.038 C 129.503 32.929, 130.769 33.337, 131.714 34.878 C 132.792 36.636, 132.624 36.920, 130.214 37.424 C 124.364 38.647, 98.908 38.538, 87.500 37.241 L 79.500 36.331 86.215 36.166 C 93.686 35.981, 95.480 34.505, 94.617 29.251 C 94.368 27.738, 94.127 25.113, 94.082 23.417 C 94.008 20.649, 93.667 20.320, 90.750 20.207 C 72.008 19.481, 55.063 19.227, 53.174 19.645 M 121 21.059 C 121 21.641, 121.450 21.840, 122 21.500 C 122.550 21.160, 123 20.684, 123 20.441 C 123 20.198, 122.550 20, 122 20 C 121.450 20, 121 20.477, 121 21.059 M 60.222 38.843 C 58.534 39.913, 57.278 76.934, 58.923 77.125 C 59.516 77.194, 60.675 77.250, 61.500 77.250 C 62.325 77.250, 66.375 77.194, 70.500 77.125 L 78 77 77.968 67.750 C 77.936 58.397, 76.856 55.017, 73.890 54.985 C 72.920 54.974, 72.847 54.748, 73.650 54.235 C 74.300 53.820, 74.930 50.238, 75.100 46 C 75.346 39.852, 75.139 38.564, 73.950 38.853 C 71.424 39.469, 68.608 39.426, 65 38.719 C 63.075 38.342, 60.925 38.398, 60.222 38.843 M 111.750 60.662 C 112.438 60.940, 113.563 60.940, 114.250 60.662 C 114.938 60.385, 114.375 60.158, 113 60.158 C 111.625 60.158, 111.063 60.385, 111.750 60.662 M 104.269 62.693 C 105.242 62.947, 106.592 62.930, 107.269 62.656 C 107.946 62.382, 107.150 62.175, 105.500 62.195 C 103.850 62.215, 103.296 62.439, 104.269 62.693 M 99.234 72.868 C 98.682 73.216, 98.062 74.400, 97.854 75.500 C 97.516 77.296, 96.564 77.530, 88.522 77.792 C 82.906 77.975, 79.280 78.535, 78.798 79.292 C 77.819 80.834, 77.792 93.143, 78.765 94.601 C 79.691 95.987, 95.212 95.901, 96.235 94.503 C 96.639 93.952, 96.976 90.013, 96.985 85.750 L 97 78 101.570 78 C 105.698 78, 106.108 77.789, 105.820 75.817 C 105.491 73.575, 101.177 71.643, 99.234 72.868 M 109.938 74.575 C 108.768 75.985, 108.845 76.413, 110.484 77.612 C 112.671 79.211, 114.363 78.117, 113.844 75.439 C 113.371 73.001, 111.574 72.604, 109.938 74.575 M 242 247.500 C 242 248.994, 243.145 249.430, 246 249.023 C 248.270 248.700, 248.603 247.993, 246.971 246.961 C 244.713 245.533, 242 245.827, 242 247.500" stroke="none" fill="black" fill-rule="evenodd"/>
</svg>