<svg xmlns="http://www.w3.org/2000/svg" width="256" height="256" viewBox="0 0 256 256" version="1.1">
	<path d="M 57 27.963 L 57 37.909 53.750 38.457 C 51.962 38.758, 47.800 39.116, 44.500 39.252 L 38.500 39.500 38.463 47 C 38.443 51.125, 38.079 55.063, 37.654 55.750 C 37.125 56.606, 33.926 57, 27.500 57 C 22.340 57, 17.961 57.338, 17.769 57.750 C 17.577 58.163, 17.663 62.550, 17.960 67.500 L 18.500 76.500 27.500 76.498 C 32.450 76.497, 36.827 76.947, 37.227 77.498 C 38.257 78.917, 38.116 142.714, 37.073 147.250 C 36.599 149.312, 36.501 151.027, 36.855 151.061 C 37.210 151.094, 42 151.200, 47.500 151.296 L 57.500 151.471 58 141.985 L 58.500 132.500 66 132.757 C 70.125 132.898, 74.063 133.222, 74.750 133.476 C 75.624 133.798, 76 136.659, 76 142.983 L 76 152.030 105.750 151.765 C 131.633 151.534, 135.445 151.305, 135.077 150 C 134.844 149.175, 134.456 144.941, 134.214 140.592 L 133.774 132.683 143.387 133.315 L 153 133.946 153.105 129.723 C 153.366 119.197, 153.114 113.723, 152.339 113.047 C 151.878 112.645, 147.450 112.582, 142.500 112.908 L 133.500 113.500 133.214 123.271 L 132.927 133.043 113.714 132.771 L 94.500 132.500 94.214 123.391 L 93.929 114.282 85.991 113.620 C 81.625 113.256, 77.408 112.710, 76.620 112.408 C 75.541 111.993, 75.164 109.738, 75.094 103.263 C 75.043 98.536, 74.858 94.525, 74.683 94.349 C 74.507 94.174, 71.115 94.650, 67.144 95.406 C 57.416 97.260, 57 96.811, 57 84.464 C 57 73.175, 57.408 72.767, 68.118 73.352 C 76.872 73.830, 77.965 75.144, 77.320 84.412 C 77.086 87.760, 77.261 91.027, 77.708 91.671 C 78.232 92.426, 84.026 93.088, 94.010 93.533 C 102.530 93.913, 109.651 94.626, 109.835 95.118 C 110.020 95.610, 110.582 95.758, 111.085 95.447 C 111.588 95.136, 112 95.359, 112 95.941 C 112 96.523, 110.987 97.051, 109.750 97.114 C 101.917 97.511, 97.223 99.314, 98.797 101.320 C 99.307 101.969, 99.556 104.412, 99.351 106.750 C 98.997 110.799, 99.110 111.004, 101.740 111.078 C 103.258 111.121, 106.591 111.258, 109.146 111.382 L 113.792 111.609 114.226 105.055 C 114.473 101.315, 114.196 97.735, 113.580 96.719 C 111.925 93.991, 114.202 93.196, 122.873 93.476 C 127.068 93.612, 131.063 93.280, 131.750 92.739 C 132.547 92.112, 133 89.096, 133 84.415 L 133 77.075 142.250 76.788 L 151.500 76.500 151.385 72.500 C 151.322 70.300, 151.184 57.250, 151.078 43.500 L 150.886 18.500 103.943 18.258 L 57 18.016 57 27.963 M 73.676 38.657 C 73.314 39.019, 69.752 39.356, 65.759 39.407 L 58.500 39.500 58.207 47.914 C 57.867 57.668, 58.351 58.341, 65 57.363 C 67.475 56.999, 75.125 56.656, 82 56.601 L 94.500 56.500 94.788 47.250 L 95.075 38 84.704 38 C 79 38, 74.038 38.296, 73.676 38.657 M 121.015 38.986 L 114.530 39.500 114.859 43.998 C 115.041 46.472, 115.375 48.797, 115.602 49.164 C 115.829 49.532, 115.585 50.960, 115.061 52.339 C 113.614 56.145, 115.641 57.139, 124.158 56.796 L 131.500 56.500 131.795 48.595 C 132.186 38.101, 132.187 38.102, 121.015 38.986 M 243.250 245.729 C 241.651 246.289, 241.625 248.708, 243.212 249.237 C 245.204 249.901, 249.110 248.830, 248.740 247.721 C 248.301 246.402, 244.877 245.160, 243.250 245.729" stroke="none" fill="black" fill-rule="evenodd"/>
</svg>