<svg xmlns="http://www.w3.org/2000/svg" width="256" height="256" viewBox="0 0 256 256" version="1.1">
	<path d="M 66.286 18.743 L 58.071 19.080 57.786 28.790 L 57.500 38.500 48.071 39 L 38.642 39.500 38.898 46.470 C 39.039 50.303, 39.402 53.841, 39.705 54.332 C 40.837 56.163, 37.224 56.970, 27.833 56.985 C 22.435 56.993, 18.019 57.432, 17.833 57.979 C 17.650 58.517, 17.725 62.905, 18 67.729 L 18.500 76.500 28.500 77 L 38.500 77.500 38.500 114.500 L 38.500 151.500 47.500 151.593 C 60.268 151.725, 60 151.857, 60 145.433 C 60 139.490, 61.447 138.327, 63.960 142.250 C 65.677 144.931, 66.317 148, 65.160 148 C 64.706 148, 64.333 148.644, 64.333 149.432 C 64.333 150.529, 65.782 150.844, 70.533 150.780 C 76.308 150.703, 76.699 150.553, 76.222 148.599 C 75.941 147.444, 75.271 145.938, 74.733 145.250 C 74.090 144.428, 74.104 144, 74.772 144 C 75.331 144, 75.833 142.988, 75.887 141.750 C 75.942 140.512, 76.207 135.124, 76.476 129.776 C 77.021 118.983, 76.492 118, 70.148 118 C 65.851 118, 63.969 118.950, 62.948 121.636 C 62.454 122.936, 61.624 124, 61.104 124 C 59.827 124, 58.789 113.206, 59.181 104 L 59.500 96.500 67.342 96.500 C 71.654 96.500, 75.572 96.739, 76.047 97.032 C 76.522 97.324, 77.101 101.506, 77.333 106.326 C 77.565 111.145, 77.928 115.261, 78.140 115.473 C 78.469 115.802, 105.635 117.288, 108.500 117.134 C 109.050 117.105, 110.737 116.785, 112.250 116.424 C 114.967 115.775, 115 115.827, 115 120.692 C 115 126.298, 113.334 129.222, 109.880 129.680 C 108.150 129.909, 106.954 129.177, 105.500 127.001 C 104.400 125.353, 102.825 123.970, 102 123.926 C 101.175 123.883, 99.772 123.705, 98.881 123.531 C 96.945 123.154, 96 130.011, 96 144.438 L 96 153.582 105.694 153.541 L 115.387 153.500 115.764 143.015 C 116.130 132.846, 117.163 129.763, 119.442 132.042 C 120.803 133.403, 127.659 133.230, 129.989 131.775 C 133.254 129.736, 134.142 131.958, 134.328 142.628 L 134.500 152.500 143.941 153.226 C 149.134 153.625, 153.502 153.832, 153.648 153.685 C 153.794 153.539, 154.205 140.671, 154.562 125.089 L 155.210 96.759 145.104 97.165 C 136.531 97.509, 134.922 97.331, 134.496 95.988 C 133.633 93.270, 134.957 59.950, 136.005 57.991 C 136.552 56.968, 137 53.656, 137 50.631 C 137 47.605, 137.422 44.021, 137.937 42.665 C 139.203 39.336, 137.771 39.031, 120.809 39.014 C 112.629 39.005, 106.865 38.591, 106.490 37.984 C 106.144 37.425, 105.555 37.143, 105.181 37.359 C 104.806 37.574, 103.600 37.407, 102.500 36.987 C 100.867 36.365, 101.356 36.003, 105.158 35.017 C 109.856 33.798, 112.419 30.482, 109.521 29.370 C 108.129 28.835, 108.049 27.312, 109.308 25.297 C 109.728 24.625, 109.273 23.174, 108.280 22.014 C 106.626 20.081, 105.541 19.945, 92.909 20.091 L 79.318 20.248 79.160 24.290 C 78.928 30.208, 78 30.194, 78 24.274 C 78 20.582, 77.572 19.050, 76.418 18.607 C 75.548 18.273, 74.761 18.092, 74.668 18.204 C 74.576 18.315, 70.804 18.558, 66.286 18.743 M 60.016 38.990 C 58.783 39.752, 58.242 79.576, 59.448 80.781 C 59.809 81.143, 61.319 81.520, 62.803 81.620 C 64.286 81.720, 67.964 82.002, 70.976 82.247 C 74.437 82.528, 76.889 82.254, 77.641 81.501 C 79.044 80.099, 78.952 59.346, 77.533 57.052 C 77.040 56.256, 76.606 51.756, 76.569 47.052 L 76.500 38.500 68.824 38.395 C 64.602 38.338, 60.638 38.605, 60.016 38.990 M 242.667 246.667 C 241.197 248.136, 242.165 248.998, 245.250 248.968 C 248.324 248.938, 248.395 248.857, 246.559 247.468 C 244.403 245.838, 243.651 245.683, 242.667 246.667" stroke="none" fill="black" fill-rule="evenodd"/>
</svg>