<svg xmlns="http://www.w3.org/2000/svg" width="256" height="256" viewBox="0 0 256 256" version="1.1">
	<path d="M 142.841 17.790 C 137.331 17.999, 135.029 18.481, 134.635 19.509 C 134.333 20.295, 134.026 28.039, 133.953 36.719 C 133.879 45.398, 133.575 53.771, 133.278 55.326 C 132.803 57.813, 132.425 58.067, 130.119 57.450 C 126.737 56.545, 126.467 56.543, 120.238 57.372 C 117.344 57.757, 115.035 57.718, 115.106 57.286 C 115.178 56.854, 115.184 52.857, 115.118 48.404 L 115 40.308 105.796 40.236 C 98.618 40.179, 96.338 39.815, 95.436 38.582 C 94.536 37.351, 92.363 37, 85.635 37 L 76.991 37 77.469 28.821 C 77.771 23.663, 77.543 20.154, 76.852 19.321 C 76.086 18.398, 72.929 18, 66.378 18 L 57 18 56.882 26.250 C 56.816 30.788, 56.828 35.029, 56.908 35.675 C 57.171 37.801, 54.606 38.497, 46.500 38.499 L 38.500 38.500 38 47.500 L 37.500 56.500 33.500 56.549 C 31.300 56.576, 26.692 56.689, 23.261 56.799 L 17.022 57 17.663 66.250 C 18.015 71.338, 18.670 75.742, 19.117 76.038 C 19.565 76.334, 23.761 76.509, 28.443 76.427 C 35.713 76.301, 37.034 76.532, 37.503 78.010 C 37.805 78.961, 37.928 96.111, 37.776 116.120 L 37.500 152.500 47 152.627 C 55.777 152.744, 59.656 151.870, 58.519 150.031 C 57.465 148.326, 56.854 117.141, 57.838 115.302 C 58.636 113.811, 59.817 113.434, 63.181 113.595 C 65.557 113.709, 69.412 113.847, 71.750 113.901 C 74.908 113.975, 76 114.404, 76 115.574 C 76 116.808, 77.026 117.113, 80.750 116.985 C 88.968 116.703, 89.995 116.898, 90.079 118.750 C 90.126 119.795, 90.361 119.997, 90.662 119.250 C 90.940 118.562, 91.977 118, 92.967 118 C 93.957 118, 95.007 117.081, 95.301 115.959 C 95.791 114.085, 96.543 113.931, 104.488 114.088 C 109.723 114.191, 113.580 113.820, 114.252 113.148 C 114.862 112.538, 115.457 110.342, 115.574 108.269 C 115.690 106.196, 115.834 103.727, 115.893 102.781 C 115.961 101.684, 116.542 101.271, 117.500 101.638 C 118.518 102.029, 119 103.625, 119 106.607 C 119 111.298, 120.137 112.083, 123.435 109.671 C 124.873 108.620, 125.032 107.928, 124.196 106.367 C 122.928 103.997, 123.717 102.514, 126.750 101.567 C 129.130 100.825, 129.945 97.048, 127.750 96.937 C 127.063 96.902, 127.578 96.442, 128.895 95.915 C 130.213 95.388, 131.466 95.133, 131.681 95.347 C 132.415 96.082, 132.779 137.490, 132.111 144.312 C 131.692 148.590, 131.827 151.421, 132.472 151.922 C 133.037 152.360, 137.964 152.670, 143.420 152.610 L 153.340 152.500 153.648 88.500 C 153.817 53.300, 154.201 23.092, 154.501 21.371 C 155.154 17.615, 154.309 17.356, 142.841 17.790 M 58.376 40.463 C 58.117 41.136, 58.040 45.020, 58.203 49.094 L 58.500 56.500 67 56.500 L 75.500 56.500 75.565 49.500 C 75.664 38.888, 76.045 39.336, 66.849 39.284 C 61.424 39.254, 58.694 39.634, 58.376 40.463 M 72.446 78.497 C 70.615 79.913, 70.603 80.063, 72.250 81.050 C 73.430 81.758, 74.043 83.467, 74.131 86.300 C 74.248 90.034, 74.349 89.834, 75.044 84.500 C 75.922 77.759, 75.290 76.299, 72.446 78.497 M 66.269 80.693 C 67.242 80.947, 68.592 80.930, 69.269 80.656 C 69.946 80.382, 69.150 80.175, 67.500 80.195 C 65.850 80.215, 65.296 80.439, 66.269 80.693 M 81.750 96.732 C 84.087 96.943, 87.912 96.943, 90.250 96.732 C 92.587 96.522, 90.675 96.349, 86 96.349 C 81.325 96.349, 79.412 96.522, 81.750 96.732 M 116 96.799 C 116 97.239, 117.688 97.438, 119.750 97.242 C 126.181 96.630, 126.705 96.237, 121.250 96.116 C 118.362 96.052, 116 96.360, 116 96.799 M 96 143.225 C 96 151.240, 96.307 153.928, 97.161 153.400 C 97.800 153.006, 104.212 152.541, 111.411 152.369 C 129.734 151.929, 128.500 152.581, 128.500 143.336 C 128.500 135.927, 128.392 135.561, 126 134.895 C 124.625 134.512, 121.902 134.155, 119.950 134.100 C 117.997 134.045, 115.954 133.554, 115.410 133.010 C 114.766 132.366, 113.250 132.355, 111.078 132.978 C 109.134 133.535, 105.281 133.600, 101.868 133.134 L 96 132.331 96 143.225 M 73.490 135.016 C 73.144 135.575, 72.534 135.830, 72.133 135.582 C 70.873 134.804, 69.071 136.497, 69.839 137.739 C 70.948 139.534, 75 138.077, 75 135.883 C 75 133.793, 74.443 133.474, 73.490 135.016 M 63.553 135.915 C 63.231 136.436, 63.394 137.125, 63.915 137.447 C 64.436 137.769, 65.125 137.606, 65.447 137.085 C 65.769 136.564, 65.606 135.875, 65.085 135.553 C 64.564 135.231, 63.875 135.394, 63.553 135.915 M 73 150 C 73 150.550, 73.450 151, 74 151 C 74.550 151, 75 150.550, 75 150 C 75 149.450, 74.550 149, 74 149 C 73.450 149, 73 149.450, 73 150 M 243 247.417 C 243 248.287, 243.713 249, 244.583 249 C 246.349 249, 246.042 246.847, 244.188 246.229 C 243.534 246.011, 243 246.546, 243 247.417" stroke="none" fill="black" fill-rule="evenodd"/>
</svg>