<svg xmlns="http://www.w3.org/2000/svg" width="256" height="256" viewBox="0 0 256 256" version="1.1">
	<path d="M 35.692 18.641 C 35.160 19.173, 31.030 19.776, 26.823 19.936 C 25.901 19.971, 24.941 20.788, 24.689 21.750 C 24.301 23.236, 24.215 23.254, 24.116 21.867 C 24.052 20.968, 23.158 20.013, 22.128 19.744 C 20.377 19.286, 20.211 20.294, 19.548 35.428 C 18.827 51.892, 19.557 66, 21.129 66 C 21.608 66, 21.947 65.662, 21.882 65.250 C 21.505 62.865, 22.147 60, 23.059 60 C 23.641 60, 23.797 60.519, 23.405 61.154 C 22.878 62.006, 24.416 62.131, 29.284 61.632 C 36.990 60.843, 38.401 61.965, 36.834 67.641 C 36.237 69.803, 36.280 71.654, 36.957 72.920 C 37.531 73.992, 38 79.156, 38 84.397 L 38 93.925 28.750 94.212 L 19.500 94.500 19.242 103.712 L 18.985 112.925 28.242 113.212 L 37.500 113.500 37.787 123.311 L 38.074 133.122 28.787 132.916 L 19.500 132.710 19.215 142.283 L 18.929 151.856 28.052 152.178 C 33.070 152.355, 37.361 152.313, 37.588 152.083 C 37.815 151.854, 38 147.467, 38 142.333 L 38 133 47.031 133 C 53.349 133, 56.198 133.376, 56.514 134.250 C 56.762 134.938, 57.110 139.100, 57.287 143.500 L 57.608 151.500 66.554 151.656 C 78.745 151.869, 133.299 151.878, 144.917 151.669 L 154.334 151.500 154.089 133.529 C 153.955 123.645, 153.628 115.207, 153.363 114.779 C 153.099 114.351, 148.444 114, 143.020 114 L 133.158 114 133.514 105.509 C 133.710 100.839, 134.151 96.564, 134.494 96.009 C 134.837 95.454, 138.804 94.993, 143.309 94.985 C 147.814 94.976, 152.074 94.605, 152.775 94.160 C 153.780 93.522, 153.992 85.479, 153.775 56.270 L 153.500 19.189 94.887 18.624 C 62.650 18.313, 36.012 18.321, 35.692 18.641 M 30.300 22.389 C 29.860 23.152, 28.600 24, 27.500 24.273 C 26.400 24.545, 27.633 24.820, 30.240 24.884 C 34.888 24.998, 34.947 24.961, 33.268 23 C 31.230 20.620, 31.309 20.636, 30.300 22.389 M 57.730 37.603 C 57.329 38.005, 57 41.858, 57 46.167 C 57 50.932, 56.592 54, 55.958 54 C 55.385 54, 53.971 54.881, 52.814 55.958 C 51.254 57.412, 50.251 57.670, 48.922 56.958 C 46.780 55.812, 44.955 55.712, 45.118 56.750 C 45.538 59.408, 44.792 62, 43.607 62 C 42.841 62, 41.955 62.675, 41.638 63.500 C 41.257 64.494, 41.675 65, 42.878 65 C 43.877 65, 45.732 65.900, 47 67 C 48.268 68.100, 48.756 69, 48.083 69 C 45.940 69, 47.312 73.488, 49.500 73.632 C 50.600 73.705, 51.950 73.871, 52.500 74.001 C 56.639 74.978, 57 74.255, 57 65 L 57 56 66.378 56 C 72.813 56, 76.091 56.405, 76.825 57.289 C 77.438 58.028, 77.811 62.195, 77.698 67.039 L 77.500 75.500 67.750 75.786 L 58 76.072 58 85.036 L 58 94 67.955 94 L 77.909 94 77.542 105.250 C 77.073 119.648, 76.828 130.156, 76.924 131.766 C 76.984 132.761, 82.923 132.975, 104.750 132.766 L 132.500 132.500 132.500 123.500 L 132.500 114.500 123.343 114.214 L 114.186 113.927 114.725 104.573 C 115.366 93.467, 115.559 93.635, 102.631 94.052 C 98.159 94.196, 90.765 94.244, 86.199 94.157 L 77.899 94 78.074 85.250 L 78.250 76.500 87.375 76.500 L 96.500 76.500 96.789 67.750 C 96.986 61.791, 97.464 58.970, 98.289 58.907 C 98.955 58.856, 101.382 58.888, 103.682 58.979 C 105.983 59.069, 108.763 58.662, 109.860 58.075 C 113.704 56.018, 114.512 57.463, 114.330 66.072 C 114.206 71.891, 114.520 74.262, 115.462 74.624 C 117.710 75.486, 129.739 75.641, 131.918 74.834 C 133.922 74.093, 134 73.387, 134 56.032 L 134 38 121.250 37.943 C 114.237 37.912, 97.241 37.658, 83.480 37.380 C 69.719 37.101, 58.132 37.202, 57.730 37.603 M 47.813 40.683 C 48.534 40.972, 49.397 40.936, 49.729 40.604 C 50.061 40.272, 49.471 40.036, 48.417 40.079 C 47.252 40.127, 47.015 40.364, 47.813 40.683 M 39 56 C 39 56.550, 40.125 57, 41.500 57 C 42.875 57, 44 56.550, 44 56 C 44 55.450, 42.875 55, 41.500 55 C 40.125 55, 39 55.450, 39 56 M 24.243 66.504 C 23.551 67.289, 22.313 67.674, 21.493 67.359 C 20.415 66.945, 20 67.479, 20 69.277 C 20 71.486, 20.368 71.731, 23.250 71.448 C 25.038 71.272, 27.698 71.099, 29.162 71.064 C 31.824 71, 32.062 70.255, 30.544 66.750 C 29.636 64.653, 25.998 64.511, 24.243 66.504 M 143 135.015 C 141.625 135.375, 139.213 135.484, 137.641 135.258 C 135.783 134.990, 134.916 135.249, 135.166 135.998 C 135.377 136.631, 135.876 137.116, 136.275 137.075 C 136.674 137.034, 139.813 136.964, 143.250 136.921 C 146.688 136.878, 148.825 136.585, 148 136.271 C 147.175 135.957, 146.275 135.399, 146 135.030 C 145.725 134.662, 144.375 134.655, 143 135.015 M 12 206.941 C 12 209.356, 12.556 209.599, 13.349 207.532 C 13.659 206.725, 13.482 205.798, 12.956 205.473 C 12.430 205.148, 12 205.809, 12 206.941 M 243.489 247.018 C 242.574 248.498, 243.442 249.255, 245.577 248.838 C 247.140 248.534, 247.156 248.371, 245.745 247.201 C 244.620 246.269, 243.984 246.218, 243.489 247.018" stroke="none" fill="black" fill-rule="evenodd"/>
</svg>