<svg xmlns="http://www.w3.org/2000/svg" width="256" height="256" viewBox="0 0 256 256" version="1.1">
	<path d="M 61.500 19 C 52.214 19.464, 51.520 19.643, 51.774 21.500 C 51.924 22.600, 52.149 26.404, 52.274 29.953 C 52.543 37.627, 52.748 37.745, 66.050 37.900 C 75.271 38.008, 77.597 39.017, 75.906 42.175 C 75.274 43.356, 75.097 53.389, 75.425 69.426 C 76.023 98.654, 77.118 95.850, 64.754 96.732 C 60.494 97.036, 56.604 97.784, 56.109 98.393 C 55.615 99.002, 55.046 103.232, 54.846 107.792 C 54.604 113.297, 54.032 116.362, 53.146 116.910 C 52.412 117.364, 49.068 118.022, 45.715 118.372 C 41.607 118.801, 38.910 119.676, 37.444 121.053 C 35.758 122.636, 33.656 123.167, 28.107 123.408 C 24.169 123.580, 20.671 123.995, 20.335 124.332 C 19.741 124.926, 19.618 147.047, 20.206 147.443 C 20.368 147.552, 24.437 147.358, 29.250 147.012 C 35.855 146.537, 38.308 145.961, 39.256 144.665 C 40.665 142.737, 49.373 140.129, 52.702 140.637 C 55.482 141.061, 56.051 139.262, 56.162 129.701 C 56.210 125.583, 56.565 121.703, 56.952 121.078 C 57.949 119.464, 72.925 119.261, 73.907 120.849 C 75.206 122.952, 76.829 115.038, 76.946 106.021 C 77.067 96.764, 77.941 94.735, 80.726 97.246 C 83.300 99.566, 87.747 100.455, 89.500 99 C 92.215 96.747, 93.995 98.584, 94.073 103.719 C 94.113 106.348, 94.568 110.975, 95.084 114 C 95.600 117.025, 96.092 120.063, 96.178 120.750 C 96.263 121.438, 96.821 122.006, 97.417 122.014 C 98.013 122.021, 99.459 122.285, 100.631 122.599 C 102.058 122.982, 103.428 122.457, 104.777 121.009 C 106.142 119.544, 107.708 118.952, 109.636 119.174 L 112.482 119.500 113.621 132.331 C 114.248 139.387, 115.251 145.651, 115.850 146.250 C 116.449 146.849, 120.440 147.448, 124.719 147.581 C 128.999 147.715, 136.550 147.987, 141.500 148.186 C 146.450 148.384, 150.725 148.245, 151 147.875 C 151.275 147.506, 151.275 143.457, 151 138.877 C 150.541 131.235, 150.294 130.445, 148 129.289 C 146.625 128.596, 143.002 128.023, 139.950 128.015 C 133.738 127.998, 132 126.871, 132 122.859 C 132 119.188, 130.728 118.582, 122.500 118.335 C 118.650 118.220, 114.899 118.097, 114.164 118.063 C 113.105 118.013, 112.915 115.597, 113.245 106.402 C 113.571 97.325, 113.354 94.497, 112.250 93.393 C 111.474 92.617, 110.484 92.201, 110.050 92.469 C 109.616 92.737, 107.015 93.230, 104.271 93.565 C 100.035 94.080, 99.160 93.895, 98.487 92.336 C 97.437 89.906, 97.936 77.593, 99.101 77.165 C 99.602 76.980, 99.804 76.493, 99.550 76.081 C 99.296 75.670, 99.743 75.333, 100.544 75.333 C 101.345 75.333, 102 75.652, 102 76.041 C 102 77.264, 110.940 76.561, 111.432 75.299 C 111.689 74.638, 111.092 73.101, 110.106 71.882 C 108.792 70.260, 107.801 69.882, 106.406 70.472 C 103.677 71.626, 101 71.804, 101 70.833 C 101 70.375, 100.100 70, 99 70 C 96.732 70, 96.692 69.315, 96.977 35.684 L 97.128 17.867 84.314 18.184 C 77.266 18.358, 67 18.725, 61.500 19 M 12 207.992 C 12 210.122, 12.740 210.452, 14.710 209.200 C 15.583 208.645, 15.374 208.090, 13.960 207.207 C 12.258 206.144, 12 206.247, 12 207.992 M 14.481 213.765 C 12.869 214.928, 12.711 224.675, 14.294 225.283 C 16.858 226.267, 21.118 224.840, 20.740 223.124 C 20.543 222.231, 19.845 221.613, 19.191 221.750 C 18.485 221.898, 18 220.812, 18 219.082 C 18 213.995, 16.760 212.122, 14.481 213.765 M 242 247.393 C 242 248.159, 242.563 248.993, 243.250 249.246 C 245.252 249.982, 246.935 248.994, 246.337 247.435 C 245.629 245.592, 242 245.556, 242 247.393" stroke="none" fill="black" fill-rule="evenodd"/>
</svg>