<svg xmlns="http://www.w3.org/2000/svg" width="256" height="256" viewBox="0 0 256 256" version="1.1">
	<path d="M 57 27.349 L 57 38 51.750 38.101 C 48.862 38.157, 45.083 38.126, 43.351 38.033 C 41.619 37.940, 39.842 38.447, 39.401 39.160 C 38.960 39.873, 38.563 43.841, 38.518 47.978 L 38.437 55.500 27.346 55.782 L 16.255 56.063 16.768 65.282 C 17.050 70.352, 17.780 74.850, 18.390 75.278 C 19.001 75.706, 23.422 75.953, 28.216 75.828 C 33.010 75.702, 37.205 75.871, 37.538 76.204 C 38.265 76.931, 38.204 148.862, 37.475 150.040 C 37.196 150.492, 37.487 151.183, 38.122 151.575 C 38.757 151.968, 63.852 152.401, 93.888 152.539 C 123.925 152.676, 149.175 152.948, 150 153.144 C 152.699 153.784, 153.464 117.932, 151.094 101.859 C 151.043 101.507, 148.082 101.175, 144.516 101.121 C 138.232 101.027, 138.013 101.109, 137.429 103.762 C 136.470 108.111, 136.163 108.663, 136.079 106.191 C 136.036 104.921, 135.550 104.160, 135 104.500 C 134.435 104.849, 134 104.030, 134 102.618 C 134 101.243, 133.566 99.850, 133.036 99.523 C 131.892 98.815, 135.114 95.109, 136.311 95.756 C 138.269 96.813, 142.882 97.001, 143.471 96.046 C 143.827 95.471, 143.416 94.944, 142.559 94.875 C 141.702 94.806, 140.550 94.638, 140 94.500 C 139.450 94.362, 138.423 94.194, 137.718 94.125 C 137.013 94.056, 136.351 92.967, 136.246 91.704 C 136.079 89.679, 136.436 89.451, 139.278 89.775 C 143.713 90.280, 147.174 88.900, 146.047 87.076 C 145.504 86.198, 143.463 85.667, 140.631 85.667 C 136.029 85.667, 134.489 84.444, 136.004 81.993 C 136.455 81.264, 136.425 79.617, 135.937 78.333 C 135.256 76.542, 135.392 76, 136.525 76 C 137.336 76, 138.007 76.563, 138.015 77.250 C 138.027 78.165, 138.262 78.135, 138.894 77.137 C 139.623 75.986, 139.842 75.986, 140.300 77.137 C 140.685 78.105, 140.865 78.138, 140.921 77.250 C 140.972 76.444, 142.621 76, 145.559 76 C 148.553 76, 149.890 76.369, 149.454 77.074 C 149.089 77.664, 149.736 77.557, 150.892 76.835 C 152.941 75.556, 152.979 75.053, 152.423 56.547 C 152.109 46.110, 151.645 37.235, 151.391 36.824 C 151.137 36.413, 149.909 36.464, 148.663 36.938 C 146.867 37.621, 136.328 37.765, 134 37.139 C 133.725 37.065, 133.643 32.728, 133.819 27.502 L 134.137 18 118.319 17.985 C 109.618 17.977, 92.263 17.684, 79.750 17.334 L 57 16.697 57 27.349 M 58.804 39.250 C 58.578 39.938, 58.418 48.375, 58.447 58 L 58.500 75.500 68 75.395 C 87.532 75.180, 92.999 74.798, 93.077 73.642 C 93.119 73.014, 93.330 71.600, 93.546 70.500 C 94.249 66.925, 94.334 59.001, 93.678 58.344 C 93.326 57.993, 89.677 57.659, 85.569 57.602 C 81.460 57.546, 77.642 57.043, 77.084 56.484 C 75.756 55.156, 75.039 43.144, 76.114 40.250 C 76.942 38.023, 76.860 38, 68.082 38 C 61.873 38, 59.091 38.375, 58.804 39.250 M 78 67.969 C 78 69.269, 78.488 69.750, 79.437 69.386 C 80.227 69.083, 80.629 68.197, 80.330 67.417 C 79.529 65.331, 78 65.693, 78 67.969 M 149.500 97 C 149.160 97.550, 149.359 98, 149.941 98 C 150.523 98, 151 97.550, 151 97 C 151 96.450, 150.802 96, 150.559 96 C 150.316 96, 149.840 96.450, 149.500 97 M 142.122 107.904 C 141.364 108.384, 141.053 109.277, 141.431 109.888 C 142.278 111.259, 146.968 111.319, 149 109.985 C 150.333 109.109, 150.333 108.891, 149 108.015 C 147.143 106.796, 143.952 106.745, 142.122 107.904 M 135.500 110 C 135.840 110.550, 136.316 111, 136.559 111 C 136.802 111, 137 110.550, 137 110 C 137 109.450, 136.523 109, 135.941 109 C 135.359 109, 135.160 109.450, 135.500 110 M 241.667 246.667 C 240.237 248.096, 241.129 249, 243.969 249 C 246.197 249, 246.794 248.626, 246.362 247.500 C 245.775 245.972, 242.876 245.458, 241.667 246.667" stroke="none" fill="black" fill-rule="evenodd"/>
</svg>