<svg xmlns="http://www.w3.org/2000/svg" width="256" height="256" viewBox="0 0 256 256" version="1.1">
	<path d="M 53.234 19.180 C 52.280 19.554, 49.138 19.891, 46.250 19.930 C 43.362 19.968, 41 20.337, 41 20.750 C 41 21.163, 43.293 21.500, 46.095 21.500 C 48.898 21.500, 51.486 21.725, 51.845 22 C 52.913 22.816, 53.076 25, 52.070 25 C 51.558 25, 50.944 26.012, 50.706 27.250 L 50.272 29.500 50.136 27.250 C 49.960 24.341, 47.191 24.310, 46.120 27.204 C 45.585 28.652, 44.395 29.456, 42.653 29.549 C 40.450 29.667, 39.983 29.251, 39.900 27.096 L 39.801 24.500 39 27 C 38.233 29.395, 38.195 29.368, 38.100 26.333 C 38.045 24.592, 37.438 22.940, 36.750 22.662 C 35.750 22.259, 35.750 22.142, 36.750 22.079 C 37.438 22.036, 38 21.306, 38 20.458 C 38 19.163, 36.998 19.021, 31.750 19.573 C 28.313 19.934, 24.127 20.170, 22.449 20.097 L 19.398 19.964 18.309 38.232 C 17.710 48.279, 17.576 56.883, 18.011 57.350 C 18.445 57.818, 27.493 58.268, 38.116 58.350 L 57.432 58.500 57.430 68 L 57.427 77.500 37.964 77.500 L 18.500 77.500 18.511 85.500 C 18.527 96.889, 18.293 96.622, 27.625 95.930 C 31.956 95.609, 35.806 95.606, 36.181 95.923 C 36.556 96.240, 37.139 100.401, 37.477 105.168 C 38.192 115.248, 37.580 115.930, 29.612 113.924 C 27.095 113.290, 24.368 113.029, 23.550 113.342 C 22.733 113.656, 21.785 113.460, 21.443 112.908 C 21.040 112.256, 20.319 112.321, 19.390 113.091 C 18.204 114.075, 18.059 117.307, 18.547 131.890 C 18.871 141.575, 19.334 150.109, 19.576 150.853 C 19.939 151.970, 26.557 152.117, 57.578 151.700 C 78.237 151.421, 95.381 150.953, 95.675 150.658 C 95.969 150.364, 96.275 129.728, 96.355 104.801 C 96.499 59.730, 96.512 59.460, 98.733 55.989 C 99.961 54.070, 100.974 53.063, 100.983 53.750 C 100.995 54.606, 102.851 55, 106.878 55 C 110.766 55, 113.158 55.486, 113.947 56.436 C 114.819 57.487, 115.246 70.431, 115.538 104.677 C 115.907 147.888, 116.072 151.580, 117.694 152.765 C 118.677 153.484, 120.781 153.823, 122.475 153.536 C 125.684 152.991, 146.782 152.891, 151 153.401 C 155.655 153.963, 156.001 153.320, 155.985 144.143 C 155.976 139.389, 155.639 135.050, 155.235 134.499 C 154.831 133.949, 150.225 133.499, 145 133.499 L 135.500 133.500 135.494 76.500 L 135.488 19.500 114.839 19.230 L 94.189 18.960 94.208 27.230 C 94.218 31.778, 94.176 36.063, 94.113 36.750 C 93.988 38.135, 79.405 38.557, 77.370 37.235 C 76.573 36.717, 76.466 33.988, 77.008 28 C 77.430 23.325, 77.597 19.308, 77.378 19.073 C 76.710 18.357, 55.088 18.453, 53.234 19.180 M 37.767 34.200 C 37.562 34.813, 35.956 35.275, 34.197 35.225 C 32.439 35.175, 31 35.554, 31 36.067 C 31 36.591, 36.131 37, 42.714 37 C 53.199 37, 54.269 36.840, 52.907 35.479 C 51.022 33.593, 38.326 32.521, 37.767 34.200 M 23.597 34.844 C 23.251 35.404, 23.455 36.163, 24.050 36.531 C 25.588 37.481, 26.580 36.180, 25.296 34.896 C 24.578 34.178, 24.019 34.161, 23.597 34.844 M 27 36.167 C 27 36.625, 27.675 37, 28.500 37 C 29.325 37, 30 36.625, 30 36.167 C 30 35.708, 29.325 35.333, 28.500 35.333 C 27.675 35.333, 27 35.708, 27 36.167 M 100 48.559 C 100 49.416, 100.457 49.835, 101.016 49.490 C 101.575 49.144, 101.774 48.443, 101.457 47.931 C 100.600 46.544, 100 46.802, 100 48.559 M 53.500 113.504 C 52.950 113.694, 49.462 114.145, 45.750 114.505 L 39 115.159 39 120.645 C 39 123.663, 38.504 127.059, 37.897 128.193 C 36.255 131.261, 38.183 131.967, 48.250 131.985 L 57 132 57 122.500 C 57 113.064, 56.736 112.384, 53.500 113.504 M 243.489 247.018 C 242.574 248.498, 243.442 249.255, 245.577 248.838 C 247.140 248.534, 247.156 248.371, 245.745 247.201 C 244.620 246.269, 243.984 246.218, 243.489 247.018" stroke="none" fill="black" fill-rule="evenodd"/>
</svg>