<svg xmlns="http://www.w3.org/2000/svg" width="256" height="256" viewBox="0 0 256 256" version="1.1">
	<path d="M 103.576 19 L 94.653 19.500 94.452 28.642 C 94.342 33.670, 93.943 38.283, 93.567 38.892 C 93.153 39.561, 89.538 40, 84.441 40 L 76 40 76 50.481 C 76 62.515, 76.683 61.784, 65 62.244 L 58.500 62.500 58.500 70.939 L 58.500 79.378 65.015 79.528 C 74.439 79.746, 76 80.852, 76 87.313 C 76 93.754, 77.836 95.652, 85.653 97.291 C 90.242 98.254, 91.260 98.202, 92.041 96.968 C 92.552 96.161, 93.021 95.950, 93.084 96.500 C 93.148 97.050, 93.560 96.375, 94 95 L 94.801 92.500 94.944 95 C 95.023 96.375, 95.476 100.858, 95.951 104.963 C 96.606 110.620, 96.501 112.875, 95.515 114.281 C 94.521 115.702, 94.335 120.170, 94.722 133.319 C 95.001 142.768, 95.421 150.706, 95.655 150.958 C 96.076 151.408, 113.266 151.048, 113.749 150.578 C 113.885 150.445, 114.282 146.970, 114.629 142.856 L 115.262 135.377 124.881 135.438 L 134.500 135.500 134.251 126.500 C 134.114 121.550, 133.497 116.263, 132.880 114.750 C 131.697 111.852, 131.424 111.758, 123.500 111.508 C 113.847 111.205, 114.191 111.749, 114.139 96.712 C 114.072 77.158, 113.362 78.500, 123.775 78.500 C 128.574 78.500, 133.063 78.864, 133.750 79.309 C 134.535 79.817, 135 82.493, 135 86.500 C 135 90.010, 135.458 93.165, 136.017 93.511 C 137.752 94.582, 147.967 92.849, 150.045 91.130 C 152.135 89.402, 152.119 89.569, 152.051 69.750 L 152.017 60 148.758 59.845 C 146.966 59.759, 143.150 59.637, 140.277 59.572 C 137.404 59.507, 134.612 59.012, 134.071 58.471 C 133.531 57.931, 132.956 53.666, 132.794 48.994 L 132.500 40.500 123.500 40 L 114.500 39.500 114.211 29.511 C 114.052 24.017, 113.602 19.292, 113.211 19.011 C 112.820 18.730, 108.484 18.725, 103.576 19 M 18.628 19.792 C 18.359 20.228, 18.360 27.091, 18.631 35.042 C 18.902 42.994, 19.160 51.413, 19.205 53.750 C 19.259 56.622, 19.726 58, 20.643 58 C 21.389 58, 21.887 57.458, 21.750 56.796 C 21.575 55.954, 23.760 55.534, 29 55.402 C 38.197 55.170, 37.918 55.253, 35.559 53.468 C 34.167 52.415, 34.026 51.996, 35.059 51.985 C 36.231 51.972, 36.251 51.811, 35.165 51.123 C 33.668 50.174, 33.695 49.393, 35.323 46.500 C 37.171 43.215, 37.488 39.954, 37.192 27.250 L 37 19 28.059 19 C 23.141 19, 18.898 19.357, 18.628 19.792 M 94.545 48.250 C 94.885 53.337, 95.344 58.080, 95.565 58.789 C 95.863 59.743, 98.250 60.003, 104.734 59.789 L 113.500 59.500 113.785 49.250 L 114.070 39 103.999 39 L 93.928 39 94.545 48.250 M 24 50.031 C 24 50.564, 24.675 51, 25.500 51 C 26.325 51, 27 50.823, 27 50.607 C 27 50.391, 26.325 49.955, 25.500 49.638 C 24.675 49.322, 24 49.499, 24 50.031 M 19.593 111.258 C 19.251 121.291, 19.112 134.450, 19.284 140.500 L 19.598 151.500 27.264 151.452 C 31.480 151.425, 35.154 151.179, 35.429 150.904 C 35.703 150.630, 36.170 147.084, 36.466 143.024 C 36.762 138.965, 37.678 134.614, 38.502 133.357 C 39.326 132.099, 40.007 129.367, 40.015 127.285 C 40.025 124.830, 40.328 123.969, 40.877 124.835 C 41.343 125.570, 42.123 126.132, 42.612 126.085 C 43.445 126.005, 43.522 126.431, 43.150 129.059 C 43.068 129.641, 42.550 129.840, 42 129.500 C 41.450 129.160, 41 129.359, 41 129.941 C 41 130.523, 42.365 131, 44.032 131 C 46.242 131, 47.310 130.390, 47.969 128.750 L 48.873 126.500 48.937 128.683 C 48.994 130.665, 52.427 132.906, 53.604 131.729 C 53.853 131.480, 54.179 127.185, 54.329 122.185 L 54.601 113.093 47.031 113.677 C 41.145 114.131, 39.197 113.943, 38.274 112.831 C 37.622 112.044, 36.955 107.598, 36.794 102.950 L 36.500 94.500 29.500 94.500 C 25.650 94.500, 21.986 94.166, 21.358 93.758 C 20.524 93.216, 20.048 97.938, 19.593 111.258 M 23.075 99.953 C 22.117 100.546, 22.158 100.847, 23.257 101.268 C 24.040 101.569, 25.241 101.469, 25.925 101.047 C 26.883 100.454, 26.842 100.153, 25.743 99.732 C 24.960 99.431, 23.759 99.531, 23.075 99.953 M 24.079 109.583 C 24.127 110.748, 24.364 110.985, 24.683 110.188 C 24.972 109.466, 24.936 108.603, 24.604 108.271 C 24.272 107.939, 24.036 108.529, 24.079 109.583 M 110.923 111.250 C 110.098 113.949, 110.424 115, 112.088 115 C 113.333 115, 114 114.302, 114 113 C 114 111.889, 113.333 111, 112.500 111 C 111.675 111, 110.966 111.112, 110.923 111.250 M 24.813 138.683 C 25.534 138.972, 26.397 138.936, 26.729 138.604 C 27.061 138.272, 26.471 138.036, 25.417 138.079 C 24.252 138.127, 24.015 138.364, 24.813 138.683 M 243 247.500 C 243 248.462, 243.966 249, 245.691 249 C 248.272 249, 248.303 248.940, 246.441 247.532 C 243.943 245.642, 243 245.634, 243 247.500" stroke="none" fill="black" fill-rule="evenodd"/>
</svg>