<svg xmlns="http://www.w3.org/2000/svg" width="256" height="256" viewBox="0 0 256 256" version="1.1">
	<path d="M 18.961 19.335 C 18.390 19.946, 18.637 36.970, 19.225 37.559 C 19.416 37.749, 31.651 38.119, 46.414 38.381 C 61.178 38.643, 73.607 39.227, 74.034 39.679 C 74.461 40.131, 74.967 44.163, 75.158 48.640 L 75.505 56.780 70.502 57.381 C 67.751 57.712, 59.143 57.987, 51.372 57.991 C 36.422 58.001, 34.471 58.575, 36.053 62.500 C 37.282 65.550, 37.150 77.450, 35.873 78.727 C 35.091 79.509, 33.955 79.553, 32.162 78.872 C 30.741 78.331, 28.436 78.215, 27.039 78.613 C 23.232 79.699, 22.612 79.707, 21.250 78.689 C 20.278 77.963, 20.003 79.396, 20.015 85.128 C 20.024 89.411, 20.378 91.953, 20.859 91.195 C 21.314 90.477, 23.894 89.706, 26.593 89.482 C 29.292 89.258, 32.063 88.983, 32.750 88.871 C 33.488 88.750, 34.051 86.993, 34.125 84.583 C 34.248 80.561, 34.261 80.577, 35.003 85.649 C 35.418 88.481, 36.041 91.257, 36.387 91.817 C 37.251 93.216, 32.662 94, 25.727 93.639 C 19.169 93.298, 18.843 93.729, 19.407 102 C 19.576 104.475, 19.779 116.512, 19.857 128.750 L 20 151 29.259 151 L 38.518 151 38.160 143 L 37.801 135 43.150 134.842 C 46.093 134.754, 49.317 134.754, 50.316 134.841 C 51.315 134.929, 53.002 134.534, 54.066 133.965 C 55.743 133.067, 56 131.810, 56 124.491 L 56 116.052 62.750 116.577 C 66.463 116.865, 70.513 117.084, 71.750 117.062 C 73.408 117.033, 74.015 117.611, 74.058 119.261 C 74.091 120.493, 74.203 128.236, 74.308 136.469 L 74.500 151.438 84.638 151.469 L 94.777 151.500 94.341 142.500 C 93.884 133.067, 94.836 129.436, 97.158 131.758 C 97.869 132.469, 100.985 133.007, 104.450 133.015 C 107.777 133.024, 110.994 133.361, 111.598 133.765 C 112.202 134.169, 112.982 138.295, 113.331 142.933 C 113.680 147.571, 114.322 151.722, 114.759 152.159 C 115.195 152.595, 123.130 153.017, 132.393 153.096 C 145.402 153.208, 149.419 152.940, 150.051 151.918 C 150.500 151.191, 150.676 150.285, 150.441 149.905 C 149.941 149.095, 149.800 85.232, 150.266 70.200 C 150.466 63.740, 150.188 59.571, 149.519 59.016 C 148.933 58.529, 136.834 58.134, 122.632 58.138 C 108.431 58.142, 96.582 57.915, 96.301 57.635 C 96.021 57.354, 95.726 53.046, 95.646 48.062 L 95.500 38.999 123.110 39 L 150.721 39 150.730 29.500 C 150.736 24.275, 150.686 19.974, 150.620 19.943 C 149.742 19.523, 19.349 18.921, 18.961 19.335 M 94.518 80.215 C 94.028 82.303, 94.493 94.839, 95.476 106 C 96.078 112.837, 96.275 112.974, 96.913 107 C 97.558 100.961, 97.461 101.011, 105.950 102.272 C 108.795 102.694, 109.852 102.300, 111.983 100.018 C 114.203 97.641, 114.607 96.212, 114.848 89.876 C 115.002 85.819, 115.211 81.600, 115.314 80.500 C 115.487 78.635, 114.811 78.481, 105.278 78.215 C 95.347 77.939, 95.040 77.996, 94.518 80.215 M 53.894 79.439 C 53.653 79.681, 52.172 80.111, 50.605 80.395 C 47.073 81.036, 46.797 81.306, 47.583 83.357 C 47.930 84.261, 49.066 85, 50.107 85 C 51.148 85, 52 85.675, 52 86.500 C 52 87.823, 51.593 88.063, 49.490 87.980 C 49.209 87.969, 47.593 88.676, 45.899 89.552 C 44.205 90.428, 42.222 90.916, 41.493 90.635 C 39.994 90.060, 38.512 92.933, 39.717 94.078 C 41.119 95.410, 56 96.360, 56 95.117 C 56 93.619, 58.296 93.698, 59.856 95.250 C 60.619 96.009, 63.837 96.500, 68.051 96.500 L 74.989 96.500 74.995 88.275 C 75 80.070, 74.994 80.052, 72.667 80.937 C 71.383 81.425, 69.797 81.492, 69.141 81.087 C 68.485 80.682, 65.710 80.418, 62.974 80.501 C 60.238 80.584, 58 80.280, 58 79.826 C 58 78.973, 54.673 78.660, 53.894 79.439 M 21.708 83.318 C 21.352 84.246, 21.862 84.992, 23.068 85.308 C 25.402 85.918, 26.196 84.923, 24.949 82.952 C 24.154 81.695, 24.027 81.701, 24 83 C 23.975 84.204, 23.802 84.237, 23.124 83.166 C 22.435 82.079, 22.173 82.107, 21.708 83.318 M 68.750 85.749 C 66.636 86.229, 66.466 87.581, 68.427 88.334 C 69.212 88.635, 70.359 88.273, 70.975 87.530 C 72.270 85.969, 71.278 85.175, 68.750 85.749 M 130.158 100 C 130.158 101.375, 130.385 101.938, 130.662 101.250 C 130.940 100.563, 130.940 99.438, 130.662 98.750 C 130.385 98.063, 130.158 98.625, 130.158 100 M 30 100.918 C 30 103.197, 31.372 105, 33.107 105 C 35.243 105, 35.606 103.006, 33.800 101.200 C 32.383 99.783, 30 99.607, 30 100.918 M 30.146 111.117 C 29.004 114.121, 26.288 114.482, 25.420 111.746 C 24.836 109.907, 24.746 109.918, 23.280 112.011 C 21.378 114.726, 21.297 118.936, 23.125 120.114 C 24.118 120.754, 24.183 121.209, 23.361 121.750 C 22.529 122.297, 22.583 122.835, 23.558 123.740 C 24.997 125.076, 26.213 124.025, 26.661 121.059 C 27.637 114.601, 30.424 112.843, 30.578 118.588 C 30.623 120.257, 31.157 121.393, 31.828 121.250 C 32.473 121.112, 33.034 121.562, 33.077 122.250 C 33.423 127.903, 34.957 129.512, 35.142 124.417 C 35.221 122.263, 35.438 118.925, 35.625 117 C 35.812 115.075, 35.717 112.398, 35.414 111.052 C 34.975 109.105, 34.672 108.900, 33.931 110.052 C 33.120 111.314, 32.879 111.311, 32.057 110.034 C 31.293 108.845, 30.932 109.049, 30.146 111.117 M 30.543 123.931 C 30.226 124.443, 30.425 125.144, 30.984 125.490 C 31.543 125.835, 32 125.416, 32 124.559 C 32 122.802, 31.400 122.544, 30.543 123.931 M 241 247.500 C 241 248.937, 242.787 249.481, 246 249.023 C 248.270 248.700, 248.603 247.993, 246.971 246.961 C 244.642 245.488, 241 245.817, 241 247.500" stroke="none" fill="black" fill-rule="evenodd"/>
</svg>