<svg xmlns="http://www.w3.org/2000/svg" width="256" height="256" viewBox="0 0 256 256" version="1.1">
	<path d="M 55.887 19.173 C 55.826 19.353, 55.675 22.650, 55.553 26.500 C 55.431 30.350, 54.983 34.573, 54.556 35.883 C 53.811 38.172, 53.512 38.242, 47.009 37.637 C 42.042 37.176, 39.951 37.354, 39.161 38.306 C 38.568 39.020, 37.952 43.579, 37.792 48.438 L 37.500 57.271 27.261 57.079 L 17.022 56.886 17.093 65.888 C 17.143 72.298, 17.564 75.223, 18.557 76.048 C 19.459 76.796, 23.056 77.080, 28.726 76.853 L 37.500 76.500 37.715 113.881 C 37.832 134.441, 38.169 151.502, 38.462 151.795 C 39.216 152.549, 56.075 152.259, 56.855 151.478 C 57.210 151.123, 57.358 148.278, 57.184 145.155 C 56.789 138.065, 58.278 133.636, 60.788 134.433 C 61.770 134.745, 65.258 135.057, 68.537 135.128 C 71.817 135.199, 74.831 135.761, 75.235 136.378 C 75.639 136.995, 75.978 140.875, 75.990 145 L 76.010 152.500 88.778 152.589 C 95.800 152.637, 104.573 152.987, 108.273 153.366 L 115 154.056 115.014 145.278 C 115.032 133.345, 115.489 131.855, 118.749 133.095 C 122.085 134.363, 129.092 133.923, 129.673 132.409 C 129.924 131.755, 131 131.449, 132.065 131.727 C 133.817 132.185, 134.001 133.194, 134.015 142.367 C 134.024 147.940, 134.361 152.992, 134.765 153.593 C 135.548 154.757, 152.338 154.996, 153.475 153.858 C 153.828 153.505, 154.141 137.080, 154.170 117.358 L 154.223 81.500 144.862 80.941 L 135.500 80.383 143.750 80.066 C 148.287 79.892, 152.563 79.694, 153.250 79.625 C 155.074 79.443, 155.362 59.219, 153.579 56.488 C 152.524 54.871, 152.513 54.244, 153.525 53.299 C 154.308 52.567, 154.653 50.305, 154.436 47.311 C 154.245 44.665, 154.069 42.163, 154.044 41.750 C 154.020 41.337, 150.963 40.986, 147.250 40.968 C 142.826 40.947, 139.812 40.417, 138.505 39.428 C 136.597 37.987, 136.583 37.792, 138.195 34.983 C 139.163 33.297, 139.481 31.797, 138.941 31.463 C 137.581 30.623, 137.783 22.617, 139.200 21.200 C 140.133 20.267, 139.856 19.986, 137.950 19.937 C 136.603 19.903, 132.125 19.747, 128 19.590 C 123.875 19.434, 119.263 19.518, 117.750 19.778 L 115 20.250 114.900 37.375 C 114.764 60.731, 115.297 59.537, 105.115 59.343 C 100.570 59.256, 96.685 59.019, 96.481 58.814 C 96.277 58.610, 95.984 49.803, 95.830 39.242 C 95.655 27.287, 95.163 19.905, 94.525 19.679 C 93.225 19.220, 56.039 18.733, 55.887 19.173 M 65 38.921 L 57.500 39.500 57.208 47.847 C 56.824 58.815, 57.139 59.153, 67.404 58.788 L 75.500 58.500 75.500 48.514 C 75.500 37.160, 76.460 38.036, 65 38.921 M 118.667 62.667 C 116.893 64.441, 118.651 65, 126 65 C 132.444 65, 134 64.708, 134 63.500 C 134 61.763, 130.773 61.516, 127.934 63.035 C 126.601 63.749, 126 63.749, 126 63.035 C 126 61.904, 119.744 61.589, 118.667 62.667 M 129.501 102.250 C 128.500 105.327, 128.472 107.905, 129.396 111.798 C 130.044 114.522, 130.430 114.888, 131.620 113.901 C 133.485 112.352, 133.354 100, 131.472 100 C 130.791 100, 129.904 101.013, 129.501 102.250 M 116 108.500 C 116 114.700, 116.250 115.841, 117.500 115.362 C 119.325 114.661, 119.447 113.347, 117.750 112.662 C 116.750 112.259, 116.750 112.142, 117.750 112.079 C 118.481 112.033, 118.994 110.650, 118.985 108.750 C 118.973 106.284, 118.736 105.862, 118 107 C 117.172 108.282, 117.028 108.246, 117.015 106.750 C 117.007 105.787, 117.450 105, 118 105 C 119.572 105, 119.167 102.278, 117.500 101.638 C 116.250 101.159, 116 102.300, 116 108.500 M 135.553 115.914 C 134.399 117.781, 134.654 133.054, 135.859 134.259 C 136.714 135.114, 137 134.737, 137 132.759 C 137 131.306, 137.489 129.816, 138.087 129.446 C 138.685 129.077, 138.893 127.813, 138.550 126.637 C 138.207 125.462, 137.678 122.475, 137.373 120 C 136.757 114.985, 136.493 114.393, 135.553 115.914 M 242.250 246.662 C 239.700 247.691, 241.118 248.999, 244.750 248.968 C 248.264 248.938, 248.378 248.844, 246.559 247.468 C 244.506 245.915, 244.229 245.864, 242.250 246.662" stroke="none" fill="black" fill-rule="evenodd"/>
</svg>