<svg xmlns="http://www.w3.org/2000/svg" width="256" height="256" viewBox="0 0 256 256" version="1.1">
	<path d="M 92.500 19.004 C 91.400 19.474, 87.237 19.891, 83.250 19.930 L 76 20 76 29.878 C 76 36.618, 75.599 40.088, 74.736 40.804 C 74.013 41.404, 68.767 41.830, 62.486 41.799 C 50.450 41.739, 29.388 42.821, 22.116 43.871 L 17.500 44.538 17.685 51.443 C 17.787 55.240, 18.121 59.344, 18.426 60.562 L 18.982 62.777 41.741 62.397 C 54.258 62.188, 71.181 61.901, 79.346 61.758 C 87.511 61.616, 94.668 61.795, 95.251 62.155 C 95.833 62.515, 96.386 66.115, 96.480 70.155 C 96.748 81.738, 96.802 82, 98.953 82 C 100.027 82, 101.940 81.577, 103.203 81.060 C 104.466 80.544, 107.542 79.855, 110.039 79.531 C 113.928 79.025, 114.844 78.444, 116.446 75.470 C 118.233 72.152, 118.559 71.999, 123.907 71.978 C 127.150 71.965, 131.194 71.186, 133.533 70.124 C 139.123 67.585, 146.407 66.612, 149.089 68.048 C 152.305 69.769, 153.015 67.858, 152.885 57.839 C 152.823 53.075, 153.044 48.738, 153.375 48.202 C 154.861 45.799, 148.894 44.629, 129.500 43.522 C 126.750 43.365, 122.700 42.674, 120.500 41.987 C 118.300 41.299, 112 40.458, 106.500 40.118 L 96.500 39.500 96.500 29.092 C 96.500 22.999, 96.085 18.573, 95.500 18.416 C 94.950 18.269, 93.600 18.533, 92.500 19.004 M 63.750 84.742 L 57 85.091 57 96.046 L 57 107 49.065 107 C 44.701 107, 40.088 106.604, 38.815 106.120 L 36.500 105.239 37.413 114.657 C 38.042 121.144, 37.995 124.405, 37.261 125.139 C 36.675 125.725, 32.214 126.271, 27.348 126.352 L 18.500 126.500 18.545 137 L 18.590 147.500 28.545 148.100 C 34.020 148.431, 38.760 148.305, 39.077 147.822 C 39.394 147.338, 39.507 142.680, 39.328 137.471 L 39.003 128 48.562 128 L 58.120 128 57.994 119.250 C 57.925 114.438, 57.898 109.713, 57.934 108.750 C 57.987 107.335, 58.908 107.005, 62.750 107.024 C 65.362 107.037, 69.191 107.440, 71.257 107.920 C 74.707 108.721, 75.062 108.600, 75.605 106.438 C 75.930 105.143, 75.945 101.477, 75.639 98.291 C 75.333 95.106, 75.064 90.588, 75.041 88.250 C 75.004 84.462, 74.755 84.021, 72.750 84.196 C 71.513 84.304, 67.463 84.549, 63.750 84.742 M 98.116 92.928 C 96.759 93.767, 95.865 102.844, 96.707 107.247 C 97.214 109.899, 97.264 109.915, 100.249 108.371 C 101.914 107.510, 104.452 107.024, 105.888 107.292 C 107.325 107.560, 109.400 107.434, 110.500 107.013 C 111.600 106.592, 113.063 106.697, 113.750 107.246 C 114.732 108.030, 114.975 106.448, 114.884 99.872 C 114.820 95.268, 114.562 92.287, 114.311 93.250 C 114.059 94.213, 113.361 95, 112.760 95 C 112.159 95, 111.963 95.296, 112.325 95.658 C 113.448 96.781, 110.874 99, 108.447 99 C 106.839 99, 106.042 98.338, 105.820 96.818 C 105.460 94.363, 100.141 91.677, 98.116 92.928 M 116.734 118.682 C 116.264 119.502, 115.819 124.418, 115.810 128.881 C 115.807 130.190, 116.186 131.540, 116.652 131.881 C 117.119 132.221, 117.646 133.845, 117.825 135.488 C 118.004 137.132, 118.622 139.044, 119.198 139.738 C 119.774 140.432, 119.879 141, 119.431 141 C 118.984 141, 119.447 141.607, 120.462 142.348 C 121.476 143.090, 121.985 144.215, 121.594 144.848 C 121.093 145.659, 122.364 146, 125.882 146 C 128.632 146, 131.146 146.428, 131.469 146.950 C 131.792 147.472, 135.756 147.927, 140.278 147.959 C 144.800 147.991, 149.400 148.126, 150.500 148.259 C 152.400 148.488, 152.484 148.003, 152.189 138.521 C 151.999 132.451, 151.431 128.266, 150.737 127.837 C 150.110 127.450, 146.342 126.828, 142.363 126.455 C 135.093 125.774, 133.720 124.924, 133.549 121 C 133.498 119.832, 132.044 119.490, 126.992 119.454 C 123.421 119.428, 119.758 119.060, 118.851 118.635 C 117.944 118.211, 116.991 118.232, 116.734 118.682 M 126 144.059 C 126 144.641, 126.450 144.840, 127 144.500 C 127.550 144.160, 128 143.684, 128 143.441 C 128 143.198, 127.550 143, 127 143 C 126.450 143, 126 143.477, 126 144.059 M 129 144 C 129 144.550, 129.450 145, 130 145 C 130.550 145, 131 144.550, 131 144 C 131 143.450, 130.550 143, 130 143 C 129.450 143, 129 143.450, 129 144 M 13.515 206.975 C 13.186 207.508, 13.635 209.040, 14.513 210.379 C 15.391 211.719, 15.699 213.068, 15.197 213.378 C 14.696 213.688, 14.286 216.450, 14.286 219.517 C 14.286 224.101, 14.571 225.036, 15.893 224.777 C 17.198 224.521, 17.500 223.055, 17.500 216.981 L 17.500 209.500 24.500 209.500 C 30.056 209.500, 31.500 209.190, 31.500 208 C 31.500 206.622, 29.870 206.413, 24.500 207.105 C 23.950 207.176, 21.388 206.958, 18.807 206.621 C 16.147 206.273, 13.854 206.427, 13.515 206.975" stroke="none" fill="black" fill-rule="evenodd"/>
</svg>