<svg xmlns="http://www.w3.org/2000/svg" width="256" height="256" viewBox="0 0 256 256" version="1.1">
	<path d="M 65.500 17.924 L 57.500 18.500 57.375 21.500 C 57.306 23.150, 57.194 27.762, 57.125 31.750 L 57 39 46.559 39 C 40.816 39, 35.864 39.412, 35.553 39.915 C 35.242 40.418, 35.516 41.005, 36.161 41.220 C 37.605 41.702, 38.150 52.786, 36.852 55.250 C 35.828 57.194, 35.380 57.116, 49 57.364 L 56.500 57.500 56.411 81 C 56.358 94.996, 55.887 105.713, 55.247 107.500 C 54.217 110.374, 54.168 110.289, 54.086 105.472 C 53.975 98.978, 51.865 97, 45.048 97 C 42.336 97, 39.824 96.524, 39.465 95.943 C 39.057 95.283, 35.188 95.002, 29.156 95.193 L 19.500 95.500 19.212 105.391 L 18.924 115.282 33.212 114.615 C 51.637 113.754, 55.117 113.852, 56.840 115.282 C 57.670 115.971, 62.663 116.588, 68.879 116.771 C 80.981 117.125, 84.338 117.645, 83.482 119.029 C 83.152 119.563, 83.569 120, 84.410 120 C 85.362 120, 85.719 119.431, 85.357 118.489 C 84.943 117.409, 85.236 117.153, 86.383 117.593 C 87.266 117.932, 87.797 118.519, 87.564 118.897 C 87.330 119.275, 88.007 119.650, 89.069 119.730 C 90.131 119.810, 91 119.454, 91 118.938 C 91 118.422, 91.675 118, 92.500 118 C 93.453 118, 94.026 116.997, 94.070 115.250 C 94.133 112.813, 94.238 112.728, 95 114.500 C 95.473 115.600, 95.891 118.188, 95.930 120.250 C 95.999 123.956, 96.048 124, 100.059 124 C 102.510 124, 103.873 124.396, 103.500 125 C 103.160 125.550, 103.696 126.002, 104.691 126.004 C 105.686 126.006, 107.888 126.854, 109.583 127.888 C 111.551 129.088, 112.736 129.358, 112.858 128.634 C 112.964 128.010, 113.376 124.800, 113.775 121.500 L 114.500 115.500 123.910 115.700 C 133.852 115.912, 135.017 116.461, 134.232 120.565 C 133.900 122.302, 134.213 123, 135.324 123 C 136.181 123, 137.161 122.549, 137.502 121.997 C 137.916 121.327, 138.743 121.327, 139.995 121.997 C 142.781 123.488, 146 123.222, 146 121.500 C 146 120.675, 146.567 120, 147.259 120 C 149.554 120, 151.166 115.842, 151.723 108.485 C 152.624 96.567, 152.613 96.553, 142.328 96.194 C 137.512 96.026, 132.949 95.373, 132.189 94.742 C 131.428 94.110, 127.368 93.574, 123.156 93.547 L 115.506 93.500 115.709 84.500 C 115.821 79.550, 115.918 71.563, 115.925 66.750 L 115.938 58 125.719 57.897 C 131.099 57.840, 139.213 57.819, 143.750 57.850 L 152 57.906 152 50.035 C 152 45.706, 152.269 41.462, 152.598 40.604 C 153.125 39.232, 150.945 39.012, 134.386 38.772 L 115.576 38.500 115.420 29.183 C 115.335 24.058, 114.868 19.548, 114.383 19.161 C 113.897 18.773, 109.787 18.613, 105.250 18.804 L 97 19.152 96.899 25.326 C 96.843 28.722, 96.872 32.900, 96.963 34.612 C 97.107 37.298, 96.744 37.789, 94.315 38.199 C 92.767 38.460, 88.350 38.409, 84.500 38.087 L 77.500 37.500 77 27.510 C 76.603 19.574, 76.192 17.503, 75 17.435 C 74.175 17.387, 69.900 17.608, 65.500 17.924 M 77.495 57.838 C 77.223 58.110, 77 62.286, 77 67.117 C 77 73.661, 77.362 76.105, 78.419 76.700 C 79.200 77.140, 83.679 77.355, 88.373 77.178 L 96.907 76.856 96.704 67.216 L 96.500 57.577 87.245 57.460 C 82.155 57.395, 77.768 57.566, 77.495 57.838 M 133.913 71.500 C 133.831 72.050, 133.816 72.838, 133.882 73.250 C 133.947 73.662, 133.460 74, 132.800 74 C 131.925 74, 131.899 74.299, 132.704 75.104 C 133.400 75.800, 134.401 75.875, 135.414 75.308 C 136.841 74.510, 136.855 74.191, 135.542 72.455 C 134.729 71.380, 133.996 70.950, 133.913 71.500 M 38.607 78.726 C 36.893 80.440, 38.735 81, 46.083 81 C 51.565 81, 54.048 80.643, 53.796 79.889 C 53.406 78.718, 39.667 77.666, 38.607 78.726 M 78.180 102.250 L 78.146 108.500 80.270 104.250 C 82.255 100.277, 82.664 100, 86.530 100 C 88.805 100, 90.902 100.236, 91.190 100.524 C 92.309 101.642, 90.690 106.003, 89.133 106.063 C 87.969 106.109, 88.117 106.376, 89.648 106.993 C 90.829 107.470, 92.093 108.341, 92.457 108.930 C 94.092 111.576, 95 109.460, 95 103 C 95 96.667, 94.810 96, 93 96 C 91.900 96, 91 96.450, 91 97 C 91 97.550, 89.313 97.993, 87.250 97.985 C 84.461 97.973, 83.884 97.721, 85 97 C 86.102 96.288, 85.400 96.027, 82.357 96.015 L 78.215 96 78.180 102.250 M 78.813 109.683 C 79.534 109.972, 80.397 109.936, 80.729 109.604 C 81.061 109.272, 80.471 109.036, 79.417 109.079 C 78.252 109.127, 78.015 109.364, 78.813 109.683 M 78.500 120 C 78.160 120.550, 78.584 121, 79.441 121 C 80.298 121, 81 120.550, 81 120 C 81 119.450, 80.577 119, 80.059 119 C 79.541 119, 78.840 119.450, 78.500 120 M 114.722 134.611 C 113.393 135.940, 113.877 150.996, 115.250 151.043 C 126.212 151.423, 150.577 150.684, 151.026 149.958 C 151.351 149.432, 151.126 145.739, 150.526 141.751 L 149.436 134.500 140.968 134.893 C 128.768 135.459, 129.105 135.464, 121.972 134.641 C 118.382 134.227, 115.120 134.214, 114.722 134.611 M 19 143.418 C 19 148.048, 19.229 152.436, 19.510 153.168 C 20.205 154.984, 56.033 154.543, 57.207 152.705 C 58.043 151.396, 58.154 139.589, 57.357 136.750 C 56.911 135.162, 55.110 135, 37.933 135 L 19 135 19 143.418 M 243 247.500 C 243 248.325, 243.661 249, 244.469 249 C 245.363 249, 245.712 248.414, 245.362 247.500 C 245.045 246.675, 244.384 246, 243.893 246 C 243.402 246, 243 246.675, 243 247.500" stroke="none" fill="black" fill-rule="evenodd"/>
</svg>