<svg xmlns="http://www.w3.org/2000/svg" width="256" height="256" viewBox="0 0 256 256" version="1.1">
	<path d="M 125.500 15.976 L 97.500 16.500 97.211 26.417 C 96.999 33.681, 97.266 36.552, 98.211 37.151 C 98.920 37.601, 103.018 37.976, 107.318 37.985 L 115.135 38 115.084 45.250 C 115.056 49.237, 115.297 57.723, 115.620 64.106 C 116.308 77.723, 117.184 76.842, 103.500 76.310 C 94.853 75.974, 92.901 75.964, 88.500 76.234 C 87.400 76.301, 84.866 76.276, 82.870 76.178 L 79.239 76 79.071 65.500 C 78.972 59.306, 79.299 55, 79.868 55 C 80.399 55, 80.991 55.473, 81.184 56.051 C 81.376 56.628, 84.339 57.246, 87.767 57.424 C 93.660 57.729, 94 57.624, 94 55.496 C 94 54.258, 93.325 52.685, 92.500 52 C 91.675 51.315, 91 49.884, 91 48.819 C 91 47.753, 90.570 47.148, 90.044 47.473 C 89.518 47.798, 89.323 48.679, 89.612 49.431 C 90.276 51.161, 89.100 51.884, 85.138 52.186 C 83.412 52.318, 82 52.780, 82 53.213 C 82 53.646, 81.426 54, 80.724 54 C 79.791 54, 79.516 52.204, 79.702 47.326 C 79.842 43.655, 79.526 40.134, 79.001 39.501 C 78.475 38.867, 77.989 33.769, 77.921 28.171 C 77.850 22.364, 77.352 17.717, 76.760 17.352 C 74.951 16.234, 59.590 17.057, 58.697 18.320 C 58.238 18.969, 58.046 35.925, 58.269 56 C 58.492 76.075, 58.405 93.562, 58.075 94.861 C 57.506 97.102, 57.031 97.229, 48.748 97.361 C 43.015 97.452, 39.871 97.108, 39.584 96.359 C 39.184 95.316, 34.620 95.177, 22.206 95.827 L 18.911 96 19.058 123.504 C 19.139 138.655, 19.611 151.260, 20.110 151.568 C 21.241 152.267, 36.901 152.432, 37.581 151.752 C 37.856 151.477, 38.067 142.895, 38.050 132.679 C 38.031 121.462, 38.411 113.864, 39.010 113.494 C 39.554 113.157, 40.052 111.896, 40.116 110.691 C 40.206 108.999, 40.336 108.899, 40.689 110.250 C 41.223 112.292, 40.971 112.233, 49.939 112.409 C 53.756 112.484, 57.190 112.857, 57.571 113.238 C 57.952 113.619, 58.209 118.920, 58.142 125.018 C 58.064 132.174, 58.375 135.886, 59.019 135.488 C 59.569 135.149, 61.995 134.686, 64.411 134.459 C 67.643 134.156, 68.954 134.438, 69.371 135.524 C 69.682 136.336, 71.061 137, 72.433 137 C 75.740 137, 77 139.612, 77 146.468 L 77 152.068 87.750 151.784 C 99.972 151.461, 98.710 152.767, 98.894 140.250 L 99 133 106.935 133 L 114.871 133 114.834 142.565 C 114.813 147.826, 114.993 152.327, 115.233 152.567 C 115.473 152.807, 121.482 152.527, 128.585 151.946 C 135.688 151.364, 144.593 151.026, 148.374 151.194 L 155.248 151.500 155.368 142 L 155.488 132.500 146.994 132.249 C 133.173 131.841, 134 132.527, 134 121.481 L 134 112 144.500 112 L 155 112 155 101.500 L 155 91 147.500 90.875 C 137.462 90.708, 137.754 90.775, 137.233 88.500 C 136.342 84.602, 135.923 45.432, 136.726 41.041 L 137.541 36.582 146.771 36.874 L 156 37.166 156.011 29.833 C 156.017 25.800, 156.301 20.813, 156.642 18.750 C 157.182 15.480, 157.021 15.029, 155.381 15.226 C 154.346 15.351, 140.900 15.688, 125.500 15.976 M 19.425 36.917 C 19.191 37.146, 19 45.583, 19 55.667 L 19 74 23.739 74 C 29.300 74, 36.769 71.197, 37.008 69.021 C 37.621 63.428, 38.026 41.961, 37.565 39.500 L 37.003 36.500 28.427 36.500 C 23.710 36.500, 19.659 36.688, 19.425 36.917 M 40.195 103.500 C 40.215 105.150, 40.439 105.704, 40.693 104.731 C 40.947 103.758, 40.930 102.408, 40.656 101.731 C 40.382 101.054, 40.175 101.850, 40.195 103.500 M 242.323 246.601 C 241.574 248.551, 243.541 249.933, 246.111 249.261 C 248.536 248.627, 248.518 247.348, 246.066 246.035 C 243.484 244.653, 243.045 244.720, 242.323 246.601" stroke="none" fill="black" fill-rule="evenodd"/>
</svg>