<svg xmlns="http://www.w3.org/2000/svg" width="256" height="256" viewBox="0 0 256 256" version="1.1">
	<path d="M 65.579 18 L 56.658 18.500 56.453 28 L 56.247 37.500 38.199 37.772 L 20.151 38.045 19.804 46.272 C 19.613 50.798, 19.585 54.950, 19.740 55.500 C 19.895 56.050, 23.505 56.582, 27.761 56.683 C 32.018 56.783, 39.843 57.172, 45.150 57.548 L 54.800 58.230 54.800 64.115 C 54.800 67.367, 54.353 70, 53.801 70 C 53.252 70, 53.775 71.648, 54.963 73.662 C 56.707 76.617, 57.083 78.692, 56.913 84.412 C 56.797 88.310, 56.496 92.063, 56.244 92.750 C 55.927 93.614, 52.965 94.033, 46.643 94.106 C 41.614 94.164, 33.450 94.502, 28.500 94.856 L 19.500 95.500 19.500 104 L 19.500 112.500 38.500 113.056 C 48.950 113.362, 57.563 113.699, 57.639 113.806 C 57.715 113.913, 57.609 117.712, 57.402 122.250 C 57.196 126.787, 57.020 131.063, 57.013 131.750 C 57.003 132.704, 52.626 133, 38.500 133 C 28.325 133, 19.972 133.338, 19.937 133.750 C 19.903 134.162, 19.790 138.325, 19.687 143 L 19.500 151.500 37.323 152 C 47.125 152.275, 55.971 152.192, 56.981 151.816 C 58.528 151.240, 58.694 150.531, 58.035 147.316 C 57.187 143.180, 57.282 134.384, 58.185 133.482 C 58.492 133.175, 62.605 132.892, 67.326 132.853 L 75.910 132.781 76.458 128.641 C 76.759 126.363, 77.116 122.475, 77.252 120 L 77.500 115.500 84 115.816 C 93.831 116.294, 93.486 115.998, 93.617 124.096 C 93.735 131.446, 95.093 133.998, 97.724 131.815 C 98.433 131.225, 101.598 130.530, 104.757 130.268 C 107.916 130.007, 110.716 129.586, 110.981 129.333 C 111.245 129.079, 111.413 125.520, 111.355 121.424 C 111.255 114.433, 111.390 113.940, 113.560 113.395 C 114.832 113.076, 124.001 112.984, 133.936 113.191 L 152 113.568 152 104.843 C 152 100.044, 151.656 95.906, 151.237 95.646 C 150.817 95.387, 142.604 94.859, 132.987 94.473 C 123.369 94.087, 115.196 93.485, 114.825 93.135 C 114.267 92.611, 113.572 67.024, 113.905 59.285 C 113.999 57.086, 114.116 57.071, 131.597 57.105 C 141.275 57.124, 149.426 56.907, 149.709 56.624 C 149.993 56.340, 150.287 52.227, 150.363 47.482 L 150.500 38.857 139 38.357 C 132.675 38.082, 116.475 37.733, 103 37.581 C 89.525 37.429, 77.793 37.236, 76.929 37.152 C 75.600 37.023, 75.426 35.713, 75.798 28.624 C 76.040 24.017, 75.847 19.629, 75.369 18.874 C 74.697 17.812, 72.476 17.613, 65.579 18 M 109.856 18.477 C 109.370 18.964, 105.561 19.791, 103.191 19.926 C 102.471 19.967, 102.191 20.500, 102.569 21.112 C 102.947 21.723, 102.636 22.658, 101.878 23.188 C 100.812 23.934, 100.783 24.267, 101.750 24.659 C 102.438 24.938, 103 25.776, 103 26.520 C 103 27.297, 104.383 28.045, 106.250 28.277 C 109.064 28.626, 108.896 28.720, 105 28.977 C 102.525 29.140, 99.713 29.271, 98.750 29.267 C 96.083 29.257, 96.664 31.922, 99.570 33.027 C 100.984 33.564, 103.427 33.777, 105 33.500 C 106.573 33.223, 109.091 33.464, 110.597 34.037 C 114.211 35.411, 115.018 34.027, 114.548 27.264 C 114.347 24.372, 114.572 21.765, 115.047 21.471 C 116.619 20.499, 114.828 18, 112.560 18 C 111.335 18, 110.119 18.215, 109.856 18.477 M 76.212 67.250 L 76.500 76.500 84.907 76.793 C 89.531 76.954, 93.658 76.729, 94.078 76.293 C 94.722 75.626, 95.469 63.292, 95.111 59.250 C 95.031 58.345, 92.367 58, 85.462 58 L 75.925 58 76.212 67.250 M 48.813 70.683 C 49.534 70.972, 50.397 70.936, 50.729 70.604 C 51.061 70.272, 50.471 70.036, 49.417 70.079 C 48.252 70.127, 48.015 70.364, 48.813 70.683 M 77 96.047 C 77 96.571, 79.550 97, 82.667 97 C 89.513 97, 89.351 96.489, 82.250 95.687 C 79.175 95.340, 77 95.489, 77 96.047 M 90 96 C 88.835 96.753, 89.128 96.973, 91.309 96.985 C 92.930 96.994, 93.857 96.577, 93.500 96 C 92.733 94.758, 91.921 94.758, 90 96 M 110 132.023 C 110 132.340, 110.531 133.131, 111.180 133.780 C 111.843 134.443, 112.482 138.573, 112.639 143.203 C 112.849 149.430, 113.282 151.574, 114.410 151.972 C 115.232 152.263, 124.027 152.368, 133.956 152.206 L 152.007 151.913 151.895 144.206 C 151.720 132.128, 152.793 133.011, 138.183 132.929 C 131.207 132.890, 122.013 132.540, 117.750 132.152 C 113.487 131.764, 110 131.706, 110 132.023 M 76.750 176.662 C 77.438 176.940, 78.563 176.940, 79.250 176.662 C 79.938 176.385, 79.375 176.158, 78 176.158 C 76.625 176.158, 76.063 176.385, 76.750 176.662 M 83.728 176.722 C 85.503 176.943, 88.653 176.946, 90.728 176.730 C 92.802 176.513, 91.350 176.333, 87.500 176.328 C 83.650 176.324, 81.952 176.501, 83.728 176.722 M 115.813 176.683 C 116.534 176.972, 117.397 176.936, 117.729 176.604 C 118.061 176.272, 117.471 176.036, 116.417 176.079 C 115.252 176.127, 115.015 176.364, 115.813 176.683 M 12 208.139 C 12 208.612, 13.125 209, 14.500 209 C 15.875 209, 17 208.827, 17 208.617 C 17 208.406, 15.875 208.018, 14.500 207.755 C 13.125 207.492, 12 207.665, 12 208.139 M 242.466 247.054 C 242.069 247.698, 242.281 248.555, 242.937 248.961 C 244.638 250.012, 249.155 248.968, 248.715 247.625 C 248.204 246.067, 243.350 245.624, 242.466 247.054" stroke="none" fill="black" fill-rule="evenodd"/>
</svg>