<svg xmlns="http://www.w3.org/2000/svg" width="256" height="256" viewBox="0 0 256 256" version="1.1">
	<path d="M 59.045 18.818 C 58.424 19.025, 58 22.732, 58 27.958 L 58 36.750 54.875 37.375 C 53.156 37.719, 48.656 38, 44.875 38 L 38 38 38.015 64.250 C 38.024 78.688, 38.376 91.044, 38.798 91.708 C 39.280 92.466, 42.909 93.025, 48.533 93.208 L 57.500 93.500 57.626 102.500 C 57.696 107.450, 58.083 112.741, 58.487 114.259 C 59.330 117.427, 62.748 118.740, 65.841 117.085 C 68.634 115.590, 70 115.727, 70 117.500 C 70 118.611, 68.833 119, 65.500 119 L 61 119 61 123.071 C 61 128.156, 63.160 130.681, 66.306 129.275 C 68.021 128.508, 69.314 128.808, 72.230 130.647 C 74.282 131.941, 76.082 133, 76.230 133 C 76.379 133, 76.487 129.174, 76.470 124.497 C 76.447 117.712, 76.750 115.904, 77.970 115.544 C 80.365 114.838, 92.933 114.600, 93.581 115.248 C 93.901 115.568, 94.401 124.080, 94.691 134.165 C 94.982 144.249, 95.434 152.725, 95.695 153 C 95.957 153.275, 100.745 153.521, 106.335 153.546 C 111.926 153.572, 124.806 153.794, 134.957 154.039 L 153.413 154.486 154.090 150.993 C 154.462 149.072, 154.707 144.401, 154.633 140.612 C 154.528 135.190, 154.122 133.488, 152.722 132.612 C 151.371 131.768, 150.745 131.818, 150.120 132.819 C 149.494 133.822, 145.330 134.146, 132.723 134.174 C 123.608 134.194, 115.666 133.912, 115.075 133.546 C 114.434 133.150, 114 129.149, 114 123.630 C 114 115.806, 114.304 114.051, 115.970 112.262 C 117.054 111.099, 117.481 109.994, 116.920 109.807 C 116.358 109.619, 115.683 105.707, 115.421 101.111 L 114.943 92.757 122.679 93.231 C 134.516 93.956, 133.610 95.192, 134.450 77.170 C 135.308 58.752, 135.552 36.464, 135.007 26.241 L 134.620 18.982 115.744 19.241 L 96.869 19.500 96.377 28.905 C 95.806 39.821, 95.903 39.962, 104.037 39.985 C 108.989 39.998, 109.592 40.228, 109.737 42.160 C 109.827 43.348, 110.375 44.614, 110.957 44.973 C 111.538 45.333, 112.177 48.397, 112.377 51.783 C 112.704 57.328, 112.509 58.092, 110.419 59.461 C 108.337 60.825, 108.211 61.308, 109.200 64.144 C 110.142 66.846, 110.034 67.502, 108.460 68.653 C 107.447 69.394, 106.366 69.611, 106.059 69.135 C 105.170 67.758, 101.619 66.971, 100.232 67.843 C 99.534 68.282, 98.537 70.128, 98.016 71.946 L 97.068 75.251 102.883 74.593 C 106.143 74.224, 109.863 74.378, 111.349 74.943 C 113.931 75.924, 114 76.173, 114 84.475 L 114 93 105.059 93 C 100.141 93, 95.888 92.628, 95.607 92.173 C 95.326 91.718, 92.712 91.685, 89.798 92.100 C 82.885 93.084, 61.828 93.180, 60.355 92.235 C 59.305 91.561, 59.085 77.537, 60.110 76.584 C 60.324 76.384, 64.319 75.915, 68.986 75.542 C 73.653 75.168, 77.606 74.728, 77.770 74.563 C 77.934 74.399, 77.767 70.641, 77.397 66.213 C 76.634 57.058, 77.115 57.462, 66.530 57.091 C 62.697 56.956, 59.209 56.629, 58.780 56.364 C 57.739 55.721, 57.805 39.855, 58.856 38.199 C 59.457 37.251, 62.096 36.979, 68.591 37.199 L 77.500 37.500 77.500 28 L 77.500 18.500 68.795 18.485 C 64.008 18.477, 59.620 18.627, 59.045 18.818 M 84 76.952 C 81.018 77.419, 80.524 77.870, 80.665 80 C 80.900 83.559, 81.665 88.003, 82.116 88.424 C 82.327 88.622, 85.331 88.970, 88.791 89.198 L 95.083 89.612 94.791 83.056 L 94.500 76.500 91 76.452 C 89.075 76.426, 85.925 76.651, 84 76.952 M 121.813 110.683 C 122.534 110.972, 123.397 110.936, 123.729 110.604 C 124.061 110.272, 123.471 110.036, 122.417 110.079 C 121.252 110.127, 121.015 110.364, 121.813 110.683 M 57.665 132.655 C 57.206 133.120, 52.931 133.536, 48.165 133.580 C 43.399 133.623, 34.920 133.736, 29.322 133.830 L 19.144 134 19.573 143.168 C 19.809 148.210, 20.114 152.431, 20.251 152.547 C 20.388 152.664, 28.825 152.926, 39 153.130 L 57.500 153.500 58.272 146 C 59.156 137.406, 58.884 131.422, 57.665 132.655 M 11.388 205.588 C 10.636 208.588, 11.973 210.331, 14.333 209.426 C 16.520 208.587, 16.437 207.437, 14.015 205.015 C 12.036 203.036, 12.029 203.037, 11.388 205.588 M 243 248 C 243 248.550, 243.450 249, 244 249 C 244.550 249, 245 248.550, 245 248 C 245 247.450, 244.550 247, 244 247 C 243.450 247, 243 247.450, 243 248" stroke="none" fill="black" fill-rule="evenodd"/>
</svg>