<svg xmlns="http://www.w3.org/2000/svg" width="256" height="256" viewBox="0 0 256 256" version="1.1">
	<path d="M 36.670 45.951 C 37.334 77.517, 37.814 90.148, 38.374 90.708 C 38.566 90.899, 40.023 90.519, 41.611 89.862 C 45.073 88.431, 45.562 88.287, 47.500 88.125 C 50.469 87.878, 49.108 85, 46.021 85 C 43.239 85, 43.115 84.842, 44.138 82.596 C 44.907 80.909, 46.238 80.074, 48.595 79.799 C 52.813 79.307, 56.543 81.057, 54.861 82.739 C 53.986 83.614, 53.980 86.054, 54.835 92.699 C 55.814 100.300, 56.371 109.659, 56.085 113.710 C 56.028 114.526, 53.316 115.014, 47.750 115.210 L 39.500 115.500 38.737 123.930 C 38.317 128.567, 37.771 132.562, 37.525 132.809 C 37.278 133.055, 32.915 133.312, 27.828 133.378 L 18.579 133.500 18.540 142.247 C 18.518 147.058, 18.725 151.043, 19 151.103 C 21.299 151.603, 38.003 151.897, 39.826 151.470 C 42.061 150.945, 42.124 150.671, 41.447 144.350 C 40.902 139.264, 41.055 137.579, 42.122 136.904 C 44.278 135.538, 53.755 135.806, 54.338 137.250 C 54.741 138.250, 54.858 138.250, 54.921 137.250 C 54.964 136.563, 55.717 136, 56.594 136 C 57.969 136, 58.140 134.627, 57.844 125.999 C 57.655 120.498, 57.725 115.981, 58 115.959 C 58.275 115.938, 60.847 115.740, 63.715 115.520 C 66.583 115.300, 70.296 115.511, 71.965 115.990 C 73.634 116.469, 75.043 116.779, 75.095 116.680 C 75.147 116.581, 75.606 110.875, 76.114 104 C 76.622 97.125, 77.193 89.719, 77.383 87.542 C 77.729 83.562, 76.354 81, 73.871 81 C 72.859 81, 72.853 80.747, 73.842 79.758 C 74.825 78.775, 75.242 78.773, 75.846 79.750 C 76.307 80.496, 79.664 81.134, 84.342 81.363 C 88.596 81.572, 92.311 81.978, 92.598 82.265 C 94.644 84.310, 95.712 105.732, 95.162 133.681 C 94.976 143.131, 95.230 151.589, 95.727 152.477 C 96.451 153.771, 97.161 153.889, 99.306 153.074 C 101.012 152.425, 110.793 152.265, 126.282 152.632 C 146.040 153.101, 150.787 152.955, 151.681 151.854 C 152.322 151.064, 153.080 142.943, 153.501 132.345 C 154.209 114.530, 154.183 114.168, 152.111 113.060 C 150.525 112.210, 150 112.219, 150 113.094 C 150 113.925, 148.291 114.065, 144.022 113.582 C 134.608 112.517, 134 113.184, 134 124.573 L 134 134.075 124.750 133.788 L 115.500 133.500 114.789 127.500 C 113.648 117.880, 114.807 79.746, 116.269 78.786 C 116.946 78.341, 120.702 78.047, 124.615 78.131 C 128.528 78.216, 132.214 77.986, 132.806 77.620 C 133.398 77.254, 136.946 76.725, 140.691 76.445 C 150.958 75.676, 152 75.316, 152 72.540 C 152 71.208, 151.502 69.810, 150.892 69.433 C 150.204 69.008, 150.021 67.273, 150.408 64.849 C 151.126 60.360, 151.035 60.299, 142.757 59.684 C 133.746 59.014, 134 59.669, 134 37.045 L 134 17.335 91.250 17.429 C 67.737 17.481, 45.699 17.271, 42.275 16.962 L 36.050 16.401 36.670 45.951 M 56.836 36.750 C 56.124 39.995, 56.628 55.644, 57.462 56.235 C 58.033 56.639, 71.213 56.976, 86.750 56.985 L 115 57 115 47.157 L 115 37.314 98.340 36.657 C 76.150 35.782, 57.038 35.825, 56.836 36.750 M 11 198.500 C 11 199.325, 10.520 200, 9.933 200 C 9.336 200, 9.133 200.845, 9.473 201.916 C 9.808 202.970, 9.613 204.121, 9.041 204.475 C 7.203 205.611, 7.944 208.467, 10.367 209.589 C 13.698 211.133, 16.984 208.805, 15.294 206.099 C 14.388 204.648, 14.466 203.779, 15.658 202.078 C 16.494 200.884, 16.927 199.253, 16.621 198.454 C 15.869 196.494, 11 196.535, 11 198.500 M 241 247.500 C 241 248.557, 242.069 249, 244.622 249 C 247.729 249, 248.068 248.786, 247 247.500 C 246.315 246.675, 244.685 246, 243.378 246 C 241.931 246, 241 246.587, 241 247.500" stroke="none" fill="black" fill-rule="evenodd"/>
</svg>