<svg xmlns="http://www.w3.org/2000/svg" width="256" height="256" viewBox="0 0 256 256" version="1.1">
	<path d="M 75.875 19.679 C 75.806 21.506, 75.638 23.900, 75.500 25 C 75.362 26.100, 75.194 33.541, 75.125 41.535 L 75 56.070 64.750 55.785 L 54.500 55.500 54.489 45.322 C 54.483 39.725, 54.258 34.949, 53.989 34.711 C 53.720 34.472, 49.533 34.498, 44.684 34.767 L 35.869 35.258 36.085 60.379 C 36.204 74.195, 36.741 86.480, 37.279 87.678 C 38.173 89.673, 42 90.601, 42 88.824 C 42 88.411, 44.043 88.114, 46.539 88.164 C 51.807 88.270, 51.923 88.198, 52.215 84.669 C 52.337 83.201, 52.901 81.993, 53.468 81.985 C 54.036 81.976, 53.825 81.533, 53 81 C 52.175 80.467, 52.010 80.024, 52.633 80.015 C 53.257 80.007, 54.007 79.082, 54.300 77.960 C 54.707 76.405, 55.389 76.055, 57.167 76.489 C 58.450 76.802, 62.617 77.209, 66.427 77.393 C 72.312 77.677, 73.468 78.034, 74.108 79.762 C 74.522 80.881, 75.004 92.659, 75.180 105.935 C 75.453 126.541, 75.281 130.211, 74 131.021 C 71.950 132.317, 56.654 132.254, 55.345 130.945 C 54.698 130.298, 54.468 126.808, 54.750 121.945 C 55.003 117.575, 55.050 113.976, 54.855 113.946 C 54.660 113.917, 50.900 113.667, 46.500 113.392 C 42.100 113.117, 37.938 112.705, 37.250 112.477 C 36.368 112.185, 36 109.292, 36 102.647 L 36 93.231 27.437 93.273 L 18.873 93.316 19.378 100.908 C 19.656 105.084, 19.909 109.723, 19.942 111.218 C 19.991 113.535, 20.304 113.823, 22.064 113.172 C 25.111 112.045, 34.996 113.380, 36.053 115.061 C 36.550 115.852, 36.882 120.209, 36.790 124.742 C 36.600 134.187, 36.838 133.961, 27.165 133.886 C 23.680 133.859, 20.680 133.987, 20.498 134.169 C 20.164 134.504, 19.617 148.657, 19.867 150.500 C 19.956 151.154, 42.883 151.544, 86.079 151.628 L 152.154 151.756 151.329 146.628 C 150.442 141.124, 150.361 135.953, 150.927 121.003 L 151.286 111.505 143.893 111.207 C 131.682 110.715, 132 110.439, 132 121.500 C 132 132.799, 133.919 131.762, 111.815 132.406 C 98.902 132.782, 95.917 132.605, 94.922 131.406 C 93.719 129.956, 93.915 118.190, 95.639 88.329 L 96.284 77.159 104.674 77.097 C 109.289 77.063, 113.921 76.578, 114.967 76.018 C 116.013 75.458, 118.214 75, 119.858 75 C 121.502 75, 125.212 74.454, 128.103 73.787 C 132.197 72.842, 133.447 72.840, 133.759 73.778 C 134.055 74.666, 134.533 74.610, 135.580 73.562 C 136.728 72.415, 136.997 67.579, 136.985 48.321 C 136.976 35.220, 136.577 23.880, 136.096 23.122 C 135.585 22.315, 134.696 22.070, 133.951 22.530 C 133.251 22.963, 130.388 23.451, 127.589 23.615 C 120.229 24.047, 118.895 24.437, 117.746 26.490 C 117.180 27.502, 116.443 35.118, 116.108 43.415 L 115.500 58.500 106 59 C 100.237 59.303, 96.192 59.107, 95.717 58.500 C 95.286 57.950, 95.163 55.250, 95.443 52.500 C 95.873 48.275, 96.387 20.585, 96.092 17.500 C 96.036 16.912, 91.882 16.471, 85.998 16.429 L 76 16.358 75.875 19.679 M 243.525 246.960 C 242.677 248.332, 243.428 249.362, 244.905 248.854 C 245.511 248.646, 245.588 247.940, 245.093 247.143 C 244.468 246.137, 244.063 246.090, 243.525 246.960" stroke="none" fill="black" fill-rule="evenodd"/>
</svg>