<svg xmlns="http://www.w3.org/2000/svg" width="256" height="256" viewBox="0 0 256 256" version="1.1">
	<path d="M 92.125 16.132 C 90.818 16.625, 86.543 16.909, 82.625 16.764 L 75.500 16.500 75.371 35.500 C 75.300 45.950, 75.187 55.426, 75.121 56.557 C 75.008 58.484, 74.411 58.609, 65.750 58.525 C 60.663 58.476, 55.600 57.948, 54.500 57.353 C 53.400 56.757, 51.840 56.504, 51.033 56.791 C 49.828 57.218, 49.860 56.863, 51.213 54.798 C 52.845 52.307, 54.319 38.995, 53.266 36.252 C 52.856 35.182, 52.394 35.239, 50.964 36.533 C 49.980 37.423, 47.898 38.049, 46.338 37.925 C 44.777 37.800, 42.083 37.766, 40.351 37.849 L 37.202 38 37.133 50.267 C 37.009 72.166, 36.347 73.521, 26.212 72.624 C 20.338 72.105, 19.867 72.218, 19.057 74.351 C 17.822 77.599, 18.065 90.743, 19.389 92.327 C 20.471 93.621, 29.964 93.272, 42.500 91.476 C 50.391 90.345, 50.919 90.078, 51.885 86.737 C 52.732 83.802, 52.828 83.738, 52.910 86.050 C 52.959 87.453, 53.478 89.078, 54.062 89.662 C 54.678 90.278, 55.202 96.082, 55.312 103.503 L 55.500 116.283 47.361 116.081 L 39.222 115.879 38.505 124.939 L 37.788 134 28.467 134 L 19.147 134 18.823 142.389 C 18.646 147.003, 18.627 151.408, 18.783 152.178 C 18.998 153.245, 21.281 153.614, 28.359 153.728 C 36.712 153.862, 37.899 153.650, 40.077 151.637 C 41.409 150.405, 43.280 149.100, 44.233 148.736 C 46.112 148.020, 45.595 144.866, 43.636 145.101 C 40.882 145.431, 40.005 144.853, 40.070 142.750 C 40.137 140.603, 40.180 140.592, 41 142.500 C 41.473 143.600, 41.891 143.965, 41.930 143.312 C 42.002 142.092, 42.318 142.028, 50 141.671 C 53.893 141.489, 54.545 141.143, 54.836 139.103 C 55.021 137.806, 56.238 135.757, 57.541 134.550 C 59.651 132.594, 59.876 131.628, 59.603 125.677 C 59.435 122.005, 59.568 119.032, 59.899 119.070 C 60.229 119.109, 61.400 119.527, 62.500 120 C 64.210 120.735, 64.246 120.870, 62.750 120.930 C 60.386 121.025, 60.521 124.220, 62.954 125.739 C 64.493 126.700, 65.075 126.698, 65.697 125.730 C 66.196 124.953, 66.674 125.787, 66.994 127.993 C 67.397 130.777, 68.211 131.824, 71 133.148 C 72.925 134.062, 74.580 134.515, 74.679 134.155 C 74.777 133.795, 75.038 123.899, 75.259 112.164 C 75.578 95.195, 75.949 90.649, 77.072 89.956 C 77.898 89.445, 78.881 89.481, 79.442 90.042 C 81.250 91.850, 88.556 91.148, 90.521 88.976 C 94.141 84.976, 94.494 87.726, 94.628 120.948 C 94.698 138.464, 95.017 153.218, 95.336 153.735 C 95.697 154.318, 98.039 154.290, 101.512 153.660 C 105.160 152.999, 110.654 152.969, 117.303 153.575 C 122.912 154.086, 133.416 154.366, 140.648 154.198 C 152.172 153.929, 153.852 153.676, 154.252 152.143 C 154.504 151.181, 154.663 142.318, 154.605 132.447 L 154.500 114.500 146.464 114.561 C 134.618 114.651, 135 114.291, 135 125.362 C 135 132.024, 134.634 134.901, 133.750 135.180 C 133.063 135.397, 128.675 135.557, 124 135.537 L 115.500 135.500 114.893 125.500 C 114.185 113.846, 114.948 93.150, 116.111 92.431 C 116.552 92.159, 121.117 91.808, 126.255 91.652 C 135.629 91.367, 138.528 90.663, 137.457 88.931 C 136.628 87.589, 139.383 87.783, 140.764 89.164 C 142.347 90.747, 150.829 90.314, 152.583 88.560 C 153.660 87.483, 154 84.036, 154 74.196 L 154 61.250 150.875 60.625 C 149.156 60.281, 146.027 60, 143.922 60 C 141.817 60, 139.019 59.510, 137.704 58.911 L 135.315 57.822 135.790 43.008 C 136.306 26.921, 135.764 22.121, 133.628 23.893 C 132.772 24.604, 130.077 24.691, 125.606 24.153 C 116.152 23.015, 116 23.308, 116 42.723 L 116 58 125.250 58.035 C 133.777 58.068, 134.305 58.183, 132 59.500 C 130.625 60.286, 128.363 60.945, 126.972 60.965 C 123.385 61.015, 121.136 64.161, 120.859 69.513 C 120.596 74.583, 120.115 75.318, 117.952 73.949 C 117.154 73.444, 116.953 73.024, 117.507 73.015 C 118.086 73.007, 118.362 71.086, 118.157 68.500 C 117.960 66.025, 117.394 64, 116.899 64 C 116.405 64, 116 63.325, 116 62.500 C 116 61.285, 114.392 61, 107.530 61 L 99.061 61 97.600 65.750 L 96.139 70.500 95.930 65 C 95.815 61.975, 95.831 49.768, 95.966 37.874 C 96.100 25.980, 95.826 16.020, 95.355 15.742 C 94.885 15.463, 93.431 15.638, 92.125 16.132 M 41.638 55.500 C 41.188 56.674, 41.903 57, 44.924 57 C 47.434 57, 48.987 56.475, 49.362 55.500 C 49.812 54.326, 49.097 54, 46.076 54 C 43.566 54, 42.013 54.525, 41.638 55.500 M 56.195 69.500 C 56.215 71.150, 56.439 71.704, 56.693 70.731 C 56.947 69.758, 56.930 68.408, 56.656 67.731 C 56.382 67.054, 56.175 67.850, 56.195 69.500 M 54.079 85.583 C 54.127 86.748, 54.364 86.985, 54.683 86.188 C 54.972 85.466, 54.936 84.603, 54.604 84.271 C 54.272 83.939, 54.036 84.529, 54.079 85.583 M 65.754 119.250 C 64.856 121.694, 66.040 123.103, 67.644 121.499 C 68.460 120.683, 68.847 119.562, 68.505 119.008 C 67.650 117.625, 66.308 117.743, 65.754 119.250 M 61.813 132.683 C 62.534 132.972, 63.397 132.936, 63.729 132.604 C 64.061 132.272, 63.471 132.036, 62.417 132.079 C 61.252 132.127, 61.015 132.364, 61.813 132.683 M 11.899 198.628 C 10.751 208.571, 11.197 210.629, 14.243 209.460 C 15.682 208.908, 16.276 206, 14.950 206 C 13.779 206, 13.154 202.246, 14.158 201.242 C 14.727 200.673, 14.489 199.821, 13.542 199.035 C 12.694 198.331, 11.955 198.148, 11.899 198.628 M 243.020 247.476 C 241.936 248.782, 242.167 248.998, 244.628 248.985 C 246.207 248.976, 247.050 248.634, 246.500 248.223 C 245.950 247.813, 245.227 247.134, 244.893 246.714 C 244.558 246.295, 243.716 246.638, 243.020 247.476" stroke="none" fill="black" fill-rule="evenodd"/>
</svg>