<svg xmlns="http://www.w3.org/2000/svg" width="256" height="256" viewBox="0 0 256 256" version="1.1">
	<path d="M 56.815 29.906 L 57.130 39.858 52.815 40.480 C 50.442 40.821, 46.880 41.235, 44.900 41.399 C 39.445 41.850, 38.992 42.467, 39.315 48.998 C 39.629 55.327, 38.065 58, 34.048 58 C 31.266 58, 30.802 59.392, 32.499 62.646 C 33.589 64.736, 33.989 68.915, 33.994 78.250 C 33.997 85.263, 34.375 91, 34.833 91 C 36.008 91, 36.182 92.322, 36.351 102.500 L 36.500 111.500 32.500 111.577 C 30.300 111.619, 26.587 111.732, 24.250 111.827 L 20 112 20 131.500 L 20 151 22.750 151.079 C 28.684 151.249, 38.514 150.820, 38.962 150.371 C 39.223 150.111, 39.734 146.433, 40.098 142.199 C 40.951 132.293, 43.069 126.944, 45.850 127.671 C 47.062 127.988, 47.648 128.754, 47.324 129.599 C 46.947 130.580, 47.568 131, 49.393 131 C 51.044 131, 52 130.450, 52 129.500 C 52 128.585, 52.932 128, 54.392 128 C 56.120 128, 56.960 127.294, 57.422 125.454 C 58.277 122.048, 57.458 121, 53.941 121 C 51.993 121, 51 120.493, 51 119.500 C 51 118.237, 52.646 117.728, 55.617 118.071 C 55.957 118.111, 57.067 116.774, 58.085 115.101 C 59.521 112.740, 60.670 112.043, 63.218 111.991 C 65.023 111.954, 68.525 111.828, 71 111.712 L 75.500 111.500 76.081 106 C 76.400 102.975, 76.625 97.668, 76.581 94.206 C 76.487 86.900, 76.526 86.874, 87 87.266 L 93.500 87.510 93.824 97.885 C 94.288 112.704, 94.222 112.602, 103.674 113.340 C 107.978 113.676, 115.458 113.611, 120.297 113.195 C 125.135 112.780, 129.454 112.678, 129.895 112.970 C 131.215 113.843, 132.102 128.941, 130.959 131.077 C 130.070 132.738, 128.794 133, 121.587 133 C 115.500 133, 112.918 133.394, 112.035 134.457 C 110.791 135.957, 111.051 150.384, 112.346 151.680 C 112.701 152.034, 121.655 152.280, 132.245 152.227 L 151.500 152.129 151.381 149.814 C 151.316 148.542, 150.939 123.875, 150.543 95 C 150.148 66.125, 149.703 42.377, 149.555 42.227 C 149.408 42.076, 142.810 41.691, 134.893 41.369 C 126.977 41.048, 114.650 40.496, 107.500 40.143 L 94.500 39.500 94.369 30 L 94.237 20.500 75.369 20.227 L 56.500 19.954 56.815 29.906 M 57.886 58.077 C 55.374 59.037, 55.308 59.258, 56.205 63.788 C 56.717 66.380, 56.884 72.550, 56.575 77.500 C 55.836 89.329, 56.809 90.905, 63.736 89.105 C 66.356 88.424, 69.750 87.619, 71.278 87.316 C 72.805 87.013, 74.449 86.029, 74.930 85.131 C 75.911 83.299, 75.855 59.520, 74.868 58.534 C 73.737 57.404, 60.573 57.050, 57.886 58.077 M 112.234 67.024 C 112.826 75.296, 111.362 77.902, 106 78.125 C 104.350 78.194, 102.550 78.362, 102 78.500 C 101.450 78.638, 99.875 78.806, 98.500 78.875 C 97.104 78.945, 96 79.608, 96 80.378 C 96 82.687, 98.996 84.409, 102.591 84.167 C 105.578 83.966, 106 84.232, 106 86.314 C 106 90.661, 108.823 91.977, 119.140 92.438 C 124.347 92.671, 129.213 92.486, 129.955 92.028 C 131.076 91.335, 131.095 89.117, 130.071 78.847 C 128.404 62.127, 128.233 61.443, 125.665 61.171 C 124.474 61.045, 120.849 60.684, 117.608 60.370 L 111.717 59.798 112.234 67.024 M 20.079 86.441 C 20.009 91.733, 20.151 92.176, 21.382 90.492 C 22.761 88.606, 22.810 87.833, 21.730 85 C 21.416 84.175, 20.933 82.825, 20.658 82 C 20.383 81.175, 20.122 83.174, 20.079 86.441 M 53.500 130 C 53.840 130.550, 54.879 130.993, 55.809 130.985 C 57.266 130.971, 57.293 130.835, 56 130 C 54.042 128.734, 52.718 128.734, 53.500 130 M 243.639 246.694 C 242.513 247.820, 242.954 249, 244.500 249 C 245.325 249, 246 248.577, 246 248.059 C 246 246.798, 244.438 245.895, 243.639 246.694" stroke="none" fill="black" fill-rule="evenodd"/>
</svg>