<svg xmlns="http://www.w3.org/2000/svg" width="256" height="256" viewBox="0 0 256 256" version="1.1">
	<path d="M 118.500 19.922 C 115.527 20.495, 115.500 20.558, 115.552 27 C 115.628 36.504, 115.252 35.999, 122.250 36.006 C 128.407 36.012, 128.457 36.035, 125.636 37.506 C 122.388 39.200, 118.568 39.507, 119.500 38 C 119.840 37.450, 119.390 37, 118.500 37 C 117.610 37, 117.165 37.458, 117.511 38.017 C 117.934 38.702, 102.178 39.009, 69.320 38.957 C 42.469 38.914, 20.038 38.907, 19.474 38.940 C 18.477 38.998, 18.228 57.561, 19.211 58.545 C 19.461 58.794, 28.864 59.111, 40.108 59.249 C 56.412 59.449, 60.869 59.796, 62.117 60.963 C 63.532 62.286, 63.497 62.620, 61.755 64.463 C 60.239 66.066, 59.948 67.403, 60.393 70.739 C 60.704 73.071, 60.529 76.108, 60.004 77.489 C 59.069 79.948, 58.833 80, 48.675 80 L 38.300 80 37.723 90.929 C 37.048 103.718, 36.014 106.596, 32.708 104.877 C 31.494 104.246, 29.603 102.792, 28.508 101.646 C 26.700 99.756, 26.484 99.725, 26.179 101.307 C 25.787 103.346, 23.048 103.174, 21.282 101 C 19.786 99.159, 19.890 97.520, 19.592 127.735 C 19.466 140.514, 19.671 151.467, 20.047 152.076 C 20.464 152.750, 24.195 153.179, 29.615 153.175 L 38.500 153.169 38.591 143.834 C 38.641 138.700, 39.175 133.375, 39.777 132 C 40.567 130.199, 40.891 129.990, 40.937 131.250 C 40.991 132.763, 42.066 133, 48.883 133 C 58.083 133, 57.964 132.847, 57.986 144.691 C 57.994 148.646, 58.337 152.060, 58.750 152.278 C 59.163 152.496, 63.463 152.410, 68.306 152.087 L 77.112 151.500 77.109 126.050 C 77.108 112.053, 76.834 96.078, 76.500 90.550 C 76.165 85.023, 76.300 79.906, 76.798 79.181 C 77.730 77.823, 94.457 77.123, 95.722 78.389 C 96.961 79.628, 97.875 78.936, 98.184 76.526 C 98.416 74.709, 98.866 74.281, 99.878 74.914 C 100.748 75.458, 100.942 76.279, 100.405 77.138 C 99.936 77.887, 99.497 78.950, 99.429 79.500 C 99.360 80.050, 99.229 81.175, 99.137 82 C 98.997 83.248, 98.823 83.268, 98.094 82.118 C 97.394 81.013, 97.112 81.113, 96.688 82.618 C 94.965 88.723, 94.082 129.705, 95.619 132.192 C 96.043 132.879, 98.786 133.023, 103.416 132.604 C 113.678 131.674, 114.408 132.396, 113.801 142.879 C 113.540 147.391, 113.654 151.286, 114.054 151.534 C 114.455 151.781, 123.269 152.135, 133.641 152.320 L 152.500 152.656 152.328 123.740 C 152.234 107.836, 151.939 94.606, 151.673 94.340 C 150.799 93.466, 139.576 93.113, 136.038 93.848 C 133.009 94.477, 132.474 95.055, 131.764 98.474 C 130.752 103.344, 130.905 103.211, 125.769 103.716 C 123.421 103.947, 121.344 104.574, 121.153 105.109 C 120.782 106.150, 117 102.268, 117 100.847 C 117 100.381, 116.325 100, 115.500 100 C 114.675 100, 114 99.151, 114 98.114 C 114 97.077, 113.368 95.010, 112.595 93.521 C 111.303 91.031, 111.238 82.602, 112.357 63 C 112.486 60.736, 113.020 60.441, 118 59.874 C 121.025 59.530, 130.049 59.484, 138.053 59.771 L 152.607 60.295 152.543 49.897 L 152.479 39.500 141.487 39 C 135.119 38.710, 130.511 38.079, 130.533 37.500 C 130.554 36.950, 131.123 35.506, 131.798 34.292 C 132.474 33.077, 132.963 29.163, 132.885 25.594 L 132.744 19.106 127.122 19.225 C 124.030 19.290, 120.150 19.604, 118.500 19.922 M 52.500 21 C 52.840 21.550, 53.740 22, 54.500 22 C 55.260 22, 56.160 21.550, 56.500 21 C 56.852 20.431, 55.991 20, 54.500 20 C 53.009 20, 52.148 20.431, 52.500 21 M 53.574 30.667 C 52.843 32.573, 54.334 34.530, 55.819 33.612 C 56.922 32.930, 56.216 29, 54.990 29 C 54.563 29, 53.926 29.750, 53.574 30.667 M 102.840 80.863 C 101.292 82.682, 101.293 82.843, 102.856 83.252 C 103.778 83.493, 105.425 83.342, 106.516 82.915 C 108.102 82.296, 108.163 82.126, 106.823 82.070 C 105.901 82.032, 105.001 81.305, 104.823 80.456 C 104.554 79.168, 104.225 79.235, 102.840 80.863 M 36.079 119.583 C 36.127 120.748, 36.364 120.985, 36.683 120.188 C 36.972 119.466, 36.936 118.603, 36.604 118.271 C 36.272 117.939, 36.036 118.529, 36.079 119.583 M 13.566 204.893 C 12.835 206.076, 13.933 209, 15.107 209 C 16.290 209, 16.259 205.278, 15.069 204.543 C 14.557 204.226, 13.881 204.384, 13.566 204.893 M 242 247.417 C 242 249.153, 243.676 249.785, 246.734 249.200 C 248.569 248.849, 248.809 248.474, 247.900 247.379 C 246.386 245.556, 242 245.583, 242 247.417" stroke="none" fill="black" fill-rule="evenodd"/>
</svg>