<svg xmlns="http://www.w3.org/2000/svg" width="256" height="256" viewBox="0 0 256 256" version="1.1">
	<path d="M 138.628 16.706 C 138.239 17.094, 133.102 17.431, 127.211 17.456 C 118.460 17.492, 116.557 17.762, 116.810 18.930 C 116.981 19.717, 117.548 22.618, 118.072 25.378 C 119.141 31.014, 119.744 31.655, 123.711 31.366 C 125.245 31.254, 127.025 31.126, 127.667 31.081 C 128.308 31.037, 129.285 29.762, 129.838 28.250 C 130.390 26.738, 130.912 26.175, 130.998 27 C 131.227 29.218, 131.720 31.664, 133.067 37.280 C 133.932 40.886, 134.090 48.319, 133.621 63.410 C 133.226 76.145, 133.449 93.539, 134.185 107.319 C 135.048 123.494, 135.093 130.627, 134.339 131.819 C 133.460 133.209, 131.696 133.479, 124.138 133.380 C 113.718 133.243, 114.706 132.061, 114.847 144.500 C 114.890 148.350, 114.942 151.835, 114.963 152.243 C 114.983 152.652, 124.285 152.916, 135.633 152.830 L 156.266 152.673 155.586 117.587 C 155.213 98.289, 154.698 75.300, 154.443 66.500 C 154.188 57.700, 153.984 42.737, 153.990 33.250 L 154 16 146.667 16 C 142.633 16, 139.016 16.318, 138.628 16.706 M 20.160 18.240 C 19 19.400, 18.497 33.526, 19.521 36.194 C 19.915 37.221, 22.099 37.486, 28.465 37.281 C 33.098 37.133, 37.101 37.354, 37.360 37.773 C 37.619 38.192, 38.158 46.965, 38.558 57.268 C 39.165 72.928, 39.056 76.020, 37.892 76.122 C 37.126 76.189, 32.323 76.144, 27.218 76.022 L 17.936 75.800 18.443 78.679 C 18.841 80.937, 19.844 102.848, 19.976 112.172 C 19.997 113.633, 21.164 113.807, 29.250 113.554 L 38.500 113.264 38.642 109.882 C 38.721 108.022, 38.908 104.548, 39.060 102.162 C 39.234 99.418, 38.856 97.529, 38.032 97.020 C 35.701 95.579, 40.241 94.106, 47.817 93.846 C 51.732 93.711, 55.168 93.835, 55.453 94.120 C 55.961 94.628, 56.379 100.251, 57.577 122.750 L 58.177 134 49.023 134 C 37.613 134, 35.695 134.856, 36.576 139.554 C 37.016 141.899, 36.846 143, 36.044 143 C 35.274 143, 35.116 143.779, 35.590 145.250 C 35.988 146.488, 36.312 148.175, 36.308 149 C 36.299 151.318, 38.016 151.968, 44.185 151.985 C 47.312 151.993, 51.079 152.460, 52.557 153.021 C 56.957 154.694, 57.891 152.983, 58.214 142.658 L 58.500 133.500 67.500 133.500 L 76.500 133.500 77 114.500 L 77.500 95.500 85.413 95.205 C 91.068 94.994, 93.561 95.280, 94.148 96.205 C 94.600 96.917, 94.983 101.100, 95 105.500 C 95.017 109.900, 95.361 113.976, 95.765 114.559 C 96.187 115.167, 100.502 115.650, 105.902 115.693 L 115.304 115.768 114.459 96.634 C 113.994 86.110, 113.746 68.549, 113.908 57.609 L 114.203 37.719 108.340 38.382 C 105.115 38.747, 100.994 38.749, 99.181 38.386 L 95.886 37.727 96.009 29.114 C 96.077 24.376, 96.102 20.027, 96.066 19.449 C 96.022 18.741, 84.047 18.310, 59.284 18.125 C 39.090 17.974, 22.287 17.677, 21.944 17.465 C 21.601 17.253, 20.798 17.602, 20.160 18.240 M 58.416 37.917 C 58.187 38.146, 58 42.485, 58 47.560 C 58 54.455, 58.347 56.919, 59.372 57.312 C 60.493 57.743, 89.381 58.394, 93.750 58.088 C 94.661 58.024, 95 55.287, 95 48 C 95 42.500, 94.662 37.984, 94.250 37.965 C 87.563 37.650, 58.721 37.611, 58.416 37.917 M 58.358 77.745 C 57.665 78.203, 57.217 81.537, 57.219 86.226 L 57.222 93.951 60.645 94.593 C 64.080 95.238, 75.595 94.758, 76.374 93.938 C 76.602 93.697, 76.949 89.900, 77.145 85.500 L 77.500 77.500 68.500 77.245 C 63.550 77.105, 58.986 77.330, 58.358 77.745 M 19.847 140.750 C 19.656 143.363, 19.761 147.075, 20.079 149 C 20.544 151.814, 20.815 152.144, 21.461 150.684 C 22.106 149.227, 22.980 148.990, 25.893 149.482 C 28.745 149.964, 30 149.649, 31.761 148.008 C 34.027 145.897, 34.869 141, 32.965 141 C 32.258 141, 32.252 140.398, 32.947 139.100 C 34.251 136.662, 32.663 136, 25.515 136 L 20.193 136 19.847 140.750 M 13.250 197.031 C 12.012 197.529, 11 198.625, 11 199.468 C 11 200.310, 10.534 201, 9.965 201 C 9.263 201, 9.274 201.644, 10 203 C 10.709 204.325, 10.726 205, 10.051 205 C 9.483 205, 9.771 206.548, 10.701 208.500 C 13.610 214.600, 17.939 212.741, 17.986 205.372 C 17.994 204.202, 18.675 202.685, 19.500 202 C 21.402 200.421, 21.388 199.531, 19.429 197.571 C 17.671 195.814, 16.527 195.714, 13.250 197.031 M 243 247.500 C 243 248.452, 243.958 249, 245.622 249 C 247.840 249, 248.053 248.768, 247 247.500 C 246.315 246.675, 245.135 246, 244.378 246 C 243.620 246, 243 246.675, 243 247.500" stroke="none" fill="black" fill-rule="evenodd"/>
</svg>