<svg xmlns="http://www.w3.org/2000/svg" width="256" height="256" viewBox="0 0 256 256" version="1.1">
	<path d="M 136.500 18.026 C 133.750 18.465, 128.864 18.864, 125.643 18.912 C 120.733 18.986, 119.884 19.256, 120.393 20.582 C 120.727 21.452, 121 25.030, 121 28.534 L 121 34.905 127.213 35.202 L 133.425 35.500 134.144 39 C 134.540 40.925, 134.365 50.245, 133.755 59.711 C 132.875 73.391, 132.347 76.981, 131.185 77.211 C 130.380 77.370, 126.747 77.275, 123.111 77 L 116.500 76.500 116.674 57.750 L 116.848 39 107.170 39 L 97.491 39 97.496 29.345 L 97.500 19.690 58.250 19.216 L 19 18.742 19 28.471 L 19 38.201 27.916 37.850 C 32.820 37.658, 37.053 37.725, 37.322 38 C 38.313 39.010, 38.968 74.511, 38.023 76 C 37.295 77.147, 35.005 77.500, 28.286 77.500 C 19.820 77.500, 19.503 77.582, 19.571 79.750 C 19.611 80.987, 19.723 84.952, 19.821 88.559 C 19.920 92.166, 20.338 94.910, 20.750 94.655 C 21.163 94.400, 25.471 94.501, 30.325 94.878 C 35.979 95.318, 39.377 95.199, 39.780 94.547 C 40.126 93.987, 40.442 90.285, 40.483 86.320 C 40.523 82.355, 40.768 78.921, 41.028 78.690 C 41.288 78.458, 45.196 78.027, 49.714 77.731 L 57.929 77.194 57.932 104.141 C 57.936 128.687, 57.783 131.147, 56.218 131.760 C 54.261 132.526, 47.334 132.577, 31.500 131.941 L 20.500 131.500 20.216 141 L 19.932 150.500 29.216 150.500 C 34.322 150.500, 46.375 150.827, 56 151.226 C 65.625 151.625, 74.400 151.716, 75.500 151.427 C 77.344 150.943, 77.475 150.203, 77.179 141.951 C 76.818 131.875, 76.308 132.395, 85.337 133.633 C 87.876 133.981, 89.738 134.614, 89.475 135.040 C 89.212 135.467, 89.418 136.869, 89.935 138.158 C 90.455 139.457, 90.908 139.832, 90.952 139 C 91.022 137.667, 91.138 137.667, 92 139 C 92.533 139.825, 93.021 140.050, 93.084 139.500 C 93.147 138.950, 93.310 137.257, 93.445 135.737 C 93.581 134.217, 94.004 132.663, 94.385 132.282 C 95.652 131.015, 107.471 130.780, 111.766 131.937 L 116 133.077 116 142.039 L 116 151 124.250 151.005 C 128.787 151.007, 137.500 151.297, 143.612 151.649 L 154.724 152.290 154.368 84.895 L 154.011 17.500 147.755 17.364 C 144.315 17.288, 139.250 17.587, 136.500 18.026 M 77.500 39 C 75.850 39.420, 70.996 39.817, 66.712 39.882 L 58.925 40 59.212 49.195 L 59.500 58.391 73 58.636 C 80.425 58.771, 88.658 59.056, 91.296 59.270 C 93.934 59.484, 96.357 59.231, 96.681 58.708 C 97.471 57.428, 97.336 40.352, 96.524 39.040 C 95.794 37.857, 82.102 37.829, 77.500 39 M 92 81.071 C 92 81.661, 92.675 82.818, 93.500 83.643 C 94.833 84.976, 95 84.857, 95 82.571 C 95 80.952, 94.444 80, 93.500 80 C 92.675 80, 92 80.482, 92 81.071 M 94.115 87.809 C 94.052 88.529, 93.563 88.848, 93.029 88.518 C 92.495 88.188, 91.772 89.062, 91.421 90.459 C 90.859 92.699, 90.234 93.014, 86.142 93.118 C 83.589 93.184, 81.206 93.198, 80.846 93.150 C 78.775 92.877, 77.942 96.508, 78.210 104.651 L 78.500 113.500 83 113.292 C 85.475 113.178, 88.963 113.310, 90.750 113.587 C 93.882 114.072, 94.001 114.261, 94.015 118.795 C 94.026 121.931, 94.327 123.032, 94.920 122.096 C 96.063 120.290, 96.184 95.746, 95.075 90.500 C 94.610 88.300, 94.178 87.089, 94.115 87.809 M 115.489 95.250 C 115.243 95.938, 115.145 104.375, 115.271 114 L 115.500 131.500 124.250 131.789 C 130.832 132.006, 133.027 131.759, 133.107 130.789 C 133.472 126.417, 132.901 95.648, 132.441 94.905 C 131.547 93.457, 116.018 93.774, 115.489 95.250 M 34.275 125 C 34.192 126.104, 34.741 127, 35.500 127 C 36.259 127, 36.808 126.104, 36.725 125 C 36.642 123.900, 36.091 123, 35.500 123 C 34.909 123, 34.358 123.900, 34.275 125 M 242.667 246.667 C 241.197 248.136, 242.165 248.998, 245.250 248.968 C 248.324 248.938, 248.395 248.857, 246.559 247.468 C 244.403 245.838, 243.651 245.683, 242.667 246.667" stroke="none" fill="black" fill-rule="evenodd"/>
</svg>