<svg xmlns="http://www.w3.org/2000/svg" width="256" height="256" viewBox="0 0 256 256" version="1.1">
	<path d="M 38.354 19.254 C 38.091 19.669, 37.935 23.719, 38.007 28.254 C 38.078 32.789, 38.106 37.100, 38.068 37.833 C 38.015 38.866, 35.914 39.099, 28.750 38.868 L 19.500 38.571 19.164 43.035 C 18.656 49.778, 20.067 68, 21.096 68 C 21.593 68, 21.888 67.458, 21.750 66.795 C 21.487 65.530, 22.120 65.328, 27 65.125 C 28.650 65.056, 30 64.595, 30 64.100 C 30 63.604, 28.650 63.293, 27 63.407 C 25.350 63.521, 24 63.251, 24 62.807 C 24 62.363, 24.927 62, 26.059 62 C 27.191 62, 27.840 61.550, 27.500 61 C 27.129 60.399, 28.403 60.006, 30.691 60.015 C 33.519 60.027, 34.113 60.280, 33 61 C 31.930 61.691, 31.871 61.974, 32.795 61.985 C 33.508 61.993, 35.216 60.875, 36.591 59.500 C 38.906 57.185, 39.792 57, 48.582 57 L 58.072 57 57.786 66.750 L 57.500 76.500 49 76.675 C 44.325 76.772, 39.903 76.884, 39.174 76.925 C 38.288 76.975, 37.905 78.245, 38.020 80.750 C 38.116 82.813, 38.150 87.088, 38.097 90.250 L 38 96 28.466 96 L 18.932 96 19.216 106.614 L 19.500 117.228 28.500 117.364 L 37.500 117.500 37.602 128 C 37.659 133.775, 37.771 141.519, 37.852 145.209 L 38 151.917 65.933 151.967 L 93.867 152.016 94.391 142.258 C 94.680 136.891, 95.310 128.900, 95.792 124.500 C 96.659 116.586, 96.672 116.559, 96.953 122 C 97.109 125.025, 97.201 127.784, 97.158 128.131 C 96.986 129.510, 100.809 132.118, 101.460 131.065 C 102.472 129.427, 109.649 129.792, 111.429 131.571 C 112.647 132.789, 113 135.381, 113 143.092 L 113 153.041 133.155 152.771 L 153.311 152.500 153.280 135.500 C 153.225 104.506, 151.962 21.629, 151.538 21.205 C 151.309 20.976, 137.482 20.619, 120.811 20.411 C 104.140 20.204, 87.688 19.797, 84.250 19.508 C 80.813 19.219, 77.966 19.324, 77.924 19.741 C 77.882 20.159, 77.683 24.325, 77.480 29 C 76.776 45.292, 76.109 52.983, 75.271 54.480 C 74.642 55.603, 72.451 56.017, 66.658 56.104 C 62.384 56.168, 58.747 56.058, 58.575 55.860 C 58.403 55.662, 57.993 47.175, 57.664 37 C 57.335 26.825, 57.051 18.451, 57.033 18.392 C 56.868 17.847, 38.714 18.685, 38.354 19.254 M 117.284 42.538 C 115.502 43.836, 115.221 48.408, 114.051 94.983 C 113.352 122.823, 113.415 131.639, 114.317 132.200 C 114.968 132.604, 119.325 132.837, 124 132.717 L 132.500 132.500 132.465 121.500 C 132.446 115.450, 132.265 105.100, 132.062 98.500 C 131.859 91.900, 131.778 77.815, 131.882 67.201 C 131.987 56.586, 131.802 46.461, 131.472 44.701 C 130.875 41.516, 130.841 41.500, 124.790 41.500 C 121.445 41.500, 118.067 41.967, 117.284 42.538 M 90.500 56.949 C 89.400 57.345, 86.475 57.549, 84 57.404 C 76.189 56.945, 76.112 57.033, 75.788 66.805 L 75.500 75.500 67.317 75.789 L 59.134 76.079 58.567 81.289 C 57.936 87.082, 58.256 92.589, 59.283 93.617 C 59.653 93.986, 63.453 94.337, 67.728 94.395 L 75.500 94.500 75.500 103.784 C 75.500 110.952, 75.842 113.282, 77 114.007 C 77.825 114.524, 82.213 114.922, 86.750 114.893 L 95 114.839 95 104.479 C 95 97.723, 94.598 93.870, 93.845 93.404 C 93.210 93.011, 89.607 92.790, 85.839 92.912 C 77.937 93.169, 77.381 92.610, 78.450 85.488 C 78.888 82.562, 79.623 81, 80.561 81 C 81.353 81, 82 81.502, 82 82.115 C 82 82.817, 82.864 82.664, 84.333 81.702 C 86.533 80.260, 86.801 80.338, 89.072 83.087 C 93.836 88.855, 94.678 86.910, 94.935 69.543 C 95.112 57.598, 94.391 55.551, 90.500 56.949 M 20 71.500 C 20 72.875, 20.450 74, 21 74 C 21.550 74, 22 73.325, 22 72.500 C 22 71.675, 22.563 70.993, 23.250 70.985 C 24.083 70.974, 24 70.646, 23 70 C 20.650 68.482, 20 68.807, 20 71.500 M 30.250 70.689 C 31.212 70.941, 32.788 70.941, 33.750 70.689 C 34.712 70.438, 33.925 70.232, 32 70.232 C 30.075 70.232, 29.288 70.438, 30.250 70.689 M 51.750 96.662 C 52.438 96.940, 53.563 96.940, 54.250 96.662 C 54.938 96.385, 54.375 96.158, 53 96.158 C 51.625 96.158, 51.063 96.385, 51.750 96.662 M 59.160 118.250 C 58.398 123.731, 58.186 131.703, 58.778 132.619 C 59.175 133.235, 62.987 134.008, 67.250 134.336 L 75 134.933 75 129.658 C 75 122.606, 73.712 121.131, 67.321 120.865 C 63.258 120.696, 62.039 120.256, 61.664 118.825 C 61.122 116.752, 59.422 116.362, 59.160 118.250 M 243.639 246.694 C 242.513 247.820, 242.954 249, 244.500 249 C 245.325 249, 246 248.577, 246 248.059 C 246 246.798, 244.438 245.895, 243.639 246.694" stroke="none" fill="black" fill-rule="evenodd"/>
</svg>