<svg xmlns="http://www.w3.org/2000/svg" width="256" height="256" viewBox="0 0 256 256" version="1.1">
	<path d="M 63.500 19.732 L 57.500 20.078 57.777 26.789 C 57.930 30.480, 58.288 34.560, 58.573 35.855 L 59.091 38.210 74.795 37.692 C 90.900 37.162, 107.520 38.357, 109.748 40.205 C 110.436 40.777, 111.032 42.877, 111.070 44.872 C 111.109 46.868, 111.527 49.400, 112 50.500 C 112.591 51.876, 112.956 49.850, 113.170 44 C 113.636 31.257, 113.644 21.652, 113.190 20.250 C 112.881 19.293, 107.713 19.045, 91.143 19.193 C 79.239 19.299, 66.800 19.541, 63.500 19.732 M 38 49 L 38 58 28.464 58 L 18.928 58 19.214 67.656 L 19.500 77.311 29 77.031 C 34.225 76.877, 42.094 76.543, 46.487 76.288 C 55.206 75.783, 62 77.207, 62 79.540 C 62 80.343, 61.379 81, 60.619 81 C 58.054 81, 56.998 111.924, 59.492 113.993 C 60.060 114.464, 64.119 114.622, 68.512 114.343 C 72.905 114.064, 79.650 113.757, 83.500 113.661 L 90.500 113.487 90.642 107.993 C 90.944 96.257, 91.119 95.931, 97.663 94.907 C 100.323 94.491, 104.377 93.837, 106.671 93.454 L 110.841 92.758 111.471 97.129 C 111.818 99.533, 111.966 108.925, 111.801 118 L 111.500 134.500 105 134.746 C 101.425 134.881, 97.150 135.218, 95.500 135.494 L 92.500 135.996 92.657 143.571 C 92.743 147.738, 93.053 151.386, 93.346 151.679 C 94.059 152.393, 130.206 152.127, 130.931 151.403 C 131.244 151.090, 131.596 138.159, 131.713 122.667 C 132.013 83.015, 132.213 79.113, 134 77.944 C 134.825 77.405, 138.650 77.005, 142.500 77.055 C 146.350 77.105, 150.063 77.113, 150.750 77.073 C 151.661 77.020, 152 74.311, 152 67.082 L 152 57.164 144.750 56.758 C 136.141 56.275, 120.921 56.472, 84.867 57.531 C 58.542 58.305, 58.227 58.290, 57.583 56.260 C 57.224 55.131, 57 53.823, 57.084 53.354 C 57.168 52.884, 57.184 49.688, 57.118 46.250 L 57 40 47.500 40 L 38 40 38 49 M 110.079 83.583 C 110.127 84.748, 110.364 84.985, 110.683 84.188 C 110.972 83.466, 110.936 82.603, 110.604 82.271 C 110.272 81.939, 110.036 82.529, 110.079 83.583 M 53.298 116.314 C 52.890 116.966, 52.475 117.950, 52.375 118.500 C 52.275 119.050, 51.914 120.191, 51.572 121.035 C 51.217 121.914, 51.839 123.523, 53.027 124.798 L 55.103 127.026 52.801 127.878 C 51.536 128.346, 50.500 129.128, 50.500 129.615 C 50.500 130.102, 48.925 130.516, 47 130.536 C 45.075 130.555, 42.122 131.311, 40.437 132.215 C 38.434 133.289, 34.281 133.969, 28.437 134.179 L 19.500 134.500 19.500 142.500 L 19.500 150.500 22.500 150.661 C 29.883 151.056, 58.214 151.119, 58.592 150.741 C 58.823 150.510, 59.167 143.961, 59.355 136.187 C 59.662 123.535, 59.505 121.845, 57.849 120.068 C 55.853 117.925, 55.381 116.500, 57 117.500 C 57.550 117.840, 58 117.512, 58 116.772 C 58 115.080, 54.295 114.719, 53.298 116.314 M 4 191.393 C 4 192.637, 5.043 193, 8.622 193 C 12.376 193, 13.036 193.252, 12.131 194.342 C 11.519 195.080, 11.313 195.980, 11.675 196.342 C 12.037 196.704, 11.385 197, 10.226 197 C 7.551 197, 7.267 197.507, 6.438 203.758 C 5.777 208.740, 5.840 208.922, 8.452 209.577 C 12.749 210.656, 15.886 208.678, 15.780 204.956 C 15.730 203.225, 16.275 201.448, 16.991 201.006 C 18.917 199.815, 17.410 197.015, 14.781 196.900 C 12.559 196.803, 12.565 196.780, 15 196 C 17.084 195.333, 17.167 195.180, 15.500 195.084 C 13.979 194.997, 13.826 194.763, 14.861 194.107 C 15.609 193.633, 17.035 193.458, 18.029 193.718 C 19.023 193.978, 20.661 193.711, 21.668 193.126 C 23.767 191.906, 23.880 191.927, 14 191.656 C 10.425 191.558, 6.713 191.097, 5.750 190.632 C 4.458 190.008, 4 190.207, 4 191.393" stroke="none" fill="black" fill-rule="evenodd"/>
</svg>