<svg xmlns="http://www.w3.org/2000/svg" width="256" height="256" viewBox="0 0 256 256" version="1.1">
	<path d="M 28.500 19 L 19.500 19.500 19.437 46.500 C 19.403 61.350, 19.568 74.287, 19.804 75.250 C 20.172 76.751, 21.481 77, 29.005 77 L 37.777 77 38.274 80.250 C 39.144 85.939, 39.086 126.378, 38.204 129.500 L 37.356 132.500 28.928 132.500 C 24.293 132.500, 20.169 132.950, 19.765 133.500 C 18.934 134.631, 18.725 150.124, 19.514 152.168 C 19.890 153.144, 22.496 153.500, 29.264 153.500 C 39.857 153.500, 38.721 155.008, 38.901 140.712 L 39 132.925 48.250 133.212 L 57.500 133.500 58 143.500 L 58.500 153.500 66 153.688 C 78.643 154.006, 78 154.584, 78 142.903 L 78 132.843 86.250 133.432 C 90.787 133.756, 95.085 133.638, 95.801 133.170 C 96.748 132.550, 97.020 129.894, 96.801 123.409 L 96.500 114.500 102.396 114.196 C 105.638 114.028, 108.766 114.366, 109.346 114.946 C 110.883 116.483, 113.696 116.234, 114.361 114.503 C 114.677 113.679, 114.934 97.077, 114.932 77.608 C 114.931 58.140, 115.058 41.601, 115.215 40.855 C 115.433 39.818, 113.624 39.448, 107.500 39.280 C 103.100 39.159, 98.963 39.395, 98.307 39.804 C 97.582 40.256, 96.942 44.122, 96.677 49.647 C 96.437 54.652, 95.750 59.591, 95.151 60.623 C 94.551 61.656, 94.047 62.015, 94.030 61.422 C 94.012 60.760, 91.588 60.373, 87.762 60.422 C 81.663 60.498, 81.509 60.567, 80.880 63.500 L 80.237 66.500 80.118 63.250 C 80.053 61.462, 79.550 60, 79 60 C 78.366 60, 78 52.500, 78 39.500 L 78 19 59.750 18.872 C 49.712 18.802, 40.600 18.690, 39.500 18.622 C 38.400 18.555, 33.450 18.725, 28.500 19 M 145 18.678 C 142.525 18.859, 139.150 19.230, 137.500 19.502 L 134.500 19.997 134.387 43.248 C 134.325 56.037, 134.100 81.575, 133.887 100 L 133.500 133.500 124 133.515 L 114.500 133.531 114.210 142.364 C 114.036 147.656, 114.352 151.720, 114.999 152.499 C 115.821 153.490, 120.627 153.783, 135.099 153.725 C 151.352 153.660, 154.232 153.420, 154.909 152.075 C 155.344 151.209, 155.606 144.875, 155.490 138 C 155.375 131.125, 155.217 101.313, 155.140 71.750 L 155 18 152.250 18.175 C 150.738 18.271, 147.475 18.497, 145 18.678 M 39.189 39.211 C 37.933 40.467, 38.839 54.959, 40.288 56.788 C 41.006 57.695, 43.702 57.991, 49.404 57.788 L 57.500 57.500 57.789 48.734 C 58.003 42.263, 57.741 39.853, 56.789 39.530 C 53.775 38.508, 40.139 38.261, 39.189 39.211 M 80.500 77.143 C 73.900 77.613, 66.614 77.849, 64.309 77.668 C 60.174 77.343, 60.113 77.386, 59.686 80.919 C 59.448 82.889, 59.309 86.750, 59.376 89.500 L 59.500 94.500 67.500 94.631 C 71.900 94.703, 76.063 94.815, 76.750 94.881 C 77.642 94.966, 78 97.418, 78 103.441 C 78 108.084, 78.423 112.144, 78.941 112.464 C 79.458 112.783, 82.828 113.298, 86.428 113.607 C 96.287 114.452, 96.447 114.160, 95.656 96.673 C 95.303 88.878, 95.011 81.037, 95.007 79.250 C 95.003 77.243, 94.522 76.055, 93.750 76.145 C 93.063 76.224, 87.100 76.674, 80.500 77.143 M 59.513 115.500 C 58.469 120.552, 58.357 130.957, 59.336 131.936 C 59.927 132.527, 64.315 133, 69.200 133 L 78 133 78 123.201 L 78 113.401 68.963 113.451 C 60.751 113.495, 59.888 113.683, 59.513 115.500 M 243 247.500 C 243 248.325, 243.661 249, 244.469 249 C 245.363 249, 245.712 248.414, 245.362 247.500 C 245.045 246.675, 244.384 246, 243.893 246 C 243.402 246, 243 246.675, 243 247.500" stroke="none" fill="black" fill-rule="evenodd"/>
</svg>