<svg xmlns="http://www.w3.org/2000/svg" width="256" height="256" viewBox="0 0 256 256" version="1.1">
	<path d="M 66 16.921 L 58.500 17.500 58 27.500 L 57.500 37.500 48.500 38 L 39.500 38.500 39 46.735 C 38.511 54.787, 38.555 54.992, 41 55.982 C 42.375 56.539, 46.425 57.138, 49.999 57.313 C 55.290 57.572, 56.562 57.963, 56.841 59.415 C 57.481 62.738, 55.973 67.856, 54.217 68.317 C 52.965 68.646, 53.109 68.799, 54.750 68.884 C 55.987 68.948, 57 69.569, 57 70.264 C 57 71.174, 54.852 71.524, 49.334 71.514 C 44.080 71.504, 41.537 71.893, 41.251 72.750 C 41.021 73.438, 40.392 74, 39.852 74 C 39.299 74, 38.963 71.488, 39.083 68.250 C 39.199 65.088, 39.228 61.021, 39.147 59.214 L 39 55.928 29.289 56.214 L 19.577 56.500 19.413 81.500 C 19.323 95.250, 19.473 108.241, 19.748 110.369 L 20.247 114.238 28.673 113.796 C 33.763 113.528, 37.348 113.754, 37.725 114.364 C 38.433 115.509, 38.144 133.189, 37.406 133.928 C 37.142 134.192, 33.005 134.459, 28.213 134.522 L 19.500 134.637 19.500 145.029 L 19.500 155.420 29.402 155.713 L 39.304 156.005 38.666 145.566 C 37.933 133.595, 37.464 134.184, 47.500 134.488 C 59.080 134.838, 57.892 133.647, 58.215 145.234 L 58.500 155.467 67 155.524 C 77.080 155.590, 78 155.370, 78 152.893 C 78 150.878, 80.445 150.294, 81.530 152.049 C 82.370 153.407, 93.760 153.012, 94.882 151.585 C 95.351 150.988, 96.035 147.055, 96.401 142.844 C 97.142 134.323, 96.800 133.811, 91.206 135.069 C 88.013 135.787, 61.769 135.297, 59.250 134.472 C 57.730 133.975, 57.492 118.817, 58.961 116.073 C 60.025 114.084, 61 114.068, 96.169 115.467 C 116.618 116.281, 115.946 116.590, 116.070 106.316 C 116.121 102.142, 116.383 101.065, 117 102.500 C 117.625 103.953, 117.922 104.090, 118.087 103 C 118.212 102.175, 118.581 103.750, 118.907 106.500 L 119.500 111.500 123.472 111.528 C 125.976 111.545, 128.102 110.898, 129.222 109.778 C 130.200 108.800, 131.333 107.888, 131.740 107.750 C 133.028 107.315, 133.760 113.136, 133.882 124.781 C 133.978 134.005, 133.724 136.169, 132.487 136.643 C 131.655 136.963, 130.345 136.701, 129.575 136.062 C 128.739 135.369, 125.619 135.021, 121.837 135.200 L 115.500 135.500 115.632 141 C 115.705 144.025, 115.818 148.168, 115.882 150.207 L 116 153.913 135.250 153.707 L 154.500 153.500 154.588 129 C 154.637 115.525, 154.862 85.150, 155.088 61.500 L 155.500 18.500 146 18.860 C 140.775 19.058, 136.431 19.283, 136.347 19.360 C 136.204 19.491, 134.629 54.571, 133.401 85 C 133.102 92.425, 132.471 98.895, 132 99.379 C 131.513 99.877, 130.032 99.058, 128.571 97.483 C 127.157 95.957, 126 95.224, 126 95.854 C 126 96.484, 124.875 97, 123.500 97 C 122.125 97, 121.113 96.494, 121.250 95.875 C 121.388 95.256, 120.866 94.520, 120.091 94.239 C 119.114 93.884, 118.874 94.229, 119.309 95.364 C 119.704 96.393, 119.424 97, 118.552 97 C 117.790 97, 116.940 97.563, 116.662 98.250 C 116.046 99.776, 115.581 90.132, 115.371 71.500 C 115.284 63.800, 114.897 53.626, 114.510 48.891 L 113.806 40.282 104.153 39.594 C 98.844 39.216, 90.786 38.815, 86.247 38.703 L 77.995 38.500 77.463 41.500 C 77.170 43.150, 77.013 46.525, 77.113 49 C 77.438 57.010, 78.045 56.556, 67.752 56 L 58.500 55.500 58.500 47 L 58.500 38.500 67.783 38.212 L 77.067 37.924 76.783 27.224 C 76.554 18.555, 76.215 16.506, 75 16.433 C 74.175 16.383, 70.125 16.603, 66 16.921 M 78 85.654 L 78 94 82.750 94.024 C 85.362 94.037, 89.191 94.440, 91.257 94.920 C 94.646 95.707, 95.056 95.582, 95.442 93.646 C 95.820 91.752, 95.706 85.662, 95.177 79.404 C 95.012 77.454, 94.407 77.308, 86.500 77.308 L 78 77.308 78 85.654 M 40.029 94.961 C 37.458 96.587, 39.934 97.484, 47.830 97.786 C 55.541 98.081, 58.844 97.174, 57.569 95.112 C 56.730 93.754, 42.136 93.628, 40.029 94.961 M 23.250 96.689 C 24.212 96.941, 25.788 96.941, 26.750 96.689 C 27.712 96.438, 26.925 96.232, 25 96.232 C 23.075 96.232, 22.288 96.438, 23.250 96.689 M 129.736 101.598 C 129.407 101.927, 129.394 102.864, 129.708 103.682 C 130.173 104.893, 130.435 104.921, 131.124 103.834 C 132.598 101.509, 131.536 99.798, 129.736 101.598 M 117.079 106.583 C 117.127 107.748, 117.364 107.985, 117.683 107.188 C 117.972 106.466, 117.936 105.603, 117.604 105.271 C 117.272 104.939, 117.036 105.529, 117.079 106.583 M 43.438 203.101 C 42.626 204.413, 45.941 205.459, 47.133 204.267 C 47.798 203.602, 47.442 203.087, 46.067 202.728 C 44.931 202.431, 43.748 202.599, 43.438 203.101 M 50.937 203.039 C 49.820 203.729, 49.898 204.024, 51.345 204.579 C 52.329 204.957, 53.584 204.816, 54.134 204.266 C 55.475 202.925, 52.789 201.894, 50.937 203.039 M 243.639 246.694 C 242.513 247.820, 242.954 249, 244.500 249 C 245.325 249, 246 248.577, 246 248.059 C 246 246.798, 244.438 245.895, 243.639 246.694" stroke="none" fill="black" fill-rule="evenodd"/>
</svg>