<svg xmlns="http://www.w3.org/2000/svg" width="256" height="256" viewBox="0 0 256 256" version="1.1">
	<path d="M 82 18.745 C 78.425 18.944, 75.158 19.446, 74.740 19.863 C 74.322 20.279, 73.948 24.756, 73.908 29.810 L 73.836 39 63.565 39 C 50.272 39, 40.871 39.982, 41.677 41.286 C 42.615 42.804, 42.069 53.331, 40.997 54.403 C 40.481 54.919, 35.546 55.294, 30.030 55.237 L 20 55.134 20 63.674 C 20 71.050, 20.215 72.131, 21.582 71.607 C 22.452 71.273, 24.702 71, 26.582 71 C 28.954 71, 30 70.541, 30 69.500 C 30 68.667, 30.889 68, 32 68 C 34.836 68, 35.517 68.337, 35.375 69.666 C 35.216 71.148, 38.796 72.139, 39.602 70.835 C 39.934 70.298, 39.907 67.865, 39.542 65.429 C 38.899 61.146, 38.964 61, 41.503 61 C 43.847 61, 44.094 61.337, 43.814 64.151 C 43.619 66.107, 44.003 67.475, 44.827 67.760 C 45.819 68.102, 46.022 67.376, 45.629 64.886 C 45.085 61.431, 46.276 59.785, 48.659 60.700 C 50.058 61.236, 50.436 64.699, 49.393 67.418 C 49.059 68.288, 47.709 69, 46.393 69 C 45.077 69, 44 69.450, 44 70 C 44 70.550, 44.437 71, 44.970 71 C 45.504 71, 48.317 72.081, 51.220 73.402 C 54.422 74.858, 59.537 76.084, 64.215 76.516 C 68.458 76.908, 72.574 77.740, 73.360 78.364 C 74.266 79.084, 75.029 82.418, 75.440 87.462 C 75.798 91.841, 76.328 95.661, 76.617 95.951 C 76.907 96.241, 80.475 96.550, 84.546 96.639 L 91.947 96.801 92.435 93.650 C 92.704 91.918, 93.101 87.228, 93.317 83.228 C 93.533 79.229, 93.978 75.689, 94.305 75.362 C 94.632 75.034, 99.833 74.840, 105.863 74.929 C 112.590 75.029, 117.075 74.688, 117.472 74.046 C 117.827 73.471, 119.640 73, 121.500 73 C 123.360 73, 125.160 72.550, 125.500 72 C 125.840 71.450, 127.160 71, 128.434 71 C 131.760 71, 132 73.263, 132 104.625 C 132 125.798, 131.717 132.025, 130.750 132.112 C 130.063 132.174, 125.372 132.365, 120.328 132.536 C 115.283 132.707, 110.250 133.331, 109.143 133.923 C 108.037 134.515, 104.739 135, 101.816 135 L 96.500 135 96.534 140.750 C 96.553 143.913, 96.226 147.512, 95.809 148.750 L 95.050 151 109.775 151.117 C 117.874 151.181, 130.735 151.348, 138.356 151.487 L 152.211 151.740 151.540 123.120 C 151.171 107.379, 150.937 82.238, 151.020 67.250 L 151.170 40 142.335 40.013 C 122.833 40.041, 94.444 38.843, 93.555 37.954 C 93.035 37.434, 92.734 32.732, 92.886 27.505 C 93.160 18.090, 93.141 18.002, 90.831 18.193 C 89.549 18.299, 85.575 18.547, 82 18.745 M 23.721 62.040 C 24.287 64.205, 25.248 63.916, 25.607 61.471 C 25.726 60.662, 25.230 60, 24.505 60 C 23.671 60, 23.383 60.749, 23.721 62.040 M 51.079 62.583 C 51.127 63.748, 51.364 63.985, 51.683 63.188 C 51.972 62.466, 51.936 61.603, 51.604 61.271 C 51.272 60.939, 51.036 61.529, 51.079 62.583 M 54 62.059 C 54 62.641, 54.450 62.840, 55 62.500 C 55.550 62.160, 56 61.684, 56 61.441 C 56 61.198, 55.550 61, 55 61 C 54.450 61, 54 61.477, 54 62.059 M 74.015 98.250 C 74.006 99.306, 73.236 100, 72.071 100 C 71.011 100, 69.440 100.703, 68.580 101.563 C 67.163 102.980, 66.809 102.980, 64.786 101.563 C 59.515 97.871, 57.017 100.831, 56.978 110.815 C 56.965 114.194, 56.196 118.174, 55.082 120.627 C 53.137 124.911, 50.873 127.120, 50.273 125.319 C 49.128 121.884, 47.471 120.940, 44.440 121.996 C 41.992 122.850, 41.167 123.928, 40.204 127.528 L 39.008 132 29.504 132 L 20 132 20 141.500 L 20 151 26.750 151.148 C 30.462 151.229, 34.400 151.352, 35.500 151.419 C 36.600 151.487, 38.715 150.970, 40.200 150.271 C 41.686 149.572, 46.073 149, 49.950 149 L 57 149 57.195 145.250 C 57.302 143.188, 57.447 140.375, 57.517 139 C 57.764 134.165, 59.032 131, 60.769 130.883 C 61.721 130.818, 65.245 130.852, 68.600 130.956 L 74.700 131.147 75.350 124.927 C 76.316 115.684, 76.108 99.715, 75 98 C 74.172 96.718, 74.028 96.754, 74.015 98.250 M 12.079 207.583 C 12.127 208.748, 12.364 208.985, 12.683 208.188 C 12.972 207.466, 12.936 206.603, 12.604 206.271 C 12.272 205.939, 12.036 206.529, 12.079 207.583 M 243 247.500 C 243 248.325, 243.450 249, 244 249 C 244.550 249, 245 248.325, 245 247.500 C 245 246.675, 244.550 246, 244 246 C 243.450 246, 243 246.675, 243 247.500" stroke="none" fill="black" fill-rule="evenodd"/>
</svg>