<svg xmlns="http://www.w3.org/2000/svg" width="256" height="256" viewBox="0 0 256 256" version="1.1">
	<path d="M 56.854 22.216 C 56.774 25.122, 56.744 29.611, 56.787 32.191 L 56.866 36.882 47.183 36.773 C 41.857 36.713, 33.337 36.740, 28.250 36.832 L 19 37 19 46.460 L 19 55.921 28.250 55.710 L 37.500 55.500 37.786 65.250 C 38.003 72.628, 37.760 75.031, 36.786 75.128 C 34.812 75.325, 30.044 75.580, 24.227 75.800 L 18.955 76 19.227 94.250 L 19.500 112.500 28.500 112.510 L 37.500 112.519 37.500 122.010 L 37.500 131.500 28.500 131.552 L 19.500 131.604 19.500 141.435 L 19.500 151.267 39.500 151.474 C 82.203 151.917, 94.429 151.904, 94.917 151.417 C 95.195 151.138, 95.293 146.942, 95.134 142.092 L 94.846 133.274 101.673 132.617 C 105.428 132.256, 109.943 132.383, 111.706 132.898 L 114.913 133.835 114.893 123.668 C 114.859 106.068, 114.750 89.737, 114.623 83 L 114.500 76.500 121.518 75.953 C 125.377 75.651, 129.042 75.092, 129.661 74.709 C 130.330 74.296, 131.012 74.925, 131.343 76.257 C 132.126 79.417, 132.222 94.410, 131.502 101.203 C 131.170 104.340, 131.344 108.615, 131.889 110.703 C 132.435 112.791, 133.136 122.790, 133.447 132.923 C 133.759 143.056, 134.123 151.433, 134.257 151.539 C 134.390 151.646, 139.151 151.977, 144.836 152.277 L 155.172 152.821 154.583 123.160 C 153.855 86.480, 153.036 63.602, 152.062 52.785 C 151.652 48.228, 151.678 43.503, 152.120 42.285 C 152.562 41.067, 152.588 39.863, 152.178 39.610 C 151.768 39.356, 148.297 39.058, 144.466 38.947 C 140.635 38.836, 136.124 38.346, 134.443 37.859 L 131.385 36.972 131.819 27.912 C 132.057 22.929, 131.858 18.470, 131.376 18.004 C 130.368 17.029, 109.524 18.143, 108.437 19.230 C 108.040 19.627, 108.284 20.638, 108.980 21.476 C 109.676 22.314, 109.830 23, 109.322 23 C 108.815 23, 108.400 24.125, 108.400 25.500 C 108.400 27.085, 108.967 28.006, 109.950 28.015 C 111.315 28.029, 111.321 28.144, 110 28.984 C 109.175 29.508, 106.813 29.668, 104.750 29.340 C 101.185 28.774, 101 28.879, 101 31.482 C 101 34.021, 101.253 34.189, 104.500 33.810 C 107.513 33.459, 107.989 33.687, 107.921 35.451 C 107.878 36.578, 107.638 37.005, 107.388 36.400 C 106.793 34.961, 97.048 36.800, 96.884 38.383 C 96.820 38.997, 96.836 43.212, 96.920 47.750 C 97.014 52.872, 96.679 56, 96.036 56 C 95.466 56, 95 56.927, 95 58.059 C 95 59.191, 94.550 59.840, 94 59.500 C 93.450 59.160, 93 59.359, 93 59.941 C 93 60.523, 93.450 61, 94 61 C 94.550 61, 95 63.025, 95 65.500 C 95 69.266, 94.688 70, 93.086 70 C 91.376 70, 91.223 69.416, 91.649 64.500 C 92.100 59.295, 92.001 58.997, 89.813 58.937 L 87.500 58.873 89.842 57.935 C 91.131 57.418, 92.593 57.249, 93.092 57.557 C 93.592 57.866, 94 57.674, 94 57.132 C 94 55.868, 91.370 55.365, 87.250 55.843 C 85.322 56.066, 84 56.784, 84 57.609 C 84 58.374, 83.576 59, 83.059 59 C 82.541 59, 81.689 60.913, 81.166 63.250 C 80.642 65.588, 80.166 66.563, 80.107 65.417 C 80.048 64.271, 79.683 63.016, 79.296 62.629 C 78.182 61.515, 77.822 56.933, 78.749 55.658 C 79.603 54.482, 79.647 46.940, 78.909 28 L 78.500 17.500 67.750 17.216 L 57 16.932 56.854 22.216 M 102 19.986 C 102 20.608, 102.455 20.837, 103.010 20.494 C 103.610 20.123, 103.959 21.013, 103.869 22.685 C 103.651 26.748, 103.886 28, 104.868 28 C 105.345 28, 105.661 26.090, 105.570 23.754 C 105.448 20.636, 104.953 19.422, 103.702 19.181 C 102.766 19.001, 102 19.363, 102 19.986 M 90.750 73.083 C 89.296 74.676, 89.254 75, 90.500 75 C 92.881 75, 93.399 74.616, 93.537 72.750 C 93.698 70.556, 92.979 70.642, 90.750 73.083 M 78.974 91.016 C 77.791 91.747, 77.440 95.240, 77.198 108.713 C 77.032 117.946, 76.807 126.850, 76.698 128.500 L 76.500 131.500 84.852 132 C 89.446 132.275, 93.721 132.180, 94.352 131.788 C 95.128 131.307, 95.602 125.199, 95.814 112.938 C 96.090 96.997, 95.923 94.572, 94.431 92.923 C 93.497 91.891, 92.395 91.256, 91.982 91.511 C 90.377 92.503, 81.786 92.271, 81.135 91.218 C 80.696 90.508, 79.914 90.435, 78.974 91.016 M 126.079 99.583 C 126.127 100.748, 126.364 100.985, 126.683 100.188 C 126.972 99.466, 126.936 98.603, 126.604 98.271 C 126.272 97.939, 126.036 98.529, 126.079 99.583 M 118.697 109.041 C 116.935 111.099, 116.954 111.111, 121.703 110.806 C 125.048 110.592, 126.570 110.037, 126.775 108.957 C 127.253 106.433, 120.873 106.500, 118.697 109.041 M 115.442 148.291 C 115.107 149.164, 115.307 150.693, 115.886 151.689 C 116.465 152.685, 116.953 152.970, 116.970 152.323 C 116.986 151.676, 117.607 151.001, 118.350 150.823 C 119.380 150.577, 119.268 150.050, 117.875 148.602 C 116.266 146.928, 115.979 146.891, 115.442 148.291 M 242 247.417 C 242 249.137, 243.672 249.785, 246.641 249.218 C 249.847 248.605, 248.431 246, 244.893 246 C 243.064 246, 242 246.521, 242 247.417" stroke="none" fill="black" fill-rule="evenodd"/>
</svg>