<svg xmlns="http://www.w3.org/2000/svg" width="256" height="256" viewBox="0 0 256 256" version="1.1">
	<path d="M 19 19.298 C 18.725 19.588, 18.725 24.220, 19 29.592 L 19.500 39.359 26 39.078 C 29.575 38.923, 33.625 38.730, 35 38.648 L 37.500 38.500 37.774 56.426 C 37.924 66.286, 37.649 74.751, 37.161 75.239 C 36.271 76.129, 35.191 76.184, 25 75.862 L 19.500 75.688 19.271 111.594 C 19.145 131.342, 19.257 148.856, 19.521 150.513 L 20.002 153.525 26.751 153.194 C 30.463 153.012, 34.175 152.888, 35 152.919 C 35.825 152.950, 49.775 153.012, 66 153.057 L 95.500 153.140 95.838 149.820 C 96.294 145.343, 94.997 131.884, 94.160 132.401 C 93.533 132.788, 80.033 133.354, 77.215 133.111 C 75.299 132.946, 76.598 79.069, 78.566 77.101 C 79.072 76.595, 94.012 76.671, 94.501 77.182 C 94.881 77.579, 95.915 110.137, 95.964 123.250 L 96 133 103.918 133 C 115.435 133, 115 132.573, 115 143.887 L 115 153.559 135 153.735 C 153.216 153.896, 155.009 153.759, 155.104 152.206 C 155.415 147.067, 154.950 103.811, 154.542 100 C 154.277 97.525, 153.776 83.125, 153.428 68 C 153.081 52.875, 152.626 40.220, 152.418 39.878 C 152.210 39.535, 144.120 39.202, 134.440 39.137 C 124.760 39.073, 116.446 38.776, 115.964 38.478 C 115.482 38.180, 115.306 37.365, 115.574 36.667 C 115.842 35.969, 116.175 31.976, 116.315 27.793 L 116.569 20.188 108.034 19.796 C 95.724 19.232, 96.448 18.642, 96.818 28.944 C 97.116 37.213, 96.987 37.896, 94.846 39.395 C 93.586 40.278, 91.486 41, 90.179 41 C 85.840 41, 81.455 43.779, 81.214 46.680 C 80.896 50.531, 80 50.890, 80 47.167 C 80 43.032, 79.959 42.792, 78.917 40.844 C 78.429 39.933, 77.921 35.059, 77.787 30.012 C 77.653 24.965, 77.264 20.663, 76.924 20.453 C 75.932 19.840, 19.552 18.716, 19 19.298 M 53 68 C 51.667 68.862, 51.667 68.973, 53 69 C 54.333 69.027, 54.333 69.138, 53 70 C 52.175 70.533, 48.939 70.976, 45.809 70.985 C 42.679 70.993, 39.885 71.376, 39.601 71.836 C 39.317 72.296, 38.775 77.458, 38.397 83.306 C 37.712 93.903, 37.718 93.942, 40.105 94.741 C 41.422 95.182, 45.875 95.518, 50 95.487 L 57.500 95.431 57.833 90.465 C 58.015 87.734, 57.861 81.338, 57.489 76.250 C 56.809 66.947, 56.242 65.905, 53 68 M 121.500 75.744 C 118.200 75.945, 115.089 76.518, 114.588 77.017 C 113.637 77.963, 113.612 96.563, 114.560 98.096 C 114.858 98.579, 115.081 106.379, 115.055 115.430 C 115.026 125.766, 115.394 132.125, 116.045 132.528 C 117.463 133.404, 132.571 133.383, 133.995 132.503 C 134.711 132.061, 134.915 130.426, 134.537 128.147 C 134.205 126.141, 133.542 114.150, 133.063 101.500 C 132.584 88.850, 131.876 77.713, 131.489 76.750 C 131.103 75.787, 130.047 75.085, 129.143 75.189 C 128.239 75.293, 124.800 75.543, 121.500 75.744 M 26.147 97.804 C 21.965 99.433, 21.779 99.686, 21.430 104.212 C 21.025 109.479, 21.564 110.104, 26.824 110.454 C 28.846 110.589, 31.890 111.033, 33.589 111.442 L 36.679 112.186 36.895 105.512 C 37.211 95.737, 35.185 94.284, 26.147 97.804 M 41.853 114.776 L 38.207 115.108 37.778 123.304 C 37.542 127.812, 37.522 131.838, 37.733 132.250 C 37.945 132.662, 42.366 133, 47.559 133 L 57 133 57 123.661 L 57 114.323 51.250 114.383 C 48.087 114.416, 43.859 114.593, 41.853 114.776 M 243.638 247.500 C 243.291 248.405, 243.633 249, 244.500 249 C 245.367 249, 245.709 248.405, 245.362 247.500 C 245.045 246.675, 244.657 246, 244.500 246 C 244.343 246, 243.955 246.675, 243.638 247.500" stroke="none" fill="black" fill-rule="evenodd"/>
</svg>