<svg xmlns="http://www.w3.org/2000/svg" width="256" height="256" viewBox="0 0 256 256" version="1.1">
	<path d="M 102 18.913 L 94.500 19.500 94.289 38.378 C 94.173 48.760, 93.887 57.446, 93.653 57.680 C 93.419 57.914, 89.679 58.159, 85.341 58.225 C 79.768 58.309, 76.729 57.889, 74.978 56.790 C 73.615 55.935, 69.817 54.943, 66.538 54.584 C 63.259 54.226, 60.304 53.491, 59.970 52.952 C 59.438 52.091, 59.425 50.387, 59.893 42.750 C 59.966 41.555, 60.872 40.975, 62.750 40.921 C 64.263 40.878, 65.050 40.707, 64.500 40.542 C 57.545 38.458, 52.911 37.959, 37.716 37.655 C 27.935 37.460, 19.735 37.620, 19.493 38.011 C 18.760 39.198, 18.768 113.373, 19.502 115.212 C 20.132 116.792, 20.374 116.801, 22.612 115.335 C 24.257 114.257, 26.201 113.933, 28.650 114.331 C 30.949 114.704, 33.311 114.373, 35.152 113.422 C 36.784 112.577, 42.048 111.698, 47.243 111.402 C 57.193 110.834, 58.456 110.303, 59.471 106.261 C 59.837 104.800, 60.444 104.031, 60.819 104.552 C 61.702 105.781, 65 106.046, 65 104.889 C 65 103.228, 70.613 103.991, 72.700 105.935 C 74.765 107.859, 74.779 107.854, 75.321 105.145 C 75.621 103.646, 76.185 97.374, 76.576 91.206 C 76.966 85.039, 77.783 79.352, 78.393 78.570 C 79.549 77.086, 83.153 76.609, 91.373 76.855 L 96.245 77 95.508 103.750 C 95.010 121.817, 94.402 130.752, 93.635 131.277 C 93.011 131.704, 88.225 132.001, 83 131.936 C 59.687 131.646, 56.730 131.856, 57.472 133.750 C 57.849 134.713, 58.126 138.987, 58.087 143.250 L 58.017 151 77.131 151 L 96.245 151 95.814 142 C 95.394 133.214, 95.437 133, 97.627 133 C 98.861 133, 100.970 132.582, 102.314 132.071 C 106.242 130.577, 108.524 132.977, 110.055 140.210 C 110.788 143.670, 111.387 147.513, 111.388 148.750 C 111.388 150.432, 111.970 151, 113.694 151 C 114.962 151, 116 150.510, 116 149.912 C 116 149.215, 117.348 149.039, 119.750 149.423 C 124.383 150.162, 126.839 148.942, 124.547 147.039 C 123.696 146.333, 122.986 145.023, 122.970 144.128 C 122.945 142.832, 122.708 142.908, 121.805 144.500 C 118.902 149.620, 116 149.164, 116 143.588 C 116 140.137, 116.344 139.227, 117.580 139.409 C 118.449 139.536, 119.529 140.237, 119.979 140.966 C 120.430 141.695, 121.519 142.015, 122.399 141.677 C 124.253 140.966, 124.547 138.349, 122.837 137.779 C 122.198 137.566, 121.570 136.681, 121.443 135.813 C 121.265 134.602, 122.410 134.116, 126.356 133.727 C 129.185 133.447, 131.619 133.326, 131.764 133.457 C 131.910 133.588, 132.163 137.355, 132.327 141.827 C 132.491 146.300, 132.830 150.163, 133.079 150.412 C 133.458 150.791, 147.675 151.291, 151.750 151.068 C 153.158 150.991, 153.553 135.419, 152.201 133.290 C 151.711 132.520, 147.991 131.975, 141.966 131.790 L 132.500 131.500 132.500 123 L 132.500 114.500 124 114 L 115.500 113.500 115.212 104.233 C 114.999 97.350, 115.256 94.861, 116.212 94.558 C 116.921 94.334, 120.791 93.923, 124.813 93.646 C 128.835 93.368, 132.796 92.584, 133.615 91.904 C 134.435 91.224, 137.894 90.599, 141.303 90.516 C 148.630 90.336, 151.873 88.651, 151.812 85.055 C 151.788 83.650, 151.874 82.050, 152.003 81.500 C 152.131 80.950, 152.184 70.979, 152.118 59.342 L 152 38.183 135.102 38.726 C 125.809 39.024, 117.100 38.991, 115.749 38.652 C 113.342 38.048, 113.296 37.843, 113.397 28.268 C 113.515 17.058, 114.577 17.930, 102 18.913 M 68.812 39.677 C 67.239 40.093, 67.237 40.254, 68.785 42.061 C 70.873 44.501, 72.198 44.513, 73.701 42.108 C 75.479 39.260, 73.717 38.383, 68.812 39.677 M 70.290 47.001 C 70.612 48.232, 70.414 48.756, 69.777 48.362 C 69.194 48.002, 68.943 48.330, 69.204 49.111 C 70.006 51.518, 72.316 50.619, 72.700 47.750 C 72.973 45.712, 72.641 45, 71.418 45 C 70.259 45, 69.923 45.596, 70.290 47.001 M 38.035 58.500 C 37.598 59.050, 37.381 62.200, 37.552 65.500 C 37.722 68.800, 37.964 74.650, 38.088 78.500 C 38.334 86.097, 39.781 90.968, 41.141 88.778 C 41.658 87.946, 44.283 87.500, 48.669 87.500 L 55.403 87.500 56.232 83.527 C 56.688 81.342, 56.935 74.647, 56.781 68.649 L 56.500 57.744 47.664 57.622 C 42.805 57.555, 38.472 57.950, 38.035 58.500 M 98.127 58.814 L 93.754 59.127 94.421 65.814 C 95.581 77.445, 94.900 76.493, 102.103 76.556 C 105.621 76.587, 113.225 76.751, 119 76.921 C 124.775 77.091, 130.079 77.179, 130.788 77.115 C 131.759 77.028, 132.005 74.731, 131.788 67.750 L 131.500 58.500 117 58.500 C 109.025 58.500, 100.532 58.641, 98.127 58.814 M 242 247.393 C 242 248.159, 242.563 248.993, 243.250 249.246 C 245.252 249.982, 246.935 248.994, 246.337 247.435 C 245.629 245.592, 242 245.556, 242 247.393" stroke="none" fill="black" fill-rule="evenodd"/>
</svg>