<svg xmlns="http://www.w3.org/2000/svg" width="256" height="256" viewBox="0 0 256 256" version="1.1">
	<path d="M 36.376 31.853 C 36.723 39.359, 37.288 52.309, 37.633 60.632 L 38.261 75.764 42.695 76.372 C 45.134 76.706, 54.075 77.279, 62.565 77.645 C 71.054 78.011, 78 78.717, 78 79.214 C 78 79.711, 78.450 79.840, 79 79.500 C 80.721 78.437, 80.094 79.906, 77.884 82.116 C 76.139 83.861, 75.850 85.090, 76.237 89.116 C 76.547 92.340, 76.277 94.355, 75.443 95.048 C 74.677 95.683, 66.557 96.176, 54.839 96.298 L 35.500 96.500 35.351 106.105 C 35.269 111.387, 34.720 118.137, 34.131 121.105 C 32.907 127.274, 32.179 134.482, 31.778 144.397 L 31.500 151.295 90 151.317 L 148.500 151.339 149.621 130.772 C 150.238 119.460, 151.046 108.181, 151.417 105.708 C 151.787 103.234, 151.779 99.969, 151.399 98.452 L 150.706 95.693 124.532 96.337 C 104.409 96.833, 97.985 96.695, 96.749 95.741 C 95.683 94.918, 95.012 92.477, 94.760 88.500 C 94.551 85.200, 94.033 81.744, 93.609 80.819 C 92.368 78.111, 98.720 77.012, 115.643 77.006 C 128.201 77.001, 130.885 76.743, 131.364 75.495 C 131.785 74.397, 132.324 29.026, 132.030 19.500 C 132.009 18.850, 115.168 18.449, 83.872 18.353 L 35.746 18.207 36.376 31.853 M 57.319 38.234 C 56.869 38.930, 56.477 42.425, 56.449 46 C 56.421 49.575, 56.058 53.229, 55.642 54.121 C 55.144 55.187, 55.419 55.947, 56.444 56.340 C 57.617 56.790, 96.062 57.284, 110.286 57.032 C 111.897 57.003, 112.044 56.042, 111.786 47.250 L 111.500 37.500 84.819 37.234 C 64.154 37.028, 57.953 37.253, 57.319 38.234 M 57.500 115.688 C 54.575 116.483, 54.229 117.557, 55.106 123.107 C 55.541 125.857, 55.660 128.723, 55.371 129.477 C 54.221 132.472, 58.622 132.844, 89.979 132.399 C 107.250 132.154, 121.566 131.767, 121.793 131.540 C 122.020 131.313, 123.280 131.536, 124.594 132.036 C 129.178 133.779, 130.111 132.448, 129.791 124.627 C 129.509 117.718, 129.424 117.505, 127 117.665 C 125.625 117.757, 122.925 117.838, 121 117.847 C 107.328 117.911, 103.442 118.158, 102.580 119.020 C 100.957 120.643, 97.426 120.128, 95.487 117.986 C 94.234 116.601, 93.014 116.181, 91.582 116.643 C 89.208 117.409, 89.088 117.406, 83 116.455 C 76.996 115.517, 60.010 115.006, 57.500 115.688 M 94.250 122.150 C 93.562 122.838, 93 124.210, 93 125.200 C 93 126.715, 93.870 127, 98.500 127 C 101.525 127, 104 126.622, 104 126.161 C 104 125.699, 105.463 125.413, 107.250 125.525 C 109.037 125.637, 111.175 125.452, 112 125.114 C 113.579 124.468, 114.534 122.042, 113.250 121.942 C 101.124 120.996, 95.340 121.060, 94.250 122.150 M 116.333 125.500 C 116.333 126.325, 117.144 127, 118.135 127 C 119.326 127, 119.742 126.491, 119.362 125.500 C 119.045 124.675, 118.234 124, 117.560 124 C 116.885 124, 116.333 124.675, 116.333 125.500 M 243 247.500 C 243 248.452, 243.958 249, 245.622 249 C 247.840 249, 248.053 248.768, 247 247.500 C 246.315 246.675, 245.135 246, 244.378 246 C 243.620 246, 243 246.675, 243 247.500" stroke="none" fill="black" fill-rule="evenodd"/>
</svg>