<svg xmlns="http://www.w3.org/2000/svg" width="256" height="256" viewBox="0 0 256 256" version="1.1">
	<path d="M 62.500 18.700 C 53.506 19.097, 50.114 19.834, 51.982 20.989 C 53.902 22.176, 54.257 24.703, 53.737 33.500 L 53.500 37.500 36.500 38 L 19.500 38.500 19.500 47.500 L 19.500 56.500 27.950 56.794 C 32.598 56.955, 36.926 57.524, 37.569 58.057 C 39.189 59.402, 39.292 75.980, 37.682 76.054 C 37.032 76.083, 32.675 76.196, 28 76.304 L 19.500 76.500 19.500 85 L 19.500 93.500 36.923 93.710 C 46.506 93.825, 54.991 94.166, 55.777 94.468 C 56.671 94.811, 56.953 95.670, 56.529 96.758 C 56.156 97.716, 55.600 100.525, 55.295 103 C 54.990 105.475, 54.608 108.175, 54.446 109 C 54.285 109.825, 54.119 110.742, 54.077 111.037 C 54.034 111.333, 50.787 111.643, 46.861 111.726 C 42.935 111.810, 39.379 112.243, 38.959 112.689 C 38.539 113.135, 37.916 118.225, 37.574 124 C 36.359 144.519, 36.060 148.401, 35.604 149.590 C 35.333 150.297, 36.248 150.955, 37.821 151.185 C 39.294 151.400, 61.213 151.712, 86.529 151.878 L 132.558 152.181 132.529 123.297 C 132.503 97.442, 132.684 94.133, 134.250 91.742 C 135.213 90.272, 136 87.235, 136 84.991 C 136 82.308, 136.428 80.968, 137.250 81.075 C 139.740 81.398, 141.106 80.981, 140.543 80.069 C 139.686 78.684, 141.952 77.616, 147 77.026 L 151.500 76.500 151.500 67 L 151.500 57.500 143.500 57.430 C 131.520 57.326, 132.120 56.843, 131.787 66.857 L 131.500 75.500 123.241 75.791 C 115.148 76.075, 114.961 76.029, 113.991 73.475 C 113.446 72.042, 113 68.254, 113 65.057 C 113 57.943, 114.287 56.620, 121.056 56.774 C 124.750 56.858, 126 56.522, 126 55.443 C 126 54.649, 126.852 54, 127.893 54 C 130.401 54, 130.852 52.515, 130.249 46.241 C 129.899 42.594, 129.310 41, 128.314 41 C 127.526 41, 127.121 40.613, 127.414 40.140 C 128.274 38.747, 117.103 38, 95.435 38 C 84.286 38, 74.488 37.741, 73.662 37.424 C 72.422 36.948, 72.364 36.366, 73.330 34.078 C 73.974 32.554, 74.349 28.314, 74.165 24.654 C 73.856 18.528, 73.657 18.016, 71.665 18.196 C 70.474 18.304, 66.350 18.531, 62.500 18.700 M 137.829 18.937 C 131.410 19.247, 125.902 19.758, 125.589 20.073 C 125.277 20.388, 125.934 21.625, 127.050 22.823 C 128.678 24.571, 128.774 25, 127.539 25 C 126.111 25, 125.530 26.718, 125.928 29.763 C 126.019 30.458, 125.409 31.289, 124.573 31.611 C 123.232 32.125, 123.227 32.369, 124.526 33.669 C 125.337 34.479, 126 35.847, 126 36.707 C 126 37.993, 126.826 38.159, 130.640 37.636 C 133.191 37.286, 139.041 37, 143.640 37 L 152 37 152 27.500 C 152 20.467, 151.675 18.049, 150.750 18.187 C 150.063 18.291, 144.248 18.628, 137.829 18.937 M 75.667 58.667 C 75.300 59.033, 75 62.802, 75 67.042 L 75 74.750 71.875 75.375 C 70.156 75.719, 66.615 76, 64.006 76 C 59.301 76, 59.257 76.031, 58.642 79.750 C 58.301 81.813, 58.017 85.592, 58.011 88.149 L 58 92.797 64.918 93.492 C 74.540 94.458, 75.645 93.970, 75.168 88.969 C 74.957 86.748, 75.071 83.034, 75.424 80.715 L 76.064 76.500 84.225 76.190 C 88.713 76.019, 92.749 75.655, 93.193 75.381 C 93.637 75.106, 94 71.084, 94 66.441 L 94 58 85.167 58 C 80.308 58, 76.033 58.300, 75.667 58.667 M 95.579 76.871 C 94.316 78.916, 95.185 93.909, 96.637 95.114 C 97.590 95.905, 100.296 95.981, 105.747 95.370 L 113.500 94.500 113.139 86 C 112.941 81.325, 112.716 77.427, 112.639 77.338 C 112.563 77.249, 108.847 76.859, 104.382 76.470 C 98.818 75.987, 96.048 76.113, 95.579 76.871 M 137 87.500 C 137 89.207, 138.568 89.509, 139.510 87.984 C 139.856 87.425, 140.557 87.226, 141.069 87.543 C 141.581 87.859, 142 87.641, 142 87.059 C 142 86.477, 140.875 86, 139.500 86 C 137.944 86, 137 86.567, 137 87.500 M 90.500 105 C 90.840 105.550, 90.079 106.052, 88.809 106.115 C 84.529 106.329, 84.097 106.495, 82.578 108.500 C 81.745 109.600, 81.049 110.739, 81.032 111.032 C 80.971 112.052, 89.845 112.624, 94.500 111.900 C 96.305 111.619, 96.529 109.006, 94.750 108.985 C 93.768 108.973, 93.763 108.802, 94.729 108.189 C 95.638 107.611, 95.440 106.965, 93.967 105.704 C 91.805 103.853, 89.502 103.385, 90.500 105 M 57.422 123.250 L 57.544 132.500 64.847 132.637 C 76.232 132.850, 75.813 133.211, 76.182 122.899 L 76.500 113.995 66.900 113.998 L 57.300 114 57.422 123.250 M 110.599 115.899 C 110.103 116.669, 109.653 118.244, 109.599 119.399 C 109.465 122.235, 106.421 126.378, 105.080 125.549 C 104.486 125.182, 104 125.359, 104 125.941 C 104 126.523, 102.650 127, 101 127 C 99.350 127, 98 127.413, 98 127.918 C 98 128.423, 97.727 129.548, 97.393 130.418 C 96.873 131.774, 97.862 132, 104.334 132 C 108.485 132, 112.044 131.662, 112.242 131.250 C 112.441 130.838, 112.355 126.900, 112.051 122.500 C 111.687 117.215, 111.194 114.975, 110.599 115.899 M 242.638 247.500 C 242.218 248.595, 242.762 249, 244.654 249 C 246.844 249, 247.052 248.768, 246 247.500 C 245.315 246.675, 244.408 246, 243.985 246 C 243.561 246, 242.955 246.675, 242.638 247.500" stroke="none" fill="black" fill-rule="evenodd"/>
</svg>