<svg xmlns="http://www.w3.org/2000/svg" width="256" height="256" viewBox="0 0 256 256" version="1.1">
	<path d="M 38.433 19.109 C 37.661 20.357, 38.241 75.031, 39.031 75.519 C 39.400 75.747, 60.249 76.200, 85.360 76.526 C 122.482 77.006, 131.105 76.872, 131.482 75.808 C 131.738 75.089, 132.071 61.885, 132.223 46.467 L 132.500 18.433 85.728 18.347 C 60.004 18.299, 38.721 18.642, 38.433 19.109 M 58.628 37.793 C 58.359 38.229, 58.039 42.323, 57.918 46.891 C 57.754 53.108, 58.051 55.419, 59.099 56.083 C 60.778 57.145, 109.025 57.288, 110.595 56.235 C 111.258 55.790, 111.652 52.147, 111.595 47 L 111.500 38.500 105 37.867 C 95.390 36.931, 59.197 36.873, 58.628 37.793 M 18.516 95.184 C 18.257 95.908, 18.372 108.951, 18.772 124.169 L 19.500 151.837 47.750 152.430 L 76 153.023 76 143.134 C 76 133.540, 76.893 130.589, 79.645 131.083 C 80.115 131.168, 83.088 131.184, 86.250 131.118 C 91.647 131.007, 92 130.850, 92 128.559 C 92 127.216, 91.543 125.835, 90.984 125.490 C 90.425 125.144, 90.226 124.443, 90.543 123.931 C 90.859 123.419, 90.656 123, 90.090 123 C 89.525 123, 89.322 122.325, 89.638 121.500 C 90.058 120.406, 89.517 120, 87.638 120 C 85.760 120, 85.219 120.406, 85.638 121.500 C 86.031 122.524, 85.582 123, 84.224 123 C 83.042 123, 82.010 122.146, 81.684 120.899 C 81.382 119.744, 80.695 119.071, 80.158 119.403 C 79.620 119.735, 78.442 119.723, 77.539 119.377 C 76.134 118.837, 75.922 117.078, 76.068 107.123 L 76.239 95.500 71.369 95.390 C 68.691 95.330, 55.810 94.962, 42.744 94.574 C 23.515 94.002, 18.898 94.118, 18.516 95.184 M 147.773 94.561 C 147.464 94.869, 136.054 95.329, 122.417 95.583 C 108.779 95.838, 97.495 96.171, 97.341 96.325 C 96.462 97.204, 94.973 126.580, 95.215 138.271 L 95.500 152.043 120 152.520 C 133.475 152.783, 146.601 153.260, 149.169 153.581 L 153.839 154.165 153.903 132.333 C 153.938 120.325, 154.213 109.375, 154.514 108 C 154.815 106.625, 154.778 102.912, 154.432 99.750 C 153.837 94.305, 153.659 94, 151.068 94 C 149.564 94, 148.081 94.252, 147.773 94.561 M 121.212 114.741 L 114.924 115.097 115.212 123.799 L 115.500 132.500 124.500 132.500 L 133.500 132.500 133.667 125.500 C 133.903 115.654, 133.374 113.957, 130.142 114.193 C 128.689 114.299, 124.670 114.546, 121.212 114.741 M 38.497 116.211 C 38.238 116.920, 38.133 120.602, 38.263 124.392 C 38.560 133.033, 39.193 133.498, 49.363 132.545 L 57.078 131.822 56.789 123.661 L 56.500 115.500 47.734 115.211 C 41.276 114.998, 38.843 115.261, 38.497 116.211 M 243.639 246.694 C 242.513 247.820, 242.954 249, 244.500 249 C 245.325 249, 246 248.577, 246 248.059 C 246 246.798, 244.438 245.895, 243.639 246.694" stroke="none" fill="black" fill-rule="evenodd"/>
</svg>