<svg xmlns="http://www.w3.org/2000/svg" width="256" height="256" viewBox="0 0 256 256" version="1.1">
	<path d="M 57.903 19.716 C 57.850 20.147, 57.887 24.438, 57.986 29.250 L 58.166 38 52.833 38.106 C 49.900 38.164, 46.271 38.131, 44.769 38.033 C 38.469 37.619, 38 38.305, 38 47.928 C 38 60.046, 37.111 65.980, 35.393 65.321 C 34.354 64.922, 34.290 64.326, 35.122 62.773 C 36.536 60.129, 34.741 58.885, 30.023 59.239 C 27.464 59.431, 26.214 60.160, 25.288 62 C 24.177 64.208, 24.020 64.266, 23.944 62.500 L 23.859 60.500 23 62.500 C 22.193 64.378, 21.927 64.297, 21.625 62.083 C 21.556 61.579, 21.163 60.829, 20.750 60.417 C 20.338 60.004, 20 64.579, 20 70.583 L 19.999 81.500 28.750 81.500 L 37.500 81.500 38.012 88.500 C 38.293 92.350, 38.293 99.100, 38.012 103.500 L 37.500 111.500 28.500 111.500 L 19.500 111.500 19.500 122 L 19.500 132.500 29.250 132.786 L 39 133.072 39 141.443 L 39 149.813 48.250 150.501 C 53.337 150.879, 61.550 151.258, 66.500 151.344 L 75.500 151.500 75.792 142.552 C 75.952 137.631, 76.565 133.024, 77.153 132.315 C 78.444 130.760, 93.371 131.233, 95.371 132.893 C 96.102 133.499, 97.044 133.580, 97.574 133.081 C 98.083 132.601, 104.546 131.895, 111.937 131.511 C 119.327 131.127, 126.246 130.645, 127.314 130.440 C 131.654 129.604, 132.813 131.466, 132.257 138.389 C 131.973 141.930, 132.010 145.903, 132.340 147.218 C 132.911 149.492, 133.349 149.612, 141.390 149.700 L 149.841 149.792 150.474 145.146 C 150.823 142.591, 151.083 138.925, 151.052 137 C 150.676 113.187, 150.561 74.403, 150.807 53.992 C 150.976 39.962, 150.700 27.362, 150.192 25.992 C 149.326 23.650, 148.826 23.497, 141.885 23.458 C 133.341 23.410, 130.764 24.791, 132.928 28.256 C 134.006 29.983, 133.952 30.447, 132.583 31.214 C 131.689 31.714, 131.145 32.433, 131.374 32.811 C 131.879 33.648, 129.964 35.364, 127.961 35.868 C 123.766 36.925, 107.766 38.076, 94.500 38.275 L 79.500 38.500 79.482 29 L 79.464 19.500 68.732 19.216 C 62.829 19.060, 57.956 19.285, 57.903 19.716 M 58.818 46.215 C 58.304 58.856, 57.661 58.116, 68.876 57.785 L 78.500 57.500 78.500 48 L 78.500 38.500 68.827 38.215 L 59.155 37.929 58.818 46.215 M 123.500 57.125 C 121.850 57.649, 118.286 58.086, 115.580 58.095 C 108.598 58.119, 106.638 59.381, 107.438 63.339 C 109.322 72.667, 110.998 88.829, 111.140 99.054 C 111.219 104.770, 111.682 108.303, 112.383 108.536 C 112.997 108.740, 117.367 109.132, 122.094 109.407 L 130.688 109.907 130.332 94.704 C 129.541 60.951, 129.118 55.822, 127.143 56.086 C 126.789 56.133, 125.150 56.601, 123.500 57.125 M 60 81.981 C 60 84.191, 60.257 86, 60.571 86 C 61.514 86, 64 83.216, 64 82.160 C 64 81.066, 65.846 81.147, 67.729 82.324 C 68.405 82.747, 69.868 82.606, 70.979 82.011 C 72.418 81.241, 73.576 81.238, 75 82 C 76.661 82.889, 77 82.760, 77 81.244 C 77 79.690, 76.127 79.408, 71.160 79.357 C 67.948 79.324, 64.123 78.997, 62.660 78.630 C 60.110 77.990, 60 78.129, 60 81.981 M 77.667 94.667 C 76.827 95.506, 76.816 107.710, 77.651 110.831 C 78.138 112.648, 78.741 113.019, 80.388 112.517 C 81.549 112.162, 84.525 111.626, 87 111.324 C 92.709 110.628, 94.418 108.733, 92.594 105.117 C 91.868 103.678, 91.480 101.922, 91.732 101.216 C 92.500 99.060, 90.090 97.168, 84.512 95.547 C 78.392 93.767, 78.546 93.787, 77.667 94.667 M 43 117.140 C 43 117.578, 42.320 117.676, 41.489 117.357 C 40.367 116.927, 40.152 117.233, 40.656 118.545 C 41.029 119.518, 41.372 122.606, 41.417 125.407 L 41.500 130.500 45.124 130.648 C 47.118 130.729, 49.676 131.291, 50.809 131.898 C 51.942 132.504, 53.798 133, 54.934 133 C 56.808 133, 57 132.402, 57 126.559 C 57 123.016, 56.543 119.835, 55.984 119.490 C 55.425 119.144, 55.269 118.373, 55.638 117.776 C 56.039 117.129, 55.844 116.979, 55.155 117.405 C 54.520 117.797, 54 117.618, 54 117.008 C 54 116.301, 51.998 115.978, 48.500 116.120 C 45.475 116.242, 43 116.701, 43 117.140 M 47.250 121.662 C 45.492 122.372, 45.688 125, 47.500 125 C 48.333 125, 49 124.111, 49 123 C 49 121.900, 48.888 121.036, 48.750 121.079 C 48.612 121.122, 47.938 121.385, 47.250 121.662 M 96.063 142.857 C 96.006 150.458, 96.158 151.144, 97.750 150.437 C 98.713 150.009, 101.411 149.466, 103.747 149.229 C 106.083 148.993, 107.771 148.439, 107.499 147.999 C 107.227 147.559, 105.429 147.345, 103.502 147.524 L 100 147.850 100 143.425 C 100 140.991, 99.535 139, 98.968 139 C 98.400 139, 97.529 137.988, 97.031 136.750 C 96.379 135.128, 96.109 136.833, 96.063 142.857 M 243.500 248 C 243.160 248.550, 243.359 249, 243.941 249 C 244.523 249, 245 248.550, 245 248 C 245 247.450, 244.802 247, 244.559 247 C 244.316 247, 243.840 247.450, 243.500 248" stroke="none" fill="black" fill-rule="evenodd"/>
</svg>