<svg xmlns="http://www.w3.org/2000/svg" width="256" height="256" viewBox="0 0 256 256" version="1.1">
	<path d="M 45.927 18.740 L 38.353 19.078 38.369 22.289 C 38.377 24.055, 37.994 32.925, 37.518 42 C 37.042 51.075, 36.781 75.330, 36.937 95.900 C 37.213 132.030, 37.159 133.274, 35.361 132.553 C 34.338 132.143, 32.825 131.687, 32 131.540 C 31.175 131.393, 30.640 130.502, 30.812 129.559 C 31.002 128.509, 30.324 127.636, 29.062 127.306 C 27.928 127.009, 26.986 126.257, 26.970 125.633 C 26.953 125.010, 26.489 125.272, 25.940 126.215 C 25.001 127.824, 24.820 127.826, 22.970 126.242 C 21.458 124.947, 21 123.290, 21 119.111 C 21 116.117, 20.782 113.885, 20.515 114.151 C 20.249 114.418, 19.959 122.930, 19.870 133.068 L 19.710 151.500 57.605 151.661 C 78.447 151.750, 99.550 151.975, 104.500 152.161 L 113.500 152.500 113.788 143.204 C 113.980 137.017, 114.482 133.781, 115.288 133.529 C 117.726 132.767, 130.153 132.121, 131.612 132.681 C 132.818 133.144, 133.075 135.058, 132.915 142.379 L 132.715 151.500 140.912 151.638 C 145.421 151.714, 149.369 152.036, 149.686 152.353 C 150.004 152.670, 151.048 152.510, 152.006 151.997 C 153.496 151.199, 153.732 149.640, 153.625 141.282 L 153.500 131.500 144 131 L 134.500 130.500 134.201 123.012 C 133.723 111.016, 133.482 111.317, 143.962 110.816 C 148.903 110.580, 153.202 110.131, 153.514 109.819 C 154.144 109.189, 154.177 59.671, 153.549 56.500 C 153.331 55.400, 153.119 50.788, 153.077 46.250 L 153 38 143.582 38 C 138.402 38, 133.544 37.762, 132.787 37.472 C 131.709 37.058, 131.501 34.874, 131.826 27.427 L 132.243 17.910 122.871 18.536 C 117.717 18.881, 113.037 19.299, 112.470 19.465 C 111.779 19.669, 111.714 23.500, 112.274 31.134 C 112.732 37.385, 112.942 45.875, 112.739 50 L 112.372 57.500 122.686 57.159 L 133 56.818 133 76.802 C 133 93.643, 132.764 96.877, 131.500 97.362 C 130.675 97.678, 130 97.471, 130 96.902 C 130 96.261, 127.236 95.956, 122.750 96.102 C 113.837 96.393, 114.274 97.346, 113.414 75.714 C 112.941 63.837, 112.424 59.566, 111.322 58.464 C 109.701 56.844, 107.545 56.734, 79 56.819 C 68.825 56.850, 59.733 56.654, 58.794 56.384 C 57.326 55.962, 57.118 54.614, 57.294 46.697 L 57.500 37.500 67.750 37.215 L 78 36.930 78 27.465 L 78 18 65.750 18.201 C 59.013 18.312, 50.092 18.554, 45.927 18.740 M 20 60.167 C 20 65.102, 20.494 64.943, 21.296 59.750 C 21.616 57.673, 21.456 56, 20.937 56 C 20.422 56, 20 57.875, 20 60.167 M 20 71.531 C 20 74.491, 20.577 74.659, 21.947 72.100 C 22.716 70.662, 22.603 70.062, 21.482 69.631 C 20.419 69.224, 20 69.761, 20 71.531 M 75.924 77.737 C 75.654 80.450, 76.222 92.919, 76.706 94.899 C 77.118 96.588, 76.943 97.083, 76.115 96.571 C 74.348 95.479, 58.741 95.800, 58.035 96.944 C 56.880 98.812, 57.878 113.305, 59.220 114.157 C 61.229 115.432, 72.231 115.108, 75 113.693 C 76.903 112.721, 77.521 111.590, 77.588 108.958 C 77.771 101.732, 78.616 100.621, 82.815 102.085 C 84.566 102.696, 85.740 103.612, 85.425 104.122 C 85.110 104.632, 85.146 106.388, 85.505 108.024 C 86.069 110.593, 86.611 111, 89.463 111 C 91.803 111, 92.874 110.490, 93.133 109.250 C 93.500 107.502, 93.523 94.955, 93.181 83.357 L 93 77.214 84.500 77.094 C 79.825 77.029, 75.966 77.318, 75.924 77.737 M 98 110.981 C 94.510 111.383, 93.528 111.893, 93.625 113.250 C 93.694 114.213, 93.806 119.101, 93.875 124.112 L 94 133.225 103.027 132.752 C 107.992 132.492, 112.276 132.057, 112.547 131.786 C 113.434 130.899, 114.294 115.309, 113.607 112.571 C 112.975 110.053, 112.638 109.916, 107.718 110.181 C 104.848 110.336, 100.475 110.696, 98 110.981 M 23.250 129.718 C 21.532 130.334, 21.672 132, 23.441 132 C 25.097 132, 26.408 130.351, 25.266 129.704 C 24.845 129.465, 23.938 129.472, 23.250 129.718 M 241.459 247.067 C 240.413 248.759, 242.001 249.362, 246.872 249.118 C 248.864 249.019, 249.045 248.759, 248 247.500 C 246.564 245.770, 242.430 245.496, 241.459 247.067" stroke="none" fill="black" fill-rule="evenodd"/>
</svg>