<svg xmlns="http://www.w3.org/2000/svg" width="256" height="256" viewBox="0 0 256 256" version="1.1">
	<path d="M 75.363 19.497 C 75.047 20.321, 74.951 24.590, 75.151 28.984 C 75.424 34.996, 75.182 37.100, 74.175 37.486 C 73.439 37.769, 60.723 38, 45.918 38 L 19 38 18.872 42.250 C 18.518 54.015, 19.102 56.420, 22.086 55.473 C 23.238 55.107, 26.953 55.279, 30.341 55.854 C 35.911 56.800, 56.301 57.950, 68.156 57.986 L 72.811 58 72.656 66.999 L 72.500 75.998 63 76.073 C 48.085 76.191, 38.695 76.876, 38.067 77.891 C 37.593 78.659, 37.514 85.140, 37.912 90.750 C 37.960 91.438, 38.788 92.003, 39.750 92.006 C 40.933 92.010, 40.528 92.565, 38.500 93.720 C 36.518 94.847, 32.275 95.609, 26 95.963 L 16.500 96.500 16.212 105.216 L 15.923 113.932 26.712 114.216 L 37.500 114.500 37.500 123.295 C 37.500 133.441, 36.800 132.835, 49 133.247 L 56.500 133.500 56.787 142.694 C 57.120 153.366, 56.527 152.862, 68.500 152.645 L 76.500 152.500 76.155 142.750 C 75.885 135.108, 76.101 132.982, 77.155 132.918 C 77.895 132.873, 81.875 132.835, 86 132.834 L 93.500 132.831 94 142.666 C 94.462 151.755, 94.651 152.485, 96.500 152.297 C 97.600 152.185, 110.425 152.039, 125 151.972 L 151.500 151.850 151.601 134.175 C 151.657 124.454, 152.061 111.679, 152.500 105.787 L 153.297 95.073 142.899 94.787 L 132.500 94.500 132.325 76.294 C 132.123 55.373, 131.196 57.095, 142.843 56.758 C 147.871 56.613, 150 56.172, 150 55.276 C 150 54.574, 150.450 54, 151 54 C 151.583 54, 152 50.672, 152 46.015 L 152 38.030 122.750 37.765 L 93.500 37.500 93.849 27.750 L 94.198 18 85.068 18 C 77.881 18, 75.815 18.319, 75.363 19.497 M 58.075 115.954 C 57.031 116.599, 57.414 129.747, 58.509 130.844 C 58.870 131.205, 62.390 131.500, 66.332 131.500 C 74.473 131.500, 74.169 131.968, 73.052 121.157 L 72.500 115.814 65.774 115.583 C 62.075 115.456, 58.610 115.623, 58.075 115.954 M 19.214 142.750 L 19.500 152.500 27.847 152.792 C 35.644 153.065, 39.749 152.022, 38.546 150.074 C 38.308 149.689, 38.024 145.690, 37.916 141.187 L 37.718 133 28.323 133 L 18.928 133 19.214 142.750 M 12 206.500 C 12 208.333, 12.533 209, 14 209 C 16.432 209, 16.765 205.507, 14.418 204.607 C 12.085 203.712, 12 203.778, 12 206.500 M 243.583 246.866 C 243.152 247.563, 243.070 248.403, 243.400 248.733 C 244.295 249.628, 245.271 248.312, 244.787 246.862 C 244.449 245.846, 244.213 245.846, 243.583 246.866" stroke="none" fill="black" fill-rule="evenodd"/>
</svg>