<svg xmlns="http://www.w3.org/2000/svg" width="256" height="256" viewBox="0 0 256 256" version="1.1">
	<path d="M 30.500 16.796 L 33.500 17.519 33.500 26.995 C 33.500 35.245, 33.272 36.516, 31.740 36.811 C 30.472 37.056, 29.815 36.324, 29.389 34.195 C 28.931 31.906, 28.370 31.352, 26.899 31.737 C 25.839 32.014, 24.949 33.176, 24.884 34.367 C 24.774 36.390, 24.742 36.397, 24.268 34.500 C 23.993 33.400, 23.258 32.169, 22.634 31.765 C 21.873 31.272, 21.993 31.016, 23 30.985 C 24.210 30.948, 24.171 30.747, 22.801 29.948 C 21.490 29.184, 21.173 27.840, 21.415 24.068 C 21.588 21.380, 21.408 18.660, 21.016 18.026 C 19.671 15.850, 18.925 46.531, 19.047 98.890 C 19.115 127.705, 19.372 151.806, 19.619 152.448 C 19.937 153.279, 23.164 153.485, 30.783 153.161 C 47.444 152.452, 112.440 152.701, 122.703 153.512 C 127.765 153.913, 133.023 153.960, 134.387 153.618 C 136.996 152.963, 138.540 149.962, 138.127 146.346 C 137.894 144.295, 139.330 142.646, 141.500 142.473 C 142.050 142.429, 143.808 142.013, 145.406 141.549 C 147.564 140.922, 148.593 141.087, 149.406 142.190 C 150.008 143.007, 151.175 143.938, 152 144.259 C 153.232 144.738, 153.199 144.856, 151.817 144.921 C 150.071 145.003, 148.461 148.319, 149.417 149.866 C 149.718 150.352, 151.062 150.750, 152.404 150.750 L 154.844 150.750 154.934 138.024 C 155.043 122.623, 152.176 17, 151.632 16.340 C 151.559 16.252, 146.325 16.564, 140 17.033 C 133.675 17.502, 122.650 17.714, 115.500 17.505 C 84.955 16.610, 27.744 16.133, 30.500 16.796 M 27.500 19 C 27.160 19.550, 27.610 20, 28.500 20 C 29.390 20, 29.840 19.550, 29.500 19 C 29.160 18.450, 28.710 18, 28.500 18 C 28.290 18, 27.840 18.450, 27.500 19 M 55.454 37.735 C 54.329 38.814, 52.754 39.955, 51.954 40.270 C 50.837 40.709, 50.906 40.860, 52.250 40.921 C 53.568 40.981, 54 41.863, 54 44.500 C 54 46.425, 53.550 48, 53 48 C 52.450 48, 52.112 48.563, 52.250 49.250 C 52.415 50.073, 50.923 50.602, 47.879 50.800 C 43.500 51.083, 43.282 50.976, 43.710 48.739 C 43.977 47.340, 43.517 45.844, 42.580 45.067 C 41.711 44.345, 40.955 43.023, 40.900 42.128 C 40.662 38.241, 39.378 46.022, 39.436 51 C 39.487 55.361, 39.811 56.426, 41 56.143 C 44.065 55.413, 112.699 56.615, 113.707 57.417 C 113.821 57.507, 114.046 70.653, 114.207 86.629 L 114.500 115.677 111.263 114.947 C 106.074 113.776, 58.244 113.771, 57.845 114.941 C 57.655 115.498, 57.644 119.743, 57.821 124.374 L 58.141 132.794 62.321 133.415 C 66.671 134.061, 132.189 133.136, 132.912 132.419 C 133.138 132.194, 133.238 123.795, 133.134 113.755 C 133.030 103.715, 132.844 82.450, 132.722 66.500 L 132.500 37.500 127 37.351 C 65.775 35.687, 57.543 35.732, 55.454 37.735 M 46.638 41.500 C 46.258 42.491, 46.674 43, 47.865 43 C 48.856 43, 49.667 42.325, 49.667 41.500 C 49.667 40.675, 49.115 40, 48.440 40 C 47.766 40, 46.955 40.675, 46.638 41.500 M 45.463 46.750 C 45.611 48.754, 46.515 49.367, 48.275 48.654 C 49.225 48.269, 49.219 48.140, 48.250 48.079 C 47.563 48.036, 47 47.325, 47 46.500 C 47 45.675, 46.625 45, 46.167 45 C 45.709 45, 45.392 45.788, 45.463 46.750 M 38.949 75.450 C 37.651 76.749, 37.745 94.347, 39.065 97.243 C 40.042 99.387, 40.779 99.590, 47.987 99.698 L 55.845 99.816 56.886 95.158 C 57.931 90.487, 57.840 76.506, 56.757 75.424 C 55.762 74.429, 39.945 74.452, 38.949 75.450 M 75.556 76.910 C 75.247 77.410, 75.259 78.512, 75.584 79.359 C 75.909 80.205, 76.248 83.940, 76.337 87.659 C 76.499 94.381, 76.518 94.423, 79.622 95.057 C 81.340 95.408, 85.165 95.651, 88.122 95.598 L 93.500 95.500 93.786 85.750 L 94.072 76 85.095 76 C 80.158 76, 75.865 76.409, 75.556 76.910 M 244 248 C 244 248.550, 245.012 248.993, 246.250 248.985 C 248.069 248.972, 248.213 248.784, 247 248 C 245.061 246.747, 244 246.747, 244 248" stroke="none" fill="black" fill-rule="evenodd"/>
</svg>