<svg xmlns="http://www.w3.org/2000/svg" width="256" height="256" viewBox="0 0 256 256" version="1.1">
	<path d="M 37.946 19.500 C 37.913 20.050, 37.723 22.550, 37.525 25.056 C 37.326 27.561, 37.499 35.211, 37.909 42.056 C 38.320 48.900, 38.342 55.126, 37.959 55.891 C 37.429 56.950, 35.077 57.233, 28.095 57.080 L 18.926 56.878 19.213 66.586 L 19.500 76.294 28.263 76.274 C 36.372 76.256, 37.065 76.413, 37.548 78.377 C 37.836 79.545, 37.943 87.925, 37.786 97 L 37.500 113.500 33.500 113.567 C 31.300 113.603, 27.138 113.716, 24.250 113.817 L 19 114 19 123.478 L 19 132.956 37.750 133.228 L 56.500 133.500 56.639 142.372 C 56.737 148.644, 57.177 151.497, 58.139 152.107 C 60.377 153.525, 75.982 153.215, 76.105 151.750 C 76.163 151.063, 76.126 146.805, 76.024 142.289 C 75.806 132.634, 75.704 132.711, 88.012 133.201 L 95.500 133.500 96 143.500 L 96.500 153.500 105 153.143 C 109.675 152.947, 113.837 152.583, 114.250 152.334 C 114.662 152.086, 115.001 147.746, 115.002 142.691 L 115.003 133.500 123.036 133.500 C 129.088 133.500, 131.303 133.870, 132.019 135 C 132.542 135.825, 132.976 139.736, 132.985 143.691 C 132.993 147.646, 133.440 151.154, 133.978 151.486 C 135.300 152.304, 152.255 152.579, 153.505 151.804 C 154.052 151.464, 154.500 146.982, 154.500 141.843 L 154.500 132.500 143.716 132.216 L 132.931 131.932 133.519 103.966 C 134.075 77.485, 134.010 75.996, 132.303 75.932 C 131.311 75.894, 126.839 75.921, 122.364 75.991 L 114.227 76.118 114.563 68.309 C 114.748 64.014, 114.922 60.166, 114.950 59.757 C 114.977 59.349, 116.688 59.009, 118.750 59.003 C 120.813 58.997, 124.300 58.795, 126.500 58.554 C 128.700 58.314, 135 58.086, 140.500 58.049 C 146 58.011, 151.081 57.609, 151.791 57.156 C 152.726 56.558, 153.002 53.871, 152.791 47.415 L 152.500 38.500 106 38.206 C 80.425 38.044, 58.938 37.720, 58.250 37.487 C 57.370 37.188, 57 34.311, 57 27.768 L 57 18.473 47.503 18.486 C 41.887 18.494, 37.981 18.909, 37.946 19.500 M 57.750 57.578 C 56.869 58.465, 56.762 72.510, 57.612 75.679 C 58.145 77.666, 58.944 77.887, 66.653 78.179 C 71.304 78.356, 75.428 78.179, 75.817 77.788 C 76.206 77.396, 81.208 76.946, 86.931 76.788 L 97.338 76.500 97.230 67.645 C 97.171 62.774, 96.983 58.666, 96.811 58.514 C 96.019 57.813, 58.411 56.911, 57.750 57.578 M 127 70.383 C 127 71.232, 132.085 71.671, 132.583 70.866 C 132.877 70.390, 131.741 70, 130.059 70 C 128.377 70, 127 70.173, 127 70.383 M 111 96 C 111 96.550, 111.450 97, 112 97 C 112.550 97, 113 96.550, 113 96 C 113 95.450, 112.550 95, 112 95 C 111.450 95, 111 95.450, 111 96 M 73.720 112.613 C 73.352 112.981, 69.926 113.203, 66.106 113.107 C 62.286 113.011, 58.897 113.357, 58.575 113.878 C 58.254 114.398, 57.699 118.931, 57.343 123.952 L 56.695 133.079 66.097 132.790 L 75.500 132.500 75.789 123.731 C 76.061 115.489, 75.243 111.091, 73.720 112.613 M 103.747 112.745 L 94.994 113.078 95.581 121.789 C 95.903 126.580, 96.347 131.080, 96.567 131.789 C 96.863 132.743, 99.249 133.003, 105.734 132.789 L 114.500 132.500 114.797 124.503 C 115.100 116.320, 114.530 111.840, 113.231 112.206 C 112.829 112.319, 108.561 112.561, 103.747 112.745 M 242 247.417 C 242 249.153, 243.676 249.785, 246.734 249.200 C 248.569 248.849, 248.809 248.474, 247.900 247.379 C 246.386 245.556, 242 245.583, 242 247.417" stroke="none" fill="black" fill-rule="evenodd"/>
</svg>