<svg xmlns="http://www.w3.org/2000/svg" width="256" height="256" viewBox="0 0 256 256" version="1.1">
	<path d="M 38.403 37.408 C 38.925 51.088, 38.803 56.004, 37.930 56.543 C 37.283 56.943, 32.744 57.182, 27.842 57.074 L 18.929 56.878 19.214 67.079 L 19.500 77.280 28.750 77.174 L 38 77.068 37.985 94.284 C 37.976 103.753, 37.639 111.950, 37.235 112.500 C 36.831 113.050, 32.675 113.500, 28 113.500 L 19.500 113.500 19.500 123 L 19.500 132.500 28.421 132.791 C 33.327 132.952, 38.052 132.781, 38.921 132.412 C 39.789 132.043, 42.310 131.827, 44.523 131.932 C 46.736 132.037, 49.846 131.629, 51.436 131.024 C 53.449 130.259, 54.643 130.243, 55.373 130.973 C 55.949 131.549, 56.540 136.375, 56.686 141.698 C 56.990 152.751, 55.904 151.797, 68.467 152.046 C 77.892 152.234, 80.661 151.519, 78.579 149.436 C 77.180 148.037, 75.431 125.352, 76.155 118 L 76.500 114.500 94.916 114.251 C 105.044 114.114, 113.491 113.843, 113.685 113.648 C 113.880 113.454, 114.143 109.516, 114.269 104.897 L 114.500 96.500 124.250 96.214 L 134 95.928 134 104.347 C 134 112.233, 134.143 112.805, 136.250 113.370 C 140.421 114.488, 151.711 114.061, 152.659 112.750 C 153.156 112.063, 153.399 108.237, 153.199 104.250 L 152.836 97 143.918 97 C 139.013 97, 135 96.654, 135 96.231 C 135 95.807, 138.262 95.616, 142.250 95.806 C 154.144 96.372, 153.531 97.987, 153.329 66.613 C 153.235 52.012, 152.893 39.635, 152.568 39.110 C 152.212 38.534, 145.169 38.331, 134.843 38.598 C 125.420 38.843, 116.954 38.803, 116.030 38.509 C 114.585 38.051, 114.388 36.645, 114.624 28.488 L 114.898 19 105.949 19 L 97 19 97 28.500 C 97 35.398, 96.658 38.018, 95.750 38.065 C 95.063 38.101, 90 38.259, 84.500 38.415 C 79 38.571, 71.293 39.014, 67.372 39.400 C 57.871 40.335, 57.197 39.647, 57.481 29.312 C 57.600 25.015, 57.492 20.938, 57.241 20.250 C 56.921 19.369, 53.968 19, 47.244 19 L 37.702 19 38.403 37.408 M 130.656 58.866 C 129.641 59.266, 126.041 59.464, 122.656 59.306 C 113.973 58.903, 111.679 59.532, 112.978 61.959 C 114.334 64.492, 114.305 74, 112.941 74 C 112.359 74, 112.160 74.450, 112.500 75 C 113.085 75.946, 133 76.495, 133 75.565 C 133 75.326, 132.567 73.992, 132.038 72.601 C 131.503 71.193, 131.461 69.833, 131.944 69.534 C 132.422 69.239, 132.577 68.098, 132.289 66.999 C 131.895 65.489, 130.925 65, 128.324 65 C 126.431 65, 125.123 64.611, 125.417 64.135 C 125.711 63.659, 127.058 63.391, 128.411 63.540 C 130.341 63.752, 131.089 63.184, 131.883 60.905 C 132.440 59.307, 132.807 58.032, 132.698 58.070 C 132.589 58.109, 131.670 58.467, 130.656 58.866 M 78 66.168 C 78 69.836, 77.714 73.581, 77.365 74.490 C 76.800 75.965, 77.692 76.111, 85.615 75.844 C 90.502 75.679, 95.131 75.941, 95.902 76.425 C 97.069 77.158, 97.165 76.566, 96.475 72.903 C 95.548 67.984, 95.378 63.223, 96.053 61.078 C 96.416 59.923, 94.765 59.642, 87.250 59.578 L 78.001 59.500 78 66.168 M 120.271 65.750 C 120.430 68.069, 124 69.106, 124 66.833 C 124 66.192, 123.707 65.960, 123.349 66.318 C 122.991 66.676, 122.117 66.188, 121.407 65.234 C 120.225 63.646, 120.129 63.690, 120.271 65.750 M 104.269 74.693 C 105.242 74.947, 106.592 74.930, 107.269 74.656 C 107.946 74.382, 107.150 74.175, 105.500 74.195 C 103.850 74.215, 103.296 74.439, 104.269 74.693 M 66.250 76.790 L 58 77.081 58 85.521 C 58 95.337, 57.982 95.322, 69.031 94.803 L 75.500 94.500 75.793 86.093 C 75.954 81.469, 75.729 77.419, 75.293 77.093 C 74.857 76.767, 70.787 76.631, 66.250 76.790 M 122.250 114.744 L 114 115.081 114 124.101 L 114 133.120 104.972 132.922 C 100.006 132.813, 95.665 133.001, 95.326 133.341 C 94.987 133.680, 94.790 136.893, 94.888 140.481 C 94.987 144.069, 94.612 147.857, 94.055 148.897 C 93.333 150.247, 93.395 151.070, 94.271 151.765 C 95.611 152.828, 112.620 152.714, 113.699 151.635 C 114.064 151.269, 114.251 148.554, 114.114 145.601 C 113.978 142.648, 114.177 138.573, 114.558 136.544 L 115.250 132.855 123.375 133.178 L 131.500 133.500 131.785 143.149 L 132.070 152.799 139.285 152.649 C 143.253 152.567, 147.629 152.819, 149.008 153.208 C 153.325 154.427, 153.997 153.098, 154.312 142.717 L 154.604 133.064 144.052 132.782 L 133.500 132.500 133.699 129.500 C 134.103 123.407, 132.855 113.998, 131.670 114.204 C 131.027 114.315, 126.787 114.559, 122.250 114.744" stroke="none" fill="black" fill-rule="evenodd"/>
</svg>