<svg xmlns="http://www.w3.org/2000/svg" width="256" height="256" viewBox="0 0 256 256" version="1.1">
	<path d="M 75 19 C 59.222 19.426, 56.554 19.721, 56.868 21 C 57.071 21.825, 57.177 24.591, 57.104 27.146 C 57.030 29.702, 57.394 32.905, 57.911 34.265 C 58.845 36.723, 58.808 36.742, 51.579 37.397 C 47.580 37.759, 43.647 37.802, 42.839 37.492 C 42.031 37.182, 40.336 37.310, 39.073 37.777 C 36.928 38.571, 36.768 39.216, 36.638 47.563 L 36.500 56.500 28 56.563 L 19.500 56.625 19.214 65.666 L 18.929 74.707 27.119 75.390 C 31.623 75.765, 35.689 76.308, 36.154 76.595 C 37.585 77.480, 37.201 95.989, 35.750 96.066 C 35.063 96.102, 30.604 96.076, 25.843 96.008 L 17.186 95.884 18.172 100.192 C 18.714 102.561, 18.886 106.604, 18.554 109.176 C 18.222 111.747, 18.304 114.070, 18.735 114.336 C 19.166 114.602, 30.539 115.141, 44.009 115.533 C 65.817 116.168, 71.620 116.425, 74.250 116.872 C 74.662 116.943, 75 120.825, 75 125.500 L 75 134 47.500 134 L 20 134 20 144.019 L 20 154.038 22.404 153.435 C 23.726 153.103, 36.889 152.703, 51.654 152.545 C 66.419 152.388, 81.875 152.145, 86 152.005 C 94.162 151.727, 110.854 151.651, 120.710 151.846 C 126.781 151.967, 126.954 151.897, 128.417 148.735 C 129.240 146.956, 130.082 143.700, 130.288 141.500 C 130.548 138.737, 130.721 139.510, 130.847 144 C 130.948 147.575, 131.378 151.046, 131.802 151.713 C 132.291 152.483, 135.119 152.909, 139.536 152.878 C 143.366 152.851, 147.625 152.980, 149 153.164 L 151.500 153.500 151.500 143.590 L 151.500 133.681 142.267 133.832 C 131.783 134.003, 131.706 133.934, 132.409 125 C 132.603 122.525, 133.070 115.775, 133.445 110 C 134.473 94.177, 133.648 95.472, 142.580 95.671 C 146.798 95.765, 150.883 95.598, 151.658 95.301 C 152.769 94.875, 153.007 92.616, 152.784 84.630 L 152.500 74.500 148.201 74.774 C 143.905 75.047, 137.905 72.948, 135.069 70.179 C 133.652 68.795, 133.378 60.355, 134.240 44.673 C 134.416 41.469, 134.210 38.629, 133.780 38.364 C 133.351 38.099, 133 33.521, 133 28.191 L 133 18.500 113.250 18.500 C 102.388 18.500, 85.175 18.725, 75 19 M 106.813 36.683 C 107.534 36.972, 108.397 36.936, 108.729 36.604 C 109.061 36.272, 108.471 36.036, 107.417 36.079 C 106.252 36.127, 106.015 36.364, 106.813 36.683 M 54.843 57.490 C 54.649 57.684, 50.780 57.991, 46.246 58.171 L 38.002 58.500 38.001 66.750 L 38 75 42.750 75.164 C 45.362 75.254, 49.638 75.213, 52.250 75.072 L 57 74.816 57.200 81.158 C 57.405 87.668, 57.646 92.546, 57.872 94.750 C 57.964 95.648, 60.535 96, 67 96 L 76 96 76 86.582 C 76 81.402, 75.771 76.564, 75.492 75.832 C 75.107 74.825, 72.790 74.578, 65.992 74.821 C 57.106 75.138, 56.385 74.895, 56.882 71.750 C 56.947 71.338, 56.213 70.964, 55.250 70.921 C 54.288 70.878, 53.962 70.649, 54.526 70.413 C 55.090 70.176, 55.380 68.187, 55.171 65.991 C 54.959 63.772, 55.229 62, 55.778 62 C 57.319 62, 57.938 58.190, 56.487 57.633 C 55.777 57.361, 55.037 57.296, 54.843 57.490 M 103.372 57.740 L 96.243 58.083 96.526 62.291 C 96.682 64.606, 96.852 66.807, 96.905 67.183 C 96.957 67.559, 98.393 67.827, 100.095 67.778 C 101.798 67.730, 103.512 68.210, 103.904 68.845 C 104.427 69.690, 105.139 69.606, 106.559 68.532 C 108.953 66.721, 111.944 66.571, 112.163 68.250 C 112.253 68.938, 112.590 67.025, 112.913 64 C 113.432 59.133, 112.714 56.585, 111 57.214 C 110.725 57.315, 107.292 57.552, 103.372 57.740 M 95.816 76.213 C 95.582 76.921, 95.573 81.679, 95.796 86.787 L 96.202 96.075 104.851 95.787 L 113.500 95.500 114 86.671 C 114.275 81.814, 114.172 77.260, 113.772 76.549 C 112.742 74.721, 96.412 74.415, 95.816 76.213 M 139.426 103.063 C 138.971 104.403, 138.520 105.838, 138.424 106.250 C 138.328 106.662, 138.142 107.338, 138.010 107.750 C 137.096 110.605, 140.164 116.162, 141.480 114.033 C 141.821 113.480, 143.970 113.308, 146.392 113.640 C 149.862 114.116, 150.823 113.903, 151.345 112.543 C 152.113 110.541, 150.441 107.006, 148.715 106.985 C 147.952 106.975, 148.058 106.609, 149 106 C 150.090 105.296, 150.142 105.026, 149.191 105.015 C 148.471 105.007, 148.129 104.601, 148.430 104.113 C 148.731 103.626, 148.308 102.671, 147.489 101.991 C 145.994 100.751, 145.579 101.640, 145.731 105.750 C 145.757 106.438, 144.815 106.964, 143.639 106.921 C 142.463 106.878, 142.063 106.615, 142.750 106.338 C 143.438 106.060, 143.964 104.858, 143.921 103.667 C 143.878 102.475, 143.607 102.086, 143.320 102.803 C 142.927 103.785, 142.485 103.677, 141.526 102.366 C 140.352 100.761, 140.189 100.815, 139.426 103.063 M 95.445 115.089 C 94.796 116.139, 95.051 128.795, 95.760 130.750 C 96.074 131.615, 98.801 132, 104.607 132 L 113 132 113 124 L 113 116 107.743 116 C 104.852 116, 101.033 115.583, 99.257 115.074 C 97.252 114.499, 95.806 114.504, 95.445 115.089 M 243 247.427 C 243 248.354, 243.855 249, 245.083 249 C 247.520 249, 247.176 246.663, 244.667 246.177 C 243.680 245.985, 243 246.495, 243 247.427" stroke="none" fill="black" fill-rule="evenodd"/>
</svg>