<svg xmlns="http://www.w3.org/2000/svg" width="256" height="256" viewBox="0 0 256 256" version="1.1">
	<path d="M 150.500 17.156 C 148.588 17.783, 124.195 17.943, 83.250 17.598 L 19 17.057 18.837 36.278 C 18.747 46.850, 18.686 57.975, 18.702 61 C 18.717 64.025, 18.790 86.163, 18.865 110.195 L 19 153.890 63.750 153.805 C 88.363 153.759, 114.223 153.819, 121.217 153.940 C 128.211 154.060, 134.428 153.854, 135.032 153.480 C 135.753 153.034, 135.977 149.727, 135.684 143.839 C 135.306 136.264, 135.463 134.964, 136.700 135.438 C 137.505 135.747, 138.603 136, 139.141 136 C 139.678 136, 139.840 136.450, 139.500 137 C 139.160 137.550, 139.610 138, 140.500 138 C 141.390 138, 141.871 137.600, 141.569 137.112 C 140.955 136.118, 146.804 135, 148.750 135.739 C 149.438 136, 150 136.841, 150 137.607 C 150 138.373, 150.868 139, 151.930 139 C 153.768 139, 153.875 137.962, 154.175 117.250 C 154.594 88.263, 154.170 15.493, 153.585 16.086 C 153.538 16.133, 152.150 16.615, 150.500 17.156 M 46.750 37.789 L 38 38.078 38 47.039 C 38 51.968, 38.337 56.020, 38.750 56.045 C 39.163 56.070, 59.525 56.285, 84 56.524 C 108.475 56.763, 129.400 57.080, 130.500 57.229 C 132.371 57.482, 132.512 56.870, 132.691 47.750 L 132.881 38 122.691 37.796 C 103.556 37.413, 87.517 37.950, 87.171 38.986 C 86.722 40.333, 78.265 40.296, 77.815 38.946 C 77.446 37.837, 62.340 37.274, 46.750 37.789 M 78.651 42.468 C 78.341 43.275, 78.518 44.202, 79.044 44.527 C 79.570 44.852, 80 44.191, 80 43.059 C 80 40.644, 79.444 40.401, 78.651 42.468 M 87.819 44.349 C 87.126 45.091, 85.758 45.488, 84.780 45.232 C 83.596 44.923, 83 45.328, 83 46.442 C 83 47.364, 82.550 47.840, 82 47.500 C 81.450 47.160, 81 47.842, 81 49.016 C 81 50.823, 81.499 51.102, 84.250 50.833 C 86.037 50.658, 87.806 49.836, 88.180 49.007 C 88.739 47.768, 88.872 47.811, 88.930 49.250 C 88.979 50.476, 89.824 51, 91.750 50.999 C 94.278 50.998, 94.506 50.675, 94.580 46.999 C 94.655 43.270, 94.473 43, 91.870 43 C 90.335 43, 88.512 43.607, 87.819 44.349 M 78 50 C 78 50.550, 78.450 51, 79 51 C 79.550 51, 80 50.550, 80 50 C 80 49.450, 79.550 49, 79 49 C 78.450 49, 78 49.450, 78 50 M 38.698 75.636 C 38.314 76.019, 38.007 84.471, 38.015 94.417 C 38.026 107.613, 38.420 113.581, 39.471 116.500 C 40.406 119.096, 40.928 119.749, 40.956 118.361 C 40.997 116.370, 41.485 116.231, 47.952 116.361 C 57.823 116.559, 57.725 116.778, 57.863 94.310 L 57.976 76 50.070 76 C 45.721 76, 41.541 75.761, 40.780 75.469 C 40.018 75.177, 39.082 75.252, 38.698 75.636 M 114.816 77.098 C 113.542 77.429, 110.178 77.483, 107.339 77.219 C 104.500 76.955, 101.116 77.005, 99.818 77.331 C 97.547 77.901, 97.472 78.218, 97.838 85.712 C 98.047 89.995, 98.380 93.674, 98.579 93.887 C 98.777 94.099, 102.769 94.189, 107.450 94.086 L 115.960 93.898 115.759 104.199 L 115.559 114.500 124.354 114.638 C 130.737 114.737, 133.285 114.420, 133.646 113.479 C 133.920 112.766, 133.774 104.155, 133.322 94.342 L 132.500 76.500 124.816 76.498 C 120.590 76.497, 116.090 76.767, 114.816 77.098 M 109.500 86 C 109.160 86.550, 109.610 87, 110.500 87 C 111.390 87, 111.840 86.550, 111.500 86 C 111.160 85.450, 110.710 85, 110.500 85 C 110.290 85, 109.840 85.450, 109.500 86 M 76.022 96.476 C 74.900 97.671, 74.323 98.989, 74.739 99.406 C 75.156 99.823, 74.624 100.802, 73.557 101.582 C 72.176 102.592, 72.033 103.004, 73.059 103.015 C 74.274 103.028, 74.265 103.182, 73 104 C 72 104.646, 71.917 104.974, 72.750 104.985 C 73.438 104.993, 74 105.865, 74 106.922 C 74 109.085, 69.874 110.798, 63.750 111.177 C 61.688 111.304, 60 111.714, 60 112.088 C 60 113.432, 91.915 115.517, 93.683 114.288 C 95.090 113.309, 95.755 95.712, 94.397 95.377 C 93.904 95.255, 90.027 94.964, 85.781 94.730 C 78.848 94.348, 77.855 94.525, 76.022 96.476 M 95.211 123.750 L 95.500 132.500 104.667 132.786 L 113.833 133.073 114.531 126.559 C 114.914 122.976, 114.943 118.910, 114.595 117.523 C 113.974 115.047, 113.785 115, 104.442 115 L 94.922 115 95.211 123.750 M 40.079 126.583 C 40.127 127.748, 40.364 127.985, 40.683 127.188 C 40.972 126.466, 40.936 125.603, 40.604 125.271 C 40.272 124.939, 40.036 125.529, 40.079 126.583 M 39.638 130.500 C 39.322 131.325, 39.499 132, 40.031 132 C 40.564 132, 41 131.325, 41 130.500 C 41 129.675, 40.823 129, 40.607 129 C 40.391 129, 39.955 129.675, 39.638 130.500 M 150 148 C 150 149.100, 149.475 150, 148.833 150 C 146.727 150, 148.876 151.261, 151.467 151.546 C 153.616 151.782, 153.998 151.420, 153.985 149.162 C 153.973 147.076, 153.760 146.825, 153 148 C 152.172 149.282, 152.028 149.246, 152.015 147.750 C 152.007 146.787, 151.550 146, 151 146 C 150.450 146, 150 146.900, 150 148 M 243.446 247.087 C 242.534 248.563, 243.474 249.217, 245.953 248.831 C 248.054 248.504, 248.055 248.486, 246.086 247.270 C 244.731 246.435, 243.886 246.376, 243.446 247.087" stroke="none" fill="black" fill-rule="evenodd"/>
</svg>