<svg xmlns="http://www.w3.org/2000/svg" width="256" height="256" viewBox="0 0 256 256" version="1.1">
	<path d="M 38.505 37.147 C 39.337 58.755, 40.461 56.812, 27.250 56.609 L 19 56.483 19 65.160 C 19 69.932, 19.229 74.436, 19.510 75.168 C 19.901 76.190, 22.019 76.384, 28.606 76 C 33.329 75.725, 37.361 75.771, 37.565 76.103 C 38.230 77.182, 38.406 111.928, 37.750 112.584 C 37.399 112.934, 33.150 113.284, 28.306 113.360 L 19.500 113.500 19.245 122.500 C 19.105 127.450, 19.373 132.088, 19.839 132.807 C 20.529 133.868, 23.676 133.908, 36.594 133.023 C 45.342 132.423, 53.400 131.835, 54.500 131.716 C 56.378 131.513, 56.500 132.095, 56.500 141.251 L 56.500 151.003 66.598 151.001 L 76.696 151 76.214 141 L 75.733 131 84.831 131 C 95.818 131, 95.882 131.070, 95.761 143.041 L 95.675 151.500 105.338 151.596 L 115 151.691 115 141.846 C 115 136.431, 115.338 132.053, 115.750 132.118 C 116.162 132.184, 120.162 132.184, 124.639 132.118 L 132.777 132 133.420 128.575 C 133.773 126.691, 134.062 118.591, 134.063 110.575 C 134.063 102.559, 134.322 95.326, 134.638 94.500 C 134.998 93.562, 136.525 93, 138.714 93 C 141.344 93, 142.077 92.643, 141.663 91.565 C 141.360 90.775, 141.650 89.933, 142.306 89.693 C 143.181 89.374, 143.214 88.771, 142.429 87.438 C 140.938 84.908, 139.506 84.637, 137.616 86.527 C 136.128 88.015, 136 87.826, 136 84.137 C 136 81.933, 135.606 79.088, 135.124 77.815 C 134.642 76.542, 134.079 71.225, 133.874 66 L 133.500 56.500 143.500 56 L 153.500 55.500 153.598 48.500 C 153.767 36.446, 158.616 37.685, 109.911 37.344 C 86.585 37.181, 65.362 37.037, 62.750 37.024 L 58 37 58 28.559 C 58 23.810, 57.546 19.838, 56.963 19.477 C 56.393 19.125, 51.845 18.761, 46.857 18.668 L 37.787 18.500 38.505 37.147 M 120.269 20.693 C 121.242 20.947, 122.592 20.930, 123.269 20.656 C 123.946 20.382, 123.150 20.175, 121.500 20.195 C 119.850 20.215, 119.296 20.439, 120.269 20.693 M 119 28.559 C 119 30.677, 118.595 31.868, 118 31.500 C 117.450 31.160, 117 31.332, 117 31.882 C 117 32.432, 117.372 33.112, 117.826 33.393 C 119.112 34.187, 123.046 32.883, 122.420 31.870 C 122.113 31.374, 121.443 31.226, 120.931 31.543 C 120.419 31.859, 120 31.641, 120 31.059 C 120 30.477, 120.450 30, 121 30 C 121.550 30, 122 29.325, 122 28.500 C 122 27.675, 122.563 26.993, 123.250 26.985 C 124.083 26.974, 124 26.646, 123 26 C 120.157 24.163, 119 24.903, 119 28.559 M 77.518 56.815 C 77.233 57.100, 77 61.543, 77 66.689 L 77 76.044 95.750 75.772 L 114.500 75.500 114.500 66.500 L 114.500 57.500 101 57.264 C 93.575 57.134, 85.371 56.863, 82.768 56.662 C 80.166 56.461, 77.803 56.530, 77.518 56.815 M 149.291 88.260 C 148.128 90.813, 149.385 92.667, 152.279 92.667 C 153.563 92.667, 154 91.820, 154 89.333 C 154 86.764, 153.579 86, 152.161 86 C 151.149 86, 149.858 87.017, 149.291 88.260 M 77.981 94.833 C 76.471 95.347, 76.725 111.973, 78.250 112.469 C 78.938 112.692, 82.736 113.029, 86.690 113.217 C 95.312 113.627, 95.714 113.137, 95.473 102.500 L 95.314 95.500 87.138 95 C 82.640 94.725, 78.520 94.650, 77.981 94.833 M 96.250 112.670 C 95.374 113.018, 95 115.981, 95 122.583 L 95 132 104.481 132 C 115.573 132, 115.291 132.329, 114.799 119.988 L 114.500 112.500 106 112.337 C 101.325 112.247, 96.938 112.397, 96.250 112.670 M 133.408 132.500 C 132.841 134.207, 132.471 151.002, 133 151.046 C 133.275 151.068, 138.113 151.269, 143.750 151.491 L 154 151.895 154 142.014 L 154 132.133 143.870 131.816 C 137.718 131.624, 133.610 131.893, 133.408 132.500 M 242.667 246.667 C 241.208 248.125, 242.155 249, 245.191 249 C 248.212 249, 248.279 248.922, 246.441 247.532 C 244.238 245.865, 243.611 245.722, 242.667 246.667" stroke="none" fill="black" fill-rule="evenodd"/>
</svg>