<svg xmlns="http://www.w3.org/2000/svg" width="256" height="256" viewBox="0 0 256 256" version="1.1">
	<path d="M 93.871 12.888 C 93.364 14.407, 80.468 15.200, 77.850 13.873 C 75.280 12.570, 75 14.602, 75 34.582 C 75 48.585, 74.700 53.029, 73.750 53.121 C 73.063 53.187, 64.850 53.154, 55.500 53.046 C 40.067 52.868, 26.701 53.966, 25.126 55.541 C 24.791 55.876, 25.338 56.610, 26.342 57.172 C 27.672 57.916, 27.998 58.872, 27.542 60.690 C 27.197 62.063, 26.673 64.917, 26.377 67.033 C 25.850 70.800, 25.918 70.899, 29.670 71.840 C 31.776 72.368, 41.375 73.096, 51 73.459 C 60.625 73.821, 69.625 74.204, 71 74.309 L 73.500 74.500 74.315 96.319 C 74.929 112.724, 74.836 118.493, 73.943 119.569 C 72.441 121.379, 56.501 121.620, 55.407 119.849 C 54.569 118.494, 16.264 119.336, 14.859 120.741 C 13.602 121.998, 13.658 125.730, 15.044 132.943 C 16.469 140.364, 18.790 143.397, 23.309 143.748 C 29.883 144.258, 34.616 144.819, 38.395 145.537 C 40.726 145.980, 42.059 145.905, 41.717 145.351 C 41.402 144.841, 42.261 144.332, 43.627 144.219 C 45.275 144.082, 45.871 144.399, 45.400 145.161 C 44.912 145.952, 45.128 146.027, 46.095 145.405 C 46.868 144.907, 53.350 144.399, 60.500 144.275 C 67.650 144.152, 78 143.698, 83.500 143.268 C 92.787 142.541, 101.103 143.564, 99.438 145.229 C 98.385 146.282, 104.328 146.779, 116.286 146.638 C 123.688 146.551, 128.337 146.087, 128.786 145.389 C 130.031 143.452, 144.812 141.726, 148.583 143.078 C 152.414 144.450, 152.825 143.082, 152.659 129.497 L 152.500 116.500 143.500 116.546 C 138.550 116.571, 131.125 117.137, 127 117.803 C 113.772 119.937, 96.662 120.964, 95.155 119.714 C 94.103 118.841, 93.931 116.244, 94.381 108.045 C 94.699 102.245, 95.081 92.446, 95.230 86.268 L 95.500 75.036 115.216 74.669 C 128.101 74.429, 135.412 73.903, 136.319 73.151 C 137.323 72.317, 137.652 69.791, 137.512 63.992 C 137.405 59.588, 137.024 55.691, 136.665 55.332 C 136.306 54.973, 126.897 54.638, 115.756 54.589 L 95.500 54.500 95.831 35.500 C 96.120 18.900, 95.242 8.773, 93.871 12.888 M 20.015 56.250 C 20.024 56.938, 20.425 58.123, 20.908 58.885 C 21.611 59.996, 22.004 59.861, 22.893 58.201 C 24.409 55.368, 24.306 55, 22 55 C 20.900 55, 20.007 55.563, 20.015 56.250 M 243 248 C 243 248.550, 243.450 249, 244 249 C 244.550 249, 245 248.550, 245 248 C 245 247.450, 244.550 247, 244 247 C 243.450 247, 243 247.450, 243 248" stroke="none" fill="black" fill-rule="evenodd"/>
</svg>