<svg xmlns="http://www.w3.org/2000/svg" width="256" height="256" viewBox="0 0 256 256" version="1.1">
	<path d="M 76.500 26.909 C 76.500 35.445, 77.702 37.198, 81.869 34.736 C 83.437 33.810, 84.974 33.307, 85.284 33.618 C 86.466 34.799, 90 32.787, 90 30.933 C 90 29.870, 89.561 29, 89.025 29 C 88.401 29, 88.415 28.039, 89.064 26.333 C 89.782 24.444, 89.749 23.463, 88.953 22.971 C 88.335 22.589, 87.980 21.877, 88.165 21.388 C 88.349 20.900, 85.800 20.370, 82.500 20.210 L 76.500 19.920 76.500 26.909 M 84.813 28.683 C 85.534 28.972, 86.397 28.936, 86.729 28.604 C 87.061 28.272, 86.471 28.036, 85.417 28.079 C 84.252 28.127, 84.015 28.364, 84.813 28.683 M 78 38.192 C 78 38.815, 67.337 39.106, 48.750 38.990 C 32.663 38.888, 19.032 38.849, 18.459 38.903 C 17.814 38.963, 17.434 42.640, 17.459 48.570 C 17.492 56.230, 17.816 58.318, 19.082 59.026 C 20.634 59.894, 23.960 59.819, 44.866 58.441 C 53.123 57.897, 55.409 58.037, 56.101 59.129 C 56.579 59.883, 56.976 63.726, 56.985 67.668 C 56.993 71.611, 57.233 75.436, 57.517 76.168 C 58.115 77.706, 73.573 78.098, 75.843 76.633 C 76.836 75.993, 77.097 73.646, 76.843 67.633 L 76.500 59.500 82.500 59.656 C 95.502 59.994, 94.073 59.168, 93.901 66.250 C 93.817 69.688, 94.089 76.603, 94.506 81.619 C 95.212 90.131, 95.121 90.879, 93.131 92.869 C 91.369 94.631, 89.808 95, 84.122 95 C 79.833 95, 76.860 95.470, 76.221 96.250 C 75.658 96.938, 75.169 100.103, 75.136 103.285 C 75.102 106.467, 74.842 109.447, 74.557 109.908 C 73.890 110.988, 79.922 111.975, 87.275 111.989 C 92.549 111.999, 93.134 112.222, 94.025 114.565 C 95.165 117.565, 95.351 131.970, 94.250 132.064 C 93.838 132.099, 85.300 132.339, 75.278 132.598 L 57.055 133.069 56.418 130.528 C 55.906 128.491, 56.485 91.646, 57.080 88.365 C 57.166 87.889, 57.183 85.475, 57.118 83 L 56.998 78.500 47.249 78.500 L 37.500 78.500 37.210 86.750 C 37.014 92.293, 36.522 95.038, 35.710 95.117 C 35.044 95.181, 30.907 95.294, 26.515 95.367 L 18.530 95.500 18.515 105 L 18.500 114.500 27.250 114.789 L 36 115.078 36.085 117.789 C 36.131 119.280, 36.176 127.362, 36.184 135.750 L 36.199 151 56.350 151.196 C 73.212 151.360, 102.346 151.311, 143.246 151.050 L 150.992 151 150.728 142.750 C 150.583 138.213, 150.108 133.938, 149.673 133.250 C 149.090 132.329, 144.330 132, 131.563 132 C 118.915 132, 113.972 131.663, 113.232 130.750 C 112.441 129.774, 112.295 120.827, 112.936 112.690 C 112.971 112.244, 117.162 111.972, 122.250 112.085 L 131.500 112.291 131.794 103.396 C 131.956 98.503, 131.856 93.600, 131.572 92.500 C 130.827 89.611, 126.492 88, 119.461 88 C 113.754 88, 113.227 87.806, 111.983 85.250 C 111.132 83.500, 110.612 78.440, 110.553 71.329 L 110.460 60.158 113.355 59.579 C 114.947 59.261, 124.069 59, 133.625 59 L 151 59 151 48.750 L 151 38.500 118.250 38.713 C 100.238 38.830, 83.813 38.539, 81.750 38.068 C 79.382 37.527, 78 37.572, 78 38.192 M 99.241 75.222 C 99.465 75.894, 100.706 76.444, 102 76.444 C 103.294 76.444, 104.535 75.894, 104.759 75.222 C 105.023 74.431, 104.051 74, 102 74 C 99.949 74, 98.977 74.431, 99.241 75.222" stroke="none" fill="black" fill-rule="evenodd"/>
</svg>