<svg xmlns="http://www.w3.org/2000/svg" width="256" height="256" viewBox="0 0 256 256" version="1.1">
	<path d="M 34.493 16.651 C 33.947 16.823, 30.350 17.085, 26.500 17.232 L 19.500 17.500 19.238 83 C 19.094 119.025, 19.186 149.400, 19.444 150.500 C 19.903 152.458, 20.735 152.500, 59.206 152.500 C 80.818 152.500, 102.325 152.725, 107 153 L 115.500 153.500 115.739 145.500 C 115.870 141.101, 116.158 137.031, 116.378 136.456 C 116.619 135.830, 120.130 135.464, 125.140 135.543 L 133.500 135.674 133.788 144.837 L 134.075 154 143.839 154 L 153.604 154 153.337 118.250 C 153.190 98.588, 152.563 69.900, 151.945 54.500 C 151.326 39.100, 151.062 24.690, 151.359 22.478 C 151.656 20.265, 151.584 17.996, 151.200 17.435 C 150.748 16.777, 147.127 16.665, 141 17.120 C 135.775 17.507, 119.125 17.621, 104 17.371 C 51.442 16.505, 35.480 16.340, 34.493 16.651 M 47.750 36.682 L 38 37.072 38 45.977 C 38 50.875, 38.337 55.087, 38.750 55.337 C 39.163 55.588, 60.200 55.952, 85.500 56.146 L 131.500 56.500 131.500 47 L 131.500 37.500 113.500 37.500 C 103.600 37.500, 86.950 37.228, 76.500 36.895 C 66.050 36.563, 53.112 36.467, 47.750 36.682 M 98.500 50 C 98.160 50.550, 98.359 51, 98.941 51 C 99.523 51, 100 50.550, 100 50 C 100 49.450, 99.802 49, 99.559 49 C 99.316 49, 98.840 49.450, 98.500 50 M 38.437 76.305 C 38.151 77.049, 38.048 81.673, 38.209 86.579 L 38.500 95.500 48.500 95.396 C 54 95.338, 62.550 95.113, 67.500 94.896 L 76.500 94.500 76.784 85.707 L 77.068 76.915 73.284 77.093 C 68.534 77.317, 44.280 76.052, 41.228 75.421 C 39.876 75.141, 38.746 75.499, 38.437 76.305 M 108.500 77 L 99.500 77.500 98.586 85.340 C 97.484 94.787, 97.901 95.280, 106.500 94.700 C 109.929 94.468, 114 94.842, 116 95.571 C 117.925 96.273, 118.695 96.882, 117.711 96.924 C 116.111 96.992, 115.953 97.926, 116.211 105.750 L 116.500 114.500 125 114.500 L 133.500 114.500 133.329 111 C 133.235 109.075, 133.075 100.860, 132.975 92.745 C 132.853 82.925, 132.409 77.747, 131.646 77.264 C 130.294 76.408, 121.053 76.303, 108.500 77 M 94.201 99.309 C 94.091 100.304, 93.581 100.859, 93.069 100.543 C 92.557 100.226, 91.873 100.397, 91.548 100.922 C 91.224 101.447, 90.103 101.712, 89.058 101.511 C 88.013 101.310, 86.912 101.788, 86.610 102.573 C 85.841 104.579, 84.003 104.353, 83.985 102.250 C 83.973 100.909, 83.772 100.812, 83.123 101.835 C 82.480 102.849, 82.147 102.669, 81.732 101.085 C 80.920 97.979, 79.051 98.551, 79.627 101.729 C 79.899 103.229, 80.477 104.692, 80.911 104.979 C 81.345 105.265, 81.957 106.175, 82.271 107 C 82.726 108.195, 82.858 108.144, 82.921 106.750 C 83.014 104.693, 85 104.348, 85 106.389 C 85 107.153, 85.770 107.715, 86.712 107.639 C 87.653 107.563, 88.586 108.287, 88.785 109.250 C 89.082 110.689, 88.424 111, 85.073 111 C 82.833 111, 81 110.518, 81 109.929 C 81 109.339, 80.325 109.532, 79.500 110.357 C 76.258 113.599, 78.553 115.147, 86.176 114.858 C 88.656 114.764, 91.155 114.978, 91.729 115.333 C 93.995 116.733, 95.085 113.125, 94.745 105.345 C 94.557 101.030, 94.312 98.314, 94.201 99.309 M 94 115.917 C 94 116.421, 94.526 117.009, 95.169 117.223 C 95.814 117.438, 96.277 119.253, 96.201 121.267 C 96.126 123.277, 96.501 125.191, 97.035 125.521 C 97.652 125.903, 97.611 126.858, 96.923 128.144 C 94.445 132.774, 103.685 135.971, 111.240 133.099 C 113.313 132.311, 113.594 131.589, 113.480 127.349 C 113.408 124.682, 113.695 121.526, 114.118 120.335 C 115.137 117.462, 113.723 117, 103.918 117 C 99.306 117, 96 116.582, 96 116 C 96 115.450, 95.550 115, 95 115 C 94.450 115, 94 115.412, 94 115.917 M 242.500 248 C 242.160 248.550, 242.835 249, 244 249 C 245.165 249, 245.840 248.550, 245.500 248 C 245.160 247.450, 244.485 247, 244 247 C 243.515 247, 242.840 247.450, 242.500 248" stroke="none" fill="black" fill-rule="evenodd"/>
</svg>