<svg xmlns="http://www.w3.org/2000/svg" width="256" height="256" viewBox="0 0 256 256" version="1.1">
	<path d="M 46.272 18.744 L 38.044 19.080 37.772 37.790 L 37.500 56.500 28.500 56.575 L 19.500 56.650 19.197 65.575 C 19.030 70.484, 19.171 76.006, 19.510 77.847 C 20.074 80.908, 20.272 81.065, 21.814 79.680 C 23.024 78.592, 25.551 78.198, 30.772 78.283 L 38.044 78.401 37.772 96.286 L 37.500 114.172 28.500 114.336 L 19.500 114.500 19.205 123 C 18.811 134.362, 19.306 136.214, 22.420 135.030 C 23.738 134.529, 32.010 133.803, 40.801 133.417 L 56.785 132.714 57.381 129.107 C 57.709 127.123, 57.983 120.730, 57.989 114.899 C 57.995 109.069, 58.485 102.906, 59.079 101.204 C 60.023 98.494, 60.448 98.220, 62.494 98.998 C 64.180 99.639, 64.974 99.510, 65.348 98.535 C 65.979 96.890, 74.559 95.943, 87.387 96.101 C 91.018 96.146, 93.564 95.705, 94.030 94.952 C 94.565 94.085, 95.122 94.359, 95.943 95.893 C 96.579 97.083, 97.437 97.848, 97.848 97.594 C 98.259 97.340, 99.249 97.545, 100.048 98.051 C 101.312 98.851, 101.310 98.971, 100.027 98.985 C 99.044 98.995, 99.293 99.517, 100.777 100.557 C 103.036 102.138, 103.823 105, 102 105 C 101.450 105, 101 105.450, 101 106 C 101 107.934, 103.677 106.973, 104.958 104.579 C 106.240 102.183, 106.275 102.178, 108.315 104.079 C 109.449 105.136, 110.999 106, 111.760 106 C 112.614 106, 113.032 106.861, 112.852 108.250 C 112.693 109.487, 112.912 111.063, 113.341 111.752 C 114.471 113.568, 109.970 115, 103.135 115 C 99.981 115, 96.860 115.540, 96.200 116.200 C 94.814 117.586, 94.554 132.748, 95.881 134.842 C 96.506 135.828, 98.879 136.102, 104.850 135.876 C 109.315 135.707, 113.403 136.003, 113.935 136.535 C 114.467 137.067, 115.037 140.877, 115.201 145.001 L 115.500 152.500 122 152.737 C 125.575 152.868, 130.282 153.093, 132.459 153.237 L 136.418 153.500 136.459 143 L 136.500 132.500 142.500 132.500 C 145.800 132.500, 148.950 132.794, 149.500 133.152 C 150.050 133.511, 151.625 133.961, 153 134.152 L 155.500 134.500 155.808 124.500 C 156.322 107.829, 154.123 45.541, 153.007 45.169 C 152.453 44.984, 152 44.251, 152 43.539 C 152 40.273, 149.090 39.837, 122.799 39.169 L 96.500 38.500 96.855 28.750 L 97.210 19 87.605 19 L 78 19 77.889 29.750 C 77.828 35.663, 77.872 41.597, 77.986 42.939 C 78.099 44.280, 77.887 48.234, 77.513 51.725 L 76.833 58.073 67.667 57.786 L 58.500 57.500 58.229 37.750 C 57.981 19.712, 57.808 18.018, 56.229 18.204 C 55.278 18.315, 50.797 18.559, 46.272 18.744 M 77.750 58.554 C 77.338 58.982, 77 61.902, 77 65.042 C 77 68.181, 76.727 72.116, 76.393 73.785 L 75.786 76.819 67.643 76.660 L 59.500 76.500 59.203 83.903 C 59.026 88.311, 59.347 91.750, 59.996 92.403 C 61.771 94.189, 72.164 95.675, 74.742 94.512 C 76.789 93.588, 76.985 92.813, 76.992 85.610 L 77 77.720 90.933 78.221 C 102.161 78.625, 105.190 79.047, 106.539 80.396 C 107.753 81.610, 108.562 81.778, 109.489 81.009 C 110.429 80.229, 110.943 80.408, 111.434 81.689 C 112.017 83.208, 112.257 83.118, 113.321 80.984 C 115.080 77.455, 118.640 76.032, 125.750 76.015 C 130.084 76.005, 131.995 75.617, 131.985 74.750 C 131.959 72.687, 130.296 70.699, 129.175 71.392 C 128.548 71.780, 127.741 70.322, 127.170 67.770 C 126.268 63.741, 126.208 63.683, 126.107 66.750 C 126.048 68.537, 125.523 70, 124.941 70 C 124.359 70, 124.140 69.582, 124.456 69.072 C 124.771 68.562, 124.111 67.852, 122.988 67.496 C 121.866 67.140, 121.012 66.320, 121.092 65.674 C 121.736 60.454, 117.775 59.294, 96.500 58.470 C 86.600 58.087, 78.162 58.125, 77.750 58.554 M 111.559 88.905 C 111.192 89.499, 111.299 90.712, 111.797 91.602 C 112.615 93.063, 112.768 93.048, 113.384 91.442 C 114.165 89.406, 112.597 87.225, 111.559 88.905 M 115.863 103.750 C 115.664 105.263, 115.770 108.525, 116.100 111 C 116.621 114.910, 116.719 114.550, 116.850 108.250 C 117.002 100.901, 116.527 98.732, 115.863 103.750 M 118.310 107.500 C 118.315 110.800, 118.502 112.029, 118.725 110.232 C 118.947 108.435, 118.943 105.735, 118.715 104.232 C 118.486 102.729, 118.304 104.200, 118.310 107.500 M 76.079 112.583 C 76.127 113.748, 76.364 113.985, 76.683 113.188 C 76.972 112.466, 76.936 111.603, 76.604 111.271 C 76.272 110.939, 76.036 111.529, 76.079 112.583 M 77.734 121.791 C 78.114 126.834, 79.583 129.374, 81.660 128.577 C 82.397 128.294, 83 128.574, 83 129.198 C 83 129.822, 83.284 130.049, 83.631 129.702 C 83.979 129.355, 85.071 129.503, 86.059 130.032 C 88.966 131.587, 91.057 130.138, 90.963 126.634 C 90.917 124.910, 91.019 122.662, 91.189 121.638 C 91.591 119.229, 88.840 117.434, 86.386 118.504 C 83.787 119.638, 82.599 119.706, 81.927 118.760 C 81.611 118.316, 80.461 117.781, 79.371 117.571 C 77.589 117.228, 77.423 117.654, 77.734 121.791 M 84.158 123 C 84.158 124.375, 84.385 124.938, 84.662 124.250 C 84.940 123.563, 84.940 122.438, 84.662 121.750 C 84.385 121.063, 84.158 121.625, 84.158 123 M 243 247.500 C 241.961 248.752, 242.101 249, 243.846 249 C 245.294 249, 245.760 248.539, 245.362 247.500 C 245.045 246.675, 244.664 246, 244.515 246 C 244.367 246, 243.685 246.675, 243 247.500" stroke="none" fill="black" fill-rule="evenodd"/>
</svg>