<svg xmlns="http://www.w3.org/2000/svg" width="256" height="256" viewBox="0 0 256 256" version="1.1">
	<path d="M 37.829 19.116 C 37.184 19.508, 36.941 26.414, 37.158 38.116 L 37.500 56.500 28.310 56.371 C 22.253 56.286, 19.003 56.627, 18.776 57.371 C 18.587 57.992, 18.672 62.534, 18.966 67.464 L 19.500 76.428 28.281 76.413 C 36.311 76.399, 37.105 76.573, 37.566 78.449 C 37.844 79.577, 37.943 87.919, 37.786 96.987 C 37.547 110.739, 37.251 113.508, 36 113.678 C 35.175 113.790, 30.996 114.173, 26.714 114.530 L 18.927 115.177 19.214 124.166 L 19.500 133.154 37.500 133.154 L 55.500 133.154 55.756 122.827 C 55.897 117.147, 56.426 111.600, 56.933 110.500 C 57.439 109.400, 58.076 107.825, 58.348 107 C 58.689 105.963, 58.871 106.118, 58.936 107.500 C 59.015 109.164, 59.193 109.248, 60 108 C 60.646 107, 60.974 106.917, 60.985 107.750 C 60.993 108.438, 61.900 109, 63 109 C 64.980 109, 65.385 107.935, 65.188 103.250 C 65.094 101.001, 66.520 100.381, 68.608 101.765 C 69.218 102.169, 69.570 103.400, 69.391 104.500 C 69.212 105.600, 69.325 107.347, 69.642 108.382 C 70.104 109.890, 70.393 109.989, 71.094 108.882 C 71.575 108.122, 71.976 106.481, 71.985 105.236 C 71.993 103.991, 72.402 102.191, 72.892 101.236 C 73.383 100.281, 74.274 98.263, 74.871 96.750 C 75.948 94.024, 76.040 94, 85.279 94 C 91.195 94, 95.038 94.438, 95.800 95.200 C 96.524 95.924, 97 99.434, 97 104.051 L 97 111.702 105.971 111.601 L 114.941 111.500 115.621 107.004 C 116.158 103.450, 116.464 102.926, 117.080 104.504 C 117.509 105.602, 117.891 106.102, 117.930 105.615 C 117.968 105.128, 118.931 105.913, 120.068 107.359 C 121.618 109.330, 122.932 109.939, 125.318 109.790 C 127.068 109.681, 129.508 109.938, 130.739 110.360 C 132.911 111.105, 132.975 110.936, 132.882 104.690 C 132.721 93.974, 132.578 94.116, 143.806 93.786 L 153.500 93.500 153.500 85 L 153.500 76.500 143.500 76 L 133.500 75.500 133.209 67.234 C 133.049 62.688, 133.337 58.221, 133.847 57.308 C 134.597 55.969, 136.465 55.634, 143.514 55.574 L 152.252 55.500 152.376 47 L 152.500 38.500 133.833 38.500 C 123.567 38.500, 114.844 38.177, 114.450 37.783 C 114.055 37.389, 113.818 32.824, 113.923 27.639 L 114.113 18.212 104.806 18.534 L 95.500 18.856 95.463 28.178 L 95.427 37.500 75.981 37.500 L 56.535 37.500 56.518 28 L 56.500 18.500 47.670 18.500 C 42.814 18.500, 38.385 18.777, 37.829 19.116 M 57 66.545 C 57 76.315, 57.175 77.266, 59.377 79.468 C 61.447 81.537, 62.247 81.734, 65.566 80.985 C 67.662 80.512, 70.605 80.371, 72.105 80.671 C 74.395 81.129, 74.886 80.842, 75.166 78.883 C 75.350 77.600, 76.448 76.079, 77.608 75.504 C 79.416 74.606, 79.513 74.269, 78.291 73.127 C 77.343 72.242, 76.916 69.908, 77.015 66.148 C 77.097 63.042, 77.127 60.010, 77.082 59.411 C 76.928 57.357, 71.902 56, 64.453 56 L 57 56 57 66.545 M 94.291 58.683 C 93.993 59.460, 93.993 61.914, 94.292 64.137 C 94.590 66.360, 94.364 69.526, 93.790 71.173 C 92.942 73.604, 92.347 74.044, 90.623 73.511 C 88.018 72.706, 87.150 72.690, 84.115 73.388 C 79.647 74.416, 80.656 75, 86.899 75 C 90.327 75, 93.915 75.419, 94.872 75.931 C 95.829 76.444, 100.412 76.963, 105.056 77.086 L 113.500 77.309 113.500 67.525 L 113.500 57.742 104.167 57.506 C 96.889 57.322, 94.714 57.581, 94.291 58.683 M 122.757 114.171 C 122.066 114.610, 120.094 114.976, 118.375 114.985 C 115.680 114.998, 115.164 115.430, 114.625 118.125 C 114.281 119.844, 114 123.417, 114 126.066 C 114 128.715, 113.519 131.179, 112.932 131.542 C 111.255 132.579, 100.457 133.331, 97.589 132.612 C 95.058 131.977, 95 131.771, 95 123.481 L 95 115 85.609 115 L 76.219 115 75.732 118.750 C 75.465 120.813, 75.303 129.025, 75.373 137 L 75.500 151.500 105.370 151.798 L 135.241 152.095 134.658 149.774 C 134.338 148.497, 134.018 140.307, 133.948 131.574 C 133.878 122.841, 133.581 115.071, 133.288 114.308 C 132.712 112.808, 125.061 112.709, 122.757 114.171 M 243 247.417 C 243 248.287, 243.713 249, 244.583 249 C 246.349 249, 246.042 246.847, 244.188 246.229 C 243.534 246.011, 243 246.546, 243 247.417" stroke="none" fill="black" fill-rule="evenodd"/>
</svg>