<svg xmlns="http://www.w3.org/2000/svg" width="256" height="256" viewBox="0 0 256 256" version="1.1">
	<path d="M 37.329 37.250 C 37.682 47.288, 37.641 55.978, 37.236 56.562 C 36.808 57.179, 32.940 57.598, 28 57.562 L 19.500 57.500 19.500 66.899 L 19.500 76.297 28.164 76.089 C 35.770 75.906, 36.890 76.101, 37.345 77.690 C 37.955 79.822, 38.020 109.801, 37.420 112.025 C 37.090 113.247, 35.268 113.545, 28.254 113.525 L 19.500 113.500 19.500 123 L 19.500 132.500 28 132.431 C 43.759 132.304, 54.980 131.506, 55.154 130.500 C 55.250 129.950, 55.400 126.242, 55.488 122.259 C 55.576 118.277, 55.990 114.677, 56.407 114.259 C 57.722 112.945, 74.410 112.193, 75.306 113.407 C 75.749 114.008, 75.872 117.875, 75.578 122 C 75.285 126.125, 74.749 134.264, 74.386 140.087 L 73.726 150.674 92.024 151.337 C 102.087 151.702, 120.177 152, 132.225 152 L 154.128 152 153.486 133.750 C 153.133 123.713, 152.668 114.938, 152.453 114.250 C 152.179 113.371, 149.382 113, 143.031 113 L 134 113 134 122.434 L 134 131.867 131.250 132.184 C 129.738 132.358, 120.963 132.367, 111.750 132.204 L 95 131.909 95.058 122.204 C 95.115 112.466, 96.628 100.499, 96.885 107.750 L 97 111 110.860 111 C 118.484 111, 126.809 110.714, 129.360 110.364 L 134 109.728 134.014 105.614 C 134.040 97.609, 134.419 97.184, 141.142 97.610 C 144.425 97.819, 147.939 98.432, 148.951 98.974 C 152.582 100.917, 153.111 98.214, 151.496 85.966 C 150.673 79.730, 150 70.944, 150 66.442 L 150 58.258 145.040 57.600 C 142.312 57.238, 138.986 57.216, 137.649 57.552 C 134.253 58.404, 133.691 56.954, 133.819 47.670 C 133.885 42.941, 133.460 39.054, 132.789 38.245 C 132.100 37.415, 131.700 33.423, 131.781 28.184 L 131.916 19.500 114.708 19.555 C 105.244 19.586, 97.050 19.698, 96.500 19.805 C 95.369 20.026, 94.620 32.226, 95.556 35.175 C 96.097 36.881, 97.055 37.079, 103.956 36.912 C 108.240 36.809, 112.197 37.004, 112.748 37.345 C 113.992 38.113, 114.343 51.898, 113.198 54.994 C 112.435 57.056, 111.614 57.295, 104.200 57.605 C 94.053 58.031, 93.484 57.356, 94.275 45.822 L 94.811 38 85.405 38 L 76 38 75.839 47.750 C 75.750 53.112, 75.791 64.780, 75.930 73.677 C 76.068 82.574, 75.885 90.787, 75.523 91.927 C 74.932 93.789, 74.084 93.998, 67.183 93.985 C 62.957 93.976, 58.935 93.610, 58.244 93.172 C 57.292 92.568, 56.847 83.774, 56.410 56.937 C 56.093 37.447, 55.660 20.938, 55.448 20.250 C 55.176 19.369, 52.353 19, 45.874 19 L 36.686 19 37.329 37.250 M 116 23.392 C 116 24.891, 116.410 25.865, 116.911 25.555 C 117.915 24.935, 117.787 22.454, 116.696 21.362 C 116.313 20.980, 116 21.893, 116 23.392 M 116 29.346 C 116 31.238, 116.405 31.782, 117.500 31.362 C 118.325 31.045, 119 30.439, 119 30.015 C 119 29.592, 118.325 28.685, 117.500 28 C 116.232 26.948, 116 27.156, 116 29.346 M 95.880 76.191 C 95.556 79.722, 96.067 91.299, 96.583 92.135 C 97.051 92.892, 103.748 92.779, 106 91.976 C 106.275 91.878, 107.963 91.877, 109.750 91.975 L 113 92.153 113 85.136 C 113 81.276, 112.620 77.883, 112.155 77.596 C 111.690 77.308, 108.332 76.869, 104.693 76.619 C 101.053 76.369, 97.608 75.876, 97.038 75.523 C 96.467 75.171, 95.946 75.471, 95.880 76.191 M 243.598 245.841 C 242.828 247.088, 244.692 249.309, 245.888 248.569 C 246.500 248.191, 247 247.507, 247 247.048 C 247 245.907, 244.176 244.906, 243.598 245.841" stroke="none" fill="black" fill-rule="evenodd"/>
</svg>