<svg xmlns="http://www.w3.org/2000/svg" width="256" height="256" viewBox="0 0 256 256" version="1.1">
	<path d="M 75.798 22.914 C 75.634 25.436, 75.757 29.637, 76.071 32.250 C 76.756 37.957, 78.757 37.471, 54.500 37.488 L 36.500 37.500 36.213 46.710 L 35.926 55.920 27.728 56.210 L 19.530 56.500 19.474 64 C 19.404 73.329, 19.817 74.484, 23.250 74.563 C 24.762 74.597, 28.309 74.709, 31.132 74.813 L 36.263 75 35.707 79.144 C 35.402 81.423, 34.617 83.619, 33.963 84.023 C 33.065 84.578, 33.090 84.863, 34.064 85.188 C 37.312 86.271, 33.494 87.561, 27.127 87.532 C 18.797 87.494, 19.034 87.109, 19.014 100.750 L 19 110 28.250 110.192 C 33.337 110.298, 41.325 110.411, 46 110.442 C 50.675 110.474, 55.063 110.864, 55.750 111.309 C 56.612 111.867, 57 115.204, 57 122.059 C 57 131.689, 56.930 132.001, 54.750 132.043 C 53.513 132.067, 44.963 132.049, 35.750 132.002 C 22.702 131.936, 18.993 132.203, 18.969 133.209 C 18.952 133.919, 18.852 138.325, 18.748 143 L 18.559 151.500 24.029 151.618 C 27.038 151.682, 35.466 151.866, 42.758 152.026 C 50.050 152.187, 56.299 152.034, 56.646 151.687 C 56.993 151.341, 57.189 147.061, 57.081 142.177 L 56.886 133.297 62.765 132.682 C 65.998 132.344, 70.338 132.343, 72.409 132.679 L 76.175 133.290 75.991 124.395 C 75.889 119.503, 75.850 114.921, 75.903 114.212 C 75.976 113.240, 78.262 112.995, 85.250 113.212 L 94.500 113.500 95 132.243 L 95.500 150.986 123.797 151.322 C 139.360 151.506, 152.221 151.397, 152.377 151.079 C 152.533 150.760, 152.399 146.225, 152.080 141 L 151.500 131.500 133 131.500 L 114.500 131.500 114.214 122.376 C 113.939 113.605, 114.017 113.228, 116.214 112.640 C 119.999 111.626, 146.990 111.924, 149.005 113.003 C 150.036 113.554, 151.089 113.665, 151.346 113.249 C 151.603 112.833, 151.954 108.445, 152.126 103.497 L 152.438 94.500 145.469 93.753 C 141.636 93.342, 134 92.929, 128.500 92.835 C 123 92.741, 117.994 92.488, 117.376 92.273 C 116.757 92.058, 116.210 89.843, 116.160 87.350 C 116.110 84.857, 115.726 80.946, 115.306 78.659 C 114.886 76.371, 114.533 70.900, 114.521 66.500 L 114.500 58.500 123.711 58.213 L 132.921 57.926 132.711 66.713 L 132.500 75.500 142.500 75.500 L 152.500 75.500 152.500 66.500 L 152.500 57.500 143 57 L 133.500 56.500 133.213 47.271 L 132.926 38.043 113.713 37.771 L 94.500 37.500 94.215 27.872 L 93.931 18.244 85.013 18.285 L 76.096 18.327 75.798 22.914 M 37.830 57.750 C 37.737 58.163, 37.624 62.157, 37.580 66.626 L 37.500 74.751 45 75.363 C 56.947 76.338, 57.009 76.292, 56.903 66.477 C 56.821 58.867, 56.636 58.137, 54.657 57.606 C 51.495 56.758, 38.029 56.873, 37.830 57.750 M 83.742 57.743 C 76.345 58.069, 76.004 58.187, 76.439 60.292 C 76.690 61.506, 77.169 65.035, 77.505 68.132 C 78.075 73.398, 77.939 73.902, 75.422 75.882 C 72.565 78.130, 70 78.659, 70 77 C 70 76.450, 68.842 76, 67.427 76 C 63.541 76, 64.591 79.463, 68.523 79.615 C 73.782 79.819, 73.888 79.887, 73.375 82.719 C 72.700 86.437, 71.295 87.890, 68.963 87.280 C 67.723 86.956, 66.994 87.270, 66.985 88.133 C 66.973 89.200, 66.756 89.170, 66 88 C 65.354 87, 65.026 86.917, 65.015 87.750 C 65.007 88.438, 64.100 89, 63 89 C 60.544 89, 60.314 90.951, 62.750 91.124 C 63.712 91.192, 66.075 91.429, 68 91.650 C 76.199 92.593, 91.102 93.191, 93.213 92.662 C 95.461 92.099, 95.490 91.915, 94.896 81.795 C 94.564 76.133, 94.513 68.640, 94.784 65.144 C 95.152 60.393, 94.925 58.567, 93.888 57.910 C 93.125 57.426, 92.275 57.114, 92 57.217 C 91.725 57.319, 88.009 57.556, 83.742 57.743 M 13.879 198.770 C 11.180 199.314, 10.381 212, 13.045 212 C 13.492 212, 14.597 211.260, 15.501 210.356 C 17.229 208.628, 16.811 204.119, 14.808 202.881 C 14.138 202.467, 14.206 202.098, 15.001 201.833 C 16.814 201.229, 15.774 198.388, 13.879 198.770 M 244.079 247.583 C 244.127 248.748, 244.364 248.985, 244.683 248.188 C 244.972 247.466, 244.936 246.603, 244.604 246.271 C 244.272 245.939, 244.036 246.529, 244.079 247.583" stroke="none" fill="black" fill-rule="evenodd"/>
</svg>