<svg xmlns="http://www.w3.org/2000/svg" width="256" height="256" viewBox="0 0 256 256" version="1.1">
	<path d="M 122.500 18 L 94.500 18.500 94.212 27.750 L 93.925 37 85.712 37 L 77.500 37 77.554 28.923 C 77.583 24.480, 77.133 20.308, 76.554 19.652 C 75.788 18.785, 70.541 18.555, 57.379 18.809 L 39.258 19.158 38.985 24.329 C 38.834 27.173, 38.765 31.171, 38.830 33.214 L 38.949 36.928 29.224 37.214 L 19.500 37.500 19.203 45.497 C 18.742 57.930, 18.402 57.500, 28.707 57.500 L 37.500 57.500 37.500 66.500 L 37.500 75.500 28.750 75.327 C 18.503 75.124, 18.714 74.867, 19.201 86.908 L 19.500 94.292 28.652 94.088 L 37.803 93.884 37.652 102.976 L 37.500 112.068 29.164 112.528 C 24.579 112.781, 20.417 113.242, 19.914 113.553 C 19.411 113.864, 19 118.619, 19 124.119 L 19 134.120 28.250 133.915 L 37.500 133.709 37.788 142.262 C 37.982 148.055, 38.487 150.973, 39.352 151.305 C 40.054 151.574, 44.609 151.728, 49.474 151.647 L 58.319 151.500 58.141 144 C 58.043 139.875, 58.348 135.918, 58.817 135.207 C 59.431 134.278, 62.041 133.996, 68.086 134.207 L 76.500 134.500 76.632 143 L 76.765 151.500 96.632 151.500 C 113.775 151.500, 116.454 151.294, 116.164 150 C 115.872 148.701, 115.586 144.640, 115.116 135.152 C 115.002 132.853, 114.824 132.811, 106.511 133.152 C 100.113 133.414, 97.896 133.172, 97.511 132.168 C 97.230 131.436, 97 127.256, 97 122.879 L 97 114.922 105.750 115.211 L 114.500 115.500 114.794 123.968 C 114.971 129.058, 115.555 132.725, 116.259 133.160 C 116.903 133.558, 120.871 133.668, 125.078 133.404 L 132.726 132.925 133.352 136.713 C 134.269 142.263, 134.136 146.877, 132.997 149.005 C 132.446 150.036, 132.333 151.079, 132.747 151.324 C 133.161 151.569, 137.972 151.934, 143.439 152.135 L 153.378 152.500 153.439 143.665 C 153.474 138.638, 153.048 134.454, 152.450 133.959 C 151.873 133.479, 147.598 132.955, 142.950 132.794 L 134.500 132.500 134.211 123.750 C 134.014 117.787, 133.536 114.972, 132.711 114.913 C 132.045 114.864, 127.900 114.752, 123.500 114.663 L 115.500 114.500 115.215 104.877 L 114.931 95.254 123.715 94.764 C 128.547 94.494, 132.838 94.463, 133.250 94.695 C 133.662 94.928, 134 99.121, 134 104.014 L 134 112.909 137.250 113.514 C 139.037 113.846, 143.413 113.979, 146.974 113.809 L 153.449 113.500 153.308 104.167 C 153.231 99.034, 152.914 94.580, 152.603 94.269 C 152.292 93.958, 150.116 93.515, 147.769 93.284 C 145.421 93.053, 143.366 92.492, 143.202 92.038 C 143.038 91.584, 141.955 91.460, 140.796 91.764 C 139.358 92.140, 138.915 91.947, 139.403 91.158 C 139.796 90.521, 140.879 89.993, 141.809 89.985 C 142.739 89.976, 144.038 89.627, 144.696 89.209 C 145.814 88.499, 147.177 83.672, 147.352 79.805 C 147.394 78.872, 148.457 77.851, 149.714 77.536 C 150.971 77.220, 152.030 76.408, 152.067 75.731 C 152.716 63.833, 152.267 17.961, 151.500 17.761 C 150.950 17.617, 137.900 17.725, 122.500 18 M 114.448 38.277 C 114.190 38.950, 114.059 43.550, 114.156 48.500 C 114.463 64.179, 114.050 69.808, 112.476 71.381 C 111.664 72.193, 111 73.307, 111 73.857 C 111 75.142, 119.917 76.238, 127 75.822 L 132.500 75.500 132.500 56.500 L 132.500 37.500 123.708 37.277 C 117.524 37.120, 114.778 37.416, 114.448 38.277 M 59.272 60.299 C 59.947 61.509, 60.887 62.782, 61.361 63.127 C 62.368 63.862, 65.995 63.104, 67.653 61.814 C 68.377 61.250, 68.998 61.396, 69.324 62.208 C 69.720 63.197, 69.861 63.207, 69.921 62.250 C 69.964 61.563, 70.927 61, 72.059 61 C 73.191 61, 73.864 60.588, 73.553 60.085 C 73.242 59.582, 73.328 58.981, 73.744 58.749 C 74.729 58.200, 72.472 58.810, 70.336 59.670 C 69.416 60.040, 68.924 59.928, 69.235 59.420 C 69.548 58.908, 67.189 58.411, 63.921 58.299 C 58.138 58.101, 58.064 58.133, 59.272 60.299 M 105.250 74.689 C 106.213 74.941, 107.787 74.941, 108.750 74.689 C 109.713 74.438, 108.925 74.232, 107 74.232 C 105.075 74.232, 104.287 74.438, 105.250 74.689 M 39.213 84.707 L 39.500 94.500 48.500 94.500 L 57.500 94.500 57.500 85.017 L 57.500 75.534 48.213 75.224 L 38.927 74.913 39.213 84.707 M 92.742 96.125 C 91.595 96.766, 91 98.315, 91 100.657 C 91 103.195, 90.621 104.069, 89.678 103.707 C 87.618 102.916, 85.586 106.796, 87.103 108.624 C 87.772 109.431, 88.923 109.860, 89.660 109.577 C 90.397 109.294, 91 109.451, 91 109.924 C 91 111.425, 94.306 112.123, 95.126 110.795 C 95.833 109.652, 95.538 96.205, 94.790 95.457 C 94.621 95.288, 93.700 95.589, 92.742 96.125 M 75.926 97.044 C 74.512 97.423, 70.159 97.656, 66.254 97.563 L 59.153 97.394 58.827 103.799 C 58.647 107.322, 58.725 110.564, 59 111.003 C 59.275 111.443, 62.945 111.802, 67.156 111.801 C 71.368 111.800, 76.205 112.106, 77.906 112.479 C 80.591 113.069, 81 112.884, 81 111.079 C 81 109.898, 80.352 109, 79.500 109 C 78.667 109, 78 108.111, 78 107 C 78 104.537, 79.685 104.354, 80.311 106.750 C 80.562 107.713, 80.820 107.086, 80.884 105.357 C 80.997 102.293, 83.144 100.353, 85.090 101.556 C 85.591 101.865, 86 101.416, 86 100.559 C 86 99.702, 86.563 98.986, 87.250 98.970 C 87.938 98.953, 87.600 98.409, 86.500 97.761 C 84.158 96.383, 79.566 96.071, 75.926 97.044 M 242.667 246.667 C 241.288 248.046, 242.087 249, 244.622 249 C 246.840 249, 247.053 248.768, 246 247.500 C 244.645 245.868, 243.702 245.632, 242.667 246.667" stroke="none" fill="black" fill-rule="evenodd"/>
</svg>