<svg xmlns="http://www.w3.org/2000/svg" width="256" height="256" viewBox="0 0 256 256" version="1.1">
	<path d="M 101.250 18.743 L 94 19.088 93.901 25.794 C 93.847 29.482, 93.735 33.625, 93.651 35 L 93.500 37.500 67.500 37.711 C 53.200 37.828, 40.554 37.940, 39.398 37.961 L 37.295 38 37.619 78.250 C 37.797 100.388, 37.678 121.763, 37.354 125.750 L 36.765 133 28.402 133 C 18.590 133, 18.716 132.836, 19.201 145.012 L 19.500 152.500 28.349 152.790 C 38.901 153.137, 40.476 152.326, 39.475 147.064 C 39.102 145.104, 38.730 141.475, 38.648 139 L 38.500 134.500 46.250 134.208 L 54 133.916 54 138.490 C 54 141.006, 53.348 144.625, 52.551 146.532 C 51.169 149.840, 50.857 150.006, 45.801 150.136 C 41.239 150.254, 41.685 150.400, 49 151.184 C 54.954 151.822, 148.934 151.698, 152.779 151.047 C 153.335 150.953, 152.648 134.049, 152.049 133.079 C 151.711 132.532, 147.438 131.953, 142.554 131.792 L 133.673 131.500 133.379 122.750 C 133.168 116.468, 133.425 113.964, 134.292 113.874 C 134.957 113.805, 139.373 113.847, 144.107 113.969 C 150.582 114.135, 152.822 113.856, 153.151 112.845 C 153.392 112.105, 153.344 107.900, 153.045 103.500 L 152.500 95.500 143 95 L 133.500 94.500 133.395 76.250 L 133.290 58 143.145 58 L 153 58 153 47.889 L 153 37.778 133.478 38.493 C 112.656 39.255, 109.960 38.811, 112.021 34.961 C 112.559 33.955, 113 29.727, 113 25.566 C 113 18.328, 112.903 18.009, 110.750 18.199 C 109.513 18.308, 105.237 18.553, 101.250 18.743 M 91.544 58.929 C 91.117 59.619, 88.579 59.919, 84.937 59.709 C 81.683 59.522, 78.454 59.729, 77.761 60.169 C 76.852 60.746, 76.989 60.974, 78.250 60.985 C 79.213 60.993, 80 61.450, 80 62 C 80 62.550, 81.688 63.007, 83.750 63.015 C 88.397 63.034, 89.846 63.912, 90.316 66.991 C 90.900 70.818, 93 70.656, 93 66.783 C 93 64.922, 93.543 62.857, 94.207 62.193 C 95.150 61.250, 95.066 60.638, 93.825 59.397 C 92.718 58.289, 92.027 58.148, 91.544 58.929 M 57.009 59.830 C 56.464 60.012, 56.744 60.887, 57.632 61.774 C 59.981 64.124, 68.004 64.156, 70.289 61.825 C 72.008 60.072, 72.008 59.995, 70.289 59.881 C 65.542 59.565, 57.895 59.535, 57.009 59.830 M 65.875 65.500 C 65.806 65.775, 65.638 66.450, 65.500 67 C 65.362 67.550, 65.194 68.675, 65.125 69.500 C 65.043 70.481, 63.937 71, 61.929 71 C 58.744 71, 55.459 73.316, 56.426 74.880 C 56.730 75.372, 62.721 75.646, 69.740 75.489 C 76.758 75.332, 84.862 75.157, 87.750 75.101 C 92.244 75.015, 93 74.721, 93 73.060 C 93 71.531, 92.417 71.189, 90.250 71.446 C 88.737 71.625, 87.500 71.860, 87.500 71.967 C 87.500 72.075, 86.263 72.253, 84.750 72.364 C 83.237 72.475, 82 72.198, 82 71.748 C 82 71.298, 81.130 71.395, 80.066 71.965 C 77.601 73.284, 74 73.305, 74 72 C 74 71.450, 73.199 71, 72.219 71 C 71.159 71, 69.980 69.786, 69.306 68 C 68.336 65.429, 66.269 63.923, 65.875 65.500 M 76.703 95.631 C 75.500 96.833, 75.916 109.516, 77.200 110.800 C 78.869 112.469, 93.624 112.426, 94.263 110.750 C 94.525 110.063, 94.685 106.350, 94.620 102.500 L 94.500 95.500 85.953 95.214 C 81.252 95.057, 77.089 95.244, 76.703 95.631 M 65 112.994 L 57.500 113.500 57 122.351 C 56.553 130.273, 56.697 131.307, 58.372 132.202 C 60.186 133.170, 75.383 132.996, 76.292 131.996 C 76.540 131.723, 76.464 127.266, 76.122 122.092 C 75.636 114.738, 75.172 112.663, 74 112.586 C 73.175 112.532, 69.125 112.716, 65 112.994 M 94.873 118.712 C 94.804 121.896, 94.691 126.073, 94.623 127.996 L 94.500 131.491 100 132.194 C 103.025 132.581, 107.300 132.747, 109.500 132.564 L 113.500 132.231 113.500 122.865 L 113.500 113.500 104.250 113.212 L 95 112.925 94.873 118.712 M 242.667 246.667 C 241.516 247.817, 241.938 249, 243.500 249 C 244.325 249, 245 248.325, 245 247.500 C 245 245.938, 243.817 245.516, 242.667 246.667" stroke="none" fill="black" fill-rule="evenodd"/>
</svg>