<svg xmlns="http://www.w3.org/2000/svg" width="256" height="256" viewBox="0 0 256 256" version="1.1">
	<path d="M 92.692 14.152 C 91.707 14.704, 87.571 15.007, 83.499 14.827 C 77.454 14.560, 76.023 14.786, 75.693 16.057 C 75.470 16.914, 75.251 22.539, 75.205 28.557 C 75.160 34.576, 75.095 42.596, 75.061 46.380 L 75 53.259 45.926 52.803 L 16.852 52.347 17.166 61.658 C 17.360 67.416, 17.913 71.136, 18.615 71.406 C 19.240 71.645, 27.308 71.890, 36.544 71.949 C 50.754 72.040, 72.820 73.486, 73.719 74.386 C 74.317 74.984, 74.113 120.883, 73.498 124.161 L 72.832 127.709 64.314 128.742 C 57.564 129.561, 55.260 129.498, 53.219 128.439 C 51.803 127.704, 50.339 127.291, 49.966 127.521 C 49.593 127.751, 46.749 128.023, 43.644 128.124 C 40.540 128.226, 38 128.640, 38 129.046 C 38 130.272, 29.060 132.207, 23.500 132.185 C 17.421 132.160, 14.607 134.790, 17.391 137.895 C 18.183 138.778, 18.780 141.174, 18.718 143.219 C 18.656 145.265, 18.874 147.207, 19.202 147.535 C 20.098 148.431, 55.826 148.688, 71 147.907 C 72.375 147.836, 77.542 147.715, 82.483 147.639 C 90.175 147.520, 91.514 147.249, 91.806 145.750 C 91.993 144.787, 92.901 144.007, 93.823 144.015 C 95.269 144.029, 95.293 144.161, 94 144.979 C 92.667 145.822, 92.667 146.085, 94 147.343 C 95.205 148.481, 97.041 148.585, 103.347 147.875 C 112.010 146.899, 116.718 145.181, 111.500 144.899 C 108.535 144.739, 108.540 144.729, 112 144.069 C 116.002 143.306, 118.875 143.841, 116.999 145 C 115.210 146.107, 120.059 147.074, 121.925 145.982 C 123.281 145.189, 123.291 145.040, 122 144.912 C 119.357 144.650, 126.341 143.241, 130.890 143.118 C 133.654 143.044, 135.714 142.406, 136.452 141.396 C 137.775 139.587, 146.409 138.763, 149.225 140.178 C 150.585 140.860, 151.086 140.506, 151.587 138.509 C 152.086 136.521, 151.560 130.296, 150.530 126 C 150.464 125.725, 150.072 123.813, 149.660 121.750 C 148.963 118.268, 147.310 117.023, 145.624 118.709 C 144.602 119.731, 136.616 118.997, 135.885 117.814 C 135.267 116.814, 124.599 117.141, 120.232 118.294 C 116.804 119.198, 96.371 119.347, 94.965 118.478 C 94.023 117.896, 93.912 114.166, 94.491 102.609 C 94.907 94.299, 95.168 85.117, 95.070 82.205 C 94.818 74.648, 95.578 72.704, 98.228 74.122 C 99.710 74.915, 105.903 75.023, 119.411 74.492 C 129.910 74.079, 141.778 73.796, 145.785 73.862 L 153.070 73.982 152.785 63.741 L 152.500 53.500 144.500 53.504 C 138.061 53.508, 120.577 54.224, 99 55.367 L 96.500 55.500 96 34.831 C 95.725 23.463, 95.271 13.934, 94.992 13.656 C 94.712 13.378, 93.677 13.601, 92.692 14.152 M 242.574 245.667 C 241.754 247.805, 243.585 249.815, 245.033 248.367 C 246.120 247.280, 245.344 244, 244 244 C 243.568 244, 242.926 244.750, 242.574 245.667" stroke="none" fill="black" fill-rule="evenodd"/>
</svg>