<svg xmlns="http://www.w3.org/2000/svg" width="256" height="256" viewBox="0 0 256 256" version="1.1">
	<path d="M 53.606 18.976 L 34.711 19.500 34.918 28.862 C 35.112 37.625, 34.977 38.329, 32.813 39.862 C 31.541 40.763, 29.825 41.521, 29 41.547 C 28.175 41.572, 27.613 42.135, 27.750 42.797 C 28.173 44.833, 26.175 44.126, 25.500 42 C 25.151 40.900, 24.049 40, 23.052 40 C 20.260 40, 18.827 57.467, 19.195 87 L 19.500 111.500 38.500 112.199 C 48.950 112.583, 61.550 113.258, 66.500 113.699 L 75.500 114.500 75.356 119 C 75.277 121.475, 75.164 125.647, 75.106 128.272 L 75 133.043 47.098 132.571 L 19.195 132.098 19.227 141.549 L 19.259 151 33.880 151.128 C 41.921 151.198, 49.625 151.395, 51 151.567 C 52.375 151.738, 73.632 151.924, 98.238 151.979 C 134.977 152.062, 143.726 152.345, 147.169 153.560 C 150.134 154.606, 151.673 154.727, 152.426 153.974 C 153.415 152.985, 153.408 135.469, 152.418 133.868 C 152.195 133.506, 147.962 133.432, 143.012 133.702 C 132.449 134.280, 132.826 134.661, 132.631 123.220 L 132.500 115.500 123.564 115.500 L 114.628 115.500 114.788 120 C 114.877 122.475, 114.990 125.731, 115.042 127.237 C 115.093 128.742, 114.887 130.374, 114.585 130.863 C 114.081 131.678, 99.964 131.419, 97.393 130.548 C 96.728 130.322, 96.208 126.940, 96.091 122.086 L 95.896 114 104.948 114 L 114 114 114.015 105.250 C 114.024 100.438, 114.400 95.918, 114.851 95.207 C 115.441 94.276, 118.029 93.996, 124.086 94.207 L 132.500 94.500 133 103.671 C 133.275 108.716, 133.745 113.085, 134.044 113.382 C 134.342 113.678, 138.792 114.051, 143.930 114.210 C 154.872 114.550, 153.833 116.101, 154.192 98.895 C 154.390 89.373, 154.147 87.004, 152.836 85.693 C 151.957 84.814, 150.960 84.374, 150.619 84.714 C 150.279 85.055, 150 84.551, 150 83.595 C 150 81.221, 147.590 79, 145.012 79 C 143.841 79, 143.129 78.600, 143.431 78.112 C 143.733 77.624, 141.926 76.916, 139.416 76.540 C 134.996 75.877, 134.898 75.787, 136.298 73.678 C 137.425 71.980, 138.929 71.427, 143.122 71.170 C 150.581 70.712, 151.573 69.135, 144.379 69.172 C 141.146 69.189, 137.938 69.157, 137.250 69.101 C 136.474 69.038, 136 67.475, 136 64.980 C 136 61.239, 136.173 60.992, 138.500 61.414 C 139.875 61.664, 141 61.447, 141 60.934 C 141 60.420, 142.575 60, 144.500 60 C 146.425 60, 148 60.450, 148 61 C 148 62.823, 150.862 62.036, 152.443 59.777 C 153.680 58.012, 153.998 54.568, 153.991 43.027 C 153.987 35.037, 153.702 26.165, 153.359 23.310 L 152.736 18.120 124.118 18.310 L 95.500 18.500 95.500 38 L 95.500 57.500 104.137 57.787 L 112.774 58.075 113.505 75.119 C 113.910 84.556, 113.849 92.538, 113.368 93.002 C 112.891 93.463, 104.625 93.989, 95 94.170 L 77.500 94.500 77.209 85.612 C 76.955 77.839, 77.165 76.495, 78.886 74.892 C 79.968 73.884, 80.999 73.445, 81.177 73.918 C 81.510 74.803, 94.602 76.064, 95.381 75.286 C 95.621 75.046, 95.397 73.421, 94.884 71.675 C 94.371 69.929, 93.706 66.925, 93.406 65 C 92.709 60.532, 91.233 59.438, 85.504 59.141 C 82.956 59.009, 79.745 58.474, 78.371 57.951 L 75.871 57.001 76.427 46.250 C 76.733 40.338, 77.203 31.788, 77.471 27.250 C 77.864 20.619, 77.685 19, 76.561 19 C 75.793 19, 74.564 18.877, 73.832 18.726 C 73.099 18.576, 63.998 18.688, 53.606 18.976 M 114.667 37.667 C 114.300 38.033, 114 42.533, 114 47.667 L 114 57 117.750 57.036 C 119.813 57.056, 124.088 57.334, 127.250 57.654 L 133 58.236 133 47.618 L 133 37 124.167 37 C 119.308 37, 115.033 37.300, 114.667 37.667 M 38.366 96.216 C 38.100 96.647, 40.721 96.948, 44.191 96.884 C 50.823 96.762, 50.433 96.334, 43.175 95.769 C 40.797 95.584, 38.633 95.785, 38.366 96.216 M 40.232 105 C 40.232 106.925, 40.438 107.713, 40.689 106.750 C 40.941 105.787, 40.941 104.213, 40.689 103.250 C 40.438 102.287, 40.232 103.075, 40.232 105 M 242 247.500 C 242 248.508, 243.008 249, 245.071 249 C 247.802 249, 247.976 248.833, 246.643 247.500 C 245.818 246.675, 244.436 246, 243.571 246 C 242.707 246, 242 246.675, 242 247.500" stroke="none" fill="black" fill-rule="evenodd"/>
</svg>