<svg xmlns="http://www.w3.org/2000/svg" width="256" height="256" viewBox="0 0 256 256" version="1.1">
	<path d="M 77.894 19.075 C 77.373 19.392, 76.908 23.774, 76.861 28.814 L 76.774 37.977 57.724 37.951 C 47.247 37.937, 38.272 38.328, 37.781 38.819 C 37.289 39.311, 36.711 42.754, 36.495 46.471 C 36.280 50.188, 35.818 53.515, 35.469 53.865 C 35.119 54.214, 31.476 54.500, 27.373 54.500 C 18.488 54.500, 18.782 53.998, 19.208 68.407 L 19.500 78.313 28 78.109 C 38.783 77.851, 39.258 77.342, 38.822 66.500 L 38.500 58.500 48.500 58.663 C 54 58.753, 61.200 59.250, 64.500 59.766 L 70.500 60.706 65.411 60.853 C 60.997 60.980, 60.167 61.338, 59.161 63.547 C 57.769 66.602, 57.679 70.943, 58.965 72.977 C 59.600 73.982, 59.406 74.999, 58.357 76.157 C 57.138 77.505, 56.700 81.632, 56.258 95.930 L 55.700 114 65.350 114 L 75 114 75 123 C 75 127.950, 74.662 132.025, 74.250 132.056 C 73.838 132.087, 61.350 132.264, 46.500 132.450 L 19.500 132.788 19.500 141.911 L 19.500 151.034 84.300 151.534 C 119.941 151.809, 149.416 152.079, 149.800 152.135 C 153.755 152.710, 154 152.176, 154 143 C 154 135.120, 153.782 133.992, 152.250 133.934 C 151.287 133.898, 146.535 133.925, 141.689 133.995 L 132.878 134.123 133.189 124.812 L 133.500 115.500 124.541 115 C 114.351 114.431, 114.199 114.277, 114.199 104.500 C 114.199 95.530, 114.841 94.534, 120.793 94.260 C 123.657 94.127, 126 94.375, 126 94.809 C 126 95.863, 132.867 95.025, 133.572 93.884 C 133.876 93.392, 134.125 90.131, 134.125 86.639 L 134.125 80.289 139.313 79.132 C 142.166 78.495, 146.525 77.868, 149 77.737 L 153.500 77.500 153.670 68.007 C 153.764 62.785, 153.433 58.022, 152.935 57.422 C 152.437 56.821, 152.126 52.544, 152.245 47.915 L 152.460 39.500 143.986 39.206 C 139.325 39.044, 135.109 38.509, 134.617 38.017 C 134.125 37.525, 133.812 33.045, 133.921 28.061 L 134.120 19 124.560 19 L 115 19 115 28.874 L 115 38.748 107.250 38.850 C 97.238 38.981, 95.823 38.515, 96.040 35.162 C 96.134 33.698, 96.164 29.350, 96.106 25.500 L 96 18.500 87.420 18.500 C 82.701 18.500, 78.414 18.759, 77.894 19.075 M 124 57.756 C 112.545 58.207, 112.998 57.815, 113.015 67.269 C 113.024 71.796, 113.368 76.031, 113.781 76.680 C 114.611 77.985, 129.971 78.754, 131.862 77.585 C 133.515 76.564, 133.411 58.331, 131.750 57.857 C 131.063 57.661, 127.575 57.615, 124 57.756 M 75 59.265 C 73.203 60.753, 72.601 63, 74 63 C 75.446 63, 75.231 69.912, 73.738 71.405 C 73.044 72.099, 71.019 72.667, 69.238 72.667 C 66.179 72.667, 64.164 73.510, 65.083 74.406 C 66.779 76.059, 91.228 77.532, 93.729 76.132 C 94.877 75.489, 95.275 73.251, 95.372 66.892 L 95.500 58.500 86 58.262 C 79.587 58.101, 76.013 58.427, 75 59.265 M 38.688 94.646 C 37.383 95.950, 38.006 97, 40.083 97 C 41.247 97, 41.992 96.476, 41.771 95.813 C 41.284 94.351, 39.614 93.719, 38.688 94.646 M 90 97 C 90 97.550, 88.650 98, 87 98 C 85.350 98, 84 98.477, 84 99.059 C 84 99.641, 84.403 99.869, 84.895 99.565 C 85.388 99.260, 86.059 99.712, 86.388 100.569 C 86.717 101.426, 87.472 101.826, 88.067 101.459 C 88.661 101.091, 88.556 101.738, 87.833 102.895 C 86.831 104.500, 85.506 105, 82.259 105 C 79.140 105, 78 105.401, 78 106.500 C 78 107.325, 78.675 108, 79.500 108 C 80.325 108, 81.007 108.563, 81.015 109.250 C 81.026 110.083, 81.354 110, 82 109 C 82.646 108, 82.974 107.917, 82.985 108.750 C 82.995 109.556, 84.543 110, 87.339 110 C 90.903 110, 91.842 109.598, 92.589 107.750 C 93.994 104.280, 93.187 96, 91.445 96 C 90.650 96, 90 96.450, 90 97 M 78 99.500 C 78 100.417, 78.484 101.005, 79.075 100.808 C 79.666 100.611, 80.150 100.023, 80.150 99.500 C 80.150 98.977, 79.666 98.389, 79.075 98.192 C 78.484 97.995, 78 98.583, 78 99.500 M 242.667 246.667 C 241.288 248.046, 242.087 249, 244.622 249 C 246.840 249, 247.053 248.768, 246 247.500 C 244.645 245.868, 243.702 245.632, 242.667 246.667" stroke="none" fill="black" fill-rule="evenodd"/>
</svg>