<svg xmlns="http://www.w3.org/2000/svg" width="256" height="256" viewBox="0 0 256 256" version="1.1">
	<path d="M 76 19.423 C 73.525 19.930, 71.169 20.830, 70.765 21.423 C 70.285 22.127, 70.025 22.024, 70.015 21.128 C 70.004 20.100, 69.666 20.032, 68.672 20.858 C 66.602 22.575, 62.606 22.843, 61.500 21.337 C 60.737 20.297, 60.444 20.628, 60.263 22.738 C 60.133 24.257, 59.658 28.743, 59.209 32.706 C 58.759 36.669, 58.474 43.194, 58.574 47.206 C 58.687 51.715, 58.326 54.781, 57.629 55.235 C 57.008 55.639, 48.063 55.976, 37.750 55.985 L 19 56 19.015 65.250 C 19.024 70.338, 19.407 75.093, 19.866 75.817 C 20.455 76.747, 23.030 77.094, 28.601 76.997 C 32.945 76.921, 37.063 76.891, 37.750 76.929 C 38.651 76.980, 39 79.491, 39 85.935 C 39 90.849, 39.439 96.024, 39.975 97.435 C 40.916 99.909, 41.232 99.996, 48.830 99.851 C 53.163 99.769, 57.138 99.967, 57.663 100.291 C 58.187 100.616, 59.155 98.868, 59.814 96.407 C 61.104 91.582, 63.590 89.718, 65.412 92.210 C 66.029 93.055, 68.455 93.929, 70.803 94.153 C 74.622 94.517, 75.135 94.309, 75.669 92.184 C 75.997 90.877, 75.992 87.197, 75.658 84.005 C 75.239 79.991, 75.429 77.893, 76.276 77.201 C 77.952 75.830, 95.683 75.679, 96.517 77.028 C 97.723 78.979, 98.176 102.122, 97.157 109.656 C 97.070 110.292, 96.213 110.651, 95.250 110.453 C 94.287 110.256, 91.250 109.866, 88.500 109.588 C 85.750 109.309, 81.880 108.790, 79.900 108.434 L 76.301 107.787 76.165 117.079 C 76.090 122.189, 75.602 126.798, 75.080 127.320 C 74.480 127.920, 72.539 127.878, 69.815 127.207 C 65.405 126.120, 44.446 126.492, 38 127.772 C 36.075 128.154, 31.125 128.474, 27 128.483 L 19.500 128.500 19.263 137 C 18.873 150.943, 15.445 149.452, 48.709 149.807 C 75.309 150.092, 82.353 149.572, 79.107 147.566 C 77.663 146.673, 77.692 141.492, 79.165 137.419 C 80.316 134.236, 80.429 134.189, 88.415 133.555 C 92.862 133.202, 99.537 132.671, 103.250 132.375 L 110 131.836 110.195 137.168 C 110.603 148.295, 110.727 150.061, 111.135 150.468 C 111.464 150.798, 146.411 151.305, 151.750 151.058 C 153.464 150.979, 153.455 137.005, 151.740 134.659 C 150.773 133.337, 148.506 132.830, 141.990 132.480 C 125.363 131.586, 116.489 130.780, 115.751 130.096 C 113.796 128.284, 111.803 95.858, 113.541 94.129 C 113.889 93.783, 118.070 93.500, 122.834 93.500 L 131.495 93.500 132.146 89 C 132.504 86.525, 132.557 82.588, 132.263 80.250 C 131.862 77.065, 132.076 75.972, 133.114 75.890 C 133.876 75.830, 138.550 75.717, 143.500 75.640 L 152.500 75.500 152.780 66.750 L 153.060 58 144.780 57.985 C 136.811 57.971, 131.297 56.472, 131.664 54.418 C 131.755 53.913, 132.137 50.462, 132.515 46.750 L 133.202 40 116.018 40 C 102.702 40, 98.932 40.281, 99.273 41.250 C 99.515 41.938, 99.315 43.573, 98.830 44.885 C 97.813 47.631, 100.081 52, 102.523 52 C 105.428 52, 103.958 54.785, 100.750 55.358 C 93.601 56.635, 85.606 57.109, 81.868 56.478 L 77.925 55.812 78.212 47.156 L 78.500 38.500 86.500 38 L 94.500 37.500 94.785 27.822 L 95.071 18.143 87.785 18.322 C 83.778 18.420, 78.475 18.915, 76 19.423 M 67.762 24.707 C 69.006 24.946, 70.806 24.937, 71.762 24.687 C 72.718 24.437, 71.700 24.241, 69.500 24.252 C 67.300 24.263, 66.518 24.468, 67.762 24.707 M 81 176.087 C 76.275 176.591, 76.803 176.697, 84.750 176.837 C 89.838 176.927, 94 176.822, 94 176.605 C 94 175.818, 86.372 175.514, 81 176.087 M 243 247.500 C 243 248.325, 243.675 249, 244.500 249 C 245.325 249, 246 248.325, 246 247.500 C 246 246.675, 245.325 246, 244.500 246 C 243.675 246, 243 246.675, 243 247.500" stroke="none" fill="black" fill-rule="evenodd"/>
</svg>