<svg xmlns="http://www.w3.org/2000/svg" width="256" height="256" viewBox="0 0 256 256" version="1.1">
	<path d="M 77.930 18.046 C 77.441 18.346, 77.237 22.704, 77.475 27.730 L 77.908 36.868 72.704 37.481 C 69.842 37.818, 61.200 37.930, 53.500 37.730 C 37.449 37.314, 34.412 37.772, 34.696 40.569 C 35.371 47.227, 35.864 76.292, 35.367 80.152 L 34.768 84.805 29.392 84.652 C 26.435 84.569, 24.013 84.136, 24.008 83.691 C 24.004 83.246, 23.597 83.131, 23.105 83.435 C 22.612 83.740, 21.907 83.204, 21.538 82.244 C 20.916 80.631, 20.783 80.647, 19.770 82.452 C 18.518 84.684, 18.522 111.922, 19.775 113.175 C 20.208 113.608, 28.648 113.350, 38.531 112.601 C 54.121 111.419, 56.653 111.430, 57.656 112.682 C 58.378 113.583, 58.753 117.755, 58.656 123.812 L 58.500 133.500 52 134.133 C 48.425 134.481, 39.789 134.819, 32.809 134.883 C 25.829 134.947, 19.928 135.338, 19.695 135.750 C 19.463 136.162, 19.486 140.325, 19.746 145 L 20.220 153.500 28.604 153.177 C 33.215 152.999, 41.601 153.316, 47.240 153.881 C 54.110 154.569, 57.823 154.576, 58.496 153.903 C 59.048 153.350, 59.504 148.904, 59.508 144.024 C 59.513 139.143, 59.791 134.875, 60.126 134.540 C 60.462 134.205, 64.620 133.874, 69.368 133.805 C 76.505 133.701, 78.012 133.403, 78.071 132.089 C 78.109 131.215, 78.081 127.013, 78.007 122.750 C 77.907 116.987, 78.210 114.978, 79.186 114.914 C 84.210 114.586, 97.350 115.017, 97.859 115.526 C 98.202 115.869, 98.361 119.885, 98.214 124.451 C 97.906 133.979, 97.445 133.552, 107.996 133.520 L 114.491 133.500 114.222 130 C 114.073 128.075, 114.598 122.596, 115.388 117.825 C 116.194 112.955, 116.582 106.486, 116.273 103.075 L 115.722 97 106.111 96.999 L 96.500 96.997 96.320 84.749 C 96.220 78.012, 95.850 68.989, 95.496 64.697 L 94.853 56.894 103.677 57.070 C 108.529 57.166, 113.175 57.596, 114 58.024 C 115.236 58.667, 115.495 61.500, 115.470 74.152 C 115.454 82.593, 115.072 90.718, 114.623 92.206 C 113.891 94.627, 114.104 94.988, 116.643 95.625 C 119.586 96.364, 122 98.215, 122 99.733 C 122 100.215, 123.744 100.712, 125.875 100.838 C 129.007 101.022, 129.849 100.686, 130.269 99.081 C 130.554 97.989, 130.273 96.885, 129.644 96.627 C 129.015 96.369, 129.790 96.122, 131.367 96.079 C 133.847 96.011, 134.155 96.298, 133.655 98.213 C 133.005 100.698, 135.376 103.963, 137.905 104.063 C 138.943 104.105, 138.714 104.443, 137.250 105.031 C 134.628 106.085, 134.478 106.903, 136.419 109.559 C 137.506 111.045, 139.102 111.517, 143.226 111.572 C 146.189 111.611, 149.201 112.006, 149.919 112.450 C 151.817 113.623, 152.840 111.348, 152.550 106.602 C 152.412 104.346, 152.883 100.475, 153.598 98 C 155.624 90.988, 156.335 79.325, 154.796 78.374 C 154.093 77.939, 149.689 77.565, 145.009 77.542 L 136.500 77.500 136 57.664 L 135.500 37.828 117 37.920 C 106.825 37.971, 98.050 37.672, 97.500 37.256 C 96.950 36.840, 96.500 32.271, 96.500 27.102 L 96.500 17.704 87.659 17.602 C 82.796 17.546, 78.418 17.746, 77.930 18.046 M 55.744 57.716 C 55.515 58.147, 55.381 62.596, 55.446 67.603 C 55.537 74.608, 55.943 77.086, 57.210 78.353 C 58.116 79.259, 59.371 80, 60 80 C 60.675 80, 60.500 80.643, 59.571 81.571 C 57.700 83.443, 57.620 84.220, 59.144 85.744 C 60.004 86.604, 59.964 87.673, 58.985 90.036 C 58.268 91.767, 57.657 95.617, 57.628 98.591 C 57.598 101.566, 57.243 104, 56.839 104 C 56.435 104, 56.575 105.350, 57.150 107 C 58.256 110.174, 59.821 110.779, 61.800 108.800 C 62.689 107.911, 63 107.901, 63 108.761 C 63 110.601, 71.204 109.799, 73.468 107.737 C 75.187 106.172, 75.500 104.210, 75.947 92.223 C 76.228 84.675, 76.467 73.775, 76.479 68 L 76.500 57.500 66.330 57.216 C 60.737 57.060, 55.973 57.285, 55.744 57.716 M 115.911 133.500 C 115.863 133.500, 115.729 137.436, 115.615 142.247 C 115.435 149.856, 115.639 151.068, 117.184 151.558 C 119.291 152.227, 151.878 151.193, 153.133 150.418 C 153.610 150.123, 154 146.814, 154 143.063 C 154 137.939, 153.589 135.904, 152.345 134.872 C 151.083 133.826, 146.577 133.500, 133.346 133.500 C 123.806 133.500, 115.960 133.500, 115.911 133.500 M 11.426 205.441 C 10.640 208.572, 11.934 210.346, 14.333 209.426 C 16.511 208.590, 16.438 207.386, 14.052 204.826 L 12.105 202.735 11.426 205.441" stroke="none" fill="black" fill-rule="evenodd"/>
</svg>