<svg xmlns="http://www.w3.org/2000/svg" width="256" height="256" viewBox="0 0 256 256" version="1.1">
	<path d="M 46.272 18.744 L 38.044 19.080 37.772 37.750 L 37.500 56.420 29 56.460 C 24.325 56.482, 20.169 56.950, 19.765 57.500 C 19.361 58.050, 19.024 70.762, 19.015 85.750 L 19 113 24.250 113.140 C 27.138 113.217, 31.140 113.183, 33.144 113.064 C 35.149 112.946, 37.093 113.342, 37.465 113.944 C 38.377 115.419, 38.905 131.536, 38.085 132.863 C 37.727 133.442, 33.399 134.047, 28.467 134.208 L 19.500 134.500 19.446 142.500 C 19.359 155.420, 18.629 154.556, 29.295 154.150 C 34.358 153.957, 38.667 153.640, 38.871 153.445 C 39.075 153.250, 39.170 148.796, 39.081 143.546 L 38.920 134 48.522 134 L 58.124 134 57.994 142.250 C 57.922 146.787, 57.894 151.355, 57.932 152.400 C 57.996 154.184, 58.625 154.260, 68.167 153.634 C 73.758 153.268, 78.854 152.536, 79.491 152.008 C 80.235 151.390, 81.014 151.414, 81.675 152.075 C 82.241 152.641, 85.582 152.967, 89.102 152.802 L 95.500 152.500 95.133 134.906 C 94.931 125.230, 95.050 116.418, 95.397 115.323 C 95.978 113.495, 96.738 113.366, 104.744 113.729 C 109.668 113.952, 113.759 114.610, 114.150 115.242 C 114.530 115.858, 114.834 124.128, 114.825 133.621 C 114.816 143.114, 115.133 151.407, 115.531 152.049 C 116.403 153.461, 134.131 153.014, 135.180 151.554 C 135.554 151.034, 135.455 149.851, 134.960 148.926 C 133.929 146.998, 133.530 97.569, 134.533 95.947 C 134.921 95.319, 138.352 94.932, 142.847 95.010 C 156.429 95.243, 155 96.349, 155 85.607 C 155 77.792, 154.722 76.107, 153.346 75.579 C 152.437 75.230, 143.662 74.947, 133.846 74.949 C 117.134 74.953, 116 74.835, 116 73.099 C 116 70.899, 118.493 68.569, 119.910 69.445 C 121.710 70.557, 125.914 68.845, 126.587 66.727 C 128.189 61.679, 134.434 58.976, 133.579 63.700 C 133.400 64.690, 133.614 66.400, 134.056 67.500 C 134.654 68.989, 134.877 68.399, 134.930 65.193 C 134.968 62.824, 135.429 58.999, 135.954 56.693 C 136.478 54.387, 137.193 49.424, 137.543 45.664 L 138.178 38.829 145.057 39.146 C 149.059 39.331, 152.385 39.015, 153.009 38.391 C 153.660 37.740, 153.968 33.813, 153.791 28.409 L 153.500 19.500 115.500 19.500 L 77.500 19.500 77.324 38 C 77.228 48.175, 77.115 57.063, 77.074 57.750 C 76.967 59.546, 59.656 59.495, 58.161 57.694 C 57.470 56.861, 57.077 49.784, 57.077 38.161 C 57.077 20.840, 56.783 17.734, 55.191 18.204 C 54.811 18.315, 50.797 18.559, 46.272 18.744 M 98.437 46.006 C 98.403 49.303, 98.682 52, 99.057 52 C 99.432 52, 99.686 53.013, 99.620 54.250 C 99.531 55.922, 100.078 56.529, 101.750 56.613 C 102.987 56.676, 104 56.338, 104 55.863 C 104 55.389, 103.213 54.993, 102.250 54.985 C 100.754 54.972, 100.718 54.828, 102 54 C 102.825 53.467, 103.050 53.010, 102.500 52.985 C 101.950 52.960, 102.277 52.486, 103.226 51.933 C 104.446 51.222, 104.842 49.984, 104.577 47.714 C 104.103 43.662, 105.360 41.262, 108.248 40.706 C 109.487 40.468, 107.800 40.214, 104.500 40.142 L 98.500 40.012 98.437 46.006 M 111.549 41.268 C 111.817 41.965, 111.663 45.259, 111.208 48.588 C 110.232 55.724, 110.516 57, 113.083 57 C 114.802 57, 114.993 56.253, 114.930 49.750 C 114.881 44.771, 114.590 43.127, 114 44.500 C 113.244 46.259, 113.132 46.162, 113.070 43.691 C 113.029 42.059, 113.419 41.141, 114 41.500 C 114.550 41.840, 115 41.641, 115 41.059 C 115 40.477, 114.114 40, 113.031 40 C 111.853 40, 111.258 40.509, 111.549 41.268 M 105.500 56 C 105.149 56.567, 105.990 57, 107.441 57 C 108.848 57, 110 56.550, 110 56 C 110 55.450, 109.127 55, 108.059 55 C 106.991 55, 105.840 55.450, 105.500 56 M 93.160 58.901 C 92.432 59.351, 88.694 59.623, 84.853 59.506 L 77.870 59.293 78.185 67.396 L 78.500 75.500 87.474 75.500 L 96.448 75.500 96.255 67.581 C 96.055 59.353, 95.400 57.517, 93.160 58.901 M 118.079 63.583 C 118.127 64.748, 118.364 64.985, 118.683 64.188 C 118.972 63.466, 118.936 62.603, 118.604 62.271 C 118.272 61.939, 118.036 62.529, 118.079 63.583 M 123.500 64 C 123.160 64.550, 123.359 65, 123.941 65 C 124.523 65, 125 64.550, 125 64 C 125 63.450, 124.802 63, 124.559 63 C 124.316 63, 123.840 63.450, 123.500 64 M 46.863 76.924 L 39.225 77.500 39.363 86 L 39.500 94.500 48.500 94.500 L 57.500 94.500 57.500 85.514 C 57.500 75.289, 58.444 76.051, 46.863 76.924 M 58.377 97.461 C 58.052 98.307, 58.172 106.538, 58.643 115.750 L 59.500 132.500 63 132.221 C 71.045 131.581, 74.135 130.795, 73.644 129.515 C 73.373 128.808, 73.712 127.390, 74.398 126.365 C 75.852 124.191, 76.465 118.064, 76.486 105.500 L 76.500 96.500 67.734 96.211 C 60.582 95.975, 58.859 96.205, 58.377 97.461 M 86.557 129.552 C 85.489 130.350, 83.451 130.914, 82.029 130.805 C 78.717 130.553, 76.934 131.664, 77.651 133.532 C 78.323 135.285, 81.668 135.496, 82.227 133.820 C 82.484 133.048, 83.291 132.932, 84.560 133.484 C 87.195 134.630, 93.009 134.794, 93.660 133.741 C 93.951 133.271, 93.937 131.886, 93.631 130.664 C 92.962 128.002, 89.387 127.440, 86.557 129.552 M 148 150.393 C 148 151.364, 150.817 151.729, 152.091 150.923 C 153.116 150.273, 152.751 150.026, 150.750 150.015 C 149.238 150.007, 148 150.177, 148 150.393" stroke="none" fill="black" fill-rule="evenodd"/>
</svg>