<svg xmlns="http://www.w3.org/2000/svg" width="256" height="256" viewBox="0 0 256 256" version="1.1">
	<path d="M 57.923 19.052 C 57.421 19.360, 56.906 36.273, 56.761 57.219 C 56.617 77.907, 56.219 95.115, 55.875 95.458 C 55.532 95.802, 47.207 96.211, 37.375 96.367 L 19.500 96.652 19.500 106.438 L 19.500 116.225 28.500 116.362 L 37.500 116.500 37.789 124.089 L 38.078 131.679 41.588 131.811 C 43.519 131.883, 45.535 132.213, 46.069 132.542 C 47.472 133.410, 53.994 131.059, 54.030 129.672 C 54.047 129.028, 54.575 129.388, 55.205 130.472 C 55.863 131.607, 56.325 136.596, 56.293 142.222 L 56.237 152 70.369 151.997 C 78.141 151.995, 91.575 151.700, 100.223 151.341 L 115.946 150.689 115.731 141.095 L 115.515 131.500 124.190 131.212 L 132.866 130.924 133.439 125.712 C 133.755 122.845, 134.123 118.475, 134.257 116 L 134.500 111.500 140.713 111.371 C 149.297 111.193, 150 110.793, 150 106.090 C 150 103.906, 150.451 101.839, 151.003 101.498 C 152.989 100.271, 150.046 96.876, 147.185 97.096 C 142.636 97.445, 136.635 97.032, 137.254 96.412 C 137.577 96.089, 140.773 95.847, 144.357 95.875 C 149.147 95.912, 151.448 95.458, 153.050 94.161 C 155.225 92.399, 155.227 92.364, 154.485 65.118 L 153.742 37.838 134.907 38.555 L 116.073 39.272 115.786 28.886 L 115.500 18.500 105.754 18.500 L 96.008 18.500 96.004 27.668 C 96.002 32.711, 95.771 37.436, 95.492 38.168 C 95.111 39.166, 92.917 39.419, 86.742 39.177 C 82.209 39, 78.177 38.542, 77.782 38.160 C 77.207 37.603, 76.650 31.432, 76.033 18.816 C 75.994 18.017, 59.256 18.236, 57.923 19.052 M 33 24 C 33 24.550, 31.200 25, 29 25 C 26.475 25, 24.994 25.461, 24.985 26.250 C 24.974 27.083, 24.646 27, 24 26 C 23.194 24.752, 23.016 24.836, 22.945 26.500 C 22.879 28.033, 22.701 28.150, 22.180 27 C 20.645 23.614, 19.225 25.291, 18.546 31.291 C 17.582 39.818, 17.871 72.947, 18.927 74.833 C 19.924 76.616, 28.013 77.382, 33.595 76.222 L 37.213 75.470 37.437 67.985 C 37.707 58.973, 36.241 27.336, 35.437 24.802 C 34.834 22.900, 33 22.297, 33 24 M 77.304 59.652 C 77.060 60.286, 77.009 64.111, 77.190 68.152 L 77.519 75.500 86.509 75.811 L 95.500 76.122 95.179 67.066 L 94.858 58.009 86.303 58.255 C 80.976 58.407, 77.580 58.935, 77.304 59.652 M 123 75.930 L 115.500 76.500 115.411 93.500 C 115.352 104.742, 115.690 110.749, 116.411 111.235 C 118.030 112.327, 132.786 112.155, 133.478 111.036 C 133.805 110.506, 134.096 107.131, 134.124 103.536 C 134.155 99.433, 134.588 97, 135.287 97 C 136.056 97, 136.029 96.629, 135.200 95.800 C 134.430 95.030, 134 91.089, 134 84.800 C 134 76.065, 133.810 75.020, 132.250 75.180 C 131.287 75.279, 127.125 75.617, 123 75.930 M 98 91.878 C 98 93.899, 97.525 94, 88.035 94 C 79.429 94, 77.938 94.248, 77.098 95.817 C 76.555 96.831, 76.208 105.112, 76.313 114.567 L 76.500 131.500 85.916 131.790 C 92.760 132, 95.568 131.727, 96.193 130.790 C 96.666 130.080, 97.001 125, 96.938 119.500 C 96.875 114, 96.863 106.202, 96.912 102.171 L 97 94.841 102.917 95.171 C 106.171 95.352, 109.171 95.162, 109.583 94.750 C 109.996 94.338, 109.557 94, 108.608 94 C 107.659 94, 107.160 93.550, 107.500 93 C 107.840 92.450, 107.390 92, 106.500 92 C 105.610 92, 105.160 92.450, 105.500 93 C 105.871 93.601, 104.597 93.994, 102.309 93.985 C 99.927 93.975, 98.986 93.661, 99.797 93.146 C 100.834 92.489, 100.783 92.065, 99.547 91.039 C 98.234 89.949, 98 90.075, 98 91.878 M 133.915 131.156 C 133.868 131.345, 133.654 135.310, 133.439 139.967 C 133.224 144.623, 132.826 149.011, 132.555 149.717 C 132.174 150.711, 134.422 151, 142.531 151 L 153 151 153 141.500 C 153 136.275, 152.887 131.984, 152.750 131.964 C 150.285 131.608, 133.976 130.909, 133.915 131.156 M 18.807 141.750 C 18.619 146.563, 18.611 151.002, 18.788 151.615 C 18.998 152.342, 22.310 152.690, 28.305 152.615 L 37.500 152.500 37.739 142.750 L 37.979 133 28.563 133 L 19.147 133 18.807 141.750 M 243 247.333 C 243 249.296, 243.874 249.846, 246.079 249.269 C 247.619 248.866, 247.796 248.459, 246.899 247.378 C 245.439 245.620, 243 245.592, 243 247.333" stroke="none" fill="black" fill-rule="evenodd"/>
</svg>