<svg xmlns="http://www.w3.org/2000/svg" width="256" height="256" viewBox="0 0 256 256" version="1.1">
	<path d="M 45.788 18.755 L 37.076 19.077 37.288 37.788 L 37.500 56.500 28.249 56.500 L 18.999 56.500 18.999 84.750 L 19 113 28.500 113 C 36.848 113, 38.011 113.212, 38.087 114.750 C 38.135 115.713, 38.247 120.100, 38.337 124.500 L 38.500 132.500 29 133 L 19.500 133.500 19.488 142 C 19.470 154.422, 18.704 153.529, 29.205 153.309 C 34.563 153.197, 38.589 152.665, 38.991 152.015 C 39.366 151.408, 39.473 146.881, 39.228 141.956 L 38.782 133 48.451 133 L 58.120 133 57.920 142.105 C 57.773 148.816, 58.073 151.427, 59.062 152.039 C 59.801 152.495, 60.681 152.697, 61.018 152.489 C 61.355 152.280, 69.702 151.801, 79.566 151.424 C 89.430 151.047, 97.950 150.396, 98.500 149.977 C 99.050 149.558, 100.400 148.994, 101.500 148.724 C 102.983 148.359, 102.724 148.171, 100.500 147.998 C 98.850 147.869, 97.162 147.816, 96.750 147.882 C 96.338 147.947, 96 146.263, 96 144.140 C 96 142.016, 95.717 138.079, 95.370 135.390 C 94.900 131.733, 95.030 130.769, 95.889 131.568 C 96.609 132.239, 98.986 132.379, 102.268 131.946 C 105.954 131.460, 108.313 131.669, 110.250 132.653 C 112.900 134.001, 113 134.339, 113 141.952 C 113 148.636, 112.730 149.924, 111.250 150.311 C 110.287 150.562, 115.013 150.820, 121.750 150.884 L 134 151 134 142.701 L 134 134.403 141.537 134.451 C 147.099 134.487, 149.315 134.891, 149.995 135.992 C 152.476 140.006, 153.090 134.662, 153.318 107.073 C 153.536 80.692, 153.432 78.767, 151.739 77.860 C 150.742 77.327, 142.406 76.886, 133.213 76.881 C 124.021 76.875, 115.737 76.652, 114.805 76.385 C 113.375 75.976, 113.107 74.499, 113.095 66.959 C 113.079 56.539, 112.300 57.155, 126 56.751 L 134.500 56.500 134.612 48.500 C 134.673 44.100, 134.373 40.050, 133.946 39.500 C 133.456 38.869, 122.534 38.549, 104.334 38.633 C 75.678 38.764, 65.533 39.462, 68.171 41.119 C 68.902 41.579, 70.287 41.709, 71.250 41.410 C 72.636 40.978, 73 41.461, 73 43.733 C 73 45.310, 72.438 47.206, 71.750 47.947 C 70.750 49.024, 70.750 49.152, 71.750 48.588 C 72.648 48.081, 73 48.884, 73 51.441 L 73 55 67 55.150 C 63.700 55.232, 60.438 55.345, 59.750 55.400 C 58.876 55.470, 58.427 53.319, 58.257 48.250 C 58.026 41.362, 58.126 40.994, 60.257 40.884 C 62.294 40.779, 62.317 40.723, 60.500 40.276 C 56.331 39.252, 55.928 38.116, 56.220 28.192 C 56.391 22.387, 56.110 18.631, 55.500 18.556 C 54.950 18.488, 50.580 18.578, 45.788 18.755 M 111.750 20.662 C 112.438 20.940, 113.563 20.940, 114.250 20.662 C 114.938 20.385, 114.375 20.158, 113 20.158 C 111.625 20.158, 111.063 20.385, 111.750 20.662 M 98.671 31.416 C 98.179 32.697, 98.821 33, 102.031 33 C 104.214 33, 106 32.523, 106 31.941 C 106 31.359, 105.550 31.160, 105 31.500 C 104.450 31.840, 104 31.641, 104 31.059 C 104 30.477, 103.325 30, 102.500 30 C 101.675 30, 100.993 30.563, 100.985 31.250 C 100.973 32.186, 100.757 32.165, 100.124 31.166 C 99.443 30.092, 99.160 30.141, 98.671 31.416 M 78 61.372 C 78 64.723, 79.850 66.153, 82.403 64.776 C 85.864 62.910, 90.354 63.259, 91.715 65.500 L 92.929 67.500 92.980 65.500 C 93.022 63.839, 93.195 63.754, 94 65 C 94.736 66.138, 94.973 65.716, 94.985 63.250 C 94.997 60.662, 94.593 60, 93 60 C 91.900 60, 90.993 60.563, 90.985 61.250 C 90.974 62.114, 90.743 62.161, 90.235 61.400 C 89.831 60.796, 86.912 60.041, 83.750 59.723 C 78.298 59.174, 78 59.260, 78 61.372 M 91.750 68.577 C 91.338 68.993, 91 70.513, 91 71.954 C 91 73.849, 91.548 74.616, 92.980 74.724 C 94.069 74.806, 95.221 74.451, 95.539 73.936 C 95.858 73.421, 95.304 72.964, 94.309 72.921 C 93.260 72.875, 93.025 72.630, 93.750 72.338 C 94.438 72.060, 94.968 70.858, 94.930 69.667 C 94.862 67.578, 94.831 67.572, 94.065 69.500 C 93.323 71.366, 93.244 71.377, 92.885 69.660 C 92.673 68.648, 92.162 68.161, 91.750 68.577 M 78 71.678 C 78 74.466, 78.112 74.521, 84.061 74.700 C 90.061 74.881, 90.118 74.856, 89.811 72.244 C 89.521 69.787, 89.104 69.579, 83.750 69.222 C 78.010 68.839, 78 68.843, 78 71.678 M 39.375 77.201 C 38.494 78.627, 38.759 93.163, 39.682 94.050 C 40.132 94.482, 44.100 94.979, 48.500 95.155 L 56.500 95.474 56.783 85.964 L 57.067 76.453 48.507 76.366 C 43.799 76.317, 39.689 76.693, 39.375 77.201 M 76.608 95.579 C 76.274 96.450, 75.947 100.164, 75.882 103.832 C 75.817 107.499, 75.454 111.850, 75.077 113.500 C 74.421 116.365, 74.355 116.398, 73.623 114.235 C 73.201 112.990, 72.551 112.140, 72.178 112.347 C 71.805 112.554, 68.926 112.426, 65.780 112.062 C 61.375 111.553, 59.938 111.719, 59.530 112.782 C 59.239 113.542, 59 118.209, 59 123.153 L 59 132.143 67.750 131.821 C 72.563 131.645, 80.404 131.875, 85.176 132.334 L 93.852 133.167 94.478 128.834 C 94.822 126.450, 94.968 117.783, 94.802 109.573 L 94.500 94.645 85.858 94.320 C 78.694 94.050, 77.112 94.265, 76.608 95.579 M 114.561 96.702 C 113.627 99.135, 113.932 111.692, 114.993 114.482 C 115.862 116.766, 116.394 117.018, 119.243 116.492 C 121.119 116.146, 124.253 116.514, 126.635 117.361 C 132.430 119.420, 133 118.475, 133 106.819 C 133 95.620, 133.851 96.468, 121.811 95.678 C 116.573 95.335, 115 95.557, 114.561 96.702 M 74.079 122.583 C 74.127 123.748, 74.364 123.985, 74.683 123.188 C 74.972 122.466, 74.936 121.603, 74.604 121.271 C 74.272 120.939, 74.036 121.529, 74.079 122.583 M 243.648 247.474 C 243.215 248.604, 243.747 249, 245.698 249 C 247.147 249, 248.146 248.873, 247.917 248.717 C 247.688 248.561, 246.765 247.875, 245.867 247.192 C 244.535 246.179, 244.125 246.231, 243.648 247.474" stroke="none" fill="black" fill-rule="evenodd"/>
</svg>