<svg xmlns="http://www.w3.org/2000/svg" width="256" height="256" viewBox="0 0 256 256" version="1.1">
	<path d="M 85.191 18.745 L 76.881 19.083 77.007 27.791 C 77.076 32.581, 77.102 37.064, 77.066 37.753 C 77.002 38.969, 59.109 38.889, 29.455 37.540 C 24.480 37.314, 19.959 37.437, 19.408 37.814 C 18.309 38.567, 18.092 55.424, 19.168 56.501 C 19.955 57.288, 27.719 57.698, 45.157 57.873 L 57.814 58 57.657 67.936 L 57.501 77.871 54.500 78.427 C 52.850 78.733, 47.675 78.540, 43 77.999 C 30.802 76.587, 19.306 76.706, 18.823 78.250 C 18.608 78.938, 18.672 83.550, 18.966 88.500 L 19.500 97.500 26.500 98.242 C 30.350 98.651, 34.507 98.756, 35.738 98.476 C 38.713 97.801, 42.024 91.260, 41.399 87.294 C 40.979 84.630, 41.336 84.068, 44.362 82.633 C 46.376 81.677, 50.331 81, 53.901 81 C 58.247 81, 59.928 80.641, 59.750 79.750 C 59.571 78.855, 61.703 78.417, 67.250 78.208 C 73.692 77.965, 75 78.176, 75 79.458 C 75 80.306, 74.298 81, 73.441 81 C 72.460 81, 72.160 81.463, 72.633 82.250 C 73.143 83.099, 72.842 83.060, 71.692 82.128 C 70.761 81.373, 70 81.204, 70 81.753 C 70 82.301, 68.875 82.750, 67.500 82.750 C 66.125 82.750, 65 82.266, 65 81.675 C 65 80.978, 64.578 81.022, 63.800 81.800 C 63.140 82.460, 61.613 83, 60.407 83 C 59.201 83, 57.941 83.712, 57.607 84.582 C 57.273 85.452, 57 92.590, 57 100.445 L 57 114.726 63.696 115.264 C 67.379 115.559, 71.424 115.409, 72.685 114.930 C 74.640 114.187, 75.070 114.433, 75.616 116.604 C 75.967 118.005, 75.950 125.772, 75.578 133.866 C 75.207 141.960, 75.156 149.242, 75.465 150.048 C 75.911 151.211, 77.682 151.438, 84.033 151.150 C 89.132 150.918, 92.543 151.206, 93.430 151.942 C 95.371 153.553, 95.669 152.656, 96.406 143 C 97.589 127.489, 97.924 126.098, 100.352 126.587 C 101.533 126.825, 105.083 127.219, 108.241 127.462 C 114.778 127.965, 116.106 126.800, 115.780 120.850 C 115.418 114.244, 115.995 108.879, 117 109.500 C 117.550 109.840, 118.036 109.304, 118.079 108.309 C 118.138 106.952, 118.301 106.863, 118.730 107.954 C 119.045 108.754, 120.099 110.263, 121.072 111.308 C 122.606 112.954, 123.300 113.056, 126.277 112.074 C 128.604 111.306, 130.540 111.255, 132.278 111.916 C 135.937 113.307, 137.316 111.288, 136.486 105.755 C 135.636 100.086, 136.602 99.348, 146 98.489 C 150.125 98.112, 153.831 97.285, 154.235 96.652 C 155.132 95.244, 155.202 86.855, 154.358 81.750 L 153.738 78 134.369 78 L 115 78 114.867 73.750 C 114.793 71.412, 114.601 67.925, 114.438 66 C 113.761 57.960, 112.760 58.395, 133.682 57.640 C 143.979 57.268, 152.651 56.567, 152.952 56.084 C 153.254 55.600, 153.275 51.457, 153 46.878 L 152.500 38.552 125 38.341 C 109.875 38.225, 97.015 38.101, 96.423 38.065 C 95.727 38.023, 95.403 34.902, 95.507 29.250 C 95.669 20.476, 95.341 17.824, 94.143 18.204 C 93.789 18.315, 89.761 18.559, 85.191 18.745 M 76.702 58.632 C 75.843 59.491, 75.764 74.222, 76.607 76.418 C 77.098 77.697, 78.920 78, 86.107 78 C 90.998 78, 95.011 77.662, 95.024 77.250 C 95.037 76.838, 95.149 72.450, 95.274 67.500 L 95.500 58.500 86.452 58.215 C 81.475 58.058, 77.087 58.246, 76.702 58.632 M 96.935 80.122 C 96.310 81.289, 96.050 83.498, 96.356 85.030 C 96.662 86.562, 96.527 89.162, 96.055 90.807 C 94.586 95.931, 97.339 96.843, 109.765 95.350 L 115.031 94.718 114.594 87.609 C 114.353 83.699, 114.121 79.938, 114.078 79.250 C 114.023 78.361, 111.699 78, 106.035 78 C 98.941 78, 97.946 78.232, 96.935 80.122 M 49.380 87.452 C 48.691 89.249, 49.808 91.237, 51.069 90.457 C 52.336 89.674, 52.253 86, 50.969 86 C 50.401 86, 49.686 86.653, 49.380 87.452 M 66.500 89.922 C 64.562 90.680, 64.569 90.726, 66.741 91.417 C 67.974 91.808, 69.398 91.872, 69.906 91.558 C 70.414 91.244, 71.057 91.553, 71.336 92.244 C 71.658 93.044, 71.871 92.904, 71.921 91.857 C 71.982 90.591, 69.702 88.638, 68.668 89.070 C 68.576 89.109, 67.600 89.492, 66.500 89.922 M 118 102.441 C 118 103.298, 118 104.225, 118 104.500 C 118 104.775, 118.309 105.012, 118.687 105.027 C 119.750 105.070, 119.937 102.079, 118.911 101.445 C 118.410 101.135, 118 101.584, 118 102.441 M 125.638 103.500 C 125.288 104.414, 125.637 105, 126.531 105 C 127.339 105, 128 105.440, 128 105.979 C 128 106.582, 128.927 106.535, 130.421 105.854 C 131.845 105.205, 132.624 104.185, 132.314 103.376 C 131.601 101.518, 126.362 101.615, 125.638 103.500 M 103 120.383 C 103 121.293, 106.898 121.679, 108.139 120.893 C 109.064 120.307, 108.460 120.026, 106.250 120.015 C 104.463 120.007, 103 120.173, 103 120.383 M 116.187 140.541 L 116.583 150.500 125.542 150.574 C 130.469 150.614, 138.383 150.787, 143.130 150.957 C 147.876 151.127, 152.264 150.955, 152.880 150.574 C 154.663 149.472, 154.322 136.512, 152.469 134.974 C 151.411 134.097, 145.955 133.600, 134.842 133.369 C 124.049 133.145, 118.260 132.631, 117.269 131.808 C 115.978 130.737, 115.841 131.840, 116.187 140.541 M 19.387 134.433 C 19.125 135.117, 19.043 139.175, 19.205 143.452 L 19.500 151.227 26.982 151.524 C 37.379 151.938, 37.679 151.685, 37.523 142.588 C 37.452 138.448, 37.144 134.811, 36.838 134.505 C 36.533 134.200, 32.589 133.779, 28.074 133.570 C 22.159 133.296, 19.731 133.537, 19.387 134.433 M 11.678 203.671 C 10.764 209.308, 11.556 211.294, 14.089 209.712 C 16.084 208.466, 16.709 206, 15.029 206 C 14.494 206, 13.674 204.537, 13.206 202.750 L 12.354 199.500 11.678 203.671 M 243 247.500 C 243 248.325, 243.675 249, 244.500 249 C 245.325 249, 246 248.325, 246 247.500 C 246 246.675, 245.325 246, 244.500 246 C 243.675 246, 243 246.675, 243 247.500" stroke="none" fill="black" fill-rule="evenodd"/>
</svg>