<svg xmlns="http://www.w3.org/2000/svg" width="256" height="256" viewBox="0 0 256 256" version="1.1">
	<path d="M 82.305 16.727 C 75.380 17.024, 74.018 17.367, 73.520 18.936 C 73.196 19.957, 73 21.177, 73.084 21.646 C 73.168 22.116, 73.184 25.948, 73.118 30.162 L 73 37.824 57.250 38.162 C 42.005 38.489, 37.228 39.287, 40.055 41.034 C 40.865 41.535, 41.258 43.750, 41.142 47.159 C 40.911 53.935, 40.325 55.761, 38.203 56.320 C 37.266 56.566, 38.300 56.897, 40.500 57.055 C 42.700 57.213, 45.175 57.442, 46 57.565 C 46.825 57.687, 52.371 57.835, 58.324 57.894 L 69.148 58 68.824 67.250 L 68.500 76.500 50.531 77 L 32.561 77.500 31.440 81.500 C 30.824 83.700, 29.910 85.275, 29.410 85 C 28.909 84.725, 28.366 86.795, 28.203 89.599 L 27.906 94.698 34.203 94.981 C 37.666 95.137, 42.300 95.400, 44.500 95.566 C 46.700 95.732, 54.013 96.184, 60.750 96.571 L 73 97.275 73.158 104.887 C 73.244 109.074, 73.312 112.950, 73.309 113.500 C 73.305 114.122, 77.231 114.385, 83.705 114.196 L 94.107 113.891 93.915 121.861 C 93.809 126.245, 93.447 130.252, 93.111 130.767 C 92.198 132.165, 77.323 133.008, 74 131.850 C 71.206 130.876, 71.134 130.682, 71.644 125.486 C 72.230 119.520, 70.788 114.940, 69.552 118.837 C 68.919 120.831, 68.149 121.012, 59.683 121.156 C 54.632 121.241, 49.573 121.237, 48.439 121.147 C 46.984 121.032, 45.882 122.025, 44.689 124.526 C 43.760 126.474, 43 128.646, 43 129.354 C 43 130.795, 38.526 135, 36.992 135 C 35.693 135, 35.700 136.962, 37 137.125 C 37.550 137.194, 38.450 137.363, 39 137.500 C 39.550 137.637, 40.675 137.806, 41.500 137.875 C 42.524 137.960, 43 139.111, 43 141.500 C 43 144.374, 42.629 145, 40.929 145 C 39.789 145, 38.186 145.672, 37.365 146.492 C 34.218 149.639, 36.812 150.180, 52.750 149.703 C 61.290 149.447, 69.678 149.606, 71.389 150.055 C 75.160 151.046, 88.817 151.846, 91.250 151.218 C 92.723 150.838, 93.002 149.557, 93.015 143.133 C 93.024 138.935, 93.389 134.935, 93.828 134.245 C 94.411 133.326, 97.223 133.109, 104.312 133.436 L 114 133.882 114.085 130.191 C 114.132 128.161, 114.097 124.078, 114.007 121.118 L 113.843 115.737 116.671 116.426 C 122.851 117.930, 133.120 116.175, 136.451 113.046 C 138.591 111.035, 139.560 110.817, 143.822 111.382 C 150.323 112.244, 151.580 110.772, 151.269 102.661 C 151.141 99.348, 150.587 96.187, 150.038 95.638 C 149.488 95.088, 145.317 94.554, 140.769 94.450 C 130.305 94.212, 123.329 91.300, 128.949 89.516 C 131.645 88.660, 130.472 86.263, 126.982 85.496 C 124.162 84.877, 124.152 84.848, 126.065 82.935 C 127.129 81.871, 128.675 81, 129.500 81 C 130.325 81, 131 80.530, 131 79.956 C 131 79.382, 130.438 78.985, 129.750 79.075 C 125.423 79.637, 116.101 78.794, 114.614 77.707 C 113.144 76.632, 112.842 74.839, 112.826 67.103 C 112.816 61.982, 113.189 57.442, 113.654 57.013 C 114.313 56.406, 124.346 55.216, 130.388 55.028 C 131.731 54.986, 130.123 41.980, 128.585 40.442 C 126.921 38.778, 121.681 38.048, 107.150 37.456 C 100.907 37.202, 95.393 36.743, 94.896 36.436 C 94.399 36.129, 94.107 31.518, 94.246 26.189 C 94.537 15.076, 95.884 16.142, 82.305 16.727 M 76.888 37.803 C 74.343 38.098, 74.261 38.333, 73.729 46.803 C 73.428 51.586, 73.324 55.645, 73.496 55.822 C 73.924 56.260, 79.347 56.419, 86.041 56.190 L 91.581 56 91.186 49.479 C 90.962 45.787, 91.245 42.410, 91.838 41.695 C 92.414 41.001, 92.574 39.931, 92.193 39.317 C 91.498 38.197, 81.779 37.236, 76.888 37.803 M 22.775 69.558 C 22.469 69.865, 22.446 70.990, 22.725 72.058 C 23.320 74.333, 26 74.695, 26 72.500 C 26 71.675, 26.563 70.993, 27.250 70.985 C 28.083 70.974, 28 70.646, 27 70 C 25.308 68.907, 23.605 68.729, 22.775 69.558 M 94.398 98.550 C 94.024 100.041, 94.119 104.179, 94.609 107.746 L 95.500 114.230 104.298 114.468 L 113.096 114.705 112.942 108.103 C 112.752 99.998, 112.219 97.402, 110.683 97.101 C 110.033 96.974, 106.255 96.637, 102.289 96.354 C 95.112 95.841, 95.075 95.851, 94.398 98.550 M 244.079 247.583 C 244.127 248.748, 244.364 248.985, 244.683 248.188 C 244.972 247.466, 244.936 246.603, 244.604 246.271 C 244.272 245.939, 244.036 246.529, 244.079 247.583" stroke="none" fill="black" fill-rule="evenodd"/>
</svg>