<svg xmlns="http://www.w3.org/2000/svg" width="256" height="256" viewBox="0 0 256 256" version="1.1">
	<path d="M 84.602 15.738 L 75.705 16.082 76.292 27.219 C 76.615 33.345, 76.483 39.098, 75.998 40.004 C 75.259 41.385, 73.635 41.605, 65.958 41.361 L 56.800 41.070 55.671 44.060 C 54.771 46.445, 53.784 47.171, 50.790 47.650 C 48.725 47.980, 47.257 48.607, 47.527 49.044 C 48.125 50.011, 37.300 51.245, 27.275 51.353 C 18.701 51.446, 18.719 51.421, 19.199 62.464 L 19.500 69.387 31 69.351 C 37.325 69.331, 49.751 68.994, 58.614 68.602 L 74.728 67.889 75.364 71.070 C 75.714 72.819, 76 79.390, 76 85.672 L 76 97.093 73.017 98.797 C 71.377 99.733, 70.139 101.175, 70.267 102 C 70.456 103.219, 69.286 103.464, 64.022 103.310 C 59.913 103.189, 57.267 103.555, 56.787 104.310 C 56.371 104.964, 56.024 110.112, 56.015 115.750 C 56.002 124.801, 55.795 126.012, 54.250 126.099 C 53.288 126.153, 48.675 126.281, 44 126.384 C 39.325 126.487, 31.584 126.667, 26.799 126.785 L 18.097 127 18.612 135.750 C 19.451 150.016, 17.121 148.500, 38.209 148.500 L 56.500 148.500 56.173 140.125 C 55.645 126.604, 55.331 127, 66.581 127 L 76.125 127 75.812 137.991 C 75.562 146.796, 75.784 149.091, 76.926 149.527 C 77.710 149.827, 82.113 149.998, 86.710 149.908 C 93.285 149.778, 95.249 149.397, 95.920 148.122 C 96.389 147.230, 96.737 142.338, 96.693 137.250 L 96.614 128 89.932 128 C 86.257 128, 81.844 127.719, 80.125 127.375 L 77 126.750 77.015 117.625 C 77.024 112.606, 77.366 107.973, 77.776 107.329 C 78.261 106.566, 81.277 106.226, 86.418 106.354 C 95.722 106.585, 95.445 106.234, 96.525 119.198 C 97.343 129.016, 96.465 128.233, 108.135 129.561 C 114.939 130.335, 115.729 131.550, 115.878 141.458 C 115.935 145.229, 116.209 148.542, 116.487 148.821 C 117.298 149.631, 152.974 149.577, 153.250 148.764 C 153.388 148.360, 153.275 143.955, 153 138.976 C 152.639 132.431, 152.084 129.661, 151 128.977 C 150.175 128.456, 145.877 128.024, 141.450 128.015 C 132.617 127.999, 131 127.192, 131 122.800 C 131 120.041, 130.910 120, 124.941 120 C 121.609 120, 119.131 120.403, 119.435 120.895 C 119.877 121.609, 117.960 123, 116.535 123 C 115.643 123, 114.788 117.424, 114.390 109 C 113.599 92.294, 114.193 93.373, 105.227 92.367 L 97.500 91.500 97.203 84.097 C 97.040 80.025, 97.268 76.332, 97.710 75.890 C 98.152 75.448, 101.794 74.893, 105.804 74.656 C 111.068 74.344, 113.665 73.707, 115.148 72.362 C 116.676 70.977, 119.544 70.318, 126.351 69.791 C 131.383 69.401, 139.100 68.794, 143.500 68.443 C 147.900 68.092, 151.930 67.396, 152.456 66.896 C 152.982 66.397, 153.532 61.228, 153.680 55.411 L 153.947 44.834 146.724 45.454 C 136.765 46.308, 125.291 44.767, 118.861 41.711 C 114.598 39.684, 112.079 39.194, 106.231 39.253 C 102.214 39.294, 98.510 38.910, 98 38.400 C 97.490 37.890, 96.944 32.534, 96.786 26.498 C 96.553 17.572, 96.220 15.512, 95 15.459 C 94.175 15.423, 89.496 15.549, 84.602 15.738 M 11.400 206.400 C 11.034 207.354, 11.229 208.629, 11.834 209.234 C 12.634 210.034, 13.116 209.861, 13.600 208.600 C 13.966 207.646, 13.771 206.371, 13.166 205.766 C 12.366 204.966, 11.884 205.139, 11.400 206.400 M 243.583 246.866 C 243.152 247.563, 243.070 248.403, 243.400 248.733 C 244.295 249.628, 245.271 248.312, 244.787 246.862 C 244.449 245.846, 244.213 245.846, 243.583 246.866" stroke="none" fill="black" fill-rule="evenodd"/>
</svg>