<svg xmlns="http://www.w3.org/2000/svg" width="256" height="256" viewBox="0 0 256 256" version="1.1">
	<path d="M 59.077 17.953 C 58.527 18.292, 57.948 23.054, 57.789 28.535 L 57.500 38.500 49.151 38.682 C 44.559 38.782, 40.534 39.132, 40.207 39.460 C 39.879 39.788, 39.673 43.183, 39.748 47.004 C 39.836 51.431, 39.453 54.229, 38.693 54.715 C 38.037 55.134, 33.450 55.482, 28.500 55.488 L 19.500 55.500 19.209 64.409 C 19.049 69.309, 19.318 73.718, 19.808 74.208 C 20.298 74.698, 24.479 75.292, 29.099 75.528 L 37.500 75.957 37.548 89.729 C 37.601 104.655, 37.303 106.428, 34.986 104.983 C 33.858 104.280, 33.759 103.642, 34.574 102.334 C 35.383 101.035, 35.267 100.167, 34.102 98.806 C 32.432 96.855, 30 96.378, 30 98 C 30 98.550, 29.347 99, 28.550 99 C 27.752 99, 26.678 99.754, 26.162 100.675 C 24.509 103.629, 22 103.169, 22 99.912 C 22 98.310, 21.550 97, 21 97 C 20.424 97, 20 100.115, 20 104.346 L 20 111.691 25.517 111.872 C 28.552 111.971, 31.895 111.591, 32.948 111.028 C 34.400 110.251, 35.265 110.408, 36.541 111.684 C 37.891 113.034, 39.875 113.317, 46.661 113.130 C 59.310 112.782, 59.003 112.541, 58.985 122.817 C 58.976 127.593, 58.639 131.950, 58.235 132.500 C 57.790 133.106, 50.010 133.500, 38.500 133.500 L 19.500 133.500 19 142.380 C 18.690 147.876, 18.881 151.369, 19.500 151.549 C 20.050 151.708, 27.700 152.140, 36.500 152.508 C 45.300 152.876, 53.850 153.250, 55.500 153.339 L 58.500 153.500 58.500 144 L 58.500 134.500 68.500 134.500 L 78.500 134.500 78.500 125 L 78.500 115.500 93.500 114.853 C 101.750 114.497, 115.025 113.678, 123 113.034 C 130.975 112.389, 141.438 111.911, 146.250 111.971 C 154.007 112.068, 155.008 111.877, 155.073 110.290 C 155.113 109.306, 155.091 105.125, 155.024 101 C 154.857 90.740, 153.860 90.069, 142.500 92.578 C 138.760 93.404, 137.902 91.697, 137.382 82.404 C 137.109 77.507, 136.461 70.205, 135.942 66.178 C 135.424 62.150, 135 56.884, 135 54.475 C 135 48.463, 132.100 42.492, 130.833 45.895 C 130.562 46.624, 125.408 47.789, 121.691 47.962 C 121.246 47.983, 121.160 48.450, 121.500 49 C 121.840 49.550, 121.390 50, 120.500 50 C 119.610 50, 119.141 49.581, 119.457 49.069 C 119.774 48.557, 119.632 47.890, 119.141 47.587 C 118.651 47.284, 118.250 45.905, 118.250 44.521 C 118.250 39.865, 116.510 39, 107.128 38.995 C 102.382 38.992, 94.112 38.699, 88.750 38.344 L 79 37.698 79 28.318 C 79 21.692, 78.633 18.820, 77.750 18.540 C 75.454 17.810, 60.090 17.327, 59.077 17.953 M 58.947 40.250 C 58.918 41.487, 58.681 44.975, 58.421 48 C 58.161 51.025, 58.345 54.097, 58.830 54.826 C 59.981 56.556, 66.696 57.423, 72.368 56.572 L 76.863 55.898 76.741 46.949 L 76.619 38 67.809 38 C 59.356 38, 58.998 38.091, 58.947 40.250 M 104 75.126 C 99.325 75.497, 91.161 75.846, 85.857 75.901 C 78.368 75.978, 76.088 76.328, 75.651 77.468 C 75.341 78.275, 75.475 79.176, 75.950 79.469 C 77.074 80.164, 76.068 84, 74.761 84 C 74.179 84, 74.265 84.614, 74.964 85.456 C 76.901 87.791, 75.144 89.272, 71.124 88.694 C 69.131 88.407, 66.610 88.513, 65.522 88.929 C 63.566 89.678, 63.567 89.698, 65.587 90.779 C 66.711 91.380, 69.176 91.748, 71.065 91.596 C 72.954 91.445, 75.512 91.975, 76.748 92.774 C 78.596 93.968, 81.898 94.109, 95.248 93.562 C 104.187 93.196, 112.755 92.655, 114.290 92.360 C 117.065 91.826, 117.076 91.792, 116.481 85.662 C 115.645 77.048, 115.200 75.276, 113.759 74.835 C 113.066 74.623, 108.675 74.754, 104 75.126 M 20.015 91.250 C 20.025 94.611, 20.343 96.007, 20.899 95.129 C 22.077 93.270, 22.107 86, 20.937 86 C 20.422 86, 20.007 88.362, 20.015 91.250 M 99 126.869 C 99 127.679, 107 127.251, 107.917 126.391 C 108.146 126.176, 106.233 126, 103.667 126 C 101.100 126, 99 126.391, 99 126.869 M 101.794 131.802 L 97.088 132.106 97.040 139.803 C 97.014 144.036, 96.882 148.400, 96.747 149.500 C 96.518 151.357, 97.108 151.506, 105 151.582 C 123.933 151.765, 146.735 151.802, 150.500 151.655 L 154.500 151.500 154.783 142 L 155.065 132.500 131.283 132.154 C 118.202 131.963, 107.275 131.738, 107 131.653 C 106.725 131.568, 104.382 131.635, 101.794 131.802 M 12 207.559 C 12 209.010, 12.433 209.851, 13 209.500 C 13.550 209.160, 14 208.009, 14 206.941 C 14 205.873, 13.550 205, 13 205 C 12.450 205, 12 206.152, 12 207.559 M 242 247.393 C 242 249.209, 243.884 249.823, 247 249.021 L 249.500 248.377 247.316 247.189 C 244.387 245.595, 242 245.687, 242 247.393" stroke="none" fill="black" fill-rule="evenodd"/>
</svg>