<svg xmlns="http://www.w3.org/2000/svg" width="256" height="256" viewBox="0 0 256 256" version="1.1">
	<path d="M 38 38.060 L 38 57.120 28.750 56.917 L 19.500 56.713 19.234 84.857 L 18.969 113 24.234 113.140 C 27.130 113.217, 31.201 113.329, 33.280 113.390 C 35.448 113.453, 37.468 114.140, 38.015 115 C 39.494 117.325, 39.243 131.554, 37.700 132.834 C 36.985 133.427, 32.598 134.045, 27.950 134.206 L 19.500 134.500 19.466 142.500 C 19.414 154.737, 18.769 154, 29.533 154 C 36.050 154, 38.977 153.626, 39.315 152.750 C 39.580 152.063, 39.549 147.338, 39.247 142.250 L 38.698 133 57.946 133 L 77.193 133 76.847 142.382 L 76.500 151.764 98 152.425 C 118.778 153.064, 135.081 152.686, 136.966 151.521 C 137.467 151.211, 137.666 149.955, 137.407 148.729 C 136.479 144.323, 136.322 140.325, 136.906 135.951 C 137.551 131.121, 137.681 131.061, 147.731 130.968 C 151.666 130.931, 152.658 129.330, 153.332 121.932 C 153.756 117.286, 153.571 116.388, 152.168 116.253 C 151.250 116.165, 146.450 115.555, 141.500 114.899 C 136.550 114.243, 129.350 113.623, 125.500 113.523 L 118.500 113.340 118.500 104.920 L 118.500 96.500 122.699 96.831 C 125.008 97.013, 127.708 97.293, 128.699 97.453 C 129.690 97.612, 130.964 97.378, 131.531 96.931 C 133.109 95.688, 137.372 95.117, 146.593 94.913 L 155 94.728 155.179 79.864 C 155.277 71.689, 155.389 63.987, 155.429 62.750 C 155.496 60.615, 154.991 60.458, 145.500 59.675 C 130.765 58.460, 96.991 58.763, 95.349 60.125 C 94.607 60.741, 94 60.852, 94 60.372 C 94 59.893, 90.962 59.398, 87.250 59.273 C 83.537 59.148, 78.025 58.857, 75 58.626 C 71.975 58.395, 66.912 58.159, 63.750 58.103 L 58 58 58 38.500 L 58 19 48 19 L 38 19 38 38.060 M 99.151 20 C 98.793 20.275, 98.500 24.775, 98.500 30 L 98.500 39.500 107.745 39.694 C 116.291 39.873, 117.077 39.725, 118.143 37.732 C 119.320 35.534, 120.139 20.024, 119.081 19.971 C 111.790 19.606, 99.640 19.624, 99.151 20 M 39.681 76.653 C 38.750 77.583, 38.814 94.767, 39.750 95.345 C 40.163 95.600, 44.325 95.953, 49 96.130 L 57.500 96.452 57.500 86.476 L 57.500 76.500 48.931 76.236 C 44.217 76.091, 40.055 76.278, 39.681 76.653 M 93.778 95.165 C 93.539 95.884, 91.425 96.261, 88.267 96.150 C 82.828 95.957, 82.660 96.108, 81.634 102.091 C 80.962 106.015, 83.754 111, 86.625 111 C 87.931 111, 89.189 110.888, 89.419 110.750 C 89.650 110.612, 90.913 111.509, 92.226 112.743 C 95.945 116.236, 97 114.148, 97 103.300 C 97 95.943, 96.704 94, 95.583 94 C 94.804 94, 93.992 94.524, 93.778 95.165 M 59.325 97.588 C 59.097 98.187, 59.043 102.237, 59.205 106.588 L 59.500 114.500 68.500 114.500 L 77.500 114.500 77.500 106 L 77.500 97.500 68.620 97 C 62.708 96.667, 59.602 96.864, 59.325 97.588 M 102.500 116 L 97.500 116.500 97 123.764 C 96.725 127.759, 96.650 131.471, 96.833 132.014 C 97.216 133.146, 112.991 133.344, 114.500 132.235 C 115.050 131.831, 115.556 128.012, 115.624 123.750 C 115.718 117.839, 115.421 115.970, 114.374 115.875 C 110.401 115.514, 107.007 115.549, 102.500 116 M 148.750 150.662 C 149.438 150.940, 150.563 150.940, 151.250 150.662 C 151.938 150.385, 151.375 150.158, 150 150.158 C 148.625 150.158, 148.063 150.385, 148.750 150.662 M 244.079 247.583 C 244.127 248.748, 244.364 248.985, 244.683 248.188 C 244.972 247.466, 244.936 246.603, 244.604 246.271 C 244.272 245.939, 244.036 246.529, 244.079 247.583" stroke="none" fill="black" fill-rule="evenodd"/>
</svg>