<svg xmlns="http://www.w3.org/2000/svg" width="256" height="256" viewBox="0 0 256 256" version="1.1">
	<path d="M 46.250 18.755 L 38 19.081 37.910 25.790 C 37.861 29.481, 37.748 38.075, 37.660 44.889 L 37.500 57.278 28.250 57.079 L 19 56.880 19 84.940 L 19 113 28.500 113 C 37.670 113, 38.002 113.078, 38.052 115.250 C 38.080 116.487, 38.192 120.875, 38.302 125 L 38.500 132.500 29 133 L 19.500 133.500 19.201 140.988 C 18.709 153.329, 18.427 153, 29.519 153 L 39 153 39 143 L 39 133 48 133 C 55.878 133, 57.009 133.218, 57.071 134.750 C 57.109 135.713, 57.082 139.929, 57.011 144.120 C 56.916 149.605, 57.247 151.863, 58.190 152.181 C 58.910 152.423, 63.426 152.436, 68.224 152.209 L 76.947 151.797 76.548 143.459 C 76.264 137.550, 76.516 134.817, 77.410 134.075 C 78.104 133.499, 82.344 133.106, 86.836 133.201 L 95 133.375 95.125 136.688 C 95.194 138.509, 95.362 140.900, 95.500 142 C 95.638 143.100, 95.806 145.817, 95.875 148.038 L 96 152.075 105.249 151.788 L 114.497 151.500 114.165 147.673 C 113.983 145.568, 114.142 141.604, 114.519 138.864 L 115.204 133.882 123.312 134.484 C 127.771 134.816, 131.640 135.307, 131.909 135.575 C 132.177 135.844, 132.420 139.461, 132.448 143.613 C 132.511 152.825, 133.588 154.049, 140.681 152.973 C 143.279 152.578, 146.687 152.623, 148.255 153.073 C 150.291 153.657, 151.248 153.517, 151.607 152.582 C 152.493 150.273, 152.556 134.843, 151.681 134.303 C 151.217 134.016, 146.937 133.718, 142.169 133.641 L 133.500 133.500 133.487 124.820 C 133.480 120.047, 133.194 115.861, 132.852 115.519 C 132.510 115.177, 128.615 114.808, 124.197 114.698 C 119.778 114.589, 115.945 114.275, 115.679 114 C 114.957 113.254, 114.757 110.295, 114.885 102.250 L 115 95 134.500 95 L 154 95 154 86 C 154 81.050, 153.887 76.912, 153.750 76.804 C 153.613 76.696, 144.500 76.358, 133.500 76.054 L 113.500 75.500 113.727 67.532 C 113.851 63.149, 114.161 59.023, 114.415 58.362 C 114.748 57.493, 119.933 57.129, 133.139 57.045 C 143.184 56.982, 151.575 56.758, 151.786 56.548 C 152.096 56.237, 152.272 44.776, 152.053 39.152 C 152.010 38.058, 148.464 37.870, 133.250 38.152 L 114.500 38.500 114.213 28.713 L 113.927 18.926 104.713 19.213 L 95.500 19.500 95.500 29 L 95.500 38.500 77.146 39.313 C 67.052 39.760, 58.502 39.837, 58.146 39.484 C 57.791 39.132, 57.275 34.301, 57 28.751 C 56.722 23.144, 56.056 18.608, 55.500 18.544 C 54.950 18.480, 50.788 18.575, 46.250 18.755 M 76.921 59.462 C 76.558 66.531, 76.818 74.897, 77.432 75.890 C 77.926 76.689, 80.614 77.029, 85.340 76.891 C 96.674 76.560, 96.119 77.080, 95.787 67.124 L 95.500 58.500 86.250 58.212 C 78.496 57.971, 76.987 58.174, 76.921 59.462 M 54 61.500 C 54 62.875, 54.173 64, 54.383 64 C 54.594 64, 54.982 62.875, 55.245 61.500 C 55.508 60.125, 55.335 59, 54.861 59 C 54.388 59, 54 60.125, 54 61.500 M 53.400 74.727 C 52.686 75.859, 50.915 76.305, 47.277 76.268 C 44.462 76.240, 41.720 75.945, 41.184 75.614 C 40.648 75.283, 40.016 75.571, 39.779 76.256 C 38.928 78.711, 39.018 96.572, 39.897 100 C 40.391 101.925, 40.841 102.761, 40.898 101.857 C 41.021 99.884, 43.059 98.989, 47.332 99.032 C 50.468 99.063, 55.958 101.983, 52.941 102.015 C 51.707 102.028, 51.711 102.164, 52.971 102.961 C 53.780 103.473, 54.582 103.752, 54.752 103.581 C 55.679 102.655, 56.347 97.339, 56.737 87.794 C 57.067 79.719, 56.834 76.601, 55.790 75.111 C 54.554 73.347, 54.297 73.305, 53.400 74.727 M 76.692 94.641 C 76.312 95.022, 76 99.758, 76 105.167 L 76 115 85.535 115 L 95.070 115 94.785 104.750 L 94.500 94.500 85.942 94.224 C 81.236 94.073, 77.073 94.260, 76.692 94.641 M 59.611 116 C 59.499 116.275, 59.282 120.007, 59.128 124.293 L 58.848 132.087 66.674 131.793 L 74.500 131.500 74.792 123.750 L 75.084 116 71.792 115.861 C 63.272 115.501, 59.798 115.540, 59.611 116 M 243 247.500 C 243 248.452, 243.958 249, 245.622 249 C 247.840 249, 248.053 248.768, 247 247.500 C 246.315 246.675, 245.135 246, 244.378 246 C 243.620 246, 243 246.675, 243 247.500" stroke="none" fill="black" fill-rule="evenodd"/>
</svg>