<svg xmlns="http://www.w3.org/2000/svg" width="256" height="256" viewBox="0 0 256 256" version="1.1">
	<path d="M 82.500 18.933 L 74.500 19.500 74.209 28.991 C 74.049 34.211, 73.485 38.915, 72.955 39.445 C 72.425 39.975, 70.335 40.297, 68.309 40.160 C 66.283 40.024, 63.443 40.402, 61.998 41.001 C 58.810 42.322, 56.739 47.444, 57.618 51.838 C 58.564 56.568, 56.975 57.657, 47.984 58.441 L 40 59.137 39.805 64.819 C 39.698 67.943, 39.564 71.850, 39.507 73.500 L 39.403 76.500 29.452 77 L 19.500 77.500 19.202 83.176 C 19.039 86.298, 19.292 90.348, 19.766 92.176 C 20.602 95.403, 20.786 95.504, 26.064 95.640 C 29.054 95.717, 32.468 95.328, 33.650 94.775 C 36.223 93.571, 38.648 88.214, 39.473 81.913 L 40.074 77.326 46.084 77.109 C 49.390 76.989, 54.136 77.198, 56.631 77.572 C 60.688 78.180, 61.095 78.477, 60.479 80.376 C 57.939 88.220, 59.498 91.912, 64.737 90.455 C 69.174 89.222, 70.038 89.129, 69.538 89.939 C 68.902 90.968, 75.994 93.197, 78.500 92.755 C 79.600 92.561, 81.400 91.960, 82.500 91.420 C 83.600 90.880, 85.717 90.497, 87.203 90.570 C 90.121 90.711, 90.249 90.424, 91.573 80.767 C 92.168 76.426, 92.027 75.962, 89.861 75.151 C 88.562 74.665, 86.150 74.426, 84.500 74.619 C 71.834 76.104, 70 76.177, 70 75.195 C 70 74.616, 70.719 73.424, 71.597 72.546 C 72.476 71.667, 72.940 70.285, 72.629 69.474 C 72.317 68.663, 72.403 68, 72.819 68 C 73.234 68, 73.672 66.537, 73.791 64.750 C 73.911 62.962, 74.549 60.456, 75.210 59.180 C 76.354 56.973, 76.771 56.892, 83.838 57.505 C 87.922 57.860, 92.359 58.566, 93.697 59.075 C 95.035 59.584, 100.103 60, 104.958 60 C 114.247 60, 115.470 60.613, 113.932 64.500 C 113.497 65.600, 113.102 68.525, 113.055 71 C 113.007 73.475, 112.288 78.200, 111.457 81.500 C 110.625 84.800, 109.820 88.049, 109.668 88.721 C 109.178 90.884, 108.341 91.119, 100.465 91.311 L 92.719 91.500 92.323 96.954 C 92.105 99.953, 91.830 102.502, 91.713 102.618 C 91.467 102.860, 82.337 103.221, 79.781 103.089 C 78.631 103.029, 78.266 102.471, 78.677 101.399 C 79.123 100.238, 78.796 99.894, 77.490 100.149 C 76.500 100.342, 75.518 101.400, 75.309 102.500 C 74.386 107.368, 73.355 120.744, 73.713 123.208 C 73.994 125.137, 73.516 126.285, 72.053 127.199 C 70.924 127.904, 70 129.048, 70 129.741 C 70 130.433, 69.213 131.042, 68.250 131.094 C 62.981 131.377, 60.344 131.705, 59 132.244 C 58.175 132.575, 50.632 133.054, 42.239 133.310 C 32.255 133.613, 26.465 134.199, 25.494 135.005 C 24.678 135.682, 23.108 136, 22.005 135.712 C 20.104 135.214, 20 135.671, 20 144.542 L 20 153.896 22.846 152.904 C 24.448 152.345, 30.458 152.140, 36.596 152.434 C 51.147 153.131, 60.354 153.063, 66.971 152.207 C 73.904 151.311, 74.700 149.861, 74.921 137.719 C 75.013 132.692, 75.314 128.352, 75.592 128.075 C 75.869 127.798, 79.694 127.513, 84.092 127.441 C 88.490 127.370, 92.535 126.865, 93.081 126.319 C 93.626 125.774, 94.310 123.566, 94.601 121.414 C 95.804 112.506, 95.133 113.065, 102.492 114.826 C 106.868 115.873, 109.345 116.055, 110.020 115.380 C 110.573 114.827, 111.292 110.352, 111.618 105.437 C 111.943 100.522, 112.420 96.275, 112.678 96 C 112.935 95.725, 117.047 95.050, 121.814 94.500 C 128.997 93.671, 130.542 93.183, 130.833 91.650 C 131.388 88.733, 130.066 83.209, 128.419 81.562 C 126.721 79.864, 127.235 79.665, 136.378 78.474 C 142.954 77.618, 144 77.118, 144 74.834 C 144 73.760, 144.450 73.160, 145 73.500 C 146.645 74.517, 146.134 73.061, 144.068 70.843 C 142.543 69.206, 142.337 68.243, 143.090 66.263 C 144.357 62.932, 142.933 61.343, 137.122 59.599 C 134.161 58.711, 132.625 57.726, 132.848 56.857 C 133.040 56.110, 133.437 52.080, 133.731 47.901 L 134.265 40.301 114.914 39.575 C 104.271 39.175, 95.211 38.631, 94.781 38.365 C 94.352 38.099, 94 33.409, 94 27.941 C 94 19.070, 93.812 18.020, 92.250 18.183 C 91.287 18.284, 86.900 18.622, 82.500 18.933 M 11.512 205.980 C 11.106 206.637, 11.224 207.624, 11.774 208.174 C 13.077 209.477, 14.113 207.801, 13.059 206.095 C 12.444 205.101, 12.073 205.073, 11.512 205.980 M 243 247.500 C 241.945 248.771, 242.173 249, 244.500 249 C 246.827 249, 247.055 248.771, 246 247.500 C 245.315 246.675, 244.640 246, 244.500 246 C 244.360 246, 243.685 246.675, 243 247.500" stroke="none" fill="black" fill-rule="evenodd"/>
</svg>