<svg xmlns="http://www.w3.org/2000/svg" width="256" height="256" viewBox="0 0 256 256" version="1.1">
	<path d="M 89 18.680 C 82.203 19.379, 80.722 19.960, 81.953 21.444 C 82.717 22.364, 82.744 22.919, 82.038 23.154 C 81.462 23.346, 80.863 25.698, 80.706 28.382 C 80.423 33.217, 80.456 33.276, 84.460 35 L 88.500 36.739 79.681 37.493 C 74.831 37.908, 59.233 37.960, 45.020 37.608 C 28.224 37.192, 19.059 37.316, 18.839 37.961 C 18.652 38.507, 18.644 43.015, 18.821 47.977 L 19.142 57 28.321 57.099 C 33.369 57.154, 41.775 57.266, 47 57.349 L 56.500 57.500 56.174 66.397 C 55.748 78.044, 55.471 78.305, 44.509 77.415 L 35.983 76.724 36.241 85.612 L 36.500 94.500 28 94.500 L 19.500 94.500 19.215 104.777 L 18.929 115.053 27.520 114.602 C 38.786 114.010, 38.620 113.666, 37.409 134.998 C 36.562 149.914, 36.619 151.008, 38.250 151.049 C 40.533 151.107, 62.954 151.106, 82.322 151.047 L 97.645 151 97.355 141.500 L 97.066 132 99.783 131.853 C 101.277 131.772, 104.975 131.659, 108 131.603 L 113.500 131.500 113.785 140.462 C 113.946 145.542, 114.542 149.717, 115.159 150.098 C 115.759 150.469, 123.281 150.858, 131.875 150.963 C 140.469 151.068, 148.625 151.232, 150 151.327 C 152.483 151.499, 152.502 151.437, 152.790 142.084 C 153.001 135.224, 152.729 132.445, 151.790 131.849 C 151.080 131.399, 146.900 131.017, 142.500 131 C 138.100 130.983, 132.475 130.332, 130 129.552 C 127.525 128.772, 126.063 128.104, 126.750 128.067 C 127.438 128.030, 128.876 127.124, 129.946 126.054 C 131.425 124.575, 131.755 123.265, 131.321 120.594 C 130.970 118.427, 131.374 115.522, 132.376 113.019 C 133.269 110.786, 134 107.709, 134 106.180 C 134 102.464, 135.662 100.921, 138.501 102 C 139.736 102.470, 142.717 102.717, 145.124 102.548 C 148.959 102.280, 149.711 101.825, 151.202 98.871 C 152.848 95.611, 153.720 82.045, 152.490 78.832 C 152.085 77.772, 148.096 77.563, 132.952 77.811 L 113.923 78.122 114.212 68.811 L 114.500 59.500 133.250 59.228 L 152 58.956 152 49.125 L 152 39.295 126.250 38.743 C 112.088 38.439, 99.741 37.886, 98.813 37.513 C 97.672 37.054, 97.348 36.239, 97.813 34.995 C 98.191 33.984, 98.352 29.746, 98.171 25.578 C 97.803 17.106, 98.585 17.694, 89 18.680 M 83.796 57.916 C 79.559 58.237, 75.633 58.961, 75.071 59.525 C 74.436 60.162, 74.338 62.434, 74.810 65.525 C 75.229 68.261, 75.323 71.850, 75.019 73.500 L 74.468 76.500 67.190 76.513 C 62.262 76.521, 59.649 76.951, 59.098 77.842 C 57.740 80.038, 56.918 95.197, 58.081 96.597 C 58.762 97.418, 61.736 97.828, 66.638 97.778 C 75.666 97.684, 76.740 96.628, 77.093 87.500 C 77.221 84.200, 77.526 80.938, 77.770 80.250 C 78.064 79.422, 80.458 78.995, 84.857 78.985 C 88.511 78.976, 92.175 78.543, 93 78.023 C 95.255 76.599, 96.199 59.975, 94.123 58.250 C 93.295 57.563, 92.366 57.075, 92.059 57.166 C 91.751 57.257, 88.033 57.594, 83.796 57.916 M 94.819 87.488 C 94.626 93.215, 94.928 97.559, 95.579 98.445 C 96.172 99.253, 98.310 100.026, 100.329 100.162 C 104.081 100.414, 105.573 102, 102.059 102 C 100.991 102, 99.797 102.520, 99.405 103.155 C 98.962 103.870, 99.130 104.038, 99.845 103.595 C 100.480 103.203, 101 103.331, 101 103.879 C 101 105.201, 104.966 104.872, 105.118 103.537 C 105.184 102.967, 105.145 101.825, 105.033 101 C 104.742 98.856, 108.558 103.031, 109.445 105.827 C 110.202 108.213, 111.840 108.716, 112.451 106.750 C 112.664 106.063, 113.063 99.313, 113.336 91.750 L 113.832 78 104.485 78 L 95.137 78 94.819 87.488 M 84.509 110.256 C 80.114 110.710, 76.201 111.401, 75.815 111.791 C 74.847 112.768, 72.767 130.100, 73.526 130.860 C 73.864 131.197, 79.126 131.644, 85.221 131.852 C 95.322 132.198, 96.245 132.081, 95.651 130.534 C 95.293 129.600, 95 124.448, 95 119.085 C 95 111.925, 94.668 109.346, 93.750 109.381 C 93.063 109.408, 88.904 109.801, 84.509 110.256 M 243 247.500 C 243 248.362, 243.902 249, 245.122 249 C 246.896 249, 247.040 248.753, 246 247.500 C 245.315 246.675, 244.360 246, 243.878 246 C 243.395 246, 243 246.675, 243 247.500" stroke="none" fill="black" fill-rule="evenodd"/>
</svg>