<svg xmlns="http://www.w3.org/2000/svg" width="256" height="256" viewBox="0 0 256 256" version="1.1">
	<path d="M 46.250 18.735 L 38 19.081 38 29.040 L 38 39 28.462 39 L 18.923 39 19.156 71.250 C 19.398 104.749, 19.874 113.468, 21.339 111.201 C 21.890 110.348, 22.576 110.231, 23.339 110.859 C 24.489 111.805, 28.876 112.442, 32.250 112.151 C 33.658 112.029, 34 111.043, 34 107.107 C 34 103.680, 34.449 102.042, 35.500 101.638 C 36.729 101.167, 37 102.130, 37 106.972 C 37 110.223, 37.450 113.160, 38 113.500 C 38.550 113.840, 39 116.949, 39 120.410 C 39 123.870, 39.475 128.065, 40.056 129.732 C 41.078 132.662, 41.285 132.749, 46.306 132.364 C 49.163 132.145, 52.729 131.762, 54.230 131.512 C 58.124 130.865, 59.123 133.440, 58.785 143.249 L 58.500 151.500 104.500 151.224 C 129.800 151.072, 150.950 150.960, 151.500 150.974 C 152.135 150.991, 152.500 143.601, 152.500 130.750 C 152.500 119.612, 152.621 106.450, 152.769 101.500 C 153.252 85.310, 152.475 23.527, 151.773 22.417 C 151.384 21.802, 147.429 21.265, 142.612 21.174 C 134.614 21.021, 134.022 21.157, 132.119 23.576 C 130.544 25.579, 130.308 26.679, 131.040 28.605 C 131.769 30.523, 131.628 31.206, 130.405 31.675 C 129.232 32.125, 129.145 32.471, 130.062 33.038 C 132.031 34.255, 125.739 36.969, 119.773 37.476 C 105.902 38.654, 88.494 38.997, 74.009 38.378 L 58.069 37.696 57.784 28.110 C 57.556 20.418, 57.204 18.510, 56 18.456 C 55.175 18.420, 50.788 18.545, 46.250 18.735 M 124 54.758 C 114.026 56.765, 113.897 57.014, 113.452 75.112 C 112.753 103.540, 112.754 109.088, 113.462 109.796 C 114.076 110.410, 131.092 112.019, 131.747 111.526 C 132.414 111.022, 131.967 55.784, 131.287 54.702 C 130.658 53.702, 129.194 53.713, 124 54.758 M 39.639 67 C 39.216 70.575, 39.012 77.775, 39.185 83 L 39.500 92.500 48.750 92.788 L 58 93.075 58.100 89.038 C 58.155 86.817, 58.220 83.987, 58.245 82.750 C 58.270 81.513, 57.945 76.818, 57.522 72.318 C 56.812 64.756, 56.616 64.223, 54.942 65.269 C 53.945 65.891, 53.395 66.830, 53.720 67.356 C 54.075 67.930, 53.108 68.072, 51.301 67.710 C 49.429 67.336, 47.527 67.643, 46.272 68.522 C 44.500 69.763, 44.063 69.726, 42.710 68.218 C 41.861 67.273, 40.996 65.150, 40.787 63.500 C 40.528 61.447, 40.165 62.551, 39.639 67 M 75.500 91.604 C 74.950 91.799, 71.125 92.080, 67 92.229 L 59.500 92.500 59.205 101 C 59.043 105.675, 59.156 110.481, 59.456 111.680 C 59.943 113.620, 60.360 113.757, 63.245 112.930 C 65.028 112.418, 68.965 112, 71.994 112 L 77.501 112 77.477 121.581 C 77.465 126.851, 77.689 131.306, 77.977 131.482 C 78.265 131.657, 82.325 131.958, 87 132.150 L 95.500 132.500 95.783 122.987 C 96.147 110.763, 95.571 109.884, 86.935 109.503 C 78.322 109.123, 78.280 109.114, 80 107.985 C 81.282 107.143, 81.294 106.867, 80.086 106.090 C 79.156 105.491, 78.615 103.086, 78.505 99.058 C 78.340 93.041, 77.478 90.904, 75.500 91.604 M 24 96.104 C 22.415 96.546, 24.175 96.837, 28.809 96.900 C 33.404 96.963, 35.889 97.371, 35.500 98 C 35.160 98.550, 35.359 99, 35.941 99 C 36.523 99, 37 98.213, 36.999 97.250 C 36.998 95.812, 36.063 95.492, 31.749 95.453 C 28.862 95.428, 25.375 95.720, 24 96.104 M 121.750 131.800 L 116 132.100 116.032 139.300 C 116.073 148.707, 117.071 150, 124.283 150 C 129.696 150, 129.871 149.913, 130.799 146.750 C 131.324 144.963, 131.802 140.964, 131.862 137.864 C 131.986 131.391, 131.795 131.276, 121.750 131.800 M 29.533 132.748 C 24.601 132.933, 20.292 133.528, 19.956 134.071 C 19.621 134.614, 19.479 138.757, 19.640 143.279 L 19.934 151.500 29.717 151.500 L 39.500 151.500 39.546 141.750 C 39.571 136.387, 39.346 132.093, 39.046 132.206 C 38.746 132.319, 34.465 132.563, 29.533 132.748 M 244.079 247.583 C 244.127 248.748, 244.364 248.985, 244.683 248.188 C 244.972 247.466, 244.936 246.603, 244.604 246.271 C 244.272 245.939, 244.036 246.529, 244.079 247.583" stroke="none" fill="black" fill-rule="evenodd"/>
</svg>