<svg xmlns="http://www.w3.org/2000/svg" width="256" height="256" viewBox="0 0 256 256" version="1.1">
	<path d="M 66 16.923 L 59.500 17.500 59.567 27.250 L 59.633 37 54.567 37.233 C 51.780 37.361, 42.525 37.473, 34 37.483 L 18.500 37.500 18.259 46 C 18.126 50.675, 18.369 55.049, 18.800 55.721 C 19.380 56.626, 26.293 56.965, 45.581 57.032 C 59.880 57.082, 72.206 57.510, 72.972 57.983 C 73.890 58.550, 74.423 60.997, 74.536 65.172 C 74.631 68.652, 75.047 72.287, 75.461 73.250 C 76.122 74.787, 75.562 75.011, 70.857 75.092 C 67.911 75.142, 63.700 75.317, 61.500 75.480 C 59.300 75.643, 52.685 75.827, 46.800 75.888 L 36.100 76 36.100 84.617 C 36.100 89.356, 35.876 93.457, 35.602 93.731 C 35.328 94.005, 31.368 94.290, 26.802 94.365 L 18.500 94.500 18.307 103.137 C 18.184 108.643, 18.546 112.281, 19.307 113.174 C 20.234 114.262, 22.507 114.455, 29.500 114.037 L 38.500 113.500 38.393 110 C 38.334 108.075, 38.135 104.025, 37.949 101 L 37.613 95.500 47.786 95.563 C 53.381 95.598, 58.151 95.823, 58.385 96.063 C 58.619 96.303, 58.425 100.298, 57.954 104.940 C 57.176 112.602, 57.269 113.500, 58.961 114.685 C 60.730 115.924, 61.114 118.219, 59.777 119.557 C 59.439 119.895, 59.418 122.652, 59.731 125.684 C 60.156 129.802, 59.946 131.421, 58.900 132.083 C 58.130 132.570, 53.134 132.976, 47.797 132.985 C 36.416 133.003, 30.123 135.104, 34.096 137.559 C 34.732 137.952, 34.948 139.552, 34.611 141.368 C 32.780 151.231, 32.720 150.862, 36.246 151.460 C 38.036 151.763, 51.875 151.897, 67 151.756 L 94.500 151.500 94.789 142.171 L 95.077 132.843 105.180 133.114 L 115.284 133.386 115.125 124.443 C 115.038 119.524, 115.361 114.901, 115.842 114.169 C 116.789 112.731, 123.432 112.894, 142.500 114.825 C 148 115.381, 152.869 115.482, 153.320 115.049 C 153.771 114.615, 154.317 110.159, 154.533 105.146 C 155.011 94.079, 154.925 94, 142.418 94 L 133.704 94 134.287 85.003 C 134.848 76.349, 134.786 75.984, 132.681 75.456 C 131.477 75.154, 122.844 75.040, 113.496 75.203 L 96.500 75.500 96.500 66.751 L 96.500 58.003 106.178 58.001 L 115.855 58 115.297 63.411 C 114.990 66.387, 115.043 70.034, 115.415 71.516 C 115.971 73.731, 116.482 74.090, 118.295 73.535 C 119.508 73.164, 121.940 72.757, 123.701 72.630 C 126.888 72.400, 131 69.608, 131 67.674 C 131 67.115, 130.266 65.846, 129.368 64.854 C 127.862 63.190, 127.861 62.861, 129.361 60.572 C 131.028 58.027, 132.366 57.635, 143.403 56.451 C 153.318 55.388, 154 54.782, 154 47.039 C 154 43.209, 153.492 39.892, 152.800 39.200 C 151.962 38.362, 146.460 37.995, 134.550 37.985 C 125.173 37.976, 117.050 37.639, 116.500 37.235 C 115.950 36.831, 115.500 32.045, 115.500 26.599 L 115.500 16.698 105.144 16.599 L 94.788 16.500 95.440 35 C 95.799 45.175, 95.734 54.013, 95.296 54.640 C 94.844 55.286, 90.825 55.935, 86 56.140 L 77.500 56.500 77.398 42 C 77.209 15.056, 77.303 15.977, 74.750 16.173 C 73.513 16.268, 69.575 16.605, 66 16.923 M 244 247.500 C 244 248.325, 244.730 249, 245.622 249 C 246.951 249, 247.020 248.729, 246 247.500 C 245.315 246.675, 244.585 246, 244.378 246 C 244.170 246, 244 246.675, 244 247.500" stroke="none" fill="black" fill-rule="evenodd"/>
</svg>