<svg xmlns="http://www.w3.org/2000/svg" width="256" height="256" viewBox="0 0 256 256" version="1.1">
	<path d="M 104 18.037 C 94.375 18.432, 71.338 18.811, 52.807 18.878 L 19.113 19 19.307 28.250 L 19.500 37.500 47.500 38 L 75.500 38.500 76.074 48.500 C 76.389 54, 76.478 58.833, 76.271 59.240 C 76.064 59.646, 70.406 59.775, 63.697 59.526 C 53.721 59.156, 23.468 58.776, 18.149 58.955 C 17.077 58.991, 16.938 60.501, 17.478 66.250 C 17.852 70.237, 18.581 75.155, 19.098 77.178 C 19.943 80.485, 20.364 80.848, 23.269 80.786 C 25.046 80.748, 37.862 80.791, 51.750 80.883 L 77 81.049 77.200 87.274 C 77.310 90.698, 77.441 95.075, 77.491 97 C 77.630 102.335, 76.630 103, 68.459 103 C 64.447 103, 60.549 103.236, 59.798 103.524 C 58.731 103.933, 58.518 106.236, 58.827 114.013 C 59.145 122.031, 58.941 124.086, 57.781 124.531 C 56.988 124.835, 52.775 125.184, 48.419 125.307 C 44.064 125.429, 39.825 125.973, 39 126.515 C 38.175 127.057, 33.225 127.524, 28 127.554 C 20.191 127.599, 18.579 127.866, 18.945 129.054 C 19.190 129.849, 19.566 135, 19.781 140.500 L 20.170 150.500 39.335 150.500 L 58.500 150.500 59 138.831 C 59.275 132.414, 59.743 126.921, 60.039 126.625 C 60.336 126.330, 64.764 126.011, 69.880 125.918 L 79.181 125.749 78.857 114.827 C 78.596 106.010, 78.820 103.725, 80.017 102.968 C 80.833 102.453, 85.031 102.024, 89.346 102.015 L 97.192 102 96.856 91.457 C 96.615 83.888, 96.867 80.700, 97.749 80.155 C 98.814 79.497, 110.306 79.432, 130 79.973 C 137.802 80.187, 151.332 78.959, 152.411 77.939 C 153.775 76.650, 154.038 71.940, 152.869 69.756 C 152.090 68.300, 152.244 67.388, 153.501 65.999 C 154.414 64.990, 155.012 63.121, 154.830 61.846 C 154.343 58.425, 150.057 57.998, 122.353 58.610 C 103.123 59.035, 98.042 58.877, 97.400 57.838 C 96.323 56.095, 96.260 38.957, 97.329 38.297 C 97.791 38.011, 107.019 37.688, 117.835 37.579 L 137.500 37.381 137.333 34.440 C 137.241 32.823, 136.993 28.350, 136.782 24.500 L 136.398 17.500 128.949 17.408 C 124.852 17.358, 113.625 17.641, 104 18.037 M 98.332 102.774 C 96.725 103.796, 98.226 127.904, 99.964 128.978 C 100.636 129.393, 103.170 129.510, 105.593 129.237 C 109.227 128.827, 110 129.030, 110 130.395 C 110 131.444, 111.130 132.276, 113.086 132.667 C 114.783 133.007, 116.428 134.008, 116.741 134.892 C 117.860 138.052, 119.239 139.228, 120.146 137.797 C 120.693 136.935, 120.975 137.423, 120.985 139.250 C 120.995 141.096, 120.481 142, 119.421 142 C 118.162 142, 117.983 142.661, 118.537 145.250 C 118.920 147.037, 119.321 148.603, 119.428 148.728 C 119.536 148.854, 127.246 149.079, 136.562 149.228 L 153.500 149.500 153.786 140.923 C 154.058 132.778, 153.938 132.211, 151.400 129.673 C 148.563 126.836, 148.749 126.860, 127 126.413 C 123.425 126.340, 119.767 126.217, 118.871 126.140 C 116.272 125.917, 114.995 121.085, 115.399 113 C 115.922 102.523, 115.506 101.997, 106.715 102.015 C 102.747 102.024, 98.974 102.365, 98.332 102.774 M 82 176 C 80.971 176.665, 83.325 176.969, 89.500 176.969 C 95.675 176.969, 98.029 176.665, 97 176 C 96.175 175.467, 92.800 175.031, 89.500 175.031 C 86.200 175.031, 82.825 175.467, 82 176 M 12 207.500 C 12 208.325, 12.375 209, 12.833 209 C 13.292 209, 13.667 208.325, 13.667 207.500 C 13.667 206.675, 13.292 206, 12.833 206 C 12.375 206, 12 206.675, 12 207.500 M 241 247.393 C 241 249.166, 243.200 250.022, 245.925 249.309 C 247.593 248.873, 247.800 248.463, 246.899 247.378 C 245.399 245.571, 241 245.583, 241 247.393" stroke="none" fill="black" fill-rule="evenodd"/>
</svg>