<svg xmlns="http://www.w3.org/2000/svg" width="256" height="256" viewBox="0 0 256 256" version="1.1">
	<path d="M 95.500 17.975 C 75.700 18.264, 58.986 18.834, 58.358 19.242 C 57.634 19.713, 57.268 23.005, 57.358 28.242 L 57.500 36.500 47 37 L 36.500 37.500 36.212 46.215 L 35.923 54.929 46.212 55.215 L 56.500 55.500 56.788 64.760 C 57.072 73.929, 57.050 74.031, 54.470 75.012 C 53.036 75.556, 48.487 75.803, 44.360 75.560 C 36.797 75.114, 33.615 75.569, 34.482 76.972 C 34.741 77.391, 35.131 81.850, 35.349 86.882 L 35.744 96.029 29.622 95.387 C 26.255 95.033, 22.375 94.689, 21 94.622 C 18.243 94.487, 18.405 93.488, 18.806 108.097 L 19 115.195 28.250 114.747 L 37.500 114.299 37.225 105.149 L 36.950 96 46.475 96 C 51.714 96, 56.050 96.338, 56.112 96.750 C 56.173 97.162, 56.359 104.995, 56.524 114.156 C 56.872 133.415, 57.774 131.962, 45.450 131.986 C 41.573 131.994, 37.970 132.430, 37.444 132.956 C 36.919 133.481, 32.666 134.044, 27.994 134.206 L 19.500 134.500 19.289 142.296 C 19.144 147.681, 19.453 150.210, 20.289 150.473 C 20.955 150.682, 37.679 151.141, 57.454 151.493 C 77.228 151.846, 93.683 152.304, 94.020 152.512 C 94.357 152.721, 94.485 148.415, 94.305 142.945 L 93.977 133 100.863 133 C 104.651 133, 109.156 133.281, 110.875 133.625 L 114 134.250 114 143.082 L 114 151.915 132.576 152.207 C 142.793 152.368, 151.700 152.192, 152.369 151.816 C 153.669 151.086, 153.920 135.587, 152.653 134.320 C 151.967 133.633, 142.422 133.207, 124.750 133.074 L 115 133 115 123.922 L 115 114.844 123.250 114.871 C 138.217 114.921, 152.444 113.899, 153.172 112.722 C 153.558 112.097, 153.909 103.389, 153.953 93.370 C 154.023 77.219, 153.846 75.116, 152.386 74.826 C 151.481 74.647, 142.678 74.725, 132.825 75 C 112.025 75.580, 113.717 76.626, 114.203 63.497 L 114.500 55.500 122 55.308 C 126.125 55.202, 130.507 55.090, 131.737 55.058 C 133.974 55, 133.975 54.996, 133.806 37.250 C 133.638 19.699, 133.397 16.786, 132.143 17.225 C 131.789 17.349, 115.300 17.687, 95.500 17.975 M 19.458 65.250 L 19.659 74.500 23.079 74.635 C 27.468 74.808, 31.122 74.007, 30.504 73.007 C 30.239 72.578, 30.917 71.993, 32.011 71.707 C 34.067 71.170, 34.899 67, 32.950 67 C 32.307 67, 32.228 66.415, 32.748 65.486 C 33.214 64.653, 33.415 62.427, 33.194 60.539 C 32.754 56.767, 31.178 55.928, 26.763 57.116 C 25.258 57.521, 23.769 57.436, 23.454 56.926 C 23.140 56.417, 22.066 56, 21.069 56 C 19.435 56, 19.276 56.911, 19.458 65.250 M 57 85 L 57 95 66.500 95 L 76 95 76 85 L 76 75 66.500 75 L 57 75 57 85 M 95.277 84.713 L 95.653 94.500 104.271 94.788 C 114.725 95.138, 115.021 94.814, 114.713 83.385 L 114.500 75.500 104.700 75.213 L 94.900 74.926 95.277 84.713 M 243.667 246.667 C 242.217 248.116, 243.147 249, 246.122 249 C 248.785 249, 249.061 248.779, 248 247.500 C 246.687 245.917, 244.782 245.551, 243.667 246.667" stroke="none" fill="black" fill-rule="evenodd"/>
</svg>