<svg xmlns="http://www.w3.org/2000/svg" width="256" height="256" viewBox="0 0 256 256" version="1.1">
	<path d="M 149.297 17.816 C 148.688 18.192, 123.145 18.500, 92.534 18.500 L 36.879 18.500 37.009 36 C 37.081 45.625, 37.108 54.046, 37.070 54.712 C 37.022 55.548, 34.123 56.014, 27.750 56.212 L 18.500 56.500 18.866 84.500 C 19.068 99.900, 19.379 112.661, 19.557 112.857 C 19.735 113.054, 23.621 113.222, 28.191 113.231 C 33.233 113.241, 36.789 113.690, 37.235 114.374 C 37.639 114.993, 37.976 119.438, 37.985 124.250 L 38 133 28.465 133 L 18.930 133 19.215 143.092 L 19.500 153.185 28.750 153.505 C 36.815 153.784, 38.008 153.612, 38.066 152.162 C 38.102 151.248, 38.075 146.563, 38.006 141.750 L 37.880 133 47.440 133 L 57 133 57.092 139.750 C 57.142 143.463, 57.255 147.850, 57.342 149.500 L 57.500 152.500 67 152.500 L 76.500 152.500 77 143.041 L 77.500 133.583 81.500 132.751 C 83.700 132.293, 87.525 132.050, 90 132.209 L 94.500 132.500 95 142 C 95.275 147.225, 95.797 151.954, 96.160 152.509 C 96.781 153.459, 123.643 152.573, 126.739 151.500 C 127.693 151.170, 127.718 150.431, 126.849 148.286 C 126.229 146.754, 125.671 143.925, 125.611 142 C 125.508 138.745, 125.255 138.480, 122 138.218 C 119.368 138.006, 118.872 138.188, 120 138.953 C 120.825 139.512, 121.107 139.976, 120.628 139.985 C 120.148 139.993, 120.297 140.653, 120.960 141.452 C 122.591 143.417, 121.381 146.900, 119.212 146.483 C 118.271 146.301, 117.129 146.119, 116.675 146.077 C 115.531 145.970, 116.223 139.668, 117.478 138.765 C 118.127 138.299, 118.044 138.025, 117.250 138.015 C 116.563 138.007, 116 137.100, 116 136 C 116 134.178, 116.667 134, 123.500 134 L 131 134 131.015 142.250 C 131.024 146.787, 131.361 150.976, 131.765 151.557 C 132.170 152.138, 136.098 152.647, 140.500 152.689 C 144.900 152.730, 149.400 152.929, 150.500 153.132 C 152.399 153.481, 152.491 153.001, 152.329 143.663 C 152.235 138.252, 151.893 133.559, 151.567 133.234 C 151.242 132.909, 149.519 132.589, 147.738 132.524 C 145.957 132.459, 141.725 132.314, 138.334 132.203 L 132.167 132 132.334 122.250 L 132.500 112.500 142 112.500 L 151.500 112.500 151.457 84 C 151.434 68.325, 151.276 54.600, 151.106 53.500 C 150.936 52.400, 151.044 43.974, 151.345 34.776 C 151.646 25.577, 151.557 17.844, 151.148 17.592 C 150.739 17.339, 149.906 17.440, 149.297 17.816 M 60.252 35.819 C 57.381 36.227, 56.833 38.507, 57.203 48.503 L 57.500 56.500 73.500 56.719 C 82.300 56.840, 90.929 56.714, 92.675 56.438 C 95.755 55.952, 95.808 55.859, 94.476 53.291 C 93.720 51.835, 93.404 50.161, 93.774 49.572 C 94.143 48.982, 94.487 46.117, 94.538 43.204 L 94.630 37.909 88.586 38.127 C 83.892 38.296, 82.175 38.798, 80.901 40.371 L 79.261 42.396 78.614 40.358 C 78.258 39.237, 76.962 37.818, 75.733 37.205 C 73.450 36.065, 64.294 35.245, 60.252 35.819 M 114.445 41.750 C 115.186 46.220, 115.383 51.918, 114.870 54 C 114.565 55.235, 116.092 55.550, 123.500 55.782 L 132.500 56.065 132.730 47.032 L 132.961 38 123.392 38 L 113.824 38 114.445 41.750 M 143.638 39.500 C 143.955 40.325, 144.642 41, 145.166 41 C 145.690 41, 145.864 40.588, 145.553 40.085 C 145.242 39.582, 145.553 38.943, 146.244 38.664 C 146.935 38.386, 146.502 38.122, 145.281 38.079 C 143.704 38.023, 143.229 38.433, 143.638 39.500 M 38.417 76.917 C 38.188 77.146, 38 80.807, 38 85.053 L 38 92.773 41.250 93.252 C 43.038 93.516, 47.200 93.679, 50.500 93.616 L 56.500 93.500 56.786 84.935 L 57.072 76.370 47.953 76.435 C 42.937 76.471, 38.646 76.688, 38.417 76.917 M 66.500 95 L 58.500 95.500 58.400 113.206 C 58.286 133.395, 57.376 131.772, 68.379 131 L 75.500 130.500 76.379 113.665 C 77.104 99.783, 77.016 96.625, 75.879 95.665 C 74.963 94.891, 71.814 94.668, 66.500 95 M 95.495 122.400 C 95.755 127.296, 96.087 131.417, 96.234 131.559 C 96.380 131.700, 100.325 131.959, 105 132.134 L 113.500 132.452 113.500 122.976 L 113.500 113.500 104.261 113.500 L 95.023 113.500 95.495 122.400 M 12.500 206 C 11.663 207.354, 12.792 209, 14.559 209 C 15.352 209, 16 208.100, 16 207 C 16 204.930, 13.587 204.240, 12.500 206 M 242 247.417 C 242 249.094, 243.805 249.855, 246.271 249.215 C 247.651 248.857, 247.790 248.452, 246.899 247.378 C 245.402 245.575, 242 245.602, 242 247.417" stroke="none" fill="black" fill-rule="evenodd"/>
</svg>