<svg xmlns="http://www.w3.org/2000/svg" width="256" height="256" viewBox="0 0 256 256" version="1.1">
	<path d="M 37.853 23.782 C 37.772 26.927, 37.660 35.575, 37.603 43 L 37.500 56.500 28.500 56.653 L 19.500 56.806 19.234 84.865 L 18.969 112.925 28.234 113.212 L 37.500 113.500 37.786 123.250 L 38.072 133 28.536 133 L 19 133 19 143.434 L 19 153.867 29.088 154.184 L 39.176 154.500 38.966 145 C 38.851 139.775, 38.812 134.938, 38.879 134.250 C 38.966 133.346, 41.631 133, 48.500 133 L 58 133 58 143.506 L 58 154.012 66.750 153.422 C 71.563 153.098, 76.063 152.659, 76.750 152.448 C 77.630 152.177, 78 149.369, 78 142.955 L 78 133.847 81.750 134.107 C 83.813 134.249, 86.712 134.957, 88.193 135.680 C 89.953 136.538, 91.103 136.642, 91.512 135.980 C 92.370 134.592, 94.178 135.847, 93.442 137.319 C 93.117 137.969, 93.497 137.713, 94.286 136.750 C 96.706 133.798, 102.889 134.980, 100.963 138.026 C 99.628 140.137, 99.784 141, 101.500 141 C 102.433 141, 103 140.056, 103 138.500 C 103 137.125, 103.338 136.053, 103.750 136.118 C 105.813 136.444, 107.046 135.883, 106.436 134.896 C 106.061 134.289, 106.914 134.553, 108.333 135.482 C 109.751 136.412, 111.345 136.905, 111.875 136.577 C 113.115 135.811, 114.200 140.779, 113.984 146.236 C 113.891 148.581, 113.856 151.106, 113.907 151.847 C 113.983 152.949, 117.425 153.087, 132.750 152.602 C 143.063 152.276, 152.091 152.007, 152.814 152.005 C 153.809 152.001, 154.074 150.008, 153.909 143.769 C 153.585 131.484, 154.252 132.239, 143.886 132.422 C 138.964 132.508, 134.613 132.336, 134.218 132.039 C 133.823 131.743, 133.725 123.651, 134 114.057 L 134.500 96.614 144 96.557 L 153.500 96.500 153.804 86.739 C 154.160 75.292, 154.678 75.810, 142.706 75.626 L 134.500 75.500 134.213 66.264 L 133.925 57.028 141.713 57.094 C 145.996 57.131, 150.287 57.124, 151.250 57.080 C 152.788 57.010, 153 55.850, 153 47.500 L 153 38 133.500 38 L 114 38 114 28.071 L 114 18.141 104.500 18.090 L 95 18.038 95 28.019 L 95 38 76 38 L 57 38 57 28.191 L 57 18.382 47.500 18.223 L 38 18.065 37.853 23.782 M 77.889 58.966 C 77.828 59.260, 77.715 63.228, 77.639 67.785 L 77.500 76.070 86 75.785 L 94.500 75.500 94.500 67.036 L 94.500 58.572 86.250 58.502 C 81.713 58.464, 77.950 58.672, 77.889 58.966 M 47 76 L 38.500 76.500 38.201 83.988 C 37.712 96.259, 37.500 96, 48.019 96 L 57 96 57 86.059 C 57 80.591, 56.663 75.979, 56.250 75.809 C 55.837 75.639, 51.675 75.725, 47 76 M 76.500 97.288 C 75.337 98.698, 75.341 105.125, 76.507 107.011 C 77.003 107.813, 76.623 108.803, 75.505 109.620 C 73.828 110.846, 73.898 111.011, 76.512 112.005 C 78.057 112.592, 82.961 112.944, 87.410 112.786 C 94.377 112.540, 95.488 112.257, 95.417 110.750 C 95.371 109.787, 95.258 106.075, 95.167 102.500 L 95 96 86.250 96.038 C 80.656 96.062, 77.139 96.513, 76.500 97.288 M 60.079 106.583 C 60.127 107.748, 60.364 107.985, 60.683 107.188 C 60.972 106.466, 60.936 105.603, 60.604 105.271 C 60.272 104.939, 60.036 105.529, 60.079 106.583 M 59.875 110.010 C 59.806 110.554, 59.750 111.675, 59.750 112.500 C 59.750 118.252, 59.856 118.440, 62 116.500 C 63.100 115.505, 64 114.185, 64 113.567 C 64 112.117, 60.040 108.702, 59.875 110.010 M 68 110.859 C 68 111.551, 67.581 111.859, 67.069 111.543 C 66.557 111.226, 65.853 111.429, 65.505 111.993 C 64.541 113.551, 65.949 117, 67.548 117 C 69.388 117, 70.597 112.197, 69.127 110.727 C 68.291 109.891, 68 109.925, 68 110.859 M 73.611 112.821 C 73.273 113.368, 73.374 114.836, 73.835 116.084 L 74.675 118.353 75.305 115.944 C 75.961 113.435, 74.685 111.083, 73.611 112.821 M 60 126.031 L 60 131 67.019 131 C 74.007 131, 74.035 130.989, 73.411 128.500 C 73.024 126.960, 73.209 126, 73.892 126 C 74.501 126, 75 124.889, 75 123.531 C 75 121.690, 74.598 121.217, 73.416 121.671 C 72.141 122.160, 72.092 122.443, 73.166 123.124 C 74.053 123.686, 73.410 123.975, 71.250 123.985 C 69.463 123.993, 68 124.470, 68 125.044 C 68 125.618, 68.576 125.955, 69.280 125.794 C 69.983 125.632, 70.559 125.950, 70.559 126.500 C 70.559 127.050, 69.983 127.368, 69.280 127.206 C 68.576 127.045, 68 127.382, 68 127.956 C 68 128.530, 67.213 128.986, 66.250 128.968 C 64.306 128.933, 59.917 126, 61.809 126 C 63.535 126, 63.274 122.319, 61.500 121.638 C 60.291 121.174, 60 122.026, 60 126.031 M 97.158 140 C 97.158 141.375, 97.385 141.938, 97.662 141.250 C 97.940 140.563, 97.940 139.438, 97.662 138.750 C 97.385 138.063, 97.158 138.625, 97.158 140 M 95.829 147 C 96.323 152.181, 97.500 152.181, 97.500 147 C 97.500 144.800, 97.038 143, 96.474 143 C 95.879 143, 95.608 144.683, 95.829 147 M 243.250 245.746 C 242.563 245.977, 242 246.767, 242 247.500 C 242 248.233, 242.563 249.023, 243.250 249.254 C 245.221 249.917, 248 248.891, 248 247.500 C 248 246.109, 245.221 245.083, 243.250 245.746" stroke="none" fill="black" fill-rule="evenodd"/>
</svg>