<svg xmlns="http://www.w3.org/2000/svg" width="256" height="256" viewBox="0 0 256 256" version="1.1">
	<path d="M 46.750 18.789 L 38 19.078 37.853 24.289 C 37.772 27.155, 37.660 35.575, 37.603 43 L 37.500 56.500 28.250 56.788 L 19 57.075 19 84.909 L 19 112.742 24.034 113.410 C 26.803 113.777, 30.677 113.776, 32.643 113.407 C 37.424 112.510, 37.966 113.611, 37.985 124.250 L 38 133 28.500 133 L 19 133 19 143.434 L 19 153.867 28.937 154.184 L 38.873 154.500 38.687 144 L 38.500 133.500 45.988 133.201 C 58.452 132.704, 58 132.278, 58 144.531 L 58 155.024 62.250 154.289 C 64.588 153.886, 77.187 153.543, 90.249 153.528 C 105.357 153.510, 114.019 153.136, 114.055 152.500 C 114.209 149.785, 114.260 141.139, 114.138 138.357 C 113.973 134.591, 111.774 133.447, 108.644 135.498 C 106.983 136.586, 105.565 136.736, 103.240 136.069 C 101.506 135.571, 99.211 135.394, 98.140 135.674 C 95.282 136.421, 94.939 134.210, 95.473 118.462 C 95.733 110.783, 95.965 101.800, 95.988 98.500 C 96.012 95.200, 96.363 93.022, 96.769 93.660 C 97.247 94.412, 100.246 94.741, 105.285 94.595 C 109.985 94.459, 113.422 94.804, 113.973 95.467 C 114.474 96.072, 114.747 104.979, 114.579 115.283 L 114.273 134 117.387 134.115 C 119.099 134.178, 123.266 134.140, 126.648 134.029 L 132.795 133.828 133.476 137.861 C 133.851 140.078, 134.080 143.829, 133.986 146.196 C 133.892 148.563, 133.856 151.031, 133.907 151.680 C 133.973 152.512, 136.951 152.821, 144 152.726 L 154 152.591 154 142.796 C 154 135.680, 153.658 132.972, 152.750 132.898 C 152.063 132.842, 147.675 132.730, 143 132.648 L 134.500 132.500 134.487 122.500 C 134.480 117, 134.705 104.850, 134.987 95.500 L 135.500 78.500 145 78 L 154.500 77.500 154.141 67.500 C 153.943 62, 153.643 57.349, 153.473 57.165 C 153.303 56.981, 149.189 56.756, 144.332 56.665 L 135.500 56.500 135.363 44 C 135.288 37.125, 135.175 28.657, 135.113 25.183 L 135 18.865 120.250 19.376 C 112.138 19.656, 103.336 19.912, 100.691 19.943 C 97.105 19.986, 96.080 20.318, 96.659 21.250 C 97.087 21.938, 97.301 25.762, 97.136 29.750 L 96.835 37 103.668 37.106 C 115.663 37.293, 114.462 36.186, 114.787 47.352 C 114.978 53.876, 114.674 57.688, 113.889 58.634 C 112.996 59.710, 110.639 59.994, 104.360 59.782 L 96.018 59.500 96.009 48.750 L 96 38 86.036 38 L 76.072 38 75.786 47.750 L 75.500 57.500 66.715 57.620 C 58.941 57.725, 57.767 57.506, 56.507 55.707 C 55.724 54.589, 55.336 53.265, 55.645 52.765 C 56.548 51.304, 57.158 19.200, 56.290 18.834 C 55.855 18.650, 51.563 18.630, 46.750 18.789 M 46.820 77.742 C 39.388 78.071, 39.123 78.169, 38.569 80.791 C 37.772 84.570, 38.102 91.154, 39.196 93.290 C 39.984 94.828, 41.264 95.038, 48.306 94.790 L 56.500 94.500 56.789 85.750 C 57.010 79.048, 56.776 77.047, 55.789 77.201 C 55.080 77.312, 51.044 77.555, 46.820 77.742 M 138.161 96.547 C 137.522 97.948, 137 101.718, 137 104.925 C 137 112.239, 138.349 113.700, 143.527 111.991 C 145.510 111.337, 148.046 111.040, 149.163 111.332 C 153.212 112.391, 154 111.179, 154 103.893 L 154 97 149.622 97 C 146.951 97, 144.760 96.415, 144 95.500 C 142.112 93.225, 139.457 93.701, 138.161 96.547 M 62.842 96.805 L 59.184 97.110 58.706 102.805 C 58.444 105.937, 58.290 113.900, 58.365 120.500 L 58.500 132.500 67 132.500 L 75.500 132.500 75.500 114.500 L 75.500 96.500 71 96.500 C 68.525 96.500, 64.854 96.637, 62.842 96.805 M 13.750 203.848 C 13.045 206.544, 14.557 208.843, 16.052 207.348 C 17.398 206.002, 16.973 202.823, 15.377 202.292 C 14.760 202.086, 14.028 202.787, 13.750 203.848 M 242.667 246.667 C 241.288 248.046, 242.087 249, 244.622 249 C 246.840 249, 247.053 248.768, 246 247.500 C 244.645 245.868, 243.702 245.632, 242.667 246.667" stroke="none" fill="black" fill-rule="evenodd"/>
</svg>