<svg xmlns="http://www.w3.org/2000/svg" width="256" height="256" viewBox="0 0 256 256" version="1.1">
	<path d="M 37.719 25.728 C 37.400 30.002, 37.515 35.510, 37.975 37.967 C 38.435 40.424, 38.565 44.811, 38.265 47.717 C 37.806 52.168, 37.978 53, 39.360 53 C 40.262 53, 41 53.498, 41 54.107 C 41 54.716, 40.339 54.960, 39.532 54.651 C 38.725 54.341, 37.798 54.518, 37.473 55.044 C 37.148 55.570, 32.859 56, 27.941 56 L 19 56 19 84.462 L 19 112.925 28.250 113.212 L 37.500 113.500 37.788 122.750 L 38.075 132 47.538 132 L 57 132 57.099 137.250 C 57.153 140.137, 57.266 144.750, 57.349 147.500 L 57.500 152.500 66.342 152.500 C 71.205 152.500, 75.471 152.050, 75.821 151.500 C 76.172 150.950, 76.580 146.489, 76.727 141.586 C 76.873 136.684, 77.108 132.566, 77.247 132.436 C 78.137 131.605, 95.018 131.664, 95.110 132.500 C 95.170 133.050, 95.341 137.550, 95.490 142.500 C 95.638 147.450, 95.813 151.725, 95.877 152 C 96.017 152.593, 110.539 152.165, 113.684 151.475 C 115.133 151.156, 116.008 150.071, 116.284 148.248 L 116.700 145.500 116.850 148.250 C 116.993 150.869, 117.242 151, 122.071 151 C 127.568 151, 130.753 149.153, 128.736 147.136 C 127.888 146.288, 127.968 145.975, 129.050 145.900 C 129.847 145.845, 129.375 145.440, 128 145 C 125.602 144.232, 125.591 144.195, 127.750 144.100 C 130.586 143.974, 131.568 144.297, 131.250 145.250 C 131.113 145.662, 131.502 146, 132.117 146 C 132.762 146, 133.036 147.033, 132.765 148.450 C 132.507 149.797, 132.792 151.061, 133.398 151.259 C 134.828 151.725, 152.032 151.301, 152.546 150.787 C 153.186 150.148, 153.202 145.764, 152.662 119.774 C 152.379 106.174, 151.863 94.587, 151.515 94.024 C 151.167 93.461, 149.573 93, 147.972 93 C 144.670 93, 144.742 90.562, 148.069 89.692 C 149.681 89.271, 150 88.281, 150 83.701 C 150 80.234, 150.460 78.037, 151.250 77.734 C 152.214 77.365, 152.478 70.539, 152.402 47.921 L 152.303 18.586 114.196 18.316 C 89.064 18.138, 75.875 18.394, 75.458 19.067 C 75.111 19.629, 74.775 23.893, 74.711 28.544 L 74.594 37 68.547 36.986 C 57.991 36.963, 58.118 37.078, 57.787 27.143 L 57.500 18.500 47.900 18.228 L 38.300 17.956 37.719 25.728 M 115.235 47 L 115.375 56 123.969 56 L 132.563 56 132.641 47 L 132.718 38 123.907 38 L 115.095 38 115.235 47 M 45.667 41.166 C 43.464 42.399, 43.562 44.153, 45.977 46.745 C 47.951 48.864, 47.950 48.867, 45.727 49.183 C 44.283 49.389, 43.463 50.232, 43.395 51.583 C 43.293 53.598, 44.040 54.011, 47.750 53.990 C 48.712 53.984, 50.962 53.999, 52.750 54.021 C 56.037 54.063, 56.696 52.978, 55.415 49.639 C 54.981 48.509, 54.244 48.337, 52.567 48.975 C 49.360 50.194, 46.777 47.243, 48.595 44.437 C 50.222 41.928, 48.247 39.722, 45.667 41.166 M 54.195 43.500 C 54.215 45.150, 54.439 45.704, 54.693 44.731 C 54.947 43.758, 54.930 42.408, 54.656 41.731 C 54.382 41.054, 54.175 41.850, 54.195 43.500 M 46.213 75.745 L 37.926 76.082 38.213 85.291 L 38.500 94.500 47.969 94.500 L 57.439 94.500 57.718 87 C 58.041 78.326, 57.466 74.917, 55.731 75.204 C 55.054 75.315, 50.771 75.559, 46.213 75.745 M 97 85.372 C 97 95.506, 97.544 96.512, 102.500 95.544 C 103.600 95.329, 106.862 95.119, 109.750 95.077 L 115 95 115 86.107 C 115 79.885, 114.625 77.087, 113.750 76.791 C 113.063 76.558, 109.013 76.257, 104.750 76.123 L 97 75.878 97 85.372 M 58.612 96.570 C 57.451 99.595, 57.946 112.710, 59.262 113.803 C 60.924 115.182, 74.792 115.608, 76.080 114.320 C 76.647 113.753, 76.956 109.446, 76.791 104.409 L 76.500 95.500 67.862 95.238 C 60.720 95.022, 59.117 95.253, 58.612 96.570 M 19.329 133.579 C 19.102 134.173, 19.048 138.673, 19.209 143.579 L 19.500 152.500 28.727 153 C 36.014 153.395, 38.012 153.214, 38.227 152.137 C 38.377 151.388, 38.356 146.807, 38.181 141.957 L 37.862 133.138 28.801 132.819 C 22.957 132.613, 19.594 132.883, 19.329 133.579 M 13.186 204.214 C 11.089 206.311, 11.767 209, 14.393 209 C 17.453 209, 18.376 206.650, 16.119 204.608 C 14.772 203.389, 14.101 203.299, 13.186 204.214 M 243 247.417 C 243 248.287, 243.713 249, 244.583 249 C 246.349 249, 246.042 246.847, 244.188 246.229 C 243.534 246.011, 243 246.546, 243 247.417" stroke="none" fill="black" fill-rule="evenodd"/>
</svg>