<svg xmlns="http://www.w3.org/2000/svg" width="256" height="256" viewBox="0 0 256 256" version="1.1">
	<path d="M 31.662 15.208 C 30.814 15.733, 30.839 16.239, 31.758 17.158 C 32.548 17.948, 33 21.423, 33 26.700 L 33 35 49.250 35.028 C 65.783 35.057, 94.235 35.990, 94.825 36.523 C 95.459 37.096, 95.172 56.161, 94.519 56.814 C 94.154 57.179, 91.263 57.353, 88.095 57.200 C 79.584 56.790, 77.142 58.012, 77.106 62.700 C 77.090 64.790, 77.036 67.666, 76.986 69.092 C 76.936 70.518, 77.031 72.281, 77.197 73.010 C 77.984 76.456, 73.214 77.021, 44.792 76.851 C 24.342 76.728, 16.702 77.003, 15.624 77.897 C 14.476 78.850, 14.284 80.760, 14.730 86.805 C 15.042 91.037, 15.758 94.799, 16.321 95.165 C 16.883 95.531, 25.004 95.886, 34.367 95.955 C 44.691 96.030, 51.892 96.496, 52.666 97.138 C 53.441 97.781, 57.846 98.063, 63.894 97.855 C 69.368 97.667, 74.082 97.749, 74.370 98.037 C 74.658 98.324, 75.090 106.072, 75.331 115.254 C 75.638 126.978, 75.430 132.216, 74.634 132.850 C 74.010 133.346, 70.125 133.821, 66 133.904 C 54.559 134.136, 54.930 133.816, 55.658 142.812 C 55.999 147.040, 56.427 150.673, 56.607 150.884 C 57.051 151.404, 95.115 151.219, 95.639 150.694 C 95.868 150.465, 96.046 138.291, 96.036 123.639 C 96.017 98.217, 96.102 97, 97.898 97 C 98.933 97, 104.217 97.927, 109.640 99.061 C 117.527 100.710, 121.301 100.985, 128.500 100.438 C 133.450 100.062, 140.793 99.644, 144.818 99.509 C 148.843 99.375, 152.668 98.733, 153.318 98.083 C 154.014 97.387, 154.608 93.082, 154.762 87.603 L 155.024 78.304 135.762 77.503 C 125.168 77.063, 112.090 76.597, 106.700 76.468 C 101.310 76.338, 96.628 75.961, 96.297 75.630 C 95.965 75.298, 96.100 71.084, 96.597 66.264 L 97.500 57.500 106 57.500 L 114.500 57.500 115 47.500 L 115.500 37.500 122.500 37.310 C 126.350 37.206, 130.304 37.094, 131.286 37.060 C 132.883 37.006, 133.051 36.013, 132.877 27.661 C 132.770 22.525, 133.008 17.797, 133.405 17.154 C 133.802 16.512, 133.536 15.772, 132.813 15.510 C 130.661 14.730, 32.907 14.438, 31.662 15.208 M 244 247.622 C 244 248.951, 244.271 249.020, 245.500 248 C 246.325 247.315, 247 246.585, 247 246.378 C 247 246.170, 246.325 246, 245.500 246 C 244.675 246, 244 246.730, 244 247.622" stroke="none" fill="black" fill-rule="evenodd"/>
</svg>