<svg xmlns="http://www.w3.org/2000/svg" width="256" height="256" viewBox="0 0 256 256" version="1.1">
	<path d="M 78 27.464 C 78 33.610, 78.350 36.009, 79.250 36.030 C 79.938 36.047, 79.600 36.610, 78.500 37.280 C 77.049 38.165, 68.613 38.500, 47.774 38.500 L 19.049 38.500 18.582 57.165 C 18.181 73.252, 18.327 75.911, 19.640 76.415 C 20.478 76.737, 24.699 77, 29.019 77 L 36.875 77 36.857 68.750 C 36.847 64.213, 36.875 59.938, 36.919 59.250 C 37.028 57.565, 49.399 57.690, 58 59.464 C 61.575 60.201, 63.994 60.848, 63.375 60.902 C 61.150 61.096, 59.231 67.042, 59.718 72.233 C 60.040 75.659, 59.786 77.514, 58.921 78.049 C 58.222 78.481, 61.571 78.807, 66.362 78.775 C 73.775 78.725, 75.286 78.998, 76.508 80.608 C 77.298 81.649, 77.659 83.175, 77.312 84 C 76.964 84.825, 76.334 88.875, 75.911 93 C 75.488 97.125, 75.110 100.533, 75.071 100.573 C 75.032 100.613, 71.513 100.481, 67.250 100.279 C 62.161 100.039, 58.036 99.215, 55.236 97.880 C 51.274 95.990, 49.839 95.897, 34.958 96.563 C 26.151 96.958, 18.824 97.555, 18.677 97.890 C 18.530 98.226, 18.655 102.325, 18.955 107 L 19.500 115.500 28.500 115.603 C 33.450 115.659, 44.528 115.820, 53.118 115.959 C 62.698 116.114, 69.501 115.802, 70.715 115.153 C 72.138 114.391, 73.017 114.417, 73.847 115.247 C 75.478 116.878, 75.370 131.448, 73.717 132.820 C 73.011 133.406, 70.198 133.952, 67.467 134.033 C 64.735 134.114, 61.244 134.404, 59.710 134.678 L 56.919 135.177 57.210 142.838 L 57.500 150.500 76 150.773 L 94.500 151.046 94.720 142.273 C 95.007 130.807, 95.528 128.689, 97.775 129.840 C 98.724 130.327, 102.554 130.996, 106.286 131.328 C 112.925 131.918, 113.108 131.871, 114.786 129.119 C 115.959 127.193, 117.131 126.430, 118.500 126.701 C 121.528 127.298, 125.768 127.208, 128.002 126.499 C 130.551 125.690, 130.813 121, 128.309 121 C 126.817 121, 126.841 120.837, 128.509 119.617 C 129.914 118.590, 130.846 118.511, 132.126 119.311 C 133.738 120.317, 133.741 120.479, 132.176 121.757 C 131.003 122.715, 130.859 123.276, 131.694 123.627 C 132.350 123.903, 132.620 124.827, 132.292 125.681 C 131.785 127.003, 132.029 127.055, 133.944 126.030 C 135.821 125.026, 136.087 124.279, 135.564 121.491 C 135.038 118.688, 135.272 118.048, 137.027 117.491 C 138.176 117.127, 141.345 117.363, 144.070 118.017 C 146.794 118.670, 149.648 118.965, 150.412 118.672 C 151.944 118.084, 152.780 114.048, 153.541 103.573 C 154.078 96.175, 153.324 94.672, 149.508 95.540 C 144.732 96.628, 118.013 96.690, 115.904 95.619 C 114.012 94.657, 113.673 93.585, 113.502 88 C 113.392 84.425, 113.724 80.668, 114.239 79.652 C 115.550 77.065, 116.182 71.100, 115.295 69.683 C 114.887 69.032, 114.429 66.559, 114.277 64.188 L 113.999 59.875 121.250 60.373 C 125.237 60.647, 129.269 60.900, 130.210 60.935 C 131.654 60.990, 131.964 62.278, 132.210 69.250 L 132.500 77.500 142.288 77.500 C 152.420 77.500, 154.608 76.621, 153.492 73 C 153.237 72.175, 152.784 64.323, 152.483 55.552 C 152.183 46.781, 151.774 39.440, 151.573 39.240 C 151.372 39.039, 139.302 38.916, 124.751 38.967 C 104.041 39.039, 98.057 38.773, 97.204 37.746 C 96.605 37.024, 96.443 35.901, 96.846 35.250 C 97.248 34.599, 97.472 30.789, 97.345 26.783 L 97.112 19.500 87.556 19.214 L 78 18.928 78 27.464 M 78.417 59.607 C 77.179 60.120, 77.717 75.953, 79.020 77.358 C 79.457 77.830, 83.251 78.326, 87.451 78.462 C 96.364 78.749, 96.733 78.405, 96.508 70 C 96.427 66.975, 96.704 63.526, 97.123 62.335 C 97.663 60.801, 97.441 60, 96.361 59.585 C 94.612 58.914, 80.046 58.932, 78.417 59.607 M 242 247.430 C 242 248.451, 242.903 249, 244.583 249 C 247.716 249, 247.373 246.652, 244.172 246.180 C 242.729 245.968, 242 246.388, 242 247.430" stroke="none" fill="black" fill-rule="evenodd"/>
</svg>