<svg xmlns="http://www.w3.org/2000/svg" width="256" height="256" viewBox="0 0 256 256" version="1.1">
	<path d="M 90 18.254 C 87.525 18.748, 84.398 19.373, 83.052 19.644 C 81.125 20.032, 80.913 20.330, 82.052 21.041 C 83.249 21.787, 83.109 22.219, 81.250 23.529 C 78.758 25.284, 78.166 30.123, 80.250 31.702 C 80.938 32.224, 83.412 33.197, 85.750 33.865 C 88.088 34.533, 90 35.444, 90 35.888 C 90 36.793, 64.773 38.255, 61.233 37.556 C 59.986 37.310, 50.086 37.030, 39.233 36.934 L 19.500 36.760 19.550 40.380 C 19.577 42.371, 19.690 47.395, 19.800 51.545 L 20 59.090 38.250 58.806 C 48.288 58.649, 57.400 58.819, 58.500 59.184 C 59.600 59.549, 62.750 59.960, 65.500 60.098 L 70.500 60.349 66.052 60.742 C 62.926 61.018, 60.916 61.877, 59.286 63.636 C 58.011 65.012, 57.108 66.445, 57.281 66.819 C 59.864 72.431, 60.445 73, 63.587 73 C 71.421 73, 72.177 75.570, 64.436 75.883 C 61.375 76.007, 57.213 76.397, 55.186 76.751 C 53.159 77.105, 49.047 77.312, 46.050 77.212 C 43.043 77.112, 40.302 77.511, 39.936 78.104 C 39.241 79.227, 39.271 79.980, 40.997 104.936 C 41.584 113.426, 41.966 124.001, 41.846 128.436 C 41.580 138.271, 43.539 145.897, 46.480 146.473 C 56.669 148.467, 53.838 148.315, 102.720 149.495 L 131.940 150.200 131.720 130.350 C 131.531 113.274, 131.290 110.553, 130 110.882 C 129.175 111.092, 121.525 111.395, 113 111.555 C 104.475 111.715, 95.475 112.319, 93 112.898 C 87.282 114.236, 80.871 114.281, 77.520 113.008 C 75.027 112.060, 74.926 111.730, 75.250 105.608 C 75.765 95.866, 76.219 95.582, 89.989 96.420 C 108.425 97.541, 110.153 97.478, 111.180 95.643 C 111.895 94.365, 113.643 94, 119.050 94 C 123.017 94, 126 94.429, 126 95 C 126 95.550, 127.125 96, 128.500 96 C 131.196 96, 131.094 96.489, 131.404 82 C 131.538 75.713, 132.366 74.830, 137.847 75.131 C 140.406 75.271, 144.647 75.299, 147.272 75.193 L 152.043 75 151.772 55.750 C 151.572 41.632, 151.186 36.560, 150.321 36.726 C 146.619 37.437, 101.808 38.187, 98.633 37.591 C 95.588 37.020, 94.970 36.542, 95.521 35.189 C 96.393 33.048, 96.121 18.692, 95.194 17.928 C 94.812 17.614, 92.475 17.761, 90 18.254 M 84.045 57.798 C 75.742 58.130, 73.494 59.186, 75.021 62.039 C 76.530 64.859, 76.193 71.664, 74.458 73.399 C 73.069 74.788, 73.193 75.018, 75.708 75.720 C 78.422 76.478, 98.484 76.352, 102.500 75.552 C 103.600 75.332, 105.175 75.118, 106 75.075 C 106.825 75.032, 105.925 74.210, 104 73.248 C 100.269 71.385, 98.466 67, 101.430 67 C 102.294 67, 103 66.311, 103 65.469 C 103 64.626, 103.675 63.678, 104.500 63.362 C 106.026 62.776, 106.618 60.063, 105.250 59.923 C 104.838 59.881, 103.825 59.680, 103 59.476 C 97.780 58.184, 90.501 57.540, 84.045 57.798 M 33 68.898 C 33 69.401, 32.100 69.577, 31 69.290 C 29.882 68.997, 29 69.259, 29 69.883 C 29 70.498, 29.900 71, 31 71 C 32.111 71, 33 71.667, 33 72.500 C 33 73.325, 33.750 74, 34.667 74 C 35.583 74, 36.037 73.704, 35.675 73.342 C 35.313 72.980, 35.441 72.174, 35.958 71.551 C 36.584 70.797, 36.246 70.010, 34.949 69.200 C 33.877 68.531, 33 68.395, 33 68.898 M 20.500 74 C 20.160 74.550, 20.359 75, 20.941 75 C 21.523 75, 22 74.550, 22 74 C 22 73.450, 21.802 73, 21.559 73 C 21.316 73, 20.840 73.450, 20.500 74 M 25 74.100 C 25 75.253, 29.069 75.242, 30.897 74.085 C 31.855 73.478, 31.148 73.200, 28.647 73.200 C 26.641 73.200, 25 73.605, 25 74.100 M 243.638 247.500 C 243.291 248.405, 243.633 249, 244.500 249 C 245.367 249, 245.709 248.405, 245.362 247.500 C 245.045 246.675, 244.657 246, 244.500 246 C 244.343 246, 243.955 246.675, 243.638 247.500" stroke="none" fill="black" fill-rule="evenodd"/>
</svg>