<svg xmlns="http://www.w3.org/2000/svg" width="256" height="256" viewBox="0 0 256 256" version="1.1">
	<path d="M 46 18.946 L 37.500 19.500 37.405 37 C 37.353 46.625, 37.239 54.950, 37.153 55.500 C 37.062 56.078, 33.303 56.502, 28.247 56.506 L 19.500 56.512 19.234 84.756 L 18.969 113 24.734 113.086 C 27.905 113.134, 32.075 113.246, 34 113.336 L 37.500 113.500 37.786 123.212 L 38.072 132.924 28.786 133.212 L 19.500 133.500 19.500 143.353 L 19.500 153.206 29.396 153.637 L 39.292 154.069 38.621 145.181 C 38.252 140.293, 38.235 135.552, 38.582 134.647 C 39.103 133.289, 40.770 133, 48.072 133 C 58.972 133, 59.457 133.541, 58.459 144.581 L 57.785 152.043 63.642 151.382 C 70.265 150.636, 71.886 150, 67.167 150 C 65.167 150, 64.092 149.539, 64.250 148.750 C 64.388 148.063, 63.938 147.612, 63.250 147.750 C 62.563 147.887, 62 147.421, 62 146.713 C 62 146.005, 62.974 145.352, 64.165 145.263 C 65.355 145.173, 67.043 144.386, 67.915 143.514 C 69.315 142.112, 69.325 141.817, 68 140.979 C 66.761 140.196, 66.848 140.025, 68.500 140 C 70.159 139.975, 70.244 139.804, 69 139 C 67.750 138.192, 67.833 138.009, 69.500 137.900 C 70.600 137.828, 72.175 137.709, 73 137.635 C 74.161 137.530, 74.613 139.082, 75 144.500 L 75.500 151.500 85.500 152.017 C 92.211 152.364, 96.099 152.153, 97.320 151.374 C 98.402 150.684, 98.680 150.060, 98.005 149.835 C 97.295 149.598, 96.793 146.184, 96.666 140.728 L 96.462 132 103.231 132 C 107.569 132, 110 132.403, 110 133.122 C 110 133.902, 110.455 133.868, 111.488 133.010 C 112.681 132.020, 113.083 132.052, 113.514 133.176 C 113.950 134.311, 115.691 134.434, 122.674 133.822 C 127.417 133.406, 131.646 133.282, 132.074 133.545 C 132.501 133.809, 132.771 137.804, 132.675 142.423 L 132.499 150.820 141.500 151.222 C 146.450 151.444, 150.787 151.489, 151.138 151.322 C 151.489 151.156, 151.714 138.084, 151.638 122.273 L 151.500 93.527 147 92.813 C 139.212 91.577, 136.528 90.908, 135.577 89.967 C 134.324 88.728, 134.024 78.103, 135.220 77.364 C 135.746 77.039, 139.849 76.712, 144.338 76.637 L 152.500 76.500 152.788 67.250 C 152.946 62.162, 152.721 57.968, 152.288 57.929 C 151.854 57.890, 147.675 57.778, 143 57.679 C 138.325 57.581, 134.187 57.063, 133.804 56.528 C 133.421 55.994, 133.329 47.287, 133.598 37.180 L 134.089 18.803 111.795 19.422 C 99.533 19.763, 86.561 20.016, 82.968 19.985 L 76.436 19.928 76.340 37.861 C 76.288 47.724, 75.937 56.293, 75.561 56.902 C 75.119 57.617, 71.799 57.893, 66.188 57.682 L 57.500 57.355 57 38.010 C 56.696 26.252, 56.108 18.611, 55.500 18.528 C 54.950 18.453, 50.675 18.641, 46 18.946 M 91.327 21.710 C 90.129 22.124, 90.341 25.044, 91.870 29.176 C 92.645 31.272, 92.764 31.145, 93.152 27.821 C 93.658 23.491, 92.958 21.147, 91.327 21.710 M 91.680 34.392 C 91.298 35.388, 89.866 35.665, 86.647 35.367 C 84.173 35.138, 81.863 35.412, 81.515 35.975 C 81.108 36.634, 83.189 37, 87.347 37 C 93.320 37, 93.773 36.848, 93.290 35 C 92.671 32.633, 92.395 32.529, 91.680 34.392 M 47 75.936 L 38.500 76.500 38.201 83.988 C 37.719 96.080, 37.498 95.804, 47.952 96.179 C 58.359 96.552, 57.964 96.979, 57.986 85.332 C 58 78.226, 57.382 74.827, 56.143 75.186 C 55.789 75.289, 51.675 75.626, 47 75.936 M 92.600 82.765 C 93.205 83.169, 93.957 84.175, 94.271 85 C 94.653 86.002, 94.868 85.753, 94.921 84.250 C 94.974 82.738, 94.426 82.005, 93.250 82.015 C 92.171 82.025, 91.922 82.312, 92.600 82.765 M 80 90.010 C 80 90.554, 79.994 91.338, 79.987 91.750 C 79.980 92.162, 80.880 92.551, 81.987 92.613 C 84.445 92.752, 84.444 92.825, 82 90.732 C 80.900 89.790, 80 89.465, 80 90.010 M 59.459 103.369 C 58.445 108.770, 59.176 111.556, 61.500 111.155 C 64.198 110.689, 64.702 110.052, 63.137 109.085 C 62.109 108.449, 62.168 108.150, 63.416 107.671 C 64.531 107.243, 65 107.646, 65 109.031 C 65 110.753, 65.696 111, 70.552 111 L 76.105 111 75.802 105.750 L 75.500 100.500 70.333 100.201 C 66.047 99.952, 65.086 100.208, 64.699 101.701 C 64.268 103.360, 64.223 103.364, 64.116 101.750 C 64.048 100.720, 63.196 100, 62.045 100 C 60.618 100, 59.920 100.908, 59.459 103.369 M 86.813 128.683 C 87.534 128.972, 88.397 128.936, 88.729 128.604 C 89.061 128.272, 88.471 128.036, 87.417 128.079 C 86.252 128.127, 86.015 128.364, 86.813 128.683 M 78.500 130 C 78.160 130.550, 78.584 131, 79.441 131 C 80.298 131, 81 130.550, 81 130 C 81 129.450, 80.577 129, 80.059 129 C 79.541 129, 78.840 129.450, 78.500 130 M 86.750 130.662 C 87.438 130.940, 88.563 130.940, 89.250 130.662 C 89.938 130.385, 89.375 130.158, 88 130.158 C 86.625 130.158, 86.063 130.385, 86.750 130.662 M 112.531 141.293 C 112.103 142.279, 112.034 143.367, 112.376 143.710 C 113.392 144.725, 114.211 143.299, 113.743 141.328 C 113.329 139.581, 113.275 139.580, 112.531 141.293 M 110.643 146.500 C 109.818 147.325, 108.661 148, 108.071 148 C 107.482 148, 107 148.450, 107 149 C 107 149.550, 105.537 150.056, 103.750 150.125 C 101.433 150.214, 102.080 150.496, 106 151.107 C 111.909 152.028, 117.311 151.428, 115.148 150.091 C 114.461 149.667, 113.827 148.348, 113.737 147.160 C 113.546 144.619, 112.704 144.439, 110.643 146.500 M 14.682 204.652 C 13.685 205.648, 13.848 209, 14.893 209 C 15.384 209, 16.018 208.397, 16.300 207.659 C 16.918 206.049, 15.647 203.686, 14.682 204.652" stroke="none" fill="black" fill-rule="evenodd"/>
</svg>