<svg xmlns="http://www.w3.org/2000/svg" width="256" height="256" viewBox="0 0 256 256" version="1.1">
	<path d="M 141.189 16.945 C 133.096 17.564, 130.213 18.918, 131.738 21.385 C 132.071 21.924, 132.379 25.546, 132.422 29.433 L 132.500 36.500 139.988 36.799 C 152.392 37.293, 152 37.647, 152 25.981 C 152 18.580, 151.677 16.040, 150.750 16.155 C 150.063 16.240, 145.760 16.596, 141.189 16.945 M 19.214 28.712 L 19.500 38.424 28.750 38.129 L 38 37.834 37.995 54.667 C 37.993 63.925, 37.698 76.589, 37.339 82.808 L 36.688 94.116 28.094 93.908 L 19.500 93.699 19.214 103.951 L 18.928 114.204 28.214 113.852 L 37.500 113.500 37.500 123.500 C 37.500 131.860, 37.255 133.446, 36.003 133.168 C 35.180 132.985, 31.018 133.144, 26.753 133.522 L 19 134.208 19 142.522 C 19 147.095, 19.273 151.548, 19.607 152.418 C 20.350 154.355, 29.678 154.543, 45.214 152.935 C 60.523 151.351, 59.471 151.860, 59.687 145.932 C 59.790 143.105, 60.135 140.532, 60.453 140.213 C 61.627 139.040, 63.304 142, 63.217 145.088 C 63.093 149.431, 65.169 151.150, 70.768 151.340 L 75.500 151.500 75.657 144.500 C 75.743 140.650, 75.611 136.337, 75.364 134.915 C 74.936 132.461, 74.687 132.365, 70.453 133.007 C 68 133.379, 64.307 133.412, 62.246 133.078 L 58.500 132.473 57.909 121.486 C 57.371 111.478, 57.507 94.290, 58.479 49.500 C 58.671 40.700, 58.892 33.050, 58.972 32.500 C 59.052 31.950, 58.900 30.600, 58.635 29.500 C 58.370 28.400, 58.119 25.587, 58.077 23.250 L 58 19 38.464 19 L 18.928 19 19.214 28.712 M 71.351 31.326 C 68.753 32.295, 68.439 32.719, 69.559 33.750 C 70.305 34.438, 71.835 35, 72.958 35 C 74.469 35, 75 34.351, 75 32.500 C 75 31.125, 74.888 30.034, 74.750 30.076 C 74.612 30.118, 73.083 30.680, 71.351 31.326 M 76.488 55.500 C 77.256 74.065, 77.259 80.785, 76.516 112.282 L 76.080 130.751 79.790 131.365 C 84.818 132.196, 91.248 132.131, 92.644 131.235 C 93.722 130.543, 94.426 123.425, 95.431 103.082 C 95.758 96.478, 96.215 94.459, 97.553 93.710 C 99.164 92.809, 107.237 93.141, 124.500 94.820 L 131.500 95.500 131.789 104.221 C 132.070 112.733, 132.019 112.957, 129.641 113.554 C 128.302 113.890, 123.897 114.016, 119.853 113.833 L 112.500 113.500 112.819 123.352 L 113.137 133.204 104.037 132.852 L 94.936 132.500 95.218 143 L 95.500 153.500 104.938 153.500 L 114.375 153.500 114.438 144 L 114.500 134.500 123 133.956 C 129.204 133.558, 131.795 133.755, 132.593 134.682 C 133.195 135.382, 133.721 139.603, 133.762 144.062 C 133.804 148.522, 133.987 152.314, 134.169 152.489 C 134.351 152.664, 138.931 153.129, 144.346 153.522 L 154.193 154.237 153.668 144.640 C 153.380 139.361, 152.894 134.637, 152.588 134.143 C 152.283 133.648, 151.974 120.322, 151.902 104.528 L 151.772 75.812 129.136 76.349 C 116.686 76.644, 104.925 77.150, 103 77.473 C 101.075 77.797, 98.942 77.686, 98.259 77.227 C 97.504 76.720, 96.788 72.814, 96.431 67.256 L 95.845 58.120 99.172 57.603 C 101.003 57.320, 108.800 56.802, 116.500 56.453 C 124.200 56.104, 131.083 55.338, 131.795 54.750 C 132.754 53.958, 132.918 51.843, 132.426 46.590 C 132.061 42.691, 131.416 39.123, 130.994 38.663 C 130.571 38.202, 117.967 37.752, 102.985 37.663 L 75.744 37.500 76.488 55.500 M 243.154 247.438 C 243.345 248.355, 243.950 249.082, 244.500 249.053 C 245.984 248.974, 245.712 246.737, 244.154 246.218 C 243.313 245.938, 242.939 246.395, 243.154 247.438" stroke="none" fill="black" fill-rule="evenodd"/>
</svg>