<svg xmlns="http://www.w3.org/2000/svg" width="256" height="256" viewBox="0 0 256 256" version="1.1">
	<path d="M 36.920 19.694 C 36.876 20.137, 36.968 24.775, 37.125 30 C 37.282 35.225, 37.430 60.650, 37.455 86.500 L 37.500 133.500 28.500 134 L 19.500 134.500 19.500 143.500 L 19.500 152.500 27 153.025 C 39.098 153.873, 38.526 154.337, 38.512 143.679 L 38.500 134.500 47.500 134.500 L 56.500 134.500 57 143.468 L 57.500 152.435 95.500 152.468 C 132.918 152.500, 133.497 152.469, 133.275 150.500 C 133.152 149.400, 132.813 140.825, 132.523 131.444 C 131.939 112.553, 132.579 109.634, 136.809 111.898 C 137.991 112.531, 140.206 112.776, 141.729 112.443 C 145.632 111.590, 149.978 109.873, 150.118 109.129 C 150.183 108.783, 150.381 105.733, 150.557 102.351 C 150.929 95.222, 150.676 95.037, 140.550 95.014 C 136.512 95.004, 134.927 94.673, 135.618 93.982 C 136.204 93.396, 136.383 90.953, 136.040 88.232 C 134.825 78.604, 134.818 78.616, 141.304 77.706 C 150.402 76.429, 150.971 75.419, 150.547 61.299 C 150.352 54.810, 150.149 47.559, 150.096 45.187 C 150.018 41.688, 149.670 40.918, 148.250 41.105 C 147.287 41.232, 143.908 40.983, 140.740 40.551 C 134.071 39.643, 134.138 39.768, 133.752 27.500 L 133.500 19.500 85.250 19.194 C 58.712 19.026, 36.964 19.251, 36.920 19.694 M 57.215 47.890 L 57.500 57.500 74.500 57.781 C 83.850 57.936, 95.775 58.315, 101 58.623 C 113.523 59.361, 113.745 59.174, 114.171 47.500 L 114.500 38.500 85.715 38.390 L 56.931 38.280 57.215 47.890 M 91.531 50.293 C 91.103 51.279, 91.034 52.367, 91.376 52.710 C 92.392 53.725, 93.211 52.299, 92.743 50.328 C 92.329 48.581, 92.275 48.580, 91.531 50.293 M 115.370 65.211 C 115.708 68.670, 116.101 72.593, 116.243 73.929 C 116.554 76.871, 120.126 78.068, 127.481 77.697 L 132.500 77.443 132.638 73.471 C 132.715 71.287, 132.940 67.250, 133.138 64.500 L 133.500 59.500 124.127 59.211 L 114.754 58.922 115.370 65.211 M 57.750 77.567 C 57.337 77.988, 57 82.260, 57 87.060 C 57 97.141, 56.916 97.052, 66.332 96.900 C 72.665 96.798, 75.185 96.281, 78.268 94.450 C 79.766 93.561, 79.870 92.925, 78.948 90.282 C 78.210 88.165, 78.175 86.026, 78.837 83.627 C 79.611 80.823, 79.501 79.831, 78.303 78.837 C 76.613 77.434, 58.948 76.342, 57.750 77.567 M 66.250 114.790 L 58 115.081 58 124.578 L 58 134.075 67.250 133.788 L 76.500 133.500 76.787 124.903 C 76.992 118.756, 76.707 116.048, 75.787 115.403 C 75.079 114.906, 70.787 114.631, 66.250 114.790 M 94.654 115.679 C 93.414 116.920, 93.939 131.704, 95.262 132.803 C 96.289 133.655, 106.103 134.411, 111.788 134.076 C 112.761 134.018, 113.005 131.746, 112.788 124.750 L 112.500 115.500 103.904 115.263 C 99.176 115.132, 95.014 115.320, 94.654 115.679 M 147.075 149.953 C 146.117 150.546, 146.158 150.847, 147.257 151.268 C 148.040 151.569, 149.241 151.469, 149.925 151.047 C 150.883 150.454, 150.842 150.153, 149.743 149.732 C 148.960 149.431, 147.759 149.531, 147.075 149.953 M 244.079 247.583 C 244.127 248.748, 244.364 248.985, 244.683 248.188 C 244.972 247.466, 244.936 246.603, 244.604 246.271 C 244.272 245.939, 244.036 246.529, 244.079 247.583" stroke="none" fill="black" fill-rule="evenodd"/>
</svg>