<svg xmlns="http://www.w3.org/2000/svg" width="256" height="256" viewBox="0 0 256 256" version="1.1">
	<path d="M 114.733 17.600 C 114.366 17.967, 112.971 18.388, 111.632 18.535 C 110.294 18.682, 108.142 19.144, 106.850 19.562 C 104.513 20.318, 104.517 20.329, 107.500 21.616 C 109.866 22.636, 110.077 22.936, 108.500 23.034 C 107.338 23.106, 107.041 23.375, 107.792 23.676 C 108.725 24.051, 108.787 24.551, 108.016 25.480 C 107.231 26.427, 107.375 26.930, 108.565 27.386 C 110.941 28.298, 112.074 27.194, 111.577 24.452 C 111.336 23.121, 111.557 21.774, 112.069 21.457 C 112.607 21.125, 113 23.607, 113 27.334 C 113 32.147, 113.381 33.932, 114.500 34.362 C 118.646 35.953, 114.479 36.787, 99.154 37.436 C 81.025 38.203, 74.224 37.640, 75.984 35.519 C 76.555 34.832, 76.969 30.688, 76.905 26.310 L 76.788 18.349 66.644 18.251 C 61.065 18.196, 54.700 18.627, 52.500 19.209 L 48.500 20.266 52 21.557 C 53.925 22.267, 54.712 22.882, 53.750 22.924 C 52.787 22.966, 52.049 23.337, 52.108 23.750 C 52.326 25.261, 50.741 29, 49.883 29 C 49.398 29, 49 29.702, 49 30.559 C 49 31.416, 49.450 31.840, 50 31.500 C 50.550 31.160, 51 31.346, 51 31.912 C 51 32.479, 52.377 33.300, 54.061 33.736 C 61.286 35.608, 56.927 36.508, 39.500 36.741 C 29.600 36.874, 20.938 37.197, 20.250 37.460 C 19.373 37.795, 19 40.737, 19 47.331 L 19 56.725 38.250 57.612 C 48.837 58.101, 61.892 58.500, 67.261 58.500 C 75.547 58.500, 76.928 58.727, 76.401 60 C 76.059 60.825, 75.543 63.431, 75.255 65.790 C 74.750 69.923, 74.616 70.066, 71.615 69.685 C 69.902 69.467, 68.613 68.774, 68.750 68.144 C 69.102 66.535, 68.135 66.722, 66.223 68.634 C 65.144 69.713, 64.460 69.881, 64.209 69.128 C 64 68.501, 63.418 68.242, 62.915 68.553 C 62.412 68.864, 62 68.159, 62 66.988 C 62 65.094, 61.833 65.024, 60.500 66.357 C 59.675 67.182, 59 69.272, 59 71.002 C 59 73.476, 59.373 74.065, 60.750 73.764 C 61.712 73.553, 62.401 72.887, 62.281 72.284 C 61.985 70.799, 65.286 71.359, 65.793 72.879 C 66.103 73.808, 66.538 73.798, 67.698 72.836 C 70.021 70.908, 71.291 71.083, 74 73.702 L 76.500 76.119 70.500 75.978 C 59.613 75.721, 59.269 75.794, 58.589 78.500 C 57.982 80.920, 57.691 81, 49.516 81 C 42.094 81, 40.941 80.758, 40 79 C 39.040 77.206, 37.906 77, 28.973 77 L 19.016 77 19.341 95.173 L 19.666 113.346 26.577 113.095 C 30.379 112.957, 33.663 112.670, 33.876 112.457 C 34.089 112.245, 35.127 112.533, 36.184 113.098 C 37.987 114.064, 38.086 115.232, 37.802 132.313 L 37.500 150.500 46.500 150.543 C 51.663 150.568, 55.813 150.142, 56.235 149.543 C 56.639 148.969, 56.976 145.264, 56.985 141.309 C 56.994 136.958, 57.457 133.836, 58.157 133.403 C 58.794 133.009, 61.233 132.760, 63.579 132.849 C 68.186 133.023, 73.004 131.591, 74.214 129.687 C 75.067 128.346, 75.346 131.480, 75.177 140.500 C 74.979 150.985, 74.468 150.510, 85.955 150.504 L 95.995 150.500 95.998 132.317 C 96 115.867, 96.167 114.085, 97.750 113.614 C 99.266 113.163, 110.124 112.693, 113.750 112.921 C 115.142 113.009, 115.550 126.587, 114.223 128.673 C 113.813 129.319, 110.557 130.170, 106.988 130.565 C 103.420 130.961, 99.690 131.576, 98.701 131.932 C 96.981 132.552, 96.985 132.676, 98.784 134.751 C 100.550 136.787, 100.809 136.822, 102.956 135.318 C 105.012 133.878, 105.514 133.868, 107.873 135.225 C 109.318 136.055, 111.062 136.532, 111.749 136.284 C 113.653 135.598, 114.790 139.349, 114.923 146.750 L 115 151 119.750 150.991 C 122.362 150.987, 126.750 150.712, 129.500 150.382 L 134.500 149.781 134.379 123.370 C 134.262 97.760, 134.648 94.248, 137.287 96.887 C 137.899 97.499, 141.010 98, 144.200 98 C 147.400 98, 150 98.448, 150 99 C 150 100.440, 152.696 100.234, 153.265 98.750 C 153.528 98.063, 153.826 92.662, 153.927 86.750 L 154.111 76 148.306 75.907 C 145.113 75.856, 140.525 75.894, 138.111 75.991 C 133.943 76.159, 133.759 76.051, 134.449 73.834 C 134.848 72.550, 135.533 69.925, 135.972 68 C 136.411 66.075, 136.822 65.287, 136.885 66.250 C 136.948 67.213, 137.450 68, 138 68 C 138.550 68, 139 68.675, 139 69.500 C 139 71.235, 143.630 71.609, 144.194 69.919 C 144.392 69.325, 146.117 68.508, 148.027 68.105 C 151.385 67.395, 151.491 67.232, 151.229 63.162 C 151.056 60.467, 151.415 58.778, 152.229 58.466 C 153.157 58.110, 153.443 55.353, 153.290 48.239 L 153.079 38.500 145.790 38.247 C 133.741 37.829, 134.501 38.566, 134.494 27.293 L 134.488 17.500 124.945 17.216 C 119.696 17.060, 115.100 17.233, 114.733 17.600 M 40.446 20.088 C 40.136 20.590, 41.784 21, 44.108 21 C 48.938 21, 49.003 20.422, 44.255 19.682 C 42.470 19.404, 40.756 19.586, 40.446 20.088 M 40.667 25.667 C 39.838 26.495, 39.784 32.451, 40.598 33.264 C 40.927 33.593, 41.827 33.620, 42.598 33.324 C 44.425 32.623, 44.421 29, 42.594 29 C 41.680 29, 41.370 28.300, 41.710 27 C 42.244 24.961, 41.861 24.472, 40.667 25.667 M 45 31.031 C 45 32.114, 45.477 33, 46.059 33 C 46.641 33, 46.864 32.588, 46.553 32.085 C 46.242 31.582, 46.530 30.990, 47.193 30.769 C 47.954 30.515, 47.772 30.126, 46.699 29.715 C 45.455 29.237, 45 29.590, 45 31.031 M 61.532 34.948 C 61.210 35.469, 61.859 35.720, 62.973 35.505 C 64.088 35.290, 65 35.539, 65 36.057 C 65 36.576, 66.125 37, 67.500 37 C 70.293 37, 70.853 35.541, 68.418 34.607 C 66.027 33.690, 62.193 33.879, 61.532 34.948 M 134.516 57.975 C 133.708 59.282, 136.009 60.391, 137.154 59.246 C 137.794 58.606, 137.602 58.061, 136.599 57.676 C 135.755 57.352, 134.817 57.487, 134.516 57.975 M 94.469 60.050 C 93.551 61.536, 94.281 62.062, 95.886 61.071 C 96.745 60.539, 96.848 60.024, 96.176 59.609 C 95.605 59.256, 94.837 59.455, 94.469 60.050 M 142 60 C 140.651 60.872, 141.275 61.430, 143.250 61.118 C 143.662 61.053, 144 61.540, 144 62.200 C 144 63.081, 144.296 63.104, 145.113 62.287 C 145.725 61.675, 145.923 60.685, 145.554 60.087 C 144.733 58.759, 143.951 58.739, 142 60 M 67 63.992 C 64.970 64.479, 64.817 64.714, 66.188 65.241 C 67.706 65.824, 72.980 65.353, 73.770 64.564 C 74.468 63.865, 69.334 63.431, 67 63.992 M 94.694 73.639 C 93.628 74.706, 94.991 76, 97.181 76 C 98.902 76, 99.038 75.751, 98 74.500 C 96.656 72.880, 95.701 72.632, 94.694 73.639 M 243 247.427 C 243 248.354, 243.855 249, 245.083 249 C 247.520 249, 247.176 246.663, 244.667 246.177 C 243.680 245.985, 243 246.495, 243 247.427" stroke="none" fill="black" fill-rule="evenodd"/>
</svg>