<svg xmlns="http://www.w3.org/2000/svg" width="256" height="256" viewBox="0 0 256 256" version="1.1">
	<path d="M 37.637 18.696 C 37.287 19.047, 37 23.308, 37 28.167 L 37 37 31.750 37.188 C 28.862 37.291, 24.834 37.420, 22.797 37.474 C 20.760 37.528, 18.873 37.794, 18.603 38.064 C 18.005 38.662, 17.563 55.896, 18.131 56.465 C 18.354 56.687, 22.803 56.965, 28.018 57.081 L 37.500 57.293 38 47.396 L 38.500 37.500 47.786 37.761 L 57.073 38.023 56.786 28.261 L 56.500 18.500 47.387 18.280 C 42.375 18.159, 37.987 18.346, 37.637 18.696 M 102.750 18.743 L 95 19.084 95 28.542 L 95 38 85.535 38 L 76.070 38 75.785 48.145 L 75.500 58.289 56.790 58.083 L 38.080 57.876 37.790 66.688 L 37.500 75.500 29 75.696 C 24.325 75.804, 19.938 75.917, 19.250 75.946 C 17.798 76.009, 17.471 90.617, 18.872 92.828 C 19.444 93.730, 22.564 94.246, 28.607 94.438 L 37.500 94.721 37.500 122.793 L 37.500 150.864 39.881 151.318 C 41.190 151.568, 45.915 151.711, 50.381 151.636 C 57.056 151.524, 58.433 151.233, 58.123 150 C 57.916 149.175, 57.519 145.238, 57.242 141.250 L 56.737 134 65.868 134 L 75 134 75.045 131.250 C 75.155 124.509, 76.267 117.395, 77.393 116.225 C 78.290 115.294, 80.556 115.131, 85.810 115.619 L 93 116.287 93.137 122.894 C 93.212 126.527, 93.204 130.400, 93.119 131.500 C 92.090 144.768, 91.327 150, 90.421 150 C 89.470 150, 86.209 146.124, 86.726 145.607 C 87.033 145.300, 86.856 144.475, 86.331 143.774 C 85.141 142.185, 85.237 141.100, 86.821 138.250 C 87.508 137.012, 87.717 135.966, 87.285 135.923 C 86.853 135.881, 85.825 135.715, 85 135.554 C 82.569 135.078, 79 136.812, 79 138.468 C 79 139.310, 79.477 140, 80.059 140 C 80.641 140, 80.864 140.412, 80.553 140.915 C 80.242 141.418, 80.501 142, 81.128 142.209 C 81.866 142.455, 81.653 143.204, 80.525 144.333 C 78.867 145.990, 78.896 146.175, 81.106 148.092 C 82.667 149.446, 84.210 149.913, 85.799 149.514 C 87.122 149.182, 87.919 149.323, 87.604 149.832 C 87.293 150.334, 88.718 151.022, 90.770 151.361 C 96.811 152.360, 111.824 152.093, 112.515 150.975 C 112.864 150.412, 113.395 142.424, 113.697 133.225 C 113.999 124.026, 114.528 116.216, 114.873 115.869 C 115.870 114.866, 129.377 113.909, 130.663 114.750 C 131.442 115.259, 132.002 121.432, 132.355 133.397 C 132.645 143.234, 133.246 151.592, 133.691 151.971 C 134.136 152.349, 138.181 152.464, 142.679 152.227 L 150.859 151.795 151.318 148.147 C 151.708 145.045, 151.570 119.082, 151.142 115.210 C 151.037 114.255, 148.790 113.964, 142.462 114.089 C 137.766 114.181, 133.676 114.010, 133.374 113.708 C 133.072 113.405, 132.573 110.383, 132.265 106.991 C 131.658 100.295, 131.617 100.253, 125 99.676 C 119.725 99.216, 118 99.692, 118 101.607 C 118 102.373, 117.601 103, 117.113 103 C 115.669 103, 114.755 97.127, 114.623 87 C 114.507 78.066, 114.619 77.512, 116.500 77.693 C 120.299 78.060, 137.520 77.970, 143.500 77.551 L 149.500 77.132 149.525 68.948 C 149.539 64.218, 149.117 60.627, 148.525 60.439 C 147.961 60.259, 145.025 59.894, 142 59.627 C 135.589 59.061, 133.057 58.234, 132.856 56.643 C 132.777 56.014, 132.664 51.900, 132.606 47.500 L 132.500 39.500 123.500 39 L 114.500 38.500 114.215 28.250 C 113.965 19.252, 113.721 18.025, 112.215 18.201 C 111.272 18.312, 107.013 18.556, 102.750 18.743 M 95.215 48.250 L 95.500 58.500 104.500 58.500 L 113.500 58.500 113.785 48.250 L 114.070 38 104.500 38 L 94.930 38 95.215 48.250 M 76.725 58.608 C 76.326 59.007, 76 63.083, 76 67.667 C 76 73.566, 75.635 76.055, 74.750 76.188 C 74.063 76.292, 70.125 76.405, 66 76.438 L 58.500 76.500 58.349 83.768 C 58.171 92.321, 58.666 92.821, 67.975 93.498 C 74.165 93.949, 75.985 92.889, 75.766 88.958 C 75.721 88.156, 75.756 85.154, 75.842 82.288 L 76 77.075 85.250 76.788 L 94.500 76.500 94.792 69.925 C 94.952 66.308, 94.668 62.258, 94.160 60.925 C 93.307 58.682, 92.645 58.477, 85.344 58.191 C 81.003 58.021, 77.124 58.209, 76.725 58.608 M 244 247.500 C 244 248.325, 244.661 249, 245.469 249 C 246.363 249, 246.712 248.414, 246.362 247.500 C 246.045 246.675, 245.384 246, 244.893 246 C 244.402 246, 244 246.675, 244 247.500" stroke="none" fill="black" fill-rule="evenodd"/>
</svg>