<?xml version="1.0" standalone="no"?>
<!DOCTYPE svg PUBLIC "-//W3C//DTD SVG 1.1//EN" "http://www.w3.org/Graphics/SVG/1.1/DTD/svg11.dtd" >
<svg xmlns="http://www.w3.org/2000/svg" xmlns:svg="http://www.w3.org/2000/svg" xmlns:xlink="http://www.w3.org/1999/xlink" viewBox="0 0 1024 1024"><path d="M326 981L318.8 972.6L377.6 893.6L384.8 879.4L412 831.2L420.2 813.6L438.4 765.2L447 738L514.6 778.8L516.2 792.2L488.8 793.8L475 827.8L461.2 849.6L425.6 896.6L410.4 913.2L391.2 933L369.8 951.8L345.2 968.4ZM877 978L877 939.6L748.6 926.8L770 910.8L898.4 914L885.4 912.8L890 911.8L895 909.6L895.2 908.8L896.2 907.8L897.2 906.8L898.2 902.2L899.2 897L899 -128L975.8 55L982.2 66.2L959.8 76L963 1055.6L963 907.6L959.4 921.8L955.2 934.6L947.6 946.4L939.4 957.2L926.6 965.8L915.8 972.4L902.4 975.8L888.2 977.4ZM169 972L142.6 958.8L137.4 933.4L142.6 892.4L142 858L139.6 827.8L134 800.4L126.6 776L120.8 764.2L118.4 765.8L120.2 761.2L118.8 757.2L103.4 734L89.2 717.6L70.4 700.6L47.6 684.8L55.6 677.2L89.8 687.4L115.2 699.2L137.6 718.6L139 721L279.6 409.2L338.8 297.8L335.8 329.8L185.2 750.2L186 758L182.8 771.4L181.6 783.8L177.2 779.8L184 793.2L195 830.6L200.2 867.2L203.8 908L203 951.6L189.8 968.2ZM644 918L614 916.8L598.6 895.4L598.4 883.4L593 869.2L588 855.2L581.8 841.2L563.8 808L527.4 755.2L517.2 744.6L528.4 739.6L547.4 756.6L565.6 767.2L582.4 780.6L597 792.4L626.4 822.4L635.4 833.8L646.2 849L656 864L663.6 879L662 906ZM725 801L725 -12.6L803 136.2L809.2 147.2L786.8 155.8L790 890.8ZM360 774L360 -97.2L438 86.4L612.2 80L619.4 47.6L683.8 111.8L640.8 127.2L646 801L568 726.4L581 668.4L393.8 677L425 753.8ZM425 655L612.2 655L581 442.6L393.8 478ZM425 457L612.2 457L581 250.6L393.8 285ZM168 451L145.2 431.8L145.4 423L140 413L132.6 401.8L125.6 390.8L115 379.8L103.8 368.8L72.4 344.6L60 335.8L41.4 326L48.6 317.2L96 331L110.8 336.2L128.6 343.4L144.2 351.6L160.2 359.6L173.8 370L186.6 382.4L198.4 394.4L208 407.6L208.4 435L190 452.8ZM425 263L612.2 263L581 69.8L393.8 102ZM239 204L215 186L214.2 177L209 165.8L201.6 154.8L193.4 143.8L184.2 132.8L172.8 121.8L145 97.6L132 87.6L114.6 79.2L122.8 70.2L144.8 79.2L163.8 82.8L181.6 89.2L198.4 96.4L214.2 103.4L229 112.8L242.8 123L255.6 134.2L266.2 146.4L278.4 160.8L278.4 186.8L260 206Z" fill="black"></path></svg>